<svg width="195" height="164" viewBox="0 0 195 164" fill="none" xmlns="http://www.w3.org/2000/svg">
<path d="M128.384 48.9443C128.224 49.4731 128.524 50.0309 129.053 50.1902L138.169 52.9352C138.697 53.0945 139.255 52.7949 139.415 52.2661L142.413 42.3075C142.573 41.7786 143.13 41.479 143.659 41.6383L154.352 44.8581C154.88 45.0173 155.18 45.5751 155.021 46.1039L151.801 56.7963C151.642 57.3251 151.084 57.6247 150.555 57.4655L140.597 54.4667C140.068 54.3074 139.51 54.607 139.351 55.1358L136.352 65.0944C136.193 65.6233 135.635 65.9229 135.106 65.7636L124.414 62.5438C123.885 62.3846 123.585 61.8268 123.744 61.298L126.743 51.3394C126.902 50.8106 126.603 50.2528 126.074 50.0935L116.958 47.3485C116.429 47.1892 115.872 47.4888 115.712 48.0177L112.713 57.9762C112.554 58.5051 111.996 58.8047 111.468 58.6454L100.775 55.4257C100.246 55.2664 99.9468 54.7086 100.106 54.1798L103.326 43.4874C103.485 42.9586 104.043 42.659 104.572 42.8182L114.53 45.8171C115.059 45.9763 115.617 45.6767 115.776 45.1479L118.775 35.1893C118.934 34.6604 119.492 34.3608 120.021 34.5201L130.713 37.7399C131.242 37.8991 131.542 38.4569 131.382 38.9857L128.384 48.9443Z" fill="white"/>
<path fill-rule="evenodd" clip-rule="evenodd" d="M114.966 7.09552C114.967 7.09716 114.968 7.09838 114.97 7.09892L173.595 24.7526C173.597 24.7531 173.599 24.7529 173.6 24.752C173.602 24.7511 173.604 24.751 173.606 24.7515L185.251 28.2582C185.78 28.4174 186.079 28.9752 185.92 29.504L182.92 39.4662C182.761 39.995 183.061 40.5528 183.589 40.7121L193.766 43.7765C194.295 43.9357 194.594 44.4935 194.435 45.0224L159.036 162.577C158.877 163.106 158.319 163.405 157.79 163.246L88.3544 142.337C87.8256 142.178 87.2678 142.477 87.1086 143.006L84.1099 152.964C83.9506 153.493 83.3928 153.793 82.864 153.633L72.7965 150.602C72.2677 150.443 71.7099 150.742 71.5506 151.271L68.5519 161.229C68.3927 161.758 67.8349 162.058 67.306 161.898L20.0353 147.664L9.11932 144.376C8.59049 144.217 8.29088 143.659 8.45013 143.13L11.4486 133.173C11.6079 132.644 11.3083 132.086 10.7794 131.927L0.711925 128.895C0.183097 128.736 -0.11651 128.178 0.0427353 127.649L14.2547 80.4537C14.2637 80.4236 14.2955 80.4066 14.3255 80.4157C14.3556 80.4247 14.3873 80.4077 14.3964 80.3776L21.2544 57.6032C21.4137 57.0744 21.9714 56.7748 22.5003 56.9341L32.4589 59.9329C32.9877 60.0921 33.5455 59.7925 33.7047 59.2637L36.7035 49.3051C36.8628 48.7763 37.4206 48.4767 37.9494 48.6359L47.908 51.6347C48.4368 51.794 48.9946 51.4944 49.1539 50.9655L52.1527 41.0069C52.3119 40.4781 52.8697 40.1785 53.3986 40.3378L63.3571 43.3366C63.886 43.4958 64.4438 43.1962 64.603 42.6674L67.6018 32.7088C67.7611 32.18 68.3189 31.8804 68.8477 32.0396L78.8063 35.0384C79.3351 35.1977 79.8929 34.8981 80.0521 34.3692L86.8926 11.6533C86.9016 11.6232 86.9334 11.6062 86.9634 11.6152C86.9935 11.6243 87.0252 11.6072 87.0343 11.5772L90.3061 0.711924C90.4654 0.183096 91.0232 -0.11651 91.552 0.0427354L114.962 7.09211C114.964 7.09265 114.965 7.09388 114.966 7.09552ZM61.5403 55.4958C61.3811 56.0246 60.8233 56.3242 60.2945 56.165L50.3359 53.1661C49.807 53.0069 49.2493 53.3065 49.09 53.8353L46.0912 63.7939C45.9319 64.3227 45.3741 64.6223 44.8453 64.4631L34.8867 61.4643C34.3579 61.305 33.8001 61.6046 33.6409 62.1335L26.788 84.8906C26.779 84.9207 26.7473 84.9377 26.7172 84.9287C26.6871 84.9196 26.6554 84.9367 26.6463 84.9667L16.4466 118.838C16.2874 119.367 16.587 119.925 17.1158 120.084L50.1968 130.046C50.7256 130.205 51.2834 129.905 51.4427 129.377L54.4414 119.418C54.6006 118.89 55.1584 118.59 55.6873 118.749L65.6459 121.748C66.1747 121.907 66.7325 121.608 66.8917 121.079L69.8905 111.12C70.0498 110.591 70.6076 110.292 71.1364 110.451L81.095 113.45C81.6238 113.609 82.1816 113.31 82.3409 112.781L88.694 91.683C88.8532 91.1541 88.5536 90.5964 88.0248 90.4371L78.8 87.6593C78.2712 87.5 77.7134 87.7996 77.5541 88.3284L74.5494 98.3067C74.3901 98.8356 73.8323 99.1352 73.3035 98.9759L50.7375 92.1806C50.2087 92.0214 49.9091 91.4636 50.0683 90.9348L56.8695 68.3491C57.0288 67.8202 57.5866 67.5206 58.1154 67.6799L68.074 70.6787C68.6028 70.8379 69.1606 70.5383 69.3198 70.0095L75.679 48.8917C75.8383 48.3629 75.5386 47.8051 75.0098 47.6458L65.785 44.868C65.2562 44.7087 64.6984 45.0083 64.5391 45.5372L61.5403 55.4958ZM81.9273 73.806C81.768 74.3348 82.0676 74.8926 82.5964 75.0518L91.8213 77.8297C92.3501 77.9889 92.9079 77.6893 93.0671 77.1605L96.0659 67.2019C96.2252 66.6731 96.783 66.3735 97.3118 66.5327L108.004 69.7525C108.533 69.9117 108.833 70.4695 108.673 70.9984L105.675 80.957C105.515 81.4858 105.815 82.0436 106.344 82.2028L116.302 85.2016C116.831 85.3609 117.131 85.9187 116.972 86.4475L110.176 109.013C110.017 109.542 109.459 109.842 108.93 109.682L98.9719 106.684C98.4431 106.524 97.8853 106.824 97.726 107.353L94.9481 116.578C94.7888 117.107 95.0884 117.665 95.6172 117.824L140.463 131.328C140.992 131.487 141.55 131.188 141.709 130.659L169.515 38.3189C169.674 37.7901 169.375 37.2323 168.846 37.0731L110.44 19.4854C110.438 19.4848 110.437 19.4836 110.436 19.482C110.435 19.4803 110.433 19.4791 110.432 19.4786L100.254 16.4138C99.7252 16.2546 99.1674 16.5542 99.0082 17.083L81.9273 73.806ZM90.3344 89.2875C90.1752 89.8164 90.4748 90.3742 91.0036 90.5334L100.119 93.2785C100.648 93.4377 101.206 93.1381 101.365 92.6093L104.143 83.3848C104.302 82.856 104.003 82.2982 103.474 82.139L94.3581 79.3939C93.8292 79.2347 93.2714 79.5343 93.1122 80.0631L90.3344 89.2875Z" fill="white"/>
</svg>
