<?xml version="1.0" ?>
<!-- Uploaded to: SVG Repo, www.svgrepo.com, Generator: SVG Repo Mixer Tools -->
<svg fill="#000000" width="800px" height="800px" viewBox="0 0 32 32" xmlns="http://www.w3.org/2000/svg">
<title/>
<g id="Dribble">
<path d="M26.39,30H5.6a3.32,3.32,0,0,1-2.45-1,3.38,3.38,0,0,1-1-2.48V5.5A3.37,3.37,0,0,1,3.15,3,3.32,3.32,0,0,1,5.6,2H26.39a3.32,3.32,0,0,1,2.46,1,3.37,3.37,0,0,1,1,2.47v21a3.38,3.38,0,0,1-1,2.48A3.32,3.32,0,0,1,26.39,30ZM25,15.37a9.15,9.15,0,0,0-8.57-8.66H15.36a9.16,9.16,0,0,0-8.53,8.62v1.11q1,7.65,8.53,8.6h1.09A9.14,9.14,0,0,0,25,16.44ZM10.15,21.1a7.49,7.49,0,0,1-2-5.3v-.14a26.77,26.77,0,0,0,7.77-1.1H16a5.59,5.59,0,0,0,.75,1.3A12,12,0,0,0,10.15,21.1Zm5.31-7.83a25.58,25.58,0,0,1-7.12,1,7.67,7.67,0,0,1,4.22-5.44A46.7,46.7,0,0,1,15.46,13.27Zm3.47,9.79a7.39,7.39,0,0,1-3.47,1,5.91,5.91,0,0,1-4.3-2,10.84,10.84,0,0,1,6.07-4.84A28.62,28.62,0,0,1,18.93,23.06ZM17,12.84q-.93-1.69-2.87-4.58A8,8,0,0,1,16.18,8,6.77,6.77,0,0,1,21,10,8.85,8.85,0,0,1,17,12.84Zm6.67,3a18.35,18.35,0,0,0-3.57-.37,11.68,11.68,0,0,0-1.81.13c-.06-.17-.18-.44-.35-.79a5.75,5.75,0,0,1-.34-.77,10.24,10.24,0,0,0,4.3-3.06A7.64,7.64,0,0,1,23.66,15.8Zm-3.41,6.57a44.64,44.64,0,0,0-1.49-5.57,12.69,12.69,0,0,1,1.81-.14,9.42,9.42,0,0,1,3,.48A7.65,7.65,0,0,1,20.25,22.37Z"/>
</g>
</svg>