<svg width="355" height="323" viewBox="0 0 355 323" fill="none" xmlns="http://www.w3.org/2000/svg">
<path d="M142.937 0.022929L190.352 7.39378L190.356 7.39755L190.36 7.40322L308.999 25.8473L309.003 25.8436L309.009 25.8398L332.618 29.5101C333.666 29.6732 334.385 30.6604 334.223 31.7153L331.096 52.0852C330.935 53.1403 331.654 54.1275 332.702 54.2904L353.373 57.5038C354.421 57.6672 355.139 58.6543 354.977 59.709L318.226 299.211C318.064 300.266 317.082 300.99 316.034 300.827L175.451 278.973C174.402 278.81 173.422 279.532 173.26 280.587L170.135 300.95C169.972 302.004 168.992 302.726 167.944 302.564L147.494 299.384C146.445 299.221 145.463 299.945 145.301 301L142.177 321.361C142.016 322.416 141.033 323.14 139.985 322.977L22.1648 304.659C21.1166 304.497 20.3976 303.509 20.5591 302.454L23.6842 282.094C23.8459 281.039 23.1267 280.052 22.0785 279.889L1.62838 276.709C0.580155 276.546 -0.138894 275.559 0.0226788 274.504L14.7797 178.341C14.7891 178.28 14.8464 178.237 14.9073 178.247C14.9679 178.256 15.0236 178.213 15.0329 178.152L22.1573 131.73C22.3192 130.674 23.3017 129.951 24.3501 130.113L44.5789 133.259C45.6273 133.422 46.6098 132.698 46.7717 131.643L49.8949 111.282C50.0569 110.227 51.0393 109.503 52.0878 109.666L72.3165 112.812C73.3648 112.975 74.3454 112.251 74.5075 111.195L77.6326 90.8331C77.7947 89.7784 78.7756 89.0564 79.8235 89.2189L100.054 92.3624C101.102 92.5254 102.083 91.8029 102.245 90.7482L105.37 70.3858C105.532 69.3309 106.513 68.6072 107.561 68.7697L127.792 71.9151C128.84 72.0781 129.821 71.3542 129.983 70.299L137.088 23.9952C137.098 23.934 137.155 23.8915 137.216 23.9008C137.277 23.9102 137.334 23.8676 137.344 23.8064L140.746 1.63908C140.908 0.583838 141.889 -0.140055 142.937 0.022929Z" fill="white"/>
<path d="M148.37 18L316 39.4546L286.148 254L180.519 243.273L172.864 222.584L183.58 202.662L197.358 165.117L180.519 143.662L165.21 155.922L130 163.584L148.37 18Z" fill="white"/>
<path d="M227.789 85.5447C227.627 86.5999 228.345 87.5875 229.394 87.7505L247.918 90.6303C248.967 90.7933 249.948 90.07 250.11 89.0147L253.234 68.6531C253.396 67.5979 254.378 66.8746 255.426 67.0375L277.141 70.4133C278.189 70.5762 278.908 71.5638 278.746 72.619L275.392 94.4751C275.23 95.5304 274.249 96.2537 273.2 96.0907L252.97 92.9458C251.922 92.7828 250.941 93.5061 250.779 94.5614L247.654 114.923C247.492 115.978 246.511 116.702 245.463 116.539L223.748 113.163C222.7 113 221.981 112.012 222.143 110.957L225.268 90.5954C225.429 89.5402 224.711 88.5526 223.662 88.3896L205.138 85.5098C204.089 85.3468 203.108 86.0702 202.946 87.1254L199.822 107.487C199.66 108.542 198.679 109.266 197.63 109.103L175.915 105.727C174.867 105.564 174.148 104.576 174.31 103.521L177.664 81.665C177.826 80.6097 178.807 79.8864 179.856 80.0494L200.086 83.1943C201.134 83.3573 202.115 82.634 202.277 81.5787L205.402 61.2171C205.564 60.1619 206.545 59.4386 207.593 59.6016L229.308 62.9773C230.356 63.1403 231.075 64.1278 230.913 65.1831L227.789 85.5447Z" fill="black"/>
<path fill-rule="evenodd" clip-rule="evenodd" d="M190.355 7.39865C190.355 7.40087 190.356 7.40294 190.359 7.40328L308.999 25.8473C309.001 25.8477 309.003 25.8458 309.003 25.8436C309.003 25.8413 309.006 25.8394 309.009 25.8398L332.618 29.5101C333.666 29.6731 334.384 30.6608 334.222 31.716L331.096 52.0852C330.935 53.1403 331.654 54.1275 332.702 54.2904L353.372 57.5042C354.421 57.6672 355.139 58.6538 354.977 59.709L318.225 299.211C318.063 300.267 317.082 300.99 316.034 300.827L175.451 278.973C174.402 278.81 173.421 279.533 173.259 280.588L170.135 300.95C169.972 302.004 168.992 302.726 167.944 302.564L147.492 299.385C146.444 299.222 145.463 299.945 145.301 301L142.176 321.362C142.015 322.417 141.033 323.14 139.985 322.977L44.2924 308.1L22.1648 304.659C21.1166 304.497 20.3976 303.509 20.5591 302.454L23.6842 282.094C23.8459 281.039 23.1267 280.052 22.0785 279.889L1.62838 276.709C0.580155 276.546 -0.138894 275.559 0.0226788 274.504L14.7797 178.341C14.7891 178.28 14.8464 178.237 14.9073 178.247C14.9681 178.256 15.0243 178.215 15.0337 178.153L22.1573 131.73C22.3192 130.674 23.3007 129.951 24.3491 130.114L44.5789 133.259C45.6273 133.422 46.6086 132.699 46.7705 131.643L49.8949 111.282C50.0569 110.227 51.0382 109.503 52.0866 109.666L72.3165 112.812C73.3648 112.975 74.3454 112.251 74.5075 111.195L77.6326 90.8331C77.7947 89.7784 78.7756 89.0564 79.8235 89.2189L100.054 92.3624C101.102 92.5254 102.083 91.8029 102.245 90.7482L105.37 70.3858C105.532 69.3309 106.513 68.6072 107.561 68.7697L127.792 71.9151C128.84 72.0781 129.821 71.3542 129.983 70.299L137.088 23.9952C137.098 23.934 137.155 23.8915 137.216 23.9008C137.277 23.9102 137.334 23.8676 137.344 23.8064L140.745 1.63852C140.907 0.583276 141.889 -0.140055 142.937 0.022929L190.352 7.39378C190.354 7.39412 190.356 7.39643 190.355 7.39865ZM99.7901 116.656C99.6282 117.711 98.647 118.434 97.5986 118.271L77.3687 115.127C76.3202 114.964 75.3391 115.687 75.1771 116.742L72.0526 137.104C71.8907 138.159 70.9095 138.882 69.8611 138.719L49.6311 135.574C48.5827 135.411 47.6016 136.135 47.4396 137.19L40.3211 183.579C40.3117 183.64 40.2547 183.682 40.1939 183.673C40.133 183.663 40.076 183.705 40.0666 183.766L29.4744 252.792C29.3125 253.847 30.0311 254.835 31.0796 254.998L98.0982 265.416C99.1466 265.579 100.128 264.856 100.29 263.801L103.414 243.44C103.576 242.385 104.557 241.661 105.606 241.824L125.836 244.969C126.884 245.132 127.865 244.409 128.027 243.354L131.152 222.992C131.314 221.937 132.295 221.213 133.343 221.376L153.573 224.521C154.622 224.684 155.603 223.961 155.765 222.906L162.371 179.857C162.533 178.802 161.814 177.814 160.765 177.651L142.02 174.737C140.972 174.574 139.991 175.298 139.829 176.353L136.698 196.755C136.536 197.81 135.555 198.533 134.507 198.37L88.7653 191.259C87.7169 191.096 86.9983 190.109 87.1602 189.053L94.2312 142.974C94.3931 141.919 95.3743 141.196 96.4227 141.359L116.653 144.504C117.701 144.667 118.682 143.943 118.844 142.888L125.456 99.7985C125.618 98.7433 124.9 97.7557 123.851 97.5927L105.106 94.6787C104.058 94.5157 103.077 95.239 102.915 96.2942L99.7901 116.656ZM144.356 146.854C144.194 147.909 144.912 148.897 145.961 149.06L164.706 151.974C165.754 152.137 166.735 151.414 166.897 150.358L170.022 129.997C170.184 128.941 171.165 128.218 172.213 128.381L193.928 131.757C194.977 131.92 195.695 132.907 195.533 133.963L192.409 154.324C192.247 155.379 192.965 156.367 194.014 156.53L214.244 159.675C215.292 159.838 216.011 160.825 215.849 161.881L208.784 207.919C208.622 208.974 207.641 209.698 206.593 209.535L186.363 206.39C185.314 206.227 184.333 206.95 184.171 208.005L181.276 226.873C181.114 227.928 181.832 228.916 182.881 229.079L273.706 243.198C274.754 243.361 275.735 242.638 275.897 241.583L304.769 53.4356C304.931 52.3803 304.212 51.3928 303.164 51.2298L184.933 32.8499C184.931 32.8496 184.93 32.8475 184.93 32.8453C184.93 32.8431 184.929 32.841 184.927 32.8406L164.287 29.6321C163.239 29.4691 162.258 30.1924 162.096 31.2476L144.356 146.854ZM164.892 174.806C164.73 175.861 165.448 176.848 166.497 177.011L185.021 179.891C186.07 180.054 187.051 179.331 187.213 178.276L190.108 159.409C190.27 158.354 189.551 157.366 188.503 157.203L169.978 154.324C168.93 154.161 167.949 154.884 167.787 155.939L164.892 174.806Z" fill="black"/>
</svg>
