<svg width="500" height="500" viewBox="0 0 500 500" fill="none" xmlns="http://www.w3.org/2000/svg">
<path d="M317.568 142.306C317.484 142.852 317.858 143.363 318.404 143.447L346.526 147.791C347.072 147.875 347.583 147.501 347.667 146.955L352.366 116.533C352.45 115.988 352.961 115.613 353.507 115.698L385.931 120.706C386.477 120.79 386.851 121.301 386.767 121.847L381.759 154.271C381.674 154.817 381.164 155.191 380.618 155.106L350.196 150.408C349.65 150.323 349.139 150.698 349.055 151.243L344.356 181.665C344.272 182.211 343.761 182.585 343.215 182.501L310.791 177.493C310.245 177.409 309.871 176.898 309.955 176.352L314.654 145.93C314.739 145.384 314.364 144.873 313.819 144.789L285.696 140.446C285.15 140.361 284.639 140.735 284.555 141.281L279.856 171.703C279.772 172.249 279.261 172.623 278.715 172.539L246.291 167.531C245.746 167.446 245.371 166.936 245.456 166.39L250.464 133.966C250.548 133.42 251.059 133.046 251.605 133.13L282.027 137.829C282.572 137.913 283.083 137.539 283.167 136.993L287.866 106.571C287.95 106.025 288.461 105.651 289.007 105.736L321.431 110.744C321.977 110.828 322.351 111.339 322.267 111.885L317.568 142.306Z" fill="#0B060B"/>
<path fill-rule="evenodd" clip-rule="evenodd" d="M267.334 36.0409C267.334 36.0439 267.336 36.0467 267.339 36.0471L427.318 60.7564C427.321 60.7568 427.324 60.7548 427.324 60.7518C427.325 60.7489 427.328 60.7468 427.331 60.7473L460.738 65.9071C461.283 65.9914 461.657 66.5022 461.573 67.048L456.873 97.4797C456.789 98.0255 457.163 98.5363 457.709 98.6206L488.725 103.411C489.271 103.495 489.645 104.006 489.561 104.552L439.517 428.561C439.432 429.106 438.922 429.481 438.376 429.396L245.664 399.632C245.118 399.547 244.607 399.921 244.523 400.467L239.825 430.888C239.74 431.434 239.229 431.808 238.684 431.724L207.965 426.979C207.419 426.895 206.908 427.269 206.824 427.815L202.125 458.236C202.041 458.782 201.53 459.156 200.984 459.071L70.3772 438.899C70.3767 438.899 70.3763 438.898 70.3764 438.898C70.3765 438.897 70.3761 438.897 70.3756 438.897L38.9663 434.045C38.4205 433.961 38.0464 433.45 38.1307 432.904L42.829 402.485C42.9133 401.94 42.5391 401.429 41.9933 401.344L11.2742 396.6C10.7284 396.515 10.3543 396.005 10.4386 395.459L30.5796 265.056C30.5922 264.974 30.669 264.918 30.7511 264.931C30.8332 264.943 30.91 264.887 30.9227 264.805L40.7716 201.038C40.8559 200.493 41.3667 200.118 41.9125 200.203L72.3344 204.901C72.8802 204.986 73.391 204.612 73.4754 204.066L78.1741 173.644C78.2584 173.098 78.7692 172.724 79.315 172.808L109.737 177.507C110.283 177.591 110.794 177.217 110.878 176.671L115.577 146.249C115.661 145.704 116.172 145.329 116.718 145.414L147.139 150.113C147.685 150.197 148.196 149.823 148.28 149.277L152.979 118.855C153.063 118.309 153.574 117.935 154.12 118.019L184.542 122.718C185.088 122.802 185.599 122.428 185.683 121.882L195.507 58.2751C195.52 58.1931 195.597 58.1368 195.679 58.1495C195.761 58.1622 195.838 58.1059 195.85 58.0238L200.68 26.7524C200.765 26.2066 201.275 25.8325 201.821 25.9168L267.329 36.0347C267.332 36.0352 267.334 36.038 267.334 36.0409ZM144.969 183.987C144.885 184.533 144.374 184.907 143.828 184.822L113.406 180.124C112.861 180.039 112.35 180.414 112.266 180.959L107.567 211.381C107.482 211.927 106.972 212.301 106.426 212.217L76.0039 207.518C75.4581 207.434 74.9473 207.808 74.863 208.354L65.0213 272.074C65.0087 272.156 64.9319 272.212 64.8498 272.199C64.7677 272.187 64.6909 272.243 64.6782 272.325L50.1525 366.371C50.0682 366.917 50.4423 367.428 50.9881 367.512L144.502 381.956C145.048 382.04 145.559 381.666 145.643 381.12L150.342 350.699C150.426 350.153 150.937 349.779 151.483 349.864L181.904 354.562C182.45 354.647 182.961 354.273 183.045 353.727L187.744 323.305C187.828 322.759 188.339 322.385 188.885 322.469L219.307 327.168C219.853 327.252 220.364 326.878 220.448 326.332L229.841 265.516C229.925 264.97 229.551 264.459 229.005 264.375L200.586 259.986C200.04 259.901 199.529 260.275 199.445 260.821L194.738 291.297C194.653 291.843 194.143 292.217 193.597 292.133L128.774 282.121C128.228 282.036 127.854 281.525 127.939 280.98L137.959 216.103C138.043 215.557 138.554 215.183 139.1 215.268L169.522 219.966C170.068 220.051 170.578 219.677 170.663 219.131L180.064 158.26C180.149 157.714 179.775 157.203 179.229 157.119L150.809 152.729C150.263 152.645 149.752 153.019 149.668 153.565L144.969 183.987ZM205.063 224.444C204.979 224.99 205.353 225.501 205.899 225.585L234.319 229.974C234.865 230.059 235.375 229.685 235.46 229.139L240.158 198.717C240.243 198.171 240.754 197.797 241.299 197.881L273.723 202.889C274.269 202.973 274.643 203.484 274.559 204.03L269.86 234.452C269.776 234.998 270.15 235.509 270.696 235.593L301.118 240.292C301.664 240.376 302.038 240.887 301.954 241.433L291.942 306.254C291.857 306.8 291.347 307.174 290.801 307.09L260.379 302.391C259.833 302.307 259.322 302.681 259.238 303.227L254.848 331.647C254.764 332.193 255.138 332.704 255.684 332.788L381.299 352.19C381.845 352.274 382.356 351.9 382.44 351.354L421.858 96.1462C421.942 95.6003 421.568 95.0895 421.022 95.0052L260.023 70.1386C260.02 70.1381 260.018 70.1353 260.019 70.1324C260.019 70.1294 260.017 70.1266 260.014 70.1262L230.611 65.5848C230.066 65.5005 229.555 65.8747 229.47 66.4205L205.063 224.444ZM232.755 261.891C232.671 262.437 233.045 262.948 233.591 263.032L261.713 267.376C262.259 267.46 262.77 267.086 262.854 266.54L267.244 238.122C267.328 237.576 266.954 237.065 266.408 236.981L238.285 232.637C237.74 232.553 237.229 232.927 237.145 233.473L232.755 261.891Z" fill="#0B060B"/>
</svg>
