<?xml version="1.0" encoding="UTF-8"?>
<svg id="Layer_2" data-name="Layer 2" xmlns="http://www.w3.org/2000/svg" viewBox="0 0 128.59 115.02">
  <defs>
    <style>
      .cls-1 {
        fill: #000;
      }

      .cls-1, .cls-2 {
        stroke-width: 0px;
      }

      .cls-2 {
        fill: #fff;
      }
    </style>
  </defs>
  <g id="Layer_1-2" data-name="Layer 1">
    <path class="cls-2" d="M.41,34.56c.78,2.07,2.54,3.54,4.66,3.94.25.05.48.16.66.33.51.48,1.11.87,1.79,1.15.66.27,1.53.8,2.48,2.42l.6,1.02c.04.07.07.14.1.22.34.9.84,1.59,1.18,2.01.05.06.09.12.13.18l.15.25c.14.24.2.5.19.78,0,0,0,0,0,0v.74c-.08,3.78-.16,8.07,1.1,12.18,1,3.27,2.98,6.12,4.83,8.43.33.41.41.97.2,1.46-.06.15-.13.3-.19.45-.89,2.12-1.81,4.31-2.5,6.7-.71,2.5-1.14,5.35-1.29,8.71-.09,2.03.33,4.19,1.28,6.61,1.14,2.88,2.43,5.58,3.76,8.33,3.17,6.56,8.27,10.41,15.14,11.45,1.59.24,3.23.65,4.97,1.08,1.32.33,2.69.67,4.1.95,3.57.71,6.81,1.06,9.86,1.06,2.32,0,4.54-.2,6.72-.61,1.73-.33,3.53-.62,5.28-.9,2.76-.45,5.61-.91,8.46-1.54,6.07-1.34,10.87-4.8,14.9-7.95.35-.27.7-.54,1.05-.81,1.17-.9,2.38-1.82,3.56-2.9.06-.05.11-.11.17-.16,1.69.4,3.34.61,4.97.61,2.91,0,5.7-.64,8.37-1.93.27-.13.64-.27,1.04-.42.47-.18,1.01-.39,1.57-.65,3.34-1.53,5.72-3.66,7.28-6.51.65-1.18,1.55-2.36,2.35-3.35,3.05-3.8,4.95-7.57,5.8-11.51.66-3.07.91-6.31.72-9.38-.12-1.88-.61-3.85-1.5-5.95-.16-.39-.14-.83.05-1.21.65-1.32,1.19-2.63,1.71-3.91.26-.64.51-1.25.76-1.83,2.51-5.81,1.8-11.69.76-16.67-1.02-4.92-3.72-9.62-7.6-13.24-4.17-3.89-9.25-6.6-14.7-7.82-1.04-.23-2.13-.39-3.22-.47-.58-.04-1.07-.43-1.26-.98-.72-2.07-1.93-3.99-3.64-5.76-1.77-1.83-3.73-3.27-5.59-4.59C84.5-.48,76.75-.41,69.45.43c-3.21.37-7.27,1.02-11.34,2.77-.31.13-.66.16-.98.06-.24-.07-.5-.14-.77-.19-.29-.06-.63-.15-.99-.24-1.07-.27-2.39-.62-3.91-.65-5.58-.13-11.56.04-17.51,2.14-4.73,1.67-8.69,4.56-11.78,8.58-.52.68-.89,1.41-1.14,2.1-.33.89-1.42,1.21-2.19.66-1.76-1.24-4.17-1.61-6.22-.78-1.42.58-2.56,1.73-3.19,3.25-.29.69-.84,2.36-.35,4.23-.02.02-.04.05-.06.08-1.69,2.16-2.99,3.51-4.63,3.98-1.02.29-1.95.87-2.7,1.66-1.64,1.74-2.14,4.23-1.28,6.49Z"/>
    <g>
      <path class="cls-1" d="M24.64,34.16c-3.46,1.47-5.66,4.23-7.53,7.19-.97,1.53-1.88,3.41-1.91,5.14-.07,3.93-.22,8.08.9,11.76.99,3.25,3.42,6.21,5.68,8.9,1.89,2.25,5.21,1,6.02-1.87,1.15-4.08,1.5-8.27,2.02-12.45.53-4.21,1.23-8.41,2.14-12.55.28-1.27,1.39-2.42,2.31-3.47,2.03-2.34,4.88-3.39,7.69-4.37,2.93-1.03,5.9-2.19,8.94-2.61,2.75-.38,5.65-.04,8.43.38,5.01.74,9.7,2.59,14.33,4.62,4.21,1.84,6.63,5.11,8.25,9.19.58,1.46,1.21,2.91,1.88,4.33,1.56,3.31,1.52,6.66.77,10.18-.36,1.7-.21,3.58.09,5.31.11.64,1.26,1.31,2.06,1.57,3.06.99,7.38-1.01,8.78-3.93.1-.2.21-.4.26-.62.17-.73.09-1.86.53-2.11,1.14-.65,2.48-1.05,3.78-1.29,1.1-.2,2.29.11,3.39-.07,3.37-.54,5.49,1.32,6.9,3.88,1.27,2.29,2.19,4.84,2.85,7.38.58,2.24.12,4.54-1.46,6.4-1.57,1.83-3.03,3.84-4.91,5.27-1.41,1.07-3.41,1.39-5.16,1.98-1.38.46-2.78.9-4.2,1.22-1.73.38-2.39,1.52-2.88,3.11-.76,2.47-1.86,4.84-2.66,7.3-.14.43.37,1.45.81,1.63,4.42,1.77,8.88,2.17,13.33.02.92-.44,1.9-.74,2.83-1.17,2.1-.96,3.86-2.28,5.01-4.39.84-1.53,1.9-2.95,3-4.32,2.33-2.9,4.17-6.09,4.95-9.69.58-2.68.81-5.52.64-8.26-.13-2.01-.92-4.08-1.85-5.91-.64-1.27-.51-1.88.18-3.06,1.3-2.22,2.15-4.7,3.18-7.08,1.99-4.61,1.4-9.47.45-14.04-.85-4.09-3.14-7.94-6.27-10.86-3.59-3.35-7.91-5.71-12.75-6.8-1.95-.44-4.08-.53-6.07-.28-1.62.2-2.22-.57-2.2-1.69.05-2.88-1.15-5.2-3.02-7.13-1.5-1.55-3.28-2.86-5.05-4.11-5.88-4.16-12.51-4.09-19.27-3.32-4.19.48-8.22,1.3-12.02,3.31-.81.43-2.28-.39-3.44-.63-1.37-.28-2.73-.78-4.1-.81-5.51-.13-11.01.06-16.28,1.92-3.92,1.38-7.18,3.78-9.71,7.08-.39.5-.58,1.25-.63,1.9-.25,3.55-.44,7.11-.63,10.67-.14,2.52.16,4.96,1.62,7.24Z"/>
      <path class="cls-1" d="M24.33,69.93c-1.01-.66-1.86-.74-2.36.5-1.17,2.92-2.53,5.78-3.39,8.79-.72,2.51-1.02,5.19-1.14,7.81-.07,1.52.38,3.14.95,4.58,1.12,2.83,2.43,5.58,3.76,8.32,2.36,4.89,3.05,4.74,7.95,6.95,2.72,1.18,10.12,3.41,13.38,4.06,5.02,1,10.07,1.42,15.18.46,4.72-.88,9.49-1.48,14.17-2.51,5.09-1.12,9.27-4.09,13.31-7.25,1.52-1.18,3.08-2.32,4.5-3.61.38-.34.3-1.19.44-1.8-.58.12-1.32.04-1.71.38-6.98,6.08-14.56,11.01-24,12.13-6.17.73-12.36,1.8-18.6.76-1.61-.27-3.19-.76-4.76-1.23-2.92-.87-5.9-1.61-8.7-2.77-2.27-.95-3.56-1.04-5.47-2.35-2.16-1.72-3.79-4.11-4.54-5.97-1.1-2.72-2.3-5.41-3.16-8.2-1.49-4.87.02-9.44,1.85-13.91.7-1.7,1.53-3.35,2.35-5.12Z"/>
      <path class="cls-1" d="M78.01,72.97c1.58,2.4,3.33,4.71,4.7,7.22,1.63,3,1.93,6.33.62,9.5-.71,1.73-1.98,3.3-3.27,4.7-3.56,3.89-7.95,6.45-13.19,7.31-4.41.72-8.86,1.25-13.29,1.82-.77.1-1.57.01-2.76.01-.1-2.78-.19-5.41-.28-8.05-.13-4.01-.32-8.03-.36-12.04-.02-1.38-.68-1.59-1.58-1.54v22.01c-5.5-1.69-11.18-3.44-16.93-5.21,1.62-3.74,3.04-7.04,4.46-10.34.18-.41.34-.84.43-1.28.5-2.63,1.11-5.21,2.9-7.34.31-.37.38-.92.61-1.5-.58-.23-1.13-.44-1.6-.63-2.14,2.8-3.03,6.02-3.98,9.31-1.04,3.6-2.8,7-4.34,10.45-.65,1.45-.39,2.36,1.13,2.89,3.79,1.3,7.61,2.55,11.37,3.94,6.35,2.34,12.68,1.21,19.1.32,5.05-.7,9.88-1.79,14.32-4.36,2.63-1.52,4.83-3.47,6.59-5.93.79-1.1,1.7-2.15,2.3-3.35,2.33-4.63.62-12.21-3.42-15.53-1.09-.9-2.19-1.8-3.28-2.69-.09.1-.18.21-.26.31Z"/>
      <path class="cls-1" d="M63.84,79.69c.74,2.66,1.32,5.18,2.13,7.63,1.25,3.74,2.64,7.43,4.01,11.13.1.27.53.41.81.61.2-.37.62-.76.57-1.09-.19-1.28-.43-2.57-.83-3.8-1.13-3.42-2.39-6.8-3.51-10.23-.52-1.6-.83-3.26-1.26-5.01,4.11-1.28,7.39-5.16,12.3-3.54-.87-2.34-1.82-2.92-4.13-2.18-1.71.55-3.34,1.37-5.02,2.03-3.82,1.51-7.59,3.18-11.49,4.43-2.9.93-5.77,0-8.56-1.14-4.39-1.8-8.77-3.67-13.3-5.03-3.57-1.07-7.26-.5-9.77,2.59-1.39,1.7-2.3,3.89-3.05,5.99-.84,2.35-1.16,4.91-.13,7.31.75,1.74,1.82,3.35,2.81,4.97.7,1.15,1.52,2.22,2.71,3.25-.11-.56-.13-1.16-.35-1.69-1.18-2.9-2.59-5.73-3.54-8.7-.39-1.23-.14-2.85.31-4.12.72-2.04,1.5-4.26,2.89-5.84,2.72-3.08,6.35-2.49,9.78-1.32,3.84,1.31,7.6,2.84,11.39,4.27,1.31.49,2.59,1.14,3.95,1.45,3.89.89,7.5-.24,11.28-1.98Z"/>
      <path class="cls-1" d="M64.15,46.1c-3.11-.67-4.69,1.11-6.2,3.03l-.39-.21c.18-.69.21-1.48.57-2.06,1.01-1.62,2.09-3.21,3.28-4.7.38-.48,1.13-.77,1.77-.93,4.21-1.03,9.54,1.01,12.03,4.59,1.26,1.81,2.42,3.68,3.71,5.46.28.38.94.47,1.43.7.11-.56.46-1.23.27-1.65-.5-1.06-1.26-2-1.89-3-2.06-3.27-4.51-6.29-8.32-7.38-2.43-.69-5.12-.67-7.68-.56-1.74.07-2.82,1.53-3.96,2.88-2.54,3-3.78,6.37-3.84,10.23-.03,2.03.29,2.33,2.33,2.44.45.02.91,0,1.36-.01,3.18-.01,3.89-.46,4.72-3.55.45-1.67.54-3.44.82-5.29Z"/>
      <path class="cls-1" d="M31.53,53.84c1.65.2,2.87.45,4.1.44.54,0,1.44-.46,1.54-.86.48-1.97.81-3.98,1.05-5.99.07-.57-.21-1.48-.62-1.71-.42-.23-1.25.07-1.81.33-.65.3-1.21.8-2.3,1.08.26-1.06.3-2.24.83-3.14,2.56-4.35,6.27-5.45,11.02-3.57,2.41.96,3.2,3.04,3.97,5.18.28.79.33,1.67.67,2.42.18.4.75.63,1.15.94.28-.44.81-.88.82-1.32.07-7.16-8.95-12.54-15.17-9.04-2.6,1.47-3.7,4.12-4.27,6.82-.58,2.74-.66,5.58-.96,8.43Z"/>
      <path class="cls-1" d="M72.53,68.55c-1.59-1.5-2.96-2.93-4.48-4.17-1.49-1.22-2.43-1-3.77.38-.44.46-1.14.66-1.72.99-1.19.69-2.75,1.18-2.61,2.92.16,2.1,1.42,3.1,3.65,3.23,3.38.19,6.04-1.46,8.93-3.35Z"/>
      <path class="cls-1" d="M38.94,70.59c2.62-.19,4.39-.39,5.53-2.13.99-1.51.98-2.55-.45-3.64-1.29-.99-2.76-1.74-4.19-2.52-.23-.12-.75.05-.99.26-1.44,1.24-2.83,2.54-4.25,3.8-1.17,1.04-1.17,1.89.24,2.58,1.53.75,3.18,1.28,4.12,1.65Z"/>
      <path class="cls-1" d="M65.29,46.07c.41,3,.52,5.8,2.18,8.13.42.59,1.28,1.09,2,1.17,1.33.15,2.71.05,4.04-.12,1.37-.17,1.6-.83.88-1.98-.8-1.27-1.52-2.61-2.42-3.82-1.57-2.12-3.84-2.99-6.68-3.39Z"/>
      <path class="cls-1" d="M73.07,67.65c2.25-2.75,3.14-5.85,3.42-9.05.19-2.2-1.18-2.77-3.1-1.61-.05.03-.1.05-.14.09-1.33,1.12-2.65,2.24-3.97,3.36.89,1.98,1.75,3.96,2.68,5.92.21.43.65.76,1.12,1.29Z"/>
      <path class="cls-1" d="M49.02,58.23c-.48-.83-.8-1.99-1.29-2.08-.87-.15-2.09.08-2.76.64-2.62,2.18-2.66,5.08-.32,7.65,1.06,1.16,2.02,1.19,2.6-.23.77-1.88,1.18-3.92,1.78-5.99Z"/>
      <path class="cls-1" d="M14.28,21.17c-.37-1-.59-1.89-1.03-2.64-.17-.29-.94-.48-1.29-.34-.26.1-.49.9-.36,1.23.8,1.92-.05,3.58-1.09,4.91-2.04,2.62-4.29,5.11-7.7,6.1-.41.12-.65.83-.97,1.27.51.16,1.06.55,1.51.45,2.57-.55,4.61-2.06,6.36-3.95,1.15-1.25,2.37-2.45,3.32-3.84.64-.93.86-2.14,1.25-3.19Z"/>
      <path class="cls-1" d="M55.63,59.61c.72,2.06,1.36,4.15,2.21,6.16.42,1.01,1.31.92,1.77-.02.78-1.62,1.44-3.31,2.03-5.01.13-.37-.08-1.07-.38-1.35-.96-.87-1.99-1.68-3.08-2.38-.95-.61-1.64-.01-2.02.83-.22.49-.19,1.1-.28,1.65-.08.04-.17.08-.25.12Z"/>
      <path class="cls-1" d="M39.54,46.16c-.09.69-.28,1.24-.21,1.76.3,2.07.7,4.12,1.03,6.18.16,1.01.65,1.47,1.7,1.42,1.38-.06,2.76-.01,4.2-.01-.43-2.7-4.6-8.48-6.73-9.35Z"/>
      <path class="cls-1" d="M31.14,56.2c.08,1.53.06,3.08.28,4.6.19,1.38.6,2.75,1,4.09.11.36.49.82.81.88.29.05.87-.31.98-.61.66-1.9,1.26-3.82,1.78-5.76.08-.3-.26-.87-.57-1.09-1.18-.83-2.42-1.58-3.63-2.35-.21.08-.43.15-.64.23Z"/>
      <path class="cls-1" d="M20.01,31.92c-1.56-1.14-2.65-.55-3.93.6-2.53,2.28-2.34,5.43-2.99,8.32-.08.37.56.91.86,1.37.36-.36.95-.67,1.03-1.08.22-1.21.03-2.51.39-3.66.36-1.14,1.06-2.24,1.84-3.16.77-.91,1.83-1.59,2.8-2.4Z"/>
      <path class="cls-1" d="M21.73,30.54c-1.27-1.1-2.65-2.09-3.79-3.31-1.17-1.25-2.1-2.71-3.18-4.14-1.67,3.06,2.26,7.56,6.97,7.45Z"/>
      <path class="cls-1" d="M11.97,38.9c1.3-2.69-.36-3.92-1.73-5.19-1.52-1.42-2.99-1.48-5.37-.25,3.21.74,5.41,2.58,7.1,5.45Z"/>
    </g>
  </g>
</svg>