<svg width="224" height="93" viewBox="0 0 224 93" fill="none" xmlns="http://www.w3.org/2000/svg">
<path d="M223.828 47.8149C223.828 47.8195 223.824 47.8232 223.82 47.8232C223.815 47.8232 223.812 47.827 223.812 47.8315V72.7637C223.812 83.8094 214.857 92.7637 203.812 92.7637H93.9463C82.9006 92.7637 73.9463 83.8094 73.9463 72.7637V67.8232C73.9463 56.7775 64.992 47.8232 53.9463 47.8232H20C8.9543 47.8232 0 38.8689 0 27.8232V20C0 8.95431 8.95431 0 20 0H203.828C214.874 0 223.828 8.95431 223.828 20V47.8149Z" fill="#D9D9D9"/>
<path d="M5.73657 24.0049C5.73657 13.7536 14.0469 5.44336 24.2981 5.44336H63.044C73.2953 5.44336 81.6056 13.7536 81.6056 24.0049C81.6056 34.2561 73.2953 42.5664 63.0441 42.5664H24.2981C14.0469 42.5664 5.73657 34.2561 5.73657 24.0049Z" fill="white"/>
<path d="M88.6031 24.0049C88.6031 13.7536 96.9134 5.44336 107.165 5.44336H200.651C210.902 5.44336 219.212 13.7536 219.212 24.0049C219.212 34.2561 210.902 42.5664 200.651 42.5664H107.165C96.9134 42.5664 88.6031 34.2561 88.6031 24.0049Z" fill="white"/>
<path d="M78.5907 68.3701C78.5907 58.1189 86.901 49.8086 97.1522 49.8086H200.651C210.902 49.8086 219.212 58.1189 219.212 68.3701C219.212 78.6214 210.902 86.9316 200.651 86.9316H97.1522C86.901 86.9316 78.5907 78.6214 78.5907 68.3701Z" fill="white"/>
</svg>
