<svg width="102" height="95" viewBox="0 0 102 95" fill="none" xmlns="http://www.w3.org/2000/svg">
<path d="M74.7438 8.13159C74.5933 8.28213 74.4427 8.54483 74.4634 8.7426C74.6258 10.2568 74.6494 11.9452 75.3017 13.3296C75.7415 14.2594 76.1813 15.1981 76.7392 16.057C77.5952 17.3646 78.5457 18.5483 79.1951 19.9651C79.8179 21.32 80.5617 22.6217 81.2524 23.95C81.3262 24.0946 81.3941 24.2452 81.3646 24.4606C81.22 24.2983 81.0694 24.1359 80.9248 23.9706C78.218 20.8359 75.5467 17.6716 72.7927 14.5811C70.4166 11.9187 67.7364 9.57499 64.9234 7.3848C64.5101 7.06306 64.0939 6.77674 63.5567 7.13685C63.0313 7.49106 62.8188 8.0696 63.0225 8.72489C63.1199 9.03777 63.2704 9.3359 63.4268 9.62517C64.9913 12.5592 66.9483 15.2099 69.1857 17.6598C72.1138 20.8595 75.0479 24.0533 77.5214 27.6338C77.9406 28.2389 78.3391 28.8587 78.6726 29.5642C78.5221 29.4461 78.3656 29.334 78.221 29.2129C75.2397 26.7158 72.2555 24.2245 69.2831 21.7214C68.0936 20.7208 66.9335 19.6847 65.744 18.6841C64.3832 17.5447 62.928 16.55 61.2603 15.9124C60.9946 15.8091 60.5873 15.5109 60.3039 15.5139C59.4656 15.5287 59.2206 16.1633 59.256 16.9957C59.3092 18.3151 59.6486 19.5253 60.5873 20.5082C62.0631 22.0579 63.5508 23.5958 65.0119 25.1543C66.6472 26.8988 68.247 28.6757 69.8912 30.4143C70.8092 31.3884 71.798 32.2975 72.7337 33.2598C73.0554 33.5933 73.3063 34.0007 73.5897 34.3755C73.5454 34.4434 73.4982 34.5084 73.451 34.5763C72.468 34.3431 71.4851 34.1158 70.5022 33.8767C69.5222 33.6406 68.5393 33.4103 67.5622 33.1506C64.7256 32.3979 62.2816 33.1447 60.1091 35.0397C57.0776 37.6815 55.711 42.0058 55.7671 45.9729C55.7759 46.7197 55.8497 47.4901 56.6467 47.8709C57.4732 48.2664 58.4591 47.8857 59.0966 47.3957C60.2065 46.5515 60.2537 44.8631 60.2478 43.4315C60.239 42.0087 60.9592 40.3026 61.6676 39.0924C62.4911 37.6844 64.1087 37.7464 65.989 37.7464C72.3175 38.9478 76.2935 42.6552 78.3332 51.2713C79.0357 53.9899 78.1177 56.2952 75.7917 57.8773C73.0702 59.7281 70.1244 60.1177 67.028 58.9193C65.6229 58.3762 64.5751 57.3962 63.8165 56.0827C62.9014 54.5005 61.6735 52.5347 60.7142 50.982C59.8789 49.6331 58.5889 49.5947 57.2607 50.0611C56.7618 50.2353 56.6378 50.4684 56.7087 51.0145C57.3935 56.2686 59.3534 60.7198 64.4865 63.1167C66.9955 64.2855 69.6786 64.4951 72.4001 64.4863C75.3755 64.4774 78.3568 64.3652 81.3203 64.5394C85.4882 64.7844 89.0745 66.3872 91.7488 69.7256C93.2188 71.5586 93.818 73.7459 94.2667 75.9863C95.344 81.3496 95.8901 91.4268 96.0436 94.9365H6.87144C8.03148 91.4032 11.55 81.5296 13.076 79.4103C14.9946 76.7478 17.3295 74.5606 20.1366 72.884C20.9306 72.4058 21.8014 72.0398 22.6662 71.7003C26.4267 70.2245 30.1489 68.6217 34.1367 67.8424C36.442 67.3908 38.7709 67.0572 41.0733 66.5909C42.0562 66.3901 43.0185 66.0477 43.9453 65.6611C45.1733 65.1445 46.1237 64.259 46.8764 63.155C48.8541 60.2564 49.8842 56.9977 50.5189 53.5914C50.6133 53.0807 50.6753 52.5524 50.6635 52.0329C50.6547 51.472 50.3063 51.1208 49.7632 50.9496C48.4704 50.5481 47.4963 50.9171 46.8971 52.1332C46.2802 53.3848 45.6455 54.6393 45.1496 55.9439C43.6885 59.8048 40.6541 61.6555 36.8582 62.5086C34.1869 63.1078 31.5539 62.7802 29.0095 61.8267C27.392 61.2216 26.0607 60.2299 25.7685 58.3998C25.6563 57.6855 25.7596 56.8708 25.984 56.1742C28.1417 49.4973 32.4601 45.0549 39.3997 43.399C40.2055 43.2042 41.0438 43.0861 41.8732 43.0478C43.7476 42.9651 45.2707 43.7296 46.4632 45.1583C46.9 45.6778 47.3015 47.7499 47.7974 48.2015C48.3907 48.7417 49.1227 48.8893 49.8636 48.8893C50.876 48.8184 51.8796 48.7417 51.8383 47.5078C51.8058 46.5662 51.5372 44.8395 51.2716 43.9392C49.9197 39.3433 45.9702 36.6543 41.091 36.9258C38.7768 37.0528 36.6368 37.7376 34.6237 38.871C34.4407 38.9773 34.0895 39.0245 33.9596 38.9212C33.8297 38.8179 33.7884 38.4489 33.8681 38.2659C34.3905 37.0351 34.916 35.8042 35.5181 34.6146C37.7939 30.1073 40.1553 25.6472 42.3603 21.1075C43.1602 19.4604 43.6236 17.648 44.2169 15.9006C44.5121 15.0298 44.4058 14.5575 43.9424 14.2683C43.2517 13.8344 42.5521 13.8845 41.9175 14.4572C40.9906 15.2866 40.0549 16.1102 39.1812 16.9927C38.6529 17.527 38.2278 18.1646 37.7703 18.7638C35.7365 21.441 33.6526 24.0799 31.6986 26.8161C30.6891 28.2271 29.9187 29.8062 28.9534 31.2998C29.1689 30.68 29.3195 30.0276 29.6087 29.4432C31.8904 24.8739 34.2489 20.343 36.4774 15.7441C37.4131 13.8137 38.0802 11.7534 38.8831 9.758C39.075 9.27982 38.8624 9.02597 38.4817 8.81344C37.7791 8.41791 36.628 8.52122 35.955 9.06434C34.0659 10.5874 32.3538 12.2995 31.058 14.348C28.7114 18.0583 26.4681 21.8336 24.1716 25.5734C23.7849 26.1992 23.3687 26.8102 22.9289 27.3976C22.7548 27.6308 22.4803 27.7902 22.253 27.9821C22.1998 27.9496 22.1467 27.9171 22.0965 27.8847C22.6574 26.4029 23.1592 24.8945 23.7908 23.4452C25.1959 20.2219 26.6776 17.034 28.0915 13.8166C28.2834 13.3768 28.3542 12.8396 28.3247 12.3555C28.2775 11.6501 27.7107 11.3785 27.0732 11.6707C25.8069 12.2493 24.7502 13.1053 23.9886 14.2653C18.764 22.2291 13.5689 30.2106 9.7612 38.9862C8.35617 42.2272 6.99837 45.4888 5.63171 48.7476C4.69306 50.9909 1.98336 57.2958 0.477966 60.7287V0.578079C12.7425 0.581031 100.737 0.610548 101.522 0.598741V52.8623C97.2627 43.768 92.8144 34.7681 87.5869 26.1874C84.5584 21.2137 81.2229 16.423 77.9701 11.5851C77.1849 10.4162 76.1843 9.38608 75.2604 8.31165C75.1541 8.18472 74.8058 8.0696 74.7438 8.13159Z" fill="#C22F12"/>
</svg>
