<svg width="105" height="88" viewBox="0 0 105 88" fill="none" xmlns="http://www.w3.org/2000/svg">
<path d="M68.8891 26.2629C68.8037 26.5467 68.9644 26.846 69.2482 26.9315L74.1397 28.4044C74.4234 28.4899 74.7228 28.3291 74.8082 28.0454L76.4173 22.7017C76.5028 22.4179 76.8021 22.2572 77.0859 22.3426L82.8233 24.0703C83.107 24.1558 83.2678 24.4551 83.1823 24.7388L81.4546 30.4762C81.3692 30.76 81.0699 30.9207 80.7861 30.8353L75.4425 29.2262C75.1587 29.1407 74.8594 29.3015 74.7739 29.5852L73.1648 34.9289C73.0794 35.2127 72.78 35.3734 72.4963 35.288L66.7589 33.5603C66.4751 33.4748 66.3144 33.1755 66.3998 32.8918L68.0089 27.5481C68.0944 27.2644 67.9336 26.965 67.6499 26.8796L62.7584 25.4066C62.4746 25.3212 62.1753 25.4819 62.0899 25.7657L60.4807 31.1094C60.3953 31.3931 60.096 31.5539 59.8122 31.4684L54.0748 29.7408C53.7911 29.6553 53.6303 29.356 53.7157 29.0722L55.4434 23.3348C55.5289 23.0511 55.8282 22.8903 56.112 22.9758L61.4556 24.5849C61.7394 24.6703 62.0387 24.5096 62.1241 24.2258L63.7333 18.8822C63.8187 18.5984 64.118 18.4376 64.4018 18.5231L70.1392 20.2508C70.4229 20.3362 70.5837 20.6355 70.4983 20.9193L68.8891 26.2629Z" fill="white"/>
<path fill-rule="evenodd" clip-rule="evenodd" d="M61.6894 3.80737C61.6892 3.80796 61.6896 3.80857 61.6901 3.80875L93.1506 13.2824C93.1512 13.2826 93.1518 13.2822 93.152 13.2816C93.1521 13.2811 93.1528 13.2807 93.1533 13.2809L99.4035 15.163C99.6872 15.2485 99.848 15.5478 99.7626 15.8315L98.1529 21.1771C98.0674 21.4609 98.2282 21.7602 98.5119 21.8456L103.972 23.49C104.256 23.5754 104.417 23.8747 104.332 24.1585L85.3369 87.2368C85.2514 87.5206 84.9521 87.6813 84.6683 87.5959L47.4099 76.3763C47.1262 76.2909 46.8269 76.4516 46.7414 76.7354L45.1324 82.0789C45.0469 82.3626 44.7476 82.5234 44.4638 82.4379L39.0617 80.8112C38.778 80.7258 38.4787 80.8865 38.3932 81.1703L36.7841 86.5138C36.6987 86.7975 36.3994 86.9583 36.1156 86.8728L10.7507 79.2345L4.89332 77.4705C4.60956 77.385 4.44879 77.0857 4.53424 76.802L6.1432 71.4589C6.22864 71.1751 6.06788 70.8758 5.78412 70.7904L0.38201 69.1636C0.0982467 69.0782 -0.0625178 68.7789 0.0229313 68.4951L7.64889 43.1705C7.65375 43.1544 7.67078 43.1452 7.68691 43.1501C7.70305 43.155 7.72008 43.1458 7.72494 43.1297L11.4049 30.9092C11.4903 30.6255 11.7896 30.4647 12.0734 30.5501L17.417 32.1593C17.7008 32.2447 18.0001 32.084 18.0856 31.8002L19.6947 26.4565C19.7801 26.1728 20.0794 26.012 20.3632 26.0975L25.7069 27.7066C25.9906 27.792 26.2899 27.6313 26.3754 27.3475L27.9845 22.0038C28.07 21.7201 28.3693 21.5593 28.653 21.6448L33.9967 23.2539C34.2805 23.3393 34.5798 23.1786 34.6652 22.8948L36.2743 17.5512C36.3598 17.2674 36.6591 17.1066 36.9429 17.1921L42.2865 18.8012C42.5703 18.8867 42.8696 18.7259 42.955 18.4421L46.6255 6.25302C46.6304 6.23688 46.6474 6.22773 46.6636 6.23259C46.6797 6.23745 46.6967 6.22831 46.7016 6.21217L48.4572 0.38201C48.5427 0.098247 48.842 -0.0625179 49.1257 0.0229313L61.6887 3.806C61.6893 3.80617 61.6896 3.80679 61.6894 3.80737ZM33.0218 29.7784C32.9364 30.0621 32.6371 30.2229 32.3533 30.1375L27.0096 28.5283C26.7259 28.4429 26.4266 28.6036 26.3411 28.8874L24.732 34.2311C24.6465 34.5148 24.3472 34.6756 24.0635 34.5901L18.7198 32.981C18.436 32.8956 18.1367 33.0563 18.0513 33.3401L14.3741 45.5513C14.3693 45.5675 14.3523 45.5766 14.3361 45.5717C14.32 45.5669 14.303 45.576 14.2981 45.5922L8.82506 63.7673C8.73961 64.051 8.90037 64.3503 9.18414 64.4358L26.935 69.7811C27.2188 69.8665 27.5181 69.7058 27.6035 69.422L29.2126 64.0785C29.2981 63.7948 29.5974 63.634 29.8811 63.7194L35.2248 65.3286C35.5086 65.414 35.8079 65.2533 35.8933 64.9695L37.5024 59.6258C37.5879 59.3421 37.8872 59.1813 38.171 59.2668L43.5146 60.8759C43.7984 60.9613 44.0977 60.8006 44.1831 60.5168L47.5922 49.196C47.6776 48.9122 47.5168 48.6129 47.2331 48.5275L42.2831 47.0369C41.9994 46.9515 41.7001 47.1122 41.6146 47.396L40.0023 52.7502C39.9169 53.034 39.6176 53.1948 39.3338 53.1093L27.2251 49.4631C26.9414 49.3776 26.7806 49.0783 26.8661 48.7945L30.5155 36.6753C30.601 36.3915 30.9003 36.2308 31.184 36.3162L36.5277 37.9254C36.8115 38.0108 37.1108 37.85 37.1962 37.5663L40.6085 26.2347C40.6939 25.951 40.5332 25.6516 40.2494 25.5662L35.2995 24.0756C35.0157 23.9902 34.7164 24.1509 34.6309 24.4347L33.0218 29.7784ZM43.9612 39.6034C43.8758 39.8872 44.0365 40.1865 44.3203 40.2719L49.2702 41.7625C49.554 41.8479 49.8533 41.6872 49.9387 41.4034L51.5479 36.0598C51.6333 35.776 51.9326 35.6152 52.2164 35.7007L57.9538 37.4284C58.2375 37.5138 58.3983 37.8131 58.3128 38.0969L56.7037 43.4406C56.6183 43.7243 56.779 44.0236 57.0628 44.1091L62.4065 45.7182C62.6902 45.8037 62.851 46.103 62.7655 46.3867L59.1193 58.4952C59.0339 58.7789 58.7346 58.9397 58.4508 58.8543L53.1072 57.2451C52.8234 57.1597 52.5241 57.3204 52.4386 57.6042L50.948 62.5543C50.8626 62.8381 51.0233 63.1374 51.3071 63.2228L75.3708 70.4691C75.6546 70.5546 75.9539 70.3938 76.0393 70.11L90.9598 20.5615C91.0452 20.2777 90.8845 19.9784 90.6007 19.893L59.2593 10.4552C59.2587 10.455 59.2584 10.4544 59.2585 10.4538C59.2587 10.4532 59.2584 10.4526 59.2578 10.4524L53.7951 8.80746C53.5114 8.72201 53.2121 8.88277 53.1266 9.16654L43.9612 39.6034ZM48.4724 47.9106C48.3869 48.1944 48.5477 48.4937 48.8315 48.5792L53.723 50.0521C54.0067 50.1376 54.306 49.9768 54.3915 49.6931L55.882 44.7433C55.9674 44.4596 55.8067 44.1603 55.5229 44.0748L50.6314 42.6018C50.3477 42.5164 50.0483 42.6771 49.9629 42.9609L48.4724 47.9106Z" fill="white"/>
</svg>
