<svg width="167" height="144" viewBox="0 0 167 144" fill="none" xmlns="http://www.w3.org/2000/svg">
<path d="M36.0833 20.9297C36.0833 22.0343 37.4242 22.9297 39.0783 22.9297H68.202C69.856 22.9297 71.1969 23.8251 71.1969 24.9297V41.0439C71.1969 42.1485 72.5378 43.0439 74.1919 43.0439H92.3052C93.9593 43.0439 95.3002 42.1485 95.3002 41.0439V24.9297C95.3002 23.8251 96.6411 22.9297 98.2952 22.9297H127.347C129.001 22.9297 130.342 22.0343 130.342 20.9297V2C130.342 0.895431 131.683 0 133.337 0H163.43C165.085 0 166.425 0.895431 166.425 2V22.0957C166.425 23.2003 165.085 24.0957 163.43 24.0957H134.378C132.724 24.0957 131.383 24.9911 131.383 26.0957V45.0254C131.383 46.13 130.043 47.0254 128.388 47.0254H104.285C102.631 47.0254 101.29 47.9208 101.29 49.0254V65.1396C101.29 66.2442 99.9493 67.1396 98.2952 67.1396H68.202C66.5479 67.1396 65.207 66.2442 65.207 65.1396V49.0254C65.207 47.9208 63.8661 47.0254 62.212 47.0254H38.1087C36.4546 47.0254 35.1137 46.13 35.1137 45.0254V26.0957C35.1137 24.9911 33.7728 24.0957 32.1187 24.0957H2.99499C1.3409 24.0957 0 23.2003 0 22.0957V2C0 0.89543 1.3409 0 2.99499 0H33.0883C34.7424 0 36.0833 0.895431 36.0833 2V20.9297Z" fill="white"/>
<path d="M36.0834 97.1247C36.0834 98.2293 37.4243 99.1247 39.0784 99.1247H68.2021C69.8562 99.1247 71.1971 100.02 71.1971 101.125V117.239C71.1971 118.344 72.538 119.239 74.1921 119.239H92.3054C93.9595 119.239 95.3004 118.344 95.3004 117.239V101.125C95.3004 100.02 96.6413 99.1247 98.2954 99.1247H127.347C129.002 99.1247 130.342 98.2293 130.342 97.1247V78.195C130.342 77.0905 131.683 76.195 133.337 76.195H163.431C165.085 76.195 166.426 77.0905 166.426 78.195V98.2907C166.426 99.3953 165.085 100.291 163.431 100.291H134.379C132.725 100.291 131.384 101.186 131.384 102.291V121.22C131.384 122.325 130.043 123.22 128.389 123.22H104.285C102.631 123.22 101.29 124.116 101.29 125.22V141.335C101.29 142.439 99.9495 143.335 98.2954 143.335H68.2021C66.548 143.335 65.2071 142.439 65.2071 141.335V125.22C65.2071 124.116 63.8662 123.22 62.2121 123.22H38.1089C36.4548 123.22 35.1139 122.325 35.1139 121.22V102.291C35.1139 101.186 33.773 100.291 32.1189 100.291H2.99518C1.34109 100.291 0.0001828 99.3953 0.0001828 98.2907V78.195C0.0001828 77.0905 1.34109 76.195 2.99518 76.195H33.0884C34.7425 76.195 36.0834 77.0905 36.0834 78.195V97.1247Z" fill="white"/>
</svg>
