<svg width="2133" height="1003" viewBox="0 0 2133 1003" fill="none" xmlns="http://www.w3.org/2000/svg">
<path d="M222.108 321.898V311.91C222.108 309.989 223.581 309.028 226.526 309.028H276.467C304.639 309.028 328.393 320.553 347.73 343.603C367.066 366.525 376.734 403.789 376.734 455.395C376.734 482.03 373.789 507.513 367.898 531.843C362.136 556.046 352.788 574.742 339.854 587.931C327.049 601.121 305.408 607.716 274.931 607.716H225.566C223.261 607.716 222.108 606.627 222.108 604.45V594.654C222.108 591.837 223.709 589.276 226.91 586.971C231.648 583.385 234.017 578.391 234.017 571.989V344.564C234.017 338.033 231.904 333.295 227.678 330.35C223.965 327.66 222.108 324.843 222.108 321.898ZM278.388 331.886V585.434C291.194 585.434 301.118 582.361 308.161 576.214C315.204 570.068 320.326 556.622 323.527 535.877C326.729 515.132 328.329 491.314 328.329 464.423C328.329 435.354 327.113 412.305 324.68 395.273C322.247 378.242 319.173 365.437 315.46 356.857C311.874 348.149 307.392 342.003 302.014 338.417C296.636 334.831 288.76 332.655 278.388 331.886ZM530.976 607.716H399.4C396.326 607.716 394.79 606.179 394.79 603.106V594.654C394.79 591.965 396.903 589.02 401.128 585.818C404.842 582.873 406.699 578.263 406.699 571.989V344.564C406.699 337.905 404.33 332.911 399.592 329.581C396.39 327.404 394.79 324.843 394.79 321.898V312.678C394.79 310.245 396.326 309.028 399.4 309.028H498.13C499.922 309.028 503.316 308.836 508.31 308.452C512.792 308.068 515.609 307.876 516.762 307.876C520.987 307.876 523.1 309.028 523.1 311.333V367.806C523.1 370.751 522.78 372.544 522.14 373.184C521.628 373.696 520.027 373.952 517.338 373.952H510.231C507.158 373.952 505.429 372.159 505.045 368.574C503.636 358.586 501.075 350.07 497.361 343.027C493.776 335.856 486.477 332.27 475.464 332.27H451.262V440.989H460.098C465.604 440.989 469.381 439.964 471.43 437.915C473.479 435.739 476.04 429.08 479.114 417.939C480.138 414.353 480.842 412.369 481.227 411.984C481.611 411.6 482.763 411.408 484.684 411.408H493.136C496.465 411.408 498.13 413.009 498.13 416.21V488.625C498.13 491.698 496.593 493.235 493.52 493.235H484.684C482.763 493.235 481.419 492.787 480.65 491.89C479.882 490.866 478.858 487.857 477.577 482.863C475.272 473.771 472.775 468.264 470.086 466.344C467.397 464.295 463.683 463.27 458.945 463.27H451.262V584.858H477.193C486.797 584.858 493.456 582.617 497.169 578.135C500.883 573.525 505.493 561.04 510.999 540.679C512.28 536.069 514.585 533.764 517.914 533.764H526.174C529.375 533.764 530.976 535.365 530.976 538.566V607.716ZM541.732 321.898V311.91C541.732 309.989 543.205 309.028 546.15 309.028H596.091C624.264 309.028 648.018 320.553 667.354 343.603C686.69 366.525 696.358 403.789 696.358 455.395C696.358 482.03 693.413 507.513 687.522 531.843C681.76 556.046 672.412 574.742 659.479 587.931C646.673 601.121 625.032 607.716 594.555 607.716H545.19C542.885 607.716 541.732 606.627 541.732 604.45V594.654C541.732 591.837 543.333 589.276 546.534 586.971C551.272 583.385 553.641 578.391 553.641 571.989V344.564C553.641 338.033 551.529 333.295 547.303 330.35C543.589 327.66 541.732 324.843 541.732 321.898ZM598.012 331.886V585.434C610.818 585.434 620.742 582.361 627.785 576.214C634.828 570.068 639.95 556.622 643.152 535.877C646.353 515.132 647.954 491.314 647.954 464.423C647.954 435.354 646.737 412.305 644.304 395.273C641.871 378.242 638.798 365.437 635.084 356.857C631.499 348.149 627.017 342.003 621.638 338.417C616.26 334.831 608.385 332.655 598.012 331.886ZM770.886 467.88V571.989C770.886 578.647 773.319 583.642 778.185 586.971C781.515 589.148 783.179 591.709 783.179 594.654V603.298C783.179 606.243 781.515 607.716 778.185 607.716H718.256C715.438 607.716 714.03 606.371 714.03 603.682V594.654C714.03 591.837 715.694 589.276 719.024 586.971C723.89 583.514 726.323 578.519 726.323 571.989V344.564C726.323 338.033 723.89 333.103 719.024 329.773C715.694 327.596 714.03 324.971 714.03 321.898V313.446C714.03 310.501 715.694 309.028 719.024 309.028H769.349C797.777 309.028 819.419 315.431 834.273 328.237C849.127 341.042 856.554 359.546 856.554 383.748C856.554 422.293 838.691 447.199 802.964 458.468C813.464 463.59 821.404 469.417 826.782 475.948C832.288 482.35 836.514 491.826 839.459 504.376L853.481 565.266C855.274 573.077 857.003 578.391 858.667 581.209C860.46 583.898 863.341 586.459 867.311 588.892C868.464 589.66 869.04 590.877 869.04 592.541V603.49C869.04 606.307 867.631 607.716 864.814 607.716H826.398C822.684 607.716 820.315 605.667 819.291 601.569L793.167 495.924C790.35 484.271 787.213 476.716 783.755 473.259C780.426 469.801 776.136 468.008 770.886 467.88ZM770.886 332.27V445.022C784.716 445.022 794.896 440.669 801.427 431.961C807.958 423.253 811.223 407.759 811.223 385.477C811.223 363.708 807.894 349.43 801.235 342.643C794.704 335.728 784.588 332.27 770.886 332.27ZM957.974 611.75C931.21 611.75 911.234 598.304 898.044 571.412C884.983 544.521 878.452 507.321 878.452 459.813C878.452 412.305 885.047 374.656 898.236 346.869C911.554 318.953 930.826 304.995 956.053 304.995C979.743 304.995 998.503 317.864 1012.33 343.603C1026.29 369.214 1033.27 407.182 1033.27 457.508C1033.27 508.858 1026.35 547.402 1012.53 573.141C998.823 598.88 980.639 611.75 957.974 611.75ZM955.861 591.005C961.623 591.005 966.874 587.291 971.612 579.864C976.478 572.437 979.935 552.076 981.984 518.782C984.033 485.488 985.057 454.947 985.057 427.159C985.057 402.06 983.521 381.443 980.447 365.308C977.374 349.046 974.045 338.609 970.459 333.999C966.874 329.261 962.264 326.892 956.629 326.892C951.891 326.892 947.601 328.685 943.76 332.27C940.046 335.856 937.101 342.323 934.924 351.671C932.875 360.891 931.018 379.01 929.354 406.03C927.817 433.049 927.049 461.093 927.049 490.162C927.049 526.401 929.418 552.268 934.156 567.763C938.894 583.257 946.129 591.005 955.861 591.005ZM1099.35 461.542L1055.74 341.682C1053.95 336.816 1050.94 333.039 1046.72 330.35C1043.77 328.429 1042.3 326.252 1042.3 323.819V314.407C1042.3 310.821 1044.03 309.028 1047.48 309.028H1103.19C1107.03 309.028 1108.95 311.013 1108.95 314.983V323.819C1108.95 326.38 1107.16 328.685 1103.57 330.734C1100.5 332.527 1098.96 334.511 1098.96 336.688C1098.96 337.201 1099.09 337.777 1099.35 338.417L1122.4 404.109L1146.79 343.987C1147.56 341.939 1147.94 340.082 1147.94 338.417C1147.94 335.856 1146.21 333.615 1142.76 331.694C1138.66 329.261 1136.61 326.188 1136.61 322.474V314.023C1136.61 310.693 1138.53 309.028 1142.37 309.028H1187.13C1191.1 309.028 1193.08 310.821 1193.08 314.407V323.435C1193.08 326.636 1191.23 328.813 1187.51 329.965C1180.34 332.142 1175.35 336.816 1172.53 343.987L1134.88 438.3L1182.52 570.836C1184.95 577.751 1189.11 583.001 1195 586.587C1198.59 588.764 1200.38 591.325 1200.38 594.27V603.874C1200.38 606.435 1199.23 607.716 1196.92 607.716H1134.3C1130.72 607.716 1128.93 606.051 1128.93 602.722V595.615C1128.93 592.157 1130.59 589.148 1133.92 586.587C1137.89 583.514 1139.88 580.568 1139.88 577.751C1139.88 574.934 1139.24 571.797 1137.95 568.339L1111.83 495.54L1082.44 568.339C1081.29 571.028 1080.71 573.525 1080.71 575.83C1080.71 579.928 1083.47 583.257 1088.97 585.818C1093.2 587.867 1095.31 590.557 1095.31 593.886V602.722C1095.31 606.051 1093.58 607.716 1090.13 607.716H1043.83C1040.12 607.716 1038.26 606.115 1038.26 602.914V594.654C1038.26 591.581 1039.61 589.212 1042.3 587.547C1048.32 583.834 1052.8 578.263 1055.74 570.836L1099.35 461.542ZM1263.38 586.971C1263.38 593.758 1260.95 599.584 1256.08 604.45C1251.22 609.317 1245.39 611.75 1238.61 611.75C1231.82 611.75 1225.99 609.317 1221.13 604.45C1216.39 599.584 1214.02 593.758 1214.02 586.971C1214.02 580.184 1216.39 574.422 1221.13 569.684C1225.99 564.818 1231.82 562.384 1238.61 562.384C1245.52 562.384 1251.35 564.818 1256.08 569.684C1260.95 574.422 1263.38 580.184 1263.38 586.971ZM1278.94 321.898V311.91C1278.94 309.989 1280.42 309.028 1283.36 309.028H1333.3C1361.47 309.028 1385.23 320.553 1404.56 343.603C1423.9 366.525 1433.57 403.789 1433.57 455.395C1433.57 482.03 1430.62 507.513 1424.73 531.843C1418.97 556.046 1409.62 574.742 1396.69 587.931C1383.88 601.121 1362.24 607.716 1331.77 607.716H1282.4C1280.1 607.716 1278.94 606.627 1278.94 604.45V594.654C1278.94 591.837 1280.54 589.276 1283.74 586.971C1288.48 583.385 1290.85 578.391 1290.85 571.989V344.564C1290.85 338.033 1288.74 333.295 1284.51 330.35C1280.8 327.66 1278.94 324.843 1278.94 321.898ZM1335.22 331.886V585.434C1348.03 585.434 1357.95 582.361 1365 576.214C1372.04 570.068 1377.16 556.622 1380.36 535.877C1383.56 515.132 1385.16 491.314 1385.16 464.423C1385.16 435.354 1383.95 412.305 1381.51 395.273C1379.08 378.242 1376.01 365.437 1372.29 356.857C1368.71 348.149 1364.23 342.003 1358.85 338.417C1353.47 334.831 1345.6 332.655 1335.22 331.886ZM1470.83 607.716H1461.23C1458.03 607.716 1456.43 605.987 1456.43 602.53V530.115C1456.43 525.249 1458.16 522.816 1461.61 522.816H1469.87C1472.05 522.816 1473.46 523.584 1474.1 525.121C1474.87 526.529 1475.89 531.587 1477.17 540.295C1482.42 573.845 1494.39 590.621 1513.09 590.621C1522.82 590.621 1530.44 586.395 1535.95 577.943C1541.58 569.492 1544.4 559.247 1544.4 547.21C1544.4 534.789 1541.39 523.264 1535.37 512.635C1529.48 502.007 1518.02 487.665 1500.99 469.609C1487.8 455.779 1478.39 445.086 1472.75 437.531C1467.25 429.848 1462.77 421.204 1459.31 411.6C1455.98 401.996 1454.31 391.432 1454.31 379.907C1454.31 358.65 1459.63 341.17 1470.26 327.468C1481.01 313.767 1494.07 306.916 1509.44 306.916C1516.48 306.916 1524.04 308.9 1532.11 312.87C1535.69 314.663 1538.13 315.559 1539.41 315.559C1540.69 315.559 1542.09 315.047 1543.63 314.023C1545.17 313.126 1547.09 312.678 1549.39 312.678H1556.5C1560.21 312.678 1562.07 314.407 1562.07 317.864V381.443C1562.07 384.645 1560.66 386.245 1557.85 386.245H1549.01C1546.7 386.245 1545.17 385.669 1544.4 384.517C1543.76 383.236 1542.54 378.562 1540.75 370.495C1534.73 342.707 1524.94 328.813 1511.36 328.813C1504.06 328.813 1498.17 331.886 1493.69 338.033C1489.34 344.179 1487.16 351.287 1487.16 359.354C1487.16 368.702 1489.72 378.306 1494.84 388.166C1500.09 397.898 1510.47 410.704 1525.96 426.583C1545.81 446.943 1559.51 464.871 1567.07 480.366C1574.75 495.732 1578.59 512.443 1578.59 530.499C1578.59 554.829 1572.19 574.614 1559.38 589.852C1546.7 605.091 1531.59 612.71 1514.05 612.71C1506.24 612.71 1497.08 610.661 1486.58 606.563C1483.25 605.155 1480.88 604.45 1479.48 604.45C1478.2 604.45 1476.53 605.091 1474.48 606.371C1472.95 607.268 1471.73 607.716 1470.83 607.716ZM1682.89 483.247H1731.3C1734.5 483.247 1736.48 483.631 1737.25 484.399C1738.15 485.04 1738.59 486.512 1738.59 488.817C1738.59 489.842 1738.4 492.083 1738.02 495.54C1737.38 503.864 1737.06 510.778 1737.06 516.285V570.068C1737.06 573.653 1738.02 576.342 1739.94 578.135C1741.48 579.416 1742.24 581.144 1742.24 583.321V590.236C1742.24 592.926 1740.64 595.423 1737.44 597.728C1734.24 599.904 1727.65 602.786 1717.66 606.371C1707.67 609.957 1696.53 611.75 1684.24 611.75C1626.23 611.75 1597.22 564.433 1597.22 469.801C1597.22 442.782 1600.04 416.979 1605.67 392.392C1611.31 367.677 1620.98 346.933 1634.68 330.157C1648.51 313.382 1663.23 304.995 1678.86 304.995C1686.67 304.995 1695.18 307.172 1704.4 311.526C1707.09 312.806 1709.21 313.446 1710.74 313.446C1711.51 313.446 1712.98 312.934 1715.16 311.91C1716.83 311.141 1718.23 310.757 1719.39 310.757H1726.88C1730.46 310.757 1732.26 312.486 1732.26 315.943V379.33C1732.26 383.044 1730.66 384.901 1727.45 384.901H1719.39C1716.83 384.901 1715.29 384.645 1714.78 384.133C1714.39 383.492 1713.37 379.394 1711.7 371.839C1705.3 342.003 1694.1 327.084 1678.09 327.084C1670.41 327.084 1664.07 330.606 1659.07 337.649C1654.08 344.692 1650.49 361.019 1648.32 386.63C1646.27 412.112 1645.24 437.531 1645.24 462.886C1645.24 489.521 1646.27 511.483 1648.32 528.77C1650.36 545.929 1652.8 558.927 1655.62 567.763C1658.43 576.471 1661.76 582.425 1665.6 585.626C1669.57 588.828 1674.18 590.428 1679.43 590.428C1690.7 590.428 1696.34 582.361 1696.34 566.226V524.736C1696.34 517.565 1695.44 512.443 1693.65 509.37C1691.85 506.169 1688.08 503.351 1682.31 500.918C1679.5 499.766 1678.09 498.037 1678.09 495.732V487.665C1678.09 484.719 1679.69 483.247 1682.89 483.247ZM1870.94 470.377V344.564C1870.94 338.033 1868.51 333.103 1863.64 329.773C1860.31 327.596 1858.65 324.971 1858.65 321.898V313.446C1858.65 310.501 1860.31 309.028 1863.64 309.028H1907.05C1909.87 309.028 1911.28 310.373 1911.28 313.062V321.898C1911.28 324.843 1909.68 327.468 1906.47 329.773C1901.48 333.231 1898.98 338.161 1898.98 344.564V602.914C1898.98 607.012 1897.13 609.06 1893.41 609.06H1884.96C1881.12 609.06 1878.43 607.012 1876.89 602.914L1797.37 393.545V571.989C1797.37 578.647 1799.87 583.642 1804.86 586.971C1808.19 589.148 1809.86 591.709 1809.86 594.654V603.298C1809.86 606.243 1808.19 607.716 1804.86 607.716H1761.64C1758.83 607.716 1757.42 606.371 1757.42 603.682V594.654C1757.42 591.837 1759.08 589.276 1762.41 586.971C1767.28 583.514 1769.71 578.519 1769.71 571.989V344.564C1769.71 338.033 1767.28 333.103 1762.41 329.773C1759.08 327.596 1757.42 324.971 1757.42 321.898V313.446C1757.42 310.501 1759.08 309.028 1762.41 309.028H1803.13C1806.08 309.028 1808.06 309.413 1809.09 310.181C1810.11 310.821 1811.14 312.486 1812.16 315.175L1870.94 470.377Z" fill="black"/>
<path d="M910.151 713.015C910.151 717.082 909.117 720.263 907.049 722.558C904.982 724.852 902.278 726 898.938 726C895.598 726 892.86 724.864 890.725 722.592C888.589 720.32 887.521 717.343 887.521 713.663V678.594C887.521 677.435 887.089 676.56 886.226 675.97C885.635 675.561 885.34 675.095 885.34 674.572V673.073C885.34 672.55 885.635 672.289 886.226 672.289H896.859C897.359 672.289 897.609 672.528 897.609 673.005V674.572C897.609 675.095 897.314 675.561 896.723 675.97C895.86 676.56 895.428 677.435 895.428 678.594V714.038C895.428 718.763 896.996 721.126 900.131 721.126C903.562 721.126 905.277 718.354 905.277 712.811V678.594C905.277 677.435 904.845 676.56 903.982 675.97C903.391 675.561 903.096 675.095 903.096 674.572V673.073C903.096 672.55 903.391 672.289 903.982 672.289H911.582C912.082 672.289 912.332 672.528 912.332 673.005V674.572C912.332 675.095 912.036 675.561 911.446 675.97C910.582 676.56 910.151 677.435 910.151 678.594V713.015ZM934.654 700.917V678.594C934.654 677.435 934.223 676.56 933.359 675.97C932.769 675.583 932.473 675.118 932.473 674.572V673.073C932.473 672.55 932.769 672.289 933.359 672.289H941.062C941.561 672.289 941.811 672.528 941.811 673.005V674.572C941.811 675.095 941.527 675.561 940.959 675.97C940.073 676.583 939.63 677.458 939.63 678.594V724.432C939.63 725.159 939.301 725.523 938.642 725.523H937.142C936.461 725.523 935.984 725.159 935.711 724.432L921.602 687.284V718.945C921.602 720.127 922.045 721.013 922.931 721.603C923.522 721.99 923.817 722.444 923.817 722.967V724.5C923.817 725.023 923.522 725.284 922.931 725.284H915.263C914.763 725.284 914.513 725.046 914.513 724.568V722.967C914.513 722.467 914.808 722.012 915.399 721.603C916.262 720.99 916.694 720.104 916.694 718.945V678.594C916.694 677.435 916.262 676.56 915.399 675.97C914.808 675.583 914.513 675.118 914.513 674.572V673.073C914.513 672.55 914.808 672.289 915.399 672.289H922.624C923.147 672.289 923.499 672.357 923.681 672.494C923.862 672.607 924.044 672.902 924.226 673.38L934.654 700.917ZM954.114 718.945C954.114 720.127 954.546 721.013 955.409 721.603C956 721.99 956.296 722.444 956.296 722.967V724.5C956.296 725.023 956 725.284 955.409 725.284H944.776C944.277 725.284 944.027 725.046 944.027 724.568V722.967C944.027 722.467 944.322 722.012 944.913 721.603C945.776 720.99 946.208 720.104 946.208 718.945V678.594C946.208 677.435 945.776 676.56 944.913 675.97C944.322 675.583 944.027 675.118 944.027 674.572V673.073C944.027 672.55 944.322 672.289 944.913 672.289H955.546C956.046 672.289 956.296 672.528 956.296 673.005V674.572C956.296 675.095 956 675.561 955.409 675.97C954.546 676.583 954.114 677.458 954.114 678.594V718.945ZM974.801 676.242V718.945C974.801 720.127 975.233 721.013 976.096 721.603C976.687 721.99 976.982 722.444 976.982 722.967V724.5C976.982 725.023 976.687 725.284 976.096 725.284H965.463C964.963 725.284 964.713 725.046 964.713 724.568V722.967C964.713 722.467 965.009 722.012 965.6 721.603C966.463 720.99 966.895 720.104 966.895 718.945V676.242H965.395C964.282 676.242 963.452 676.663 962.907 677.503C962.385 678.344 961.907 680.196 961.476 683.058C961.43 683.445 961.192 683.638 960.76 683.638H959.431C958.658 683.638 958.272 683.308 958.272 682.65V672.732C958.272 671.96 958.636 671.573 959.363 671.573C959.817 671.573 960.624 671.664 961.783 671.846C963.646 672.141 965.054 672.289 966.008 672.289H978.073C978.686 672.198 979.436 672.073 980.322 671.914C981.686 671.71 982.435 671.607 982.572 671.607C983.185 671.607 983.492 671.891 983.492 672.459V682.65C983.492 683.308 983.196 683.638 982.606 683.638H981.311C980.788 683.638 980.47 683.49 980.356 683.195C980.265 682.899 980.106 682.161 979.879 680.98C979.47 679.026 979.05 677.753 978.618 677.163C978.187 676.549 977.425 676.242 976.335 676.242H974.801ZM1009.63 725.284H986.286C985.741 725.284 985.468 725.012 985.468 724.466V722.967C985.468 722.49 985.843 721.967 986.593 721.399C987.252 720.876 987.581 720.059 987.581 718.945V678.594C987.581 677.412 987.161 676.526 986.32 675.936C985.752 675.549 985.468 675.095 985.468 674.572V672.937C985.468 672.505 985.741 672.289 986.286 672.289H1003.8C1004.12 672.289 1004.72 672.255 1005.61 672.187C1006.41 672.119 1006.91 672.085 1007.11 672.085C1007.86 672.085 1008.23 672.289 1008.23 672.698V682.718C1008.23 683.24 1008.18 683.558 1008.06 683.672C1007.97 683.763 1007.69 683.808 1007.21 683.808H1005.95C1005.41 683.808 1005.1 683.49 1005.03 682.854C1004.78 681.082 1004.33 679.571 1003.67 678.321C1003.03 677.049 1001.74 676.413 999.782 676.413H995.488V695.702H997.056C998.033 695.702 998.703 695.521 999.067 695.157C999.43 694.771 999.884 693.589 1000.43 691.613C1000.61 690.977 1000.74 690.624 1000.8 690.556C1000.87 690.488 1001.08 690.454 1001.42 690.454H1002.92C1003.51 690.454 1003.8 690.738 1003.8 691.306V704.154C1003.8 704.7 1003.53 704.972 1002.99 704.972H1001.42C1001.08 704.972 1000.84 704.893 1000.7 704.734C1000.57 704.552 1000.38 704.018 1000.16 703.132C999.748 701.519 999.305 700.542 998.828 700.201C998.351 699.837 997.692 699.656 996.851 699.656H995.488V721.229H1000.09C1001.79 721.229 1002.97 720.831 1003.63 720.036C1004.29 719.218 1005.11 717.003 1006.09 713.39C1006.31 712.572 1006.72 712.163 1007.31 712.163H1008.78C1009.35 712.163 1009.63 712.447 1009.63 713.015V725.284ZM1011.54 674.572V672.8C1011.54 672.459 1011.8 672.289 1012.32 672.289H1021.18C1026.18 672.289 1030.4 674.334 1033.83 678.424C1037.26 682.49 1038.97 689.102 1038.97 698.258C1038.97 702.984 1038.45 707.506 1037.41 711.822C1036.38 716.117 1034.73 719.434 1032.43 721.774C1030.16 724.114 1026.32 725.284 1020.91 725.284H1012.15C1011.74 725.284 1011.54 725.091 1011.54 724.705V722.967C1011.54 722.467 1011.82 722.012 1012.39 721.603C1013.23 720.967 1013.65 720.081 1013.65 718.945V678.594C1013.65 677.435 1013.28 676.595 1012.53 676.072C1011.87 675.595 1011.54 675.095 1011.54 674.572ZM1021.53 676.345V721.331C1023.8 721.331 1025.56 720.786 1026.81 719.695C1028.06 718.604 1028.97 716.219 1029.53 712.538C1030.1 708.857 1030.39 704.631 1030.39 699.86C1030.39 694.703 1030.17 690.613 1029.74 687.591C1029.31 684.569 1028.76 682.297 1028.1 680.775C1027.47 679.23 1026.67 678.14 1025.72 677.503C1024.76 676.867 1023.37 676.481 1021.53 676.345ZM1064.33 693.112L1071.35 678.594C1071.62 678.049 1071.76 677.526 1071.76 677.026C1071.76 676.685 1071.48 676.311 1070.91 675.902C1070.32 675.493 1070.02 675.05 1070.02 674.572V673.209C1070.02 672.596 1070.32 672.289 1070.91 672.289H1080.96C1081.67 672.289 1082.02 672.596 1082.02 673.209V674.572C1082.02 675.004 1081.93 675.311 1081.75 675.493C1081.59 675.652 1081.19 675.89 1080.55 676.208C1078.19 677.322 1076.45 679.014 1075.34 681.286L1070.02 692.022L1078.54 716.9C1079.18 718.786 1080.28 720.297 1081.85 721.433C1082.62 722.001 1083.01 722.58 1083.01 723.171V724.296C1083.01 724.955 1082.65 725.284 1081.95 725.284H1070.64C1069.91 725.284 1069.54 724.943 1069.54 724.262V723.205C1069.54 722.615 1069.78 722.126 1070.26 721.74C1071.12 721.081 1071.56 720.513 1071.56 720.036C1071.56 719.718 1071.49 719.366 1071.35 718.979L1064.33 698.667V718.945C1064.33 720.104 1064.76 720.99 1065.63 721.603C1066.22 722.012 1066.51 722.467 1066.51 722.967V724.5C1066.51 725.023 1066.22 725.284 1065.63 725.284H1054.99C1054.49 725.284 1054.24 725.046 1054.24 724.568V722.967C1054.24 722.444 1054.54 721.99 1055.13 721.603C1055.99 721.013 1056.42 720.127 1056.42 718.945V678.594C1056.42 677.435 1055.99 676.56 1055.13 675.97C1054.54 675.561 1054.24 675.095 1054.24 674.572V673.073C1054.24 672.55 1054.54 672.289 1055.13 672.289H1065.76C1066.26 672.289 1066.51 672.528 1066.51 673.005V674.572C1066.51 675.095 1066.22 675.561 1065.63 675.97C1064.76 676.56 1064.33 677.435 1064.33 678.594V693.112ZM1094.53 718.945C1094.53 720.127 1094.96 721.013 1095.82 721.603C1096.41 721.99 1096.71 722.444 1096.71 722.967V724.5C1096.71 725.023 1096.41 725.284 1095.82 725.284H1085.19C1084.69 725.284 1084.44 725.046 1084.44 724.568V722.967C1084.44 722.467 1084.73 722.012 1085.32 721.603C1086.19 720.99 1086.62 720.104 1086.62 718.945V678.594C1086.62 677.435 1086.19 676.56 1085.32 675.97C1084.73 675.583 1084.44 675.118 1084.44 674.572V673.073C1084.44 672.55 1084.73 672.289 1085.32 672.289H1095.96C1096.46 672.289 1096.71 672.528 1096.71 673.005V674.572C1096.71 675.095 1096.41 675.561 1095.82 675.97C1094.96 676.583 1094.53 677.458 1094.53 678.594V718.945ZM1119.1 700.917V678.594C1119.1 677.435 1118.67 676.56 1117.8 675.97C1117.21 675.583 1116.92 675.118 1116.92 674.572V673.073C1116.92 672.55 1117.21 672.289 1117.8 672.289H1125.51C1126 672.289 1126.25 672.528 1126.25 673.005V674.572C1126.25 675.095 1125.97 675.561 1125.4 675.97C1124.52 676.583 1124.07 677.458 1124.07 678.594V724.432C1124.07 725.159 1123.74 725.523 1123.09 725.523H1121.59C1120.9 725.523 1120.43 725.159 1120.15 724.432L1106.05 687.284V718.945C1106.05 720.127 1106.49 721.013 1107.37 721.603C1107.97 721.99 1108.26 722.444 1108.26 722.967V724.5C1108.26 725.023 1107.97 725.284 1107.37 725.284H1099.71C1099.21 725.284 1098.96 725.046 1098.96 724.568V722.967C1098.96 722.467 1099.25 722.012 1099.84 721.603C1100.71 720.99 1101.14 720.104 1101.14 718.945V678.594C1101.14 677.435 1100.71 676.56 1099.84 675.97C1099.25 675.583 1098.96 675.118 1098.96 674.572V673.073C1098.96 672.55 1099.25 672.289 1099.84 672.289H1107.07C1107.59 672.289 1107.94 672.357 1108.12 672.494C1108.31 672.607 1108.49 672.902 1108.67 673.38L1119.1 700.917ZM1144.62 703.2H1153.21C1153.78 703.2 1154.13 703.268 1154.27 703.405C1154.43 703.518 1154.51 703.779 1154.51 704.188C1154.51 704.37 1154.47 704.768 1154.41 705.381C1154.29 706.858 1154.23 708.085 1154.23 709.062V718.604C1154.23 719.241 1154.41 719.718 1154.75 720.036C1155.02 720.263 1155.16 720.57 1155.16 720.956V722.183C1155.16 722.66 1154.87 723.103 1154.3 723.512C1153.74 723.898 1152.57 724.409 1150.79 725.046C1149.02 725.682 1147.04 726 1144.86 726C1134.57 726 1129.42 717.605 1129.42 700.814C1129.42 696.02 1129.92 691.442 1130.92 687.08C1131.92 682.695 1133.64 679.014 1136.07 676.038C1138.52 673.062 1141.14 671.573 1143.91 671.573C1145.29 671.573 1146.81 671.96 1148.44 672.732C1148.92 672.959 1149.29 673.073 1149.57 673.073C1149.7 673.073 1149.96 672.982 1150.35 672.8C1150.65 672.664 1150.9 672.596 1151.1 672.596H1152.43C1153.06 672.596 1153.38 672.902 1153.38 673.516V684.762C1153.38 685.421 1153.1 685.751 1152.53 685.751H1151.1C1150.65 685.751 1150.37 685.705 1150.28 685.615C1150.21 685.501 1150.03 684.774 1149.74 683.433C1148.6 678.14 1146.61 675.493 1143.77 675.493C1142.41 675.493 1141.28 676.117 1140.4 677.367C1139.51 678.617 1138.88 681.513 1138.49 686.058C1138.13 690.579 1137.94 695.089 1137.94 699.588C1137.94 704.313 1138.13 708.21 1138.49 711.277C1138.85 714.322 1139.28 716.628 1139.78 718.195C1140.28 719.74 1140.88 720.797 1141.56 721.365C1142.26 721.933 1143.08 722.217 1144.01 722.217C1146.01 722.217 1147.01 720.786 1147.01 717.923V710.561C1147.01 709.289 1146.85 708.38 1146.53 707.835C1146.21 707.267 1145.54 706.767 1144.52 706.335C1144.02 706.131 1143.77 705.824 1143.77 705.415V703.984C1143.77 703.461 1144.06 703.2 1144.62 703.2ZM1157.95 674.572V672.8C1157.95 672.459 1158.21 672.289 1158.73 672.289H1167.59C1172.59 672.289 1176.81 674.334 1180.24 678.424C1183.67 682.49 1185.38 689.102 1185.38 698.258C1185.38 702.984 1184.86 707.506 1183.82 711.822C1182.79 716.117 1181.14 719.434 1178.84 721.774C1176.57 724.114 1172.73 725.284 1167.32 725.284H1158.56C1158.15 725.284 1157.95 725.091 1157.95 724.705V722.967C1157.95 722.467 1158.23 722.012 1158.8 721.603C1159.64 720.967 1160.06 720.081 1160.06 718.945V678.594C1160.06 677.435 1159.69 676.595 1158.94 676.072C1158.28 675.595 1157.95 675.095 1157.95 674.572ZM1167.94 676.345V721.331C1170.21 721.331 1171.97 720.786 1173.22 719.695C1174.47 718.604 1175.38 716.219 1175.94 712.538C1176.51 708.857 1176.8 704.631 1176.8 699.86C1176.8 694.703 1176.58 690.613 1176.15 687.591C1175.72 684.569 1175.17 682.297 1174.51 680.775C1173.88 679.23 1173.08 678.14 1172.13 677.503C1171.17 676.867 1169.78 676.481 1167.94 676.345ZM1203.58 726C1198.83 726 1195.29 723.614 1192.95 718.843C1190.63 714.072 1189.47 707.471 1189.47 699.042C1189.47 690.613 1190.64 683.933 1192.98 679.003C1195.35 674.05 1198.77 671.573 1203.24 671.573C1207.45 671.573 1210.77 673.857 1213.23 678.424C1215.7 682.968 1216.94 689.704 1216.94 698.633C1216.94 707.744 1215.72 714.583 1213.26 719.15C1210.83 723.716 1207.6 726 1203.58 726ZM1203.21 722.319C1204.23 722.319 1205.16 721.66 1206 720.343C1206.87 719.025 1207.48 715.412 1207.84 709.505C1208.21 703.598 1208.39 698.179 1208.39 693.249C1208.39 688.795 1208.12 685.137 1207.57 682.275C1207.03 679.389 1206.43 677.537 1205.8 676.72C1205.16 675.879 1204.34 675.459 1203.34 675.459C1202.5 675.459 1201.74 675.777 1201.06 676.413C1200.4 677.049 1199.88 678.196 1199.49 679.855C1199.13 681.491 1198.8 684.706 1198.51 689.5C1198.23 694.294 1198.1 699.269 1198.1 704.427C1198.1 710.857 1198.52 715.446 1199.36 718.195C1200.2 720.945 1201.48 722.319 1203.21 722.319ZM1222.33 718.945V678.594C1222.33 677.435 1221.9 676.56 1221.03 675.97C1220.44 675.583 1220.15 675.118 1220.15 674.572V673.073C1220.15 672.55 1220.44 672.289 1221.03 672.289H1233.34L1237.19 697.134L1241.04 672.289H1253.48C1253.98 672.289 1254.23 672.528 1254.23 673.005V674.572C1254.23 675.095 1253.93 675.561 1253.34 675.97C1252.48 676.583 1252.05 677.458 1252.05 678.594V718.945C1252.05 720.127 1252.49 721.013 1253.38 721.603C1253.94 721.99 1254.23 722.444 1254.23 722.967V724.5C1254.23 725.023 1253.93 725.284 1253.34 725.284H1243.08C1242.61 725.284 1242.37 725.046 1242.37 724.568V722.967C1242.37 722.467 1242.65 722.012 1243.22 721.603C1244.11 720.99 1244.55 720.104 1244.55 718.945V677.64L1237.19 725.284H1234.46L1227.2 677.64V718.945C1227.2 720.127 1227.63 721.013 1228.5 721.603C1229.09 721.99 1229.38 722.444 1229.38 722.967V724.5C1229.38 725.023 1229.09 725.284 1228.5 725.284H1220.9C1220.4 725.284 1220.15 725.046 1220.15 724.568V722.967C1220.15 722.467 1220.44 722.012 1221.03 721.603C1221.9 720.99 1222.33 720.104 1222.33 718.945Z" fill="black"/>
</svg>
