<svg width="2133" height="1003" viewBox="0 0 2133 1003" fill="none" xmlns="http://www.w3.org/2000/svg">
<path d="M222.108 411.898V401.91C222.108 399.989 223.581 399.028 226.526 399.028H276.467C304.639 399.028 328.393 410.553 347.73 433.603C367.066 456.525 376.734 493.789 376.734 545.395C376.734 572.03 373.789 597.513 367.898 621.843C362.136 646.046 352.788 664.742 339.854 677.931C327.049 691.121 305.408 697.716 274.931 697.716H225.566C223.261 697.716 222.108 696.627 222.108 694.45V684.654C222.108 681.837 223.709 679.276 226.91 676.971C231.648 673.385 234.017 668.391 234.017 661.989V434.564C234.017 428.033 231.904 423.295 227.678 420.35C223.965 417.66 222.108 414.843 222.108 411.898ZM278.388 421.886V675.434C291.194 675.434 301.118 672.361 308.161 666.214C315.204 660.068 320.326 646.622 323.527 625.877C326.729 605.132 328.329 581.314 328.329 554.423C328.329 525.354 327.113 502.305 324.68 485.273C322.247 468.242 319.173 455.437 315.46 446.857C311.874 438.149 307.392 432.003 302.014 428.417C296.636 424.831 288.76 422.655 278.388 421.886ZM530.976 697.716H399.4C396.326 697.716 394.79 696.179 394.79 693.106V684.654C394.79 681.965 396.903 679.02 401.128 675.818C404.842 672.873 406.699 668.263 406.699 661.989V434.564C406.699 427.905 404.33 422.911 399.592 419.581C396.39 417.404 394.79 414.843 394.79 411.898V402.678C394.79 400.245 396.326 399.028 399.4 399.028H498.13C499.922 399.028 503.316 398.836 508.31 398.452C512.792 398.068 515.609 397.876 516.762 397.876C520.987 397.876 523.1 399.028 523.1 401.333V457.806C523.1 460.751 522.78 462.544 522.14 463.184C521.628 463.696 520.027 463.952 517.338 463.952H510.231C507.158 463.952 505.429 462.159 505.045 458.574C503.636 448.586 501.075 440.07 497.361 433.027C493.776 425.856 486.477 422.27 475.464 422.27H451.262V530.989H460.098C465.604 530.989 469.381 529.964 471.43 527.915C473.479 525.739 476.04 519.08 479.114 507.939C480.138 504.353 480.842 502.369 481.227 501.984C481.611 501.6 482.763 501.408 484.684 501.408H493.136C496.465 501.408 498.13 503.009 498.13 506.21V578.625C498.13 581.698 496.593 583.235 493.52 583.235H484.684C482.763 583.235 481.419 582.787 480.65 581.89C479.882 580.866 478.858 577.857 477.577 572.863C475.272 563.771 472.775 558.264 470.086 556.344C467.397 554.295 463.683 553.27 458.945 553.27H451.262V674.858H477.193C486.797 674.858 493.456 672.617 497.169 668.135C500.883 663.525 505.493 651.04 510.999 630.679C512.28 626.069 514.585 623.764 517.914 623.764H526.174C529.375 623.764 530.976 625.365 530.976 628.566V697.716ZM541.732 411.898V401.91C541.732 399.989 543.205 399.028 546.15 399.028H596.091C624.264 399.028 648.018 410.553 667.354 433.603C686.69 456.525 696.358 493.789 696.358 545.395C696.358 572.03 693.413 597.513 687.522 621.843C681.76 646.046 672.412 664.742 659.479 677.931C646.673 691.121 625.032 697.716 594.555 697.716H545.19C542.885 697.716 541.732 696.627 541.732 694.45V684.654C541.732 681.837 543.333 679.276 546.534 676.971C551.272 673.385 553.641 668.391 553.641 661.989V434.564C553.641 428.033 551.529 423.295 547.303 420.35C543.589 417.66 541.732 414.843 541.732 411.898ZM598.012 421.886V675.434C610.818 675.434 620.742 672.361 627.785 666.214C634.828 660.068 639.95 646.622 643.152 625.877C646.353 605.132 647.954 581.314 647.954 554.423C647.954 525.354 646.737 502.305 644.304 485.273C641.871 468.242 638.798 455.437 635.084 446.857C631.499 438.149 627.017 432.003 621.638 428.417C616.26 424.831 608.385 422.655 598.012 421.886ZM770.886 557.88V661.989C770.886 668.647 773.319 673.642 778.185 676.971C781.515 679.148 783.179 681.709 783.179 684.654V693.298C783.179 696.243 781.515 697.716 778.185 697.716H718.256C715.438 697.716 714.03 696.371 714.03 693.682V684.654C714.03 681.837 715.694 679.276 719.024 676.971C723.89 673.514 726.323 668.519 726.323 661.989V434.564C726.323 428.033 723.89 423.103 719.024 419.773C715.694 417.596 714.03 414.971 714.03 411.898V403.446C714.03 400.501 715.694 399.028 719.024 399.028H769.349C797.777 399.028 819.419 405.431 834.273 418.237C849.127 431.042 856.554 449.546 856.554 473.748C856.554 512.293 838.691 537.199 802.964 548.468C813.464 553.59 821.404 559.417 826.782 565.948C832.288 572.35 836.514 581.826 839.459 594.376L853.481 655.266C855.274 663.077 857.003 668.391 858.667 671.209C860.46 673.898 863.341 676.459 867.311 678.892C868.464 679.66 869.04 680.877 869.04 682.541V693.49C869.04 696.307 867.631 697.716 864.814 697.716H826.398C822.684 697.716 820.315 695.667 819.291 691.569L793.167 585.924C790.35 574.271 787.213 566.716 783.755 563.259C780.426 559.801 776.136 558.008 770.886 557.88ZM770.886 422.27V535.022C784.716 535.022 794.896 530.669 801.427 521.961C807.958 513.253 811.223 497.759 811.223 475.477C811.223 453.708 807.894 439.43 801.235 432.643C794.704 425.728 784.588 422.27 770.886 422.27ZM957.974 701.75C931.21 701.75 911.234 688.304 898.044 661.412C884.983 634.521 878.452 597.321 878.452 549.813C878.452 502.305 885.047 464.656 898.236 436.869C911.554 408.953 930.826 394.995 956.053 394.995C979.743 394.995 998.503 407.864 1012.33 433.603C1026.29 459.214 1033.27 497.182 1033.27 547.508C1033.27 598.858 1026.35 637.402 1012.53 663.141C998.823 688.88 980.639 701.75 957.974 701.75ZM955.861 681.005C961.623 681.005 966.874 677.291 971.612 669.864C976.478 662.437 979.935 642.076 981.984 608.782C984.033 575.488 985.057 544.947 985.057 517.159C985.057 492.06 983.521 471.443 980.447 455.308C977.374 439.046 974.045 428.609 970.459 423.999C966.874 419.261 962.264 416.892 956.629 416.892C951.891 416.892 947.601 418.685 943.76 422.27C940.046 425.856 937.101 432.323 934.924 441.671C932.875 450.891 931.018 469.01 929.354 496.03C927.817 523.049 927.049 551.093 927.049 580.162C927.049 616.401 929.418 642.268 934.156 657.763C938.894 673.257 946.129 681.005 955.861 681.005ZM1099.35 551.542L1055.74 431.682C1053.95 426.816 1050.94 423.039 1046.72 420.35C1043.77 418.429 1042.3 416.252 1042.3 413.819V404.407C1042.3 400.821 1044.03 399.028 1047.48 399.028H1103.19C1107.03 399.028 1108.95 401.013 1108.95 404.983V413.819C1108.95 416.38 1107.16 418.685 1103.57 420.734C1100.5 422.527 1098.96 424.511 1098.96 426.688C1098.96 427.201 1099.09 427.777 1099.35 428.417L1122.4 494.109L1146.79 433.987C1147.56 431.939 1147.94 430.082 1147.94 428.417C1147.94 425.856 1146.21 423.615 1142.76 421.694C1138.66 419.261 1136.61 416.188 1136.61 412.474V404.023C1136.61 400.693 1138.53 399.028 1142.37 399.028H1187.13C1191.1 399.028 1193.08 400.821 1193.08 404.407V413.435C1193.08 416.636 1191.23 418.813 1187.51 419.965C1180.34 422.142 1175.35 426.816 1172.53 433.987L1134.88 528.3L1182.52 660.836C1184.95 667.751 1189.11 673.001 1195 676.587C1198.59 678.764 1200.38 681.325 1200.38 684.27V693.874C1200.38 696.435 1199.23 697.716 1196.92 697.716H1134.3C1130.72 697.716 1128.93 696.051 1128.93 692.722V685.615C1128.93 682.157 1130.59 679.148 1133.92 676.587C1137.89 673.514 1139.88 670.568 1139.88 667.751C1139.88 664.934 1139.24 661.797 1137.95 658.339L1111.83 585.54L1082.44 658.339C1081.29 661.028 1080.71 663.525 1080.71 665.83C1080.71 669.928 1083.47 673.257 1088.97 675.818C1093.2 677.867 1095.31 680.557 1095.31 683.886V692.722C1095.31 696.051 1093.58 697.716 1090.13 697.716H1043.83C1040.12 697.716 1038.26 696.115 1038.26 692.914V684.654C1038.26 681.581 1039.61 679.212 1042.3 677.547C1048.32 673.834 1052.8 668.263 1055.74 660.836L1099.35 551.542ZM1263.38 676.971C1263.38 683.758 1260.95 689.584 1256.08 694.45C1251.22 699.317 1245.39 701.75 1238.61 701.75C1231.82 701.75 1225.99 699.317 1221.13 694.45C1216.39 689.584 1214.02 683.758 1214.02 676.971C1214.02 670.184 1216.39 664.422 1221.13 659.684C1225.99 654.818 1231.82 652.384 1238.61 652.384C1245.52 652.384 1251.35 654.818 1256.08 659.684C1260.95 664.422 1263.38 670.184 1263.38 676.971ZM1278.94 411.898V401.91C1278.94 399.989 1280.42 399.028 1283.36 399.028H1333.3C1361.47 399.028 1385.23 410.553 1404.56 433.603C1423.9 456.525 1433.57 493.789 1433.57 545.395C1433.57 572.03 1430.62 597.513 1424.73 621.843C1418.97 646.046 1409.62 664.742 1396.69 677.931C1383.88 691.121 1362.24 697.716 1331.77 697.716H1282.4C1280.1 697.716 1278.94 696.627 1278.94 694.45V684.654C1278.94 681.837 1280.54 679.276 1283.74 676.971C1288.48 673.385 1290.85 668.391 1290.85 661.989V434.564C1290.85 428.033 1288.74 423.295 1284.51 420.35C1280.8 417.66 1278.94 414.843 1278.94 411.898ZM1335.22 421.886V675.434C1348.03 675.434 1357.95 672.361 1365 666.214C1372.04 660.068 1377.16 646.622 1380.36 625.877C1383.56 605.132 1385.16 581.314 1385.16 554.423C1385.16 525.354 1383.95 502.305 1381.51 485.273C1379.08 468.242 1376.01 455.437 1372.29 446.857C1368.71 438.149 1364.23 432.003 1358.85 428.417C1353.47 424.831 1345.6 422.655 1335.22 421.886ZM1470.83 697.716H1461.23C1458.03 697.716 1456.43 695.987 1456.43 692.53V620.115C1456.43 615.249 1458.16 612.816 1461.61 612.816H1469.87C1472.05 612.816 1473.46 613.584 1474.1 615.121C1474.87 616.529 1475.89 621.587 1477.17 630.295C1482.42 663.845 1494.39 680.621 1513.09 680.621C1522.82 680.621 1530.44 676.395 1535.95 667.943C1541.58 659.492 1544.4 649.247 1544.4 637.21C1544.4 624.789 1541.39 613.264 1535.37 602.635C1529.48 592.007 1518.02 577.665 1500.99 559.609C1487.8 545.779 1478.39 535.086 1472.75 527.531C1467.25 519.848 1462.77 511.204 1459.31 501.6C1455.98 491.996 1454.31 481.432 1454.31 469.907C1454.31 448.65 1459.63 431.17 1470.26 417.468C1481.01 403.767 1494.07 396.916 1509.44 396.916C1516.48 396.916 1524.04 398.9 1532.11 402.87C1535.69 404.663 1538.13 405.559 1539.41 405.559C1540.69 405.559 1542.09 405.047 1543.63 404.023C1545.17 403.126 1547.09 402.678 1549.39 402.678H1556.5C1560.21 402.678 1562.07 404.407 1562.07 407.864V471.443C1562.07 474.645 1560.66 476.245 1557.85 476.245H1549.01C1546.7 476.245 1545.17 475.669 1544.4 474.517C1543.76 473.236 1542.54 468.562 1540.75 460.495C1534.73 432.707 1524.94 418.813 1511.36 418.813C1504.06 418.813 1498.17 421.886 1493.69 428.033C1489.34 434.179 1487.16 441.287 1487.16 449.354C1487.16 458.702 1489.72 468.306 1494.84 478.166C1500.09 487.898 1510.47 500.704 1525.96 516.583C1545.81 536.943 1559.51 554.871 1567.07 570.366C1574.75 585.732 1578.59 602.443 1578.59 620.499C1578.59 644.829 1572.19 664.614 1559.38 679.852C1546.7 695.091 1531.59 702.71 1514.05 702.71C1506.24 702.71 1497.08 700.661 1486.58 696.563C1483.25 695.155 1480.88 694.45 1479.48 694.45C1478.2 694.45 1476.53 695.091 1474.48 696.371C1472.95 697.268 1471.73 697.716 1470.83 697.716ZM1682.89 573.247H1731.3C1734.5 573.247 1736.48 573.631 1737.25 574.399C1738.15 575.04 1738.59 576.512 1738.59 578.817C1738.59 579.842 1738.4 582.083 1738.02 585.54C1737.38 593.864 1737.06 600.778 1737.06 606.285V660.068C1737.06 663.653 1738.02 666.342 1739.94 668.135C1741.48 669.416 1742.24 671.144 1742.24 673.321V680.236C1742.24 682.926 1740.64 685.423 1737.44 687.728C1734.24 689.904 1727.65 692.786 1717.66 696.371C1707.67 699.957 1696.53 701.75 1684.24 701.75C1626.23 701.75 1597.22 654.433 1597.22 559.801C1597.22 532.782 1600.04 506.979 1605.67 482.392C1611.31 457.677 1620.98 436.933 1634.68 420.157C1648.51 403.382 1663.23 394.995 1678.86 394.995C1686.67 394.995 1695.18 397.172 1704.4 401.526C1707.09 402.806 1709.21 403.446 1710.74 403.446C1711.51 403.446 1712.98 402.934 1715.16 401.91C1716.83 401.141 1718.23 400.757 1719.39 400.757H1726.88C1730.46 400.757 1732.26 402.486 1732.26 405.943V469.33C1732.26 473.044 1730.66 474.901 1727.45 474.901H1719.39C1716.83 474.901 1715.29 474.645 1714.78 474.133C1714.39 473.492 1713.37 469.394 1711.7 461.839C1705.3 432.003 1694.1 417.084 1678.09 417.084C1670.41 417.084 1664.07 420.606 1659.07 427.649C1654.08 434.692 1650.49 451.019 1648.32 476.63C1646.27 502.112 1645.24 527.531 1645.24 552.886C1645.24 579.521 1646.27 601.483 1648.32 618.77C1650.36 635.929 1652.8 648.927 1655.62 657.763C1658.43 666.471 1661.76 672.425 1665.6 675.626C1669.57 678.828 1674.18 680.428 1679.43 680.428C1690.7 680.428 1696.34 672.361 1696.34 656.226V614.736C1696.34 607.565 1695.44 602.443 1693.65 599.37C1691.85 596.169 1688.08 593.351 1682.31 590.918C1679.5 589.766 1678.09 588.037 1678.09 585.732V577.665C1678.09 574.719 1679.69 573.247 1682.89 573.247ZM1870.94 560.377V434.564C1870.94 428.033 1868.51 423.103 1863.64 419.773C1860.31 417.596 1858.65 414.971 1858.65 411.898V403.446C1858.65 400.501 1860.31 399.028 1863.64 399.028H1907.05C1909.87 399.028 1911.28 400.373 1911.28 403.062V411.898C1911.28 414.843 1909.68 417.468 1906.47 419.773C1901.48 423.231 1898.98 428.161 1898.98 434.564V692.914C1898.98 697.012 1897.13 699.06 1893.41 699.06H1884.96C1881.12 699.06 1878.43 697.012 1876.89 692.914L1797.37 483.545V661.989C1797.37 668.647 1799.87 673.642 1804.86 676.971C1808.19 679.148 1809.86 681.709 1809.86 684.654V693.298C1809.86 696.243 1808.19 697.716 1804.86 697.716H1761.64C1758.83 697.716 1757.42 696.371 1757.42 693.682V684.654C1757.42 681.837 1759.08 679.276 1762.41 676.971C1767.28 673.514 1769.71 668.519 1769.71 661.989V434.564C1769.71 428.033 1767.28 423.103 1762.41 419.773C1759.08 417.596 1757.42 414.971 1757.42 411.898V403.446C1757.42 400.501 1759.08 399.028 1762.41 399.028H1803.13C1806.08 399.028 1808.06 399.413 1809.09 400.181C1810.11 400.821 1811.14 402.486 1812.16 405.175L1870.94 560.377Z" fill="black"/>
</svg>
