<svg width="2133" height="1003" viewBox="0 0 2133 1003" fill="none" xmlns="http://www.w3.org/2000/svg">
<path d="M181.456 655.055C181.456 654.575 181.84 654.287 182.608 654.191L196.863 652.175C198.494 651.887 199.646 651.455 200.318 650.88C200.99 650.304 201.326 649.44 201.326 648.288V462.261C201.326 460.917 200.99 459.957 200.318 459.381C199.646 458.805 198.446 458.373 196.719 458.085L182.608 456.069C181.84 455.878 181.456 455.542 181.456 455.062C181.456 454.774 181.552 454.582 181.744 454.486C181.936 454.39 182.224 454.342 182.608 454.342H245.961C263.431 454.342 279.269 456.885 293.476 461.973C307.778 467.06 320.065 474.451 330.335 484.146C340.606 493.745 348.525 505.312 354.093 518.846C359.66 532.381 362.444 547.643 362.444 564.633C362.444 583.735 358.22 600.101 349.773 613.732C341.422 627.362 329.76 637.825 314.785 645.12C299.907 652.319 282.677 655.919 263.095 655.919H182.608C182.128 655.919 181.792 655.871 181.6 655.775C181.504 655.583 181.456 655.343 181.456 655.055ZM263.095 653.615C276.246 653.615 287.908 650.304 298.083 643.68C308.354 637.057 316.417 626.882 322.272 613.156C328.224 599.429 331.199 581.959 331.199 560.746C331.199 544.332 329.328 529.693 325.584 516.831C321.84 503.872 316.321 492.929 309.026 484.002C301.731 475.075 292.804 468.308 282.245 463.701C271.686 458.997 259.639 456.645 246.105 456.645H230.987V648.576C230.987 650.208 231.419 651.455 232.283 652.319C233.146 653.183 234.346 653.615 235.882 653.615H263.095ZM411.043 551.531H455.966C463.261 551.531 468.54 549.899 471.804 546.635C475.164 543.276 477.083 537.18 477.563 528.349C477.659 527.869 477.755 527.581 477.851 527.485C478.043 527.293 478.235 527.197 478.427 527.197C479.003 527.005 479.435 527.485 479.723 528.637L493.69 574.712C493.881 575.192 493.929 575.576 493.833 575.864C493.738 576.152 493.594 576.344 493.402 576.44C493.21 576.44 492.97 576.44 492.682 576.44C492.49 576.344 492.25 576.152 491.962 575.864C488.122 570.009 484.667 565.545 481.595 562.473C478.619 559.306 475.404 557.098 471.948 555.85C468.492 554.602 464.317 553.978 459.421 553.978H411.043V551.531ZM367.848 455.206C367.848 454.918 367.944 454.726 368.136 454.63C368.328 454.438 368.616 454.342 369 454.342H486.49C488.506 454.342 490.33 454.006 491.962 453.334C493.69 452.566 495.081 451.846 496.137 451.174C497.289 450.502 498.009 450.166 498.297 450.166C498.585 450.166 498.777 450.31 498.873 450.598C499.065 450.79 499.305 451.51 499.593 452.758L511.687 499.841C511.879 500.321 511.879 500.704 511.687 500.992C511.591 501.184 511.448 501.28 511.256 501.28C511.064 501.376 510.872 501.376 510.68 501.28C510.488 501.184 510.248 500.944 509.96 500.56C504.872 491.633 500.265 484.338 496.137 478.675C492.01 473.012 488.122 468.596 484.475 465.428C480.923 462.165 477.371 459.909 473.82 458.661C470.268 457.413 466.477 456.789 462.445 456.789H417.378V647.568C417.378 649.488 417.954 650.976 419.106 652.031C420.354 652.991 422.13 653.471 424.433 653.471H463.885C469.452 653.471 474.588 652.127 479.291 649.44C484.091 646.752 489.178 641.473 494.553 633.601C499.929 625.634 506.312 613.876 513.703 598.325C514.087 597.845 514.375 597.51 514.567 597.318C514.759 597.126 514.999 597.078 515.287 597.174C515.575 597.174 515.767 597.366 515.863 597.75C515.959 598.037 515.911 598.517 515.719 599.189L501.465 657.359C501.177 658.511 500.937 659.231 500.745 659.519C500.553 659.902 500.361 660.094 500.169 660.094C499.497 660.094 498.537 659.759 497.289 659.087C496.137 658.415 494.553 657.695 492.538 656.927C490.618 656.255 488.074 655.919 484.907 655.919H369C368.616 655.919 368.328 655.823 368.136 655.631C367.944 655.439 367.848 655.247 367.848 655.055C367.848 654.575 368.328 654.287 369.288 654.191L382.678 652.175C384.406 651.983 385.654 651.599 386.422 651.023C387.286 650.448 387.717 649.584 387.717 648.432V461.829C387.717 460.677 387.286 459.813 386.422 459.237C385.654 458.661 384.406 458.277 382.678 458.085L369.288 456.069C368.328 455.974 367.848 455.686 367.848 455.206ZM518.524 655.055C518.524 654.575 518.908 654.287 519.676 654.191L533.931 652.175C535.563 651.887 536.714 651.455 537.386 650.88C538.058 650.304 538.394 649.44 538.394 648.288V462.261C538.394 460.917 538.058 459.957 537.386 459.381C536.714 458.805 535.515 458.373 533.787 458.085L519.676 456.069C518.908 455.878 518.524 455.542 518.524 455.062C518.524 454.774 518.62 454.582 518.812 454.486C519.004 454.39 519.292 454.342 519.676 454.342H583.029C600.499 454.342 616.337 456.885 630.544 461.973C644.846 467.06 657.133 474.451 667.404 484.146C677.674 493.745 685.594 505.312 691.161 518.846C696.728 532.381 699.512 547.643 699.512 564.633C699.512 583.735 695.289 600.101 686.841 613.732C678.49 627.362 666.828 637.825 651.853 645.12C636.975 652.319 619.745 655.919 600.163 655.919H519.676C519.196 655.919 518.86 655.871 518.668 655.775C518.572 655.583 518.524 655.343 518.524 655.055ZM600.163 653.615C613.314 653.615 624.976 650.304 635.151 643.68C645.422 637.057 653.485 626.882 659.341 613.156C665.292 599.429 668.268 581.959 668.268 560.746C668.268 544.332 666.396 529.693 662.652 516.831C658.909 503.872 653.389 492.929 646.094 484.002C638.799 475.075 629.872 468.308 619.313 463.701C608.754 458.997 596.708 456.645 583.173 456.645H568.055V648.576C568.055 650.208 568.487 651.455 569.351 652.319C570.215 653.183 571.414 653.615 572.95 653.615H600.163ZM861.858 523.886C861.858 533.677 859.746 542.46 855.523 550.235C851.299 557.914 845.396 564.297 837.813 569.385C830.23 574.376 821.255 577.736 810.888 579.464C809.16 579.752 807.336 580.04 805.417 580.327C803.593 580.519 801.721 580.663 799.801 580.759C797.977 580.759 796.058 580.759 794.042 580.759C787.227 580.759 780.939 580.327 775.18 579.464C769.517 578.6 764.381 577.256 759.774 575.432C755.262 573.608 751.231 571.256 747.679 568.377L748.975 566.505C752.335 569.193 756.078 571.352 760.206 572.984C764.333 574.616 768.653 575.768 773.164 576.44C777.676 577.112 782.187 577.448 786.699 577.448C800.425 577.448 811.368 572.984 819.527 564.057C827.782 555.13 831.91 541.884 831.91 524.318C831.91 511.263 829.27 499.649 823.99 489.474C818.807 479.299 811.56 471.332 802.249 465.572C793.034 459.717 782.427 456.789 770.429 456.789H754.446V647.136C754.446 648.768 754.83 649.968 755.598 650.736C756.462 651.407 757.758 651.887 759.486 652.175L772.876 654.191C773.452 654.191 773.836 654.287 774.028 654.479C774.22 654.575 774.316 654.767 774.316 655.055C774.316 655.631 773.932 655.919 773.164 655.919H706.068C705.684 655.919 705.396 655.823 705.204 655.631C705.012 655.439 704.916 655.247 704.916 655.055C704.916 654.575 705.396 654.287 706.356 654.191L719.746 652.175C721.474 651.887 722.722 651.407 723.49 650.736C724.354 649.968 724.786 648.768 724.786 647.136V461.829C724.786 460.677 724.354 459.813 723.49 459.237C722.722 458.661 721.474 458.277 719.746 458.085L706.356 456.069C705.396 455.974 704.916 455.686 704.916 455.206C704.916 454.918 705.012 454.726 705.204 454.63C705.396 454.438 705.684 454.342 706.068 454.342H770.285C789.674 454.342 806.184 457.221 819.815 462.981C833.445 468.74 843.86 476.851 851.059 487.314C858.259 497.681 861.858 509.871 861.858 523.886ZM790.874 578.744L818.519 575.576L860.85 644.112C863.25 647.952 865.794 650.448 868.481 651.599C871.265 652.751 874.241 653.615 877.408 654.191C877.984 654.287 878.368 654.383 878.56 654.479C878.752 654.575 878.848 654.767 878.848 655.055C878.848 655.247 878.752 655.439 878.56 655.631C878.368 655.823 878.08 655.919 877.696 655.919H820.103C819.239 655.919 818.807 655.631 818.807 655.055C818.807 654.767 818.903 654.623 819.095 654.623C819.383 654.527 819.767 654.383 820.247 654.191L827.734 653.039C829.942 652.559 831.238 651.599 831.622 650.16C832.006 648.624 831.382 646.464 829.75 643.68L790.874 578.744ZM967.632 451.462C981.647 451.462 994.461 454.054 1006.08 459.237C1017.69 464.325 1027.72 471.524 1036.17 480.835C1044.71 490.05 1051.29 500.944 1055.89 513.519C1060.5 526.094 1062.81 539.82 1062.81 554.698C1062.81 570.345 1060.45 584.599 1055.75 597.462C1051.14 610.228 1044.52 621.171 1035.88 630.29C1027.34 639.409 1017.21 646.464 1005.5 651.455C993.789 656.351 980.927 658.799 966.912 658.799C952.802 658.799 939.939 656.255 928.325 651.167C916.71 646.08 906.631 638.881 898.088 629.57C889.641 620.163 883.114 609.124 878.506 596.454C873.899 583.783 871.595 569.817 871.595 554.554C871.595 539.1 873.947 525.038 878.65 512.367C883.354 499.697 889.977 488.85 898.52 479.827C907.159 470.804 917.334 463.845 929.045 458.949C940.755 453.958 953.618 451.462 967.632 451.462ZM1032.28 576.872C1032.28 563.241 1031.08 550.331 1028.68 538.14C1026.28 525.95 1022.83 514.767 1018.31 504.592C1013.9 494.417 1008.62 485.634 1002.48 478.243C996.429 470.756 989.758 464.996 982.463 460.965C975.167 456.933 967.392 454.918 959.137 454.918C947.906 454.918 937.972 457.893 929.333 463.845C920.79 469.796 914.07 478.531 909.175 490.05C904.279 501.472 901.832 515.535 901.832 532.237C901.832 545.963 903.032 559.018 905.431 571.4C907.927 583.783 911.383 595.11 915.798 605.381C920.31 615.555 925.589 624.387 931.636 631.874C937.78 639.361 944.547 645.168 951.938 649.296C959.329 653.327 967.152 655.343 975.407 655.343C986.734 655.343 996.669 652.415 1005.21 646.56C1013.76 640.705 1020.38 631.97 1025.08 620.355C1029.88 608.644 1032.28 594.15 1032.28 576.872ZM1217.6 643.824C1219.14 646.416 1220.81 648.432 1222.64 649.872C1224.46 651.215 1226.38 652.175 1228.4 652.751C1230.41 653.327 1232.53 653.807 1234.73 654.191C1235.41 654.287 1235.84 654.431 1236.03 654.623C1236.32 654.719 1236.46 654.863 1236.46 655.055C1236.46 655.343 1236.37 655.583 1236.17 655.775C1235.98 655.871 1235.69 655.919 1235.31 655.919H1166.2C1165.81 655.919 1165.53 655.823 1165.33 655.631C1165.14 655.439 1165.05 655.247 1165.05 655.055C1165.05 654.767 1165.19 654.575 1165.48 654.479C1165.77 654.287 1166.29 654.143 1167.06 654.047C1172.82 653.279 1177.04 652.463 1179.73 651.599C1182.52 650.736 1184.15 649.632 1184.63 648.288C1185.11 646.848 1184.72 645.072 1183.48 642.96L1080.96 465.572C1079.52 463.077 1077.94 461.253 1076.21 460.101C1074.48 458.853 1072.56 457.941 1070.45 457.365C1068.43 456.789 1066.18 456.357 1063.68 456.069C1063.2 455.878 1062.86 455.734 1062.67 455.638C1062.48 455.446 1062.38 455.302 1062.38 455.206C1062.38 454.918 1062.48 454.726 1062.67 454.63C1062.96 454.438 1063.2 454.342 1063.39 454.342H1133.22C1133.61 454.342 1133.9 454.39 1134.09 454.486C1134.28 454.582 1134.38 454.774 1134.38 455.062C1134.38 455.254 1134.28 455.446 1134.09 455.638C1133.9 455.83 1133.51 455.926 1132.94 455.926L1117.24 457.365C1114.65 457.557 1113.12 458.325 1112.64 459.669C1112.16 460.917 1112.54 462.597 1113.79 464.709L1217.6 643.824ZM1154.97 550.523L1153.24 549.803L1197.01 478.099C1200.56 472.244 1201.43 467.636 1199.6 464.277C1197.87 460.821 1194.32 458.565 1188.95 457.509L1178.72 456.213C1178.24 456.117 1177.91 456.022 1177.72 455.926C1177.62 455.83 1177.57 455.638 1177.57 455.35C1177.57 455.062 1177.67 454.87 1177.86 454.774C1178.05 454.582 1178.29 454.486 1178.58 454.486H1228.69C1229.36 454.486 1229.69 454.726 1229.69 455.206C1229.69 455.398 1229.55 455.638 1229.26 455.926C1229.07 456.117 1228.69 456.261 1228.11 456.357C1219.95 458.565 1213.9 461.541 1209.97 465.284C1206.13 469.028 1202.58 473.54 1199.31 478.819L1154.97 550.523ZM1140.86 552.251L1142.58 553.115L1093.49 632.306C1090.03 637.777 1089.02 642.24 1090.46 645.696C1092 649.056 1095.74 651.311 1101.69 652.463L1112.49 654.047C1112.97 654.143 1113.31 654.287 1113.5 654.479C1113.69 654.575 1113.79 654.767 1113.79 655.055C1113.79 655.247 1113.69 655.439 1113.5 655.631C1113.31 655.823 1113.07 655.919 1112.78 655.919H1062.1C1061.81 655.919 1061.52 655.823 1061.23 655.631C1061.04 655.439 1060.94 655.247 1060.94 655.055C1060.94 654.767 1061.04 654.575 1061.23 654.479C1061.42 654.287 1061.71 654.143 1062.1 654.047C1067.47 652.895 1071.74 651.455 1074.91 649.728C1078.18 648 1081.05 645.648 1083.55 642.672C1086.05 639.697 1088.78 635.809 1091.76 631.01L1140.86 552.251ZM1247.27 658.223C1244.3 658.223 1241.61 657.455 1239.21 655.919C1236.81 654.383 1234.89 652.319 1233.45 649.728C1232.11 647.04 1231.44 644.112 1231.44 640.945C1231.44 637.873 1232.11 635.041 1233.45 632.45C1234.89 629.762 1236.81 627.65 1239.21 626.114C1241.71 624.578 1244.39 623.811 1247.27 623.811C1250.35 623.811 1253.08 624.626 1255.48 626.258C1257.98 627.794 1259.9 629.858 1261.24 632.45C1262.68 635.041 1263.4 637.873 1263.4 640.945C1263.4 644.112 1262.68 647.04 1261.24 649.728C1259.8 652.319 1257.88 654.383 1255.48 655.919C1253.08 657.455 1250.35 658.223 1247.27 658.223ZM1268.25 655.055C1268.25 654.575 1268.64 654.287 1269.4 654.191L1283.66 652.175C1285.29 651.887 1286.44 651.455 1287.11 650.88C1287.79 650.304 1288.12 649.44 1288.12 648.288V462.261C1288.12 460.917 1287.79 459.957 1287.11 459.381C1286.44 458.805 1285.24 458.373 1283.51 458.085L1269.4 456.069C1268.64 455.878 1268.25 455.542 1268.25 455.062C1268.25 454.774 1268.35 454.582 1268.54 454.486C1268.73 454.39 1269.02 454.342 1269.4 454.342H1332.76C1350.23 454.342 1366.07 456.885 1380.27 461.973C1394.57 467.06 1406.86 474.451 1417.13 484.146C1427.4 493.745 1435.32 505.312 1440.89 518.846C1446.46 532.381 1449.24 547.643 1449.24 564.633C1449.24 583.735 1445.02 600.101 1436.57 613.732C1428.22 627.362 1416.56 637.825 1401.58 645.12C1386.7 652.319 1369.47 655.919 1349.89 655.919H1269.4C1268.92 655.919 1268.59 655.871 1268.4 655.775C1268.3 655.583 1268.25 655.343 1268.25 655.055ZM1349.89 653.615C1363.04 653.615 1374.7 650.304 1384.88 643.68C1395.15 637.057 1403.21 626.882 1409.07 613.156C1415.02 599.429 1418 581.959 1418 560.746C1418 544.332 1416.12 529.693 1412.38 516.831C1408.64 503.872 1403.12 492.929 1395.82 484.002C1388.53 475.075 1379.6 468.308 1369.04 463.701C1358.48 458.997 1346.44 456.645 1332.9 456.645H1317.78V648.576C1317.78 650.208 1318.21 651.455 1319.08 652.319C1319.94 653.183 1321.14 653.615 1322.68 653.615H1349.89ZM1531.53 658.943C1522.22 658.943 1514.59 657.647 1508.64 655.055C1502.69 652.463 1498.08 649.872 1494.82 647.28C1491.55 644.592 1489.3 643.248 1488.05 643.248C1487.47 643.248 1486.61 644.064 1485.46 645.696C1484.4 647.328 1483.2 649.2 1481.86 651.311C1480.61 653.423 1479.36 655.247 1478.11 656.783C1476.96 658.415 1476.05 659.231 1475.38 659.231C1474.99 659.231 1474.56 659.039 1474.08 658.655C1473.6 658.367 1473.27 657.935 1473.07 657.359L1461.55 599.909C1461.55 599.429 1461.55 599.045 1461.55 598.757C1461.55 598.469 1461.65 598.277 1461.84 598.181C1462.03 597.989 1462.27 597.989 1462.56 598.181C1462.85 598.373 1463.09 598.661 1463.28 599.045C1470 613.732 1476.96 625.25 1484.16 633.601C1491.36 641.953 1498.75 647.856 1506.33 651.311C1513.92 654.767 1521.64 656.495 1529.52 656.495C1540.46 656.495 1549.24 653.423 1555.86 647.28C1562.49 641.041 1565.8 632.21 1565.8 620.787C1565.8 613.876 1564.31 607.492 1561.34 601.637C1558.46 595.686 1553.46 590.118 1546.36 584.935C1539.35 579.752 1529.66 574.904 1517.28 570.393C1502.69 564.921 1491.02 559.066 1482.29 552.827C1473.55 546.587 1467.27 539.724 1463.43 532.237C1459.59 524.654 1457.67 516.255 1457.67 507.04C1457.67 496.001 1460.36 486.306 1465.73 477.955C1471.2 469.604 1478.64 463.125 1488.05 458.517C1497.45 453.814 1508.06 451.462 1519.87 451.462C1528.6 451.462 1535.75 452.566 1541.32 454.774C1546.89 456.981 1551.26 459.189 1554.42 461.397C1557.59 463.605 1559.85 464.709 1561.19 464.709C1562.25 464.709 1563.69 463.605 1565.51 461.397C1567.43 459.093 1569.3 456.837 1571.13 454.63C1572.95 452.326 1574.25 451.174 1575.01 451.174C1575.3 451.174 1575.59 451.27 1575.88 451.462C1576.26 451.654 1576.5 452.086 1576.6 452.758L1591.57 511.359C1591.67 511.743 1591.72 512.079 1591.72 512.367C1591.72 512.655 1591.57 512.895 1591.28 513.087C1591.09 513.183 1590.85 513.135 1590.56 512.943C1590.28 512.751 1590.04 512.511 1589.84 512.223C1582.65 497.345 1575.4 485.682 1568.1 477.235C1560.9 468.692 1553.42 462.693 1545.64 459.237C1537.96 455.686 1529.9 453.91 1521.45 453.91C1510.32 453.91 1501.1 457.365 1493.81 464.277C1486.61 471.092 1483.01 480.739 1483.01 493.217C1483.01 500.321 1484.45 506.896 1487.33 512.943C1490.21 518.99 1495.06 524.654 1501.87 529.933C1508.69 535.213 1518.09 540.108 1530.09 544.619C1545.35 550.283 1557.35 556.282 1566.09 562.617C1574.92 568.857 1581.16 575.576 1584.81 582.775C1588.45 589.974 1590.28 597.845 1590.28 606.389C1590.28 616.179 1587.97 625.058 1583.37 633.026C1578.76 640.993 1572.04 647.328 1563.21 652.031C1554.47 656.639 1543.91 658.943 1531.53 658.943ZM1764.56 655.631C1764.56 657.071 1764.47 657.983 1764.28 658.367C1764.18 658.847 1763.89 659.087 1763.41 659.087C1762.64 659.087 1761.16 658.367 1758.95 656.927C1756.84 655.487 1754.44 653.807 1751.75 651.887C1749.16 649.968 1746.57 648.288 1743.97 646.848C1741.48 645.408 1739.46 644.688 1737.93 644.688C1737.06 644.688 1735.53 645.408 1733.32 646.848C1731.21 648.288 1728.33 649.92 1724.68 651.743C1721.03 653.567 1716.57 655.199 1711.29 656.639C1706.11 658.079 1699.96 658.799 1692.86 658.799C1678.75 658.799 1665.89 656.303 1654.27 651.311C1642.75 646.32 1632.82 639.313 1624.47 630.29C1616.12 621.267 1609.64 610.66 1605.03 598.469C1600.52 586.183 1598.26 572.792 1598.26 558.298C1598.26 542.172 1600.66 527.581 1605.46 514.527C1610.26 501.376 1617.03 490.098 1625.76 480.691C1634.59 471.284 1645.01 464.085 1657.01 459.093C1669.01 454.006 1682.21 451.462 1696.6 451.462C1705.43 451.462 1712.78 452.614 1718.63 454.918C1724.58 457.221 1729.19 459.525 1732.46 461.829C1735.72 464.133 1737.74 465.284 1738.5 465.284C1739.85 465.284 1741.67 464.133 1743.97 461.829C1746.37 459.525 1748.68 457.269 1750.89 455.062C1753.09 452.758 1754.63 451.606 1755.49 451.606C1755.78 451.606 1756.02 451.75 1756.21 452.038C1756.41 452.23 1756.55 452.71 1756.65 453.478L1767.16 510.927C1767.25 511.311 1767.3 511.647 1767.3 511.935C1767.3 512.223 1767.2 512.463 1767.01 512.655C1766.82 512.751 1766.58 512.751 1766.29 512.655C1766.1 512.559 1765.81 512.319 1765.43 511.935C1760.44 498.305 1754.44 487.218 1747.43 478.675C1740.42 470.036 1732.6 463.701 1723.96 459.669C1715.42 455.638 1706.3 453.622 1696.6 453.622C1683.65 453.622 1672.08 457.317 1661.9 464.709C1651.73 472.1 1643.71 483.042 1637.86 497.537C1632 512.031 1629.08 530.077 1629.08 551.675C1629.08 573.08 1632.2 591.462 1638.43 606.82C1644.67 622.179 1653.17 633.985 1663.92 642.24C1674.67 650.4 1686.72 654.479 1700.06 654.479C1703.52 654.479 1707.35 654.047 1711.58 653.183C1715.9 652.223 1719.98 650.832 1723.82 649.008C1727.75 647.184 1730.97 644.928 1733.46 642.24C1735.96 639.553 1737.21 636.481 1737.21 633.026V578.744C1737.21 577.592 1736.78 576.728 1735.91 576.152C1735.14 575.48 1733.9 575.096 1732.17 575L1712.44 572.984C1711.87 572.888 1711.48 572.792 1711.29 572.696C1711.1 572.504 1711 572.312 1711 572.12C1711 571.832 1711.1 571.64 1711.29 571.544C1711.48 571.352 1711.77 571.257 1712.15 571.257H1779.25C1779.63 571.257 1779.92 571.352 1780.11 571.544C1780.4 571.64 1780.55 571.832 1780.55 572.12C1780.55 572.312 1780.4 572.504 1780.11 572.696C1779.92 572.792 1779.59 572.888 1779.11 572.984L1768.45 575C1767.11 575.192 1766.1 575.576 1765.43 576.152C1764.85 576.728 1764.56 577.592 1764.56 578.744V655.631ZM1835.15 655.055C1835.15 655.247 1835.05 655.439 1834.86 655.631C1834.67 655.823 1834.38 655.919 1834 655.919H1778.71C1778.42 655.919 1778.18 655.823 1777.99 655.631C1777.8 655.439 1777.7 655.247 1777.7 655.055C1777.7 654.767 1778.13 654.479 1779 654.191L1790.52 650.88C1793.87 649.824 1796.56 648.288 1798.58 646.272C1800.69 644.16 1801.75 641.041 1801.75 636.913V484.434C1801.75 482.994 1801.65 481.939 1801.46 481.267C1801.36 480.499 1800.74 479.347 1799.59 477.811L1786.48 457.221C1786.2 456.645 1785.86 456.165 1785.48 455.782C1785.19 455.302 1785.04 454.966 1785.04 454.774C1785.04 454.582 1785.14 454.486 1785.33 454.486C1785.52 454.39 1785.81 454.342 1786.2 454.342H1818.3C1818.98 454.342 1819.5 454.63 1819.89 455.206C1820.27 455.782 1820.9 456.741 1821.76 458.085L1932.92 631.586L1931.33 634.465V473.348C1931.33 469.22 1930.23 466.1 1928.02 463.989C1925.91 461.781 1923.17 460.245 1919.81 459.381L1901.67 456.069C1900.71 455.782 1900.23 455.494 1900.23 455.206C1900.23 454.918 1900.33 454.726 1900.52 454.63C1900.71 454.438 1901 454.342 1901.38 454.342H1956.67C1957.06 454.342 1957.34 454.438 1957.54 454.63C1957.73 454.726 1957.82 454.918 1957.82 455.206C1957.82 455.494 1957.34 455.782 1956.38 456.069L1944.87 459.381C1941.6 460.245 1938.91 461.781 1936.8 463.989C1934.69 466.1 1933.64 469.22 1933.64 473.348V630.29C1933.64 631.346 1933.83 632.306 1934.21 633.17C1934.6 634.033 1934.98 634.849 1935.36 635.617L1945.3 650.88C1946.16 652.127 1946.74 653.087 1947.03 653.759C1947.41 654.431 1947.6 654.959 1947.6 655.343C1947.6 655.439 1947.51 655.583 1947.31 655.775C1947.12 655.871 1946.74 655.919 1946.16 655.919H1915.78C1914.25 655.919 1913.48 655.247 1913.48 653.903C1913.48 653.423 1913.38 652.895 1913.19 652.319C1913 651.647 1912.71 650.976 1912.33 650.304L1799.73 476.371H1804.19V637.057C1804.19 641.089 1805.25 644.16 1807.36 646.272C1809.47 648.384 1812.11 649.92 1815.28 650.88L1833.71 654.191C1834.67 654.479 1835.15 654.767 1835.15 655.055Z" fill="black"/>
</svg>
