<svg width="97" height="92" viewBox="0 0 97 92" fill="none" xmlns="http://www.w3.org/2000/svg">
<path d="M91.8619 79.6506L92.9102 47.6073L75.9325 25.0239L60.6966 35.0045L64.37 51.0132L91.8619 79.6506Z" fill="#3B3B3B"/>
<path d="M15.1179 87.5474L7.61159 61.4505L19.9575 30.4303L37.116 37.2821L36.5356 53.7017L15.1179 87.5474Z" fill="#3B3B3B"/>
<path d="M64.5451 15.5676C64.4428 15.6918 64.3487 15.9003 64.3786 16.0475C64.6107 17.1745 64.7511 18.4425 65.3422 19.4363C65.7405 20.1036 66.1395 20.7776 66.6214 21.383C67.3602 22.3043 68.1609 23.1254 68.7522 24.1438C69.319 25.1174 69.973 26.0424 70.5889 26.9912C70.6549 27.0946 70.7169 27.2028 70.7104 27.367C70.5898 27.2555 70.4648 27.1443 70.344 27.0305C68.0807 24.8696 65.8419 22.6839 63.5462 20.5598C61.5659 18.73 59.38 17.1621 57.1053 15.7193C56.7712 15.5074 56.4374 15.3223 56.0595 15.6321C55.6901 15.9367 55.5723 16.3872 55.7731 16.8652C55.8691 17.0934 56.0039 17.3067 56.1426 17.5129C57.5323 19.6058 59.1966 21.4571 61.0572 23.1371C63.4917 25.3307 65.9303 27.5195 68.0506 30.0326C68.4098 30.4572 68.7545 30.8944 69.0566 31.4007C68.9348 31.3229 68.809 31.2499 68.6914 31.1694C66.2679 29.5079 63.8427 27.8511 61.4255 26.1846C60.4582 25.5184 59.5105 24.8235 58.5432 24.1574C57.4371 23.3993 56.2704 22.757 54.9699 22.3986C54.7626 22.3402 54.4346 22.1456 54.2217 22.1684C53.5923 22.2404 53.4542 22.7354 53.5413 23.3589C53.6771 24.3473 54.0203 25.2328 54.7976 25.9038C56.0201 26.9621 57.2506 28.0106 58.4627 29.0765C59.8192 30.2697 61.1514 31.4898 62.5142 32.6779C63.2753 33.3438 64.085 33.9557 64.8586 34.6114C65.1248 34.8389 65.3431 35.127 65.5834 35.3883C65.555 35.4426 65.5242 35.4949 65.4937 35.5494C64.7375 35.4454 63.9818 35.3459 63.2252 35.2375C62.471 35.131 61.7151 35.0293 60.9615 34.9049C58.7735 34.5449 56.9897 35.284 55.4935 36.867C53.4056 39.074 52.6919 42.4254 53.0222 45.4048C53.0831 45.9658 53.1946 46.5398 53.8216 46.7683C54.4719 47.0057 55.1857 46.6477 55.6296 46.2329C56.4029 45.5174 56.3158 44.2442 56.2074 43.168C56.0974 42.0987 56.5151 40.7633 56.96 39.8017C57.477 38.683 58.698 38.6121 60.1121 38.4755C64.9588 38.9193 68.2182 41.4187 70.378 47.7504C71.1038 49.7438 70.5809 51.5442 68.9465 52.903C67.0342 54.4926 64.8471 54.9996 62.4314 54.3232C61.3353 54.0168 60.4761 53.3559 59.8101 52.4232C59.0071 51.2998 57.9408 49.9106 57.1066 48.8126C56.3804 47.8588 55.4075 47.9236 54.4424 48.3708C54.0799 48.538 54.0036 48.7224 54.0966 49.128C54.9932 53.0296 56.7905 56.2348 60.825 57.6645C62.7968 58.3613 64.8299 58.324 66.8759 58.1197C69.1129 57.8969 71.3469 57.596 73.5883 57.5117C76.7405 57.3932 79.5541 58.3381 81.8078 60.6545C83.0464 61.9263 83.6559 63.5277 84.1561 65.18C85.3559 69.1353 86.4986 76.6742 86.8689 79.3025L19.8065 85.7797C20.4223 83.0382 22.3512 75.3572 23.3449 73.6525C24.5945 71.5108 26.1915 69.6963 28.1808 68.2315C28.7432 67.8142 29.3715 67.4757 29.9973 67.1576C32.7182 65.7745 35.401 64.2987 38.3435 63.423C40.0444 62.9159 41.7717 62.4959 43.4693 61.9779C44.1939 61.7556 44.8927 61.4282 45.5617 61.0701C46.4476 60.5924 47.0981 59.8574 47.584 58.9725C48.8608 56.6489 49.3988 54.1233 49.6286 51.5155C49.6626 51.1246 49.6708 50.7228 49.6242 50.3329C49.5768 49.9118 49.2894 49.6729 48.8685 49.5836C47.867 49.3756 47.1612 49.7239 46.7989 50.682C46.4259 51.668 46.0398 52.6575 45.7616 53.6748C44.9432 56.6845 42.7956 58.2967 40.0028 59.214C38.0373 59.8587 36.0334 59.8035 34.0506 59.2713C32.7902 58.9337 31.717 58.2846 31.3643 56.9295C31.228 56.4004 31.2465 55.7802 31.3647 55.24C32.5024 50.0619 35.4274 46.4074 40.526 44.6579C41.1179 44.4529 41.7398 44.3032 42.3608 44.2141C43.7644 44.0158 44.9654 44.4801 45.966 45.4679C46.3323 45.8269 46.7847 47.3561 47.1904 47.6597C47.6759 48.0228 48.2371 48.0807 48.7943 48.0268C49.5506 47.9 50.2997 47.7694 50.179 46.8445C50.0862 46.1387 49.7588 44.8596 49.4936 44.2018C48.1431 40.8437 44.9776 39.1083 41.3278 39.6669C39.5967 39.9305 38.037 40.6009 36.6054 41.5996C36.4755 41.6928 36.2147 41.7538 36.1096 41.6855C36.0044 41.6173 35.9465 41.3428 35.9931 41.1994C36.2967 40.2357 36.6024 39.2719 36.9688 38.3335C38.353 34.7785 39.8049 31.2527 41.1334 27.6784C41.6153 26.3816 41.8322 24.985 42.1515 23.6277C42.3102 22.9514 42.196 22.6039 41.8265 22.42C41.2755 22.1439 40.753 22.2324 40.3174 22.7092C39.6806 23.4003 39.0367 24.0876 38.4437 24.8148C38.0852 25.255 37.8118 25.7654 37.5113 26.2492C36.1762 28.4104 34.8007 30.5463 33.5299 32.7461C32.8732 33.8805 32.4085 35.1241 31.7911 36.3175C31.9081 35.8356 31.9739 35.3341 32.149 34.8736C33.5331 31.2715 34.9776 27.6926 36.3196 24.0722C36.8831 22.5524 37.2351 20.9545 37.694 19.3956C37.8036 19.022 37.6253 18.8465 37.3235 18.7144C36.7664 18.4679 35.9082 18.6292 35.4415 19.0866C34.1314 20.3693 32.9682 21.7811 32.1425 23.4159C30.6472 26.3767 29.2343 29.3789 27.7789 32.3582C27.5336 32.8569 27.2649 33.3467 26.9769 33.8204C26.8628 34.0084 26.6679 34.1482 26.511 34.309C26.4686 34.2885 26.4263 34.2679 26.3862 34.2471C26.7004 33.092 26.9682 31.9212 27.338 30.7854C28.1605 28.2592 29.0433 25.7541 29.8729 23.2318C29.9853 22.8871 29.9995 22.4779 29.9422 22.116C29.8554 21.5889 29.4095 21.4258 28.9512 21.6919C28.0409 22.2189 27.3084 22.9395 26.8199 23.8672C23.4692 30.2359 20.142 36.6158 17.9157 43.4921C17.0945 46.0316 16.3103 48.5831 15.5192 51.1332C14.9762 52.8884 13.3963 57.8269 12.5135 60.518L8.14441 15.2814C17.3682 14.3927 83.547 8.02332 84.1367 7.95741L87.9329 47.2625C84.069 40.7325 80.07 34.2872 75.5153 28.2137C72.8764 24.6932 70.02 21.3326 67.2223 17.9305C66.5469 17.1085 65.7195 16.4064 64.9467 15.6655C64.8575 15.5778 64.5872 15.5165 64.5451 15.5676Z" fill="#3B3B3B"/>
<path fill-rule="evenodd" clip-rule="evenodd" d="M60.3718 17.9468C60.0956 17.7424 59.8169 17.541 59.5361 17.3426C59.0263 16.9823 58.5095 16.6314 57.9871 16.2883C57.9831 16.2857 57.9791 16.2831 57.9752 16.2805C57.8697 16.2112 57.7639 16.1423 57.658 16.0736C57.6577 16.0734 57.6573 16.0732 57.657 16.073C57.4737 15.9542 57.2898 15.8364 57.1054 15.7194C57.0436 15.6802 56.9819 15.642 56.9199 15.6076C56.6464 15.4559 56.3676 15.3796 56.0595 15.6322C56.0339 15.6533 56.0096 15.6751 55.9864 15.6975C55.6753 15.9993 55.5862 16.4204 55.7731 16.8653C55.8483 17.044 55.9473 17.2136 56.0534 17.3778C56.0534 17.3778 56.0534 17.3779 56.0534 17.3778C56.0774 17.415 56.1018 17.452 56.1263 17.4886C56.1317 17.4968 56.1372 17.5049 56.1426 17.513C56.1834 17.5743 56.2243 17.6355 56.2656 17.6964C56.2724 17.7066 56.2792 17.7167 56.2861 17.7268C56.8587 18.5711 57.4764 19.3759 58.1337 20.1458C58.7112 20.8223 59.3194 21.4719 59.9547 22.0979C59.956 22.0992 59.9574 22.1006 59.9588 22.1019C60.3165 22.4543 60.6829 22.7992 61.0572 23.1371L61.1572 23.2272C61.6315 23.6546 62.1057 24.0819 62.5776 24.5116C62.5779 24.5119 62.5781 24.5121 62.5784 24.5124C62.7655 24.6828 62.9522 24.8535 63.1384 25.0248C63.6652 25.5095 64.1878 25.9984 64.7028 26.495C64.7041 26.4963 64.7054 26.4976 64.7067 26.4988C65.0458 26.8259 65.3817 27.1563 65.7133 27.4911C66.2389 28.0217 66.7539 28.5632 67.2544 29.1195C67.2613 29.1271 67.2682 29.1348 67.2751 29.1425C67.4452 29.3319 67.6136 29.5229 67.7802 29.7159C67.7856 29.7221 67.7909 29.7283 67.7962 29.7344C67.8815 29.8333 67.9663 29.9327 68.0506 30.0326C68.0813 30.0689 68.1119 30.1053 68.1423 30.1418C68.3723 30.4174 68.5953 30.7002 68.8037 31.0055C68.8037 31.0055 68.8037 31.0055 68.8037 31.0055C68.8907 31.133 68.9752 31.2644 69.0566 31.4008C69.0117 31.3721 68.9663 31.3441 68.921 31.3161C68.8432 31.2682 68.7657 31.2203 68.6914 31.1694C68.4071 30.9746 68.1229 30.7797 67.8386 30.585C67.8169 30.5701 67.7952 30.5552 67.7735 30.5404C67.7139 30.4996 67.6544 30.4588 67.5949 30.4181C67.5951 30.4182 67.5947 30.4179 67.5949 30.4181C67.5054 30.3567 67.4153 30.295 67.3258 30.2337C67.3178 30.2282 67.3097 30.2227 67.3016 30.2171C67.0897 30.072 66.8778 29.9269 66.6659 29.7817C66.605 29.74 66.5441 29.6983 66.4832 29.6566C66.4719 29.6488 66.4606 29.6411 66.4492 29.6333C66.3909 29.5933 66.3325 29.5534 66.2741 29.5134C66.2679 29.5091 66.2617 29.5049 66.2555 29.5006C66.0551 29.3633 65.8546 29.2261 65.6542 29.0888C65.652 29.0872 65.6497 29.0857 65.6474 29.0841C65.1975 28.7759 64.7477 28.4677 64.2981 28.1593C63.3397 27.502 62.382 26.8441 61.4255 26.1846C61.3385 26.1247 61.2517 26.0646 61.165 26.0043C61.165 26.0043 61.1649 26.0042 61.165 26.0043C60.7697 25.7292 60.3769 25.4501 59.9843 25.171C59.8299 25.0613 59.6755 24.9515 59.521 24.8421C59.5203 24.8416 59.5197 24.8411 59.519 24.8407C59.195 24.6111 58.8702 24.3826 58.5432 24.1574C58.4875 24.1193 58.4317 24.0814 58.3757 24.0439C57.9559 23.7624 57.527 23.4985 57.085 23.2614C57.0836 23.2607 57.0821 23.2599 57.0807 23.2592C56.8815 23.1524 56.6796 23.051 56.4746 22.9559C56.4708 22.9542 56.4671 22.9524 56.4633 22.9507C55.9836 22.7288 55.4874 22.5412 54.9699 22.3987C54.9003 22.379 54.817 22.3441 54.7291 22.3071C54.5553 22.2341 54.3631 22.1533 54.2217 22.1684C53.9178 22.2032 53.7284 22.3366 53.6236 22.5356C53.5114 22.7485 53.4963 23.0366 53.5413 23.3589C53.6339 24.0329 53.8229 24.659 54.1802 25.2018C54.1842 25.208 54.1883 25.2142 54.1924 25.2203C54.3102 25.3968 54.446 25.5644 54.6023 25.7218C54.612 25.7315 54.6217 25.7412 54.6315 25.7509C54.6845 25.803 54.7399 25.854 54.7976 25.9039C55.161 26.2184 55.5251 26.5321 55.8892 26.8457C55.9327 26.8831 55.9761 26.9206 56.0196 26.958C56.1441 27.0652 56.2686 27.1724 56.3931 27.2797C56.3953 27.2815 56.3975 27.2834 56.3997 27.2853C57.09 27.8801 57.7793 28.4756 58.4627 29.0766C58.6638 29.2535 58.8644 29.431 59.0646 29.6089C59.0652 29.6094 59.0657 29.6099 59.0663 29.6104C59.1485 29.6834 59.2306 29.7565 59.3127 29.8296C59.638 30.1195 59.9625 30.4102 60.287 30.7009C60.6836 31.0561 61.0801 31.4113 61.4781 31.7651C61.4786 31.7655 61.479 31.7659 61.4795 31.7663C61.823 32.0716 62.1676 32.3758 62.5142 32.678C62.8276 32.9522 63.1492 33.2172 63.4732 33.4799C63.4743 33.4808 63.4755 33.4818 63.4766 33.4827C63.5928 33.5769 63.7093 33.6708 63.8257 33.7647C64.034 33.9326 64.2423 34.1005 64.4491 34.2703C64.5713 34.3706 64.6929 34.4715 64.8137 34.5735C64.8287 34.5861 64.8437 34.5988 64.8586 34.6115C65.0421 34.7683 65.2029 34.9539 65.3638 35.1398C65.4171 35.2014 65.4705 35.263 65.5247 35.3236C65.5442 35.3454 65.5637 35.367 65.5834 35.3884C65.5633 35.4268 65.5421 35.4642 65.5205 35.5021C65.5116 35.5178 65.5026 35.5335 65.4937 35.5494C65.4689 35.546 65.4442 35.5426 65.4194 35.5392C65.1921 35.5081 64.9649 35.4773 64.7376 35.4464C64.5622 35.4227 64.3869 35.3989 64.2115 35.375C64.2099 35.3747 64.2083 35.3745 64.2067 35.3743C63.8796 35.3297 63.5525 35.2844 63.2252 35.2375C63.0924 35.2188 62.9596 35.2002 62.8267 35.1816C62.2049 35.0946 61.5824 35.0074 60.9615 34.905C60.8447 34.8858 60.7292 34.8697 60.6147 34.8567C60.6127 34.8565 60.6107 34.8562 60.6087 34.856C60.5539 34.8498 60.4993 34.8444 60.445 34.8396C60.2115 34.8192 59.9828 34.8117 59.7587 34.817C59.0742 34.8331 58.4328 34.9677 57.83 35.211C56.9781 35.5548 56.2034 36.116 55.4935 36.8671C55.0127 37.3753 54.6048 37.9442 54.2657 38.5553C54.2655 38.5556 54.2653 38.5559 54.2652 38.5562C53.8828 39.2454 53.588 39.9883 53.375 40.7583C53.2581 41.1806 53.1659 41.6111 53.0973 42.0453C53.0584 42.2916 53.0271 42.5391 53.0033 42.787C53.0031 42.7882 53.003 42.7894 53.0029 42.7906C52.985 42.9768 52.9714 43.1632 52.9618 43.3495C52.9614 43.3586 52.9609 43.3676 52.9605 43.3767C52.9585 43.4164 52.9567 43.4561 52.9552 43.4957C52.9551 43.498 52.955 43.5004 52.9549 43.5027C52.9539 43.5272 52.953 43.5517 52.9522 43.5763C52.9333 44.1425 52.9522 44.7065 53.0069 45.2586C53.0075 45.2648 53.0081 45.2709 53.0087 45.2771C53.013 45.3197 53.0175 45.3623 53.0222 45.4049C53.0624 45.7747 53.1245 46.1502 53.3418 46.4287C53.3426 46.4296 53.3433 46.4306 53.3441 46.4315C53.4272 46.5372 53.5329 46.6288 53.6684 46.7006C53.67 46.7014 53.6716 46.7023 53.6732 46.7031C53.7191 46.7272 53.7685 46.749 53.8216 46.7684C54.2801 46.9358 54.7702 46.8072 55.1749 46.5714C55.3443 46.4727 55.4987 46.3553 55.6296 46.233C55.9628 45.9247 56.1362 45.513 56.2171 45.058C56.2175 45.0555 56.218 45.053 56.2184 45.0505C56.3234 44.4514 56.2688 43.7781 56.2074 43.1681C56.2043 43.1379 56.2016 43.1074 56.1993 43.0768C56.1831 42.8582 56.1877 42.6295 56.2091 42.396C56.2909 41.5044 56.6174 40.5422 56.96 39.8017C57.1376 39.4175 57.3983 39.1568 57.7213 38.9747C57.7217 38.9744 57.7222 38.9742 57.7226 38.974C58.3015 38.6481 59.0805 38.5739 59.9404 38.492C59.9973 38.4866 60.0545 38.4812 60.1121 38.4756C60.1979 38.4834 60.2832 38.4919 60.368 38.5011C60.3685 38.5012 60.3691 38.5012 60.3697 38.5013C60.8914 38.5577 61.3944 38.6388 61.8793 38.747C61.8932 38.7501 61.9072 38.7532 61.9211 38.7564C62.1833 38.8159 62.4402 38.8833 62.6919 38.9591C62.6945 38.9599 62.6971 38.9606 62.6998 38.9614C63.4799 39.1969 64.2099 39.5125 64.8928 39.9191C65.2074 40.1064 65.5119 40.3129 65.8068 40.5399C67.7071 42.0024 69.2048 44.311 70.378 47.7504C71.0971 49.7255 70.5904 51.5111 68.9914 52.8655C68.9765 52.878 68.9616 52.8906 68.9465 52.9031C68.1733 53.5459 67.355 54.0116 66.4949 54.2937C66.4946 54.2938 66.4942 54.2939 66.4939 54.294C65.2273 54.7092 63.8699 54.726 62.4314 54.3233C62.3019 54.2871 62.1757 54.2459 62.0527 54.2C62.0517 54.1996 62.0507 54.1992 62.0497 54.1988C61.1334 53.8556 60.3967 53.2449 59.8101 52.4233C59.4502 51.9197 59.0374 51.3628 58.6163 50.8027C58.5285 50.6859 58.4403 50.5689 58.3522 50.4523C58.0569 50.0614 57.762 49.6741 57.4829 49.3073C57.3536 49.1375 57.2276 48.972 57.1066 48.8127C57.0162 48.694 56.9221 48.5911 56.8246 48.5028C56.8241 48.5023 56.8236 48.5019 56.8231 48.5014C56.3135 48.0405 55.713 47.9764 55.0917 48.1345C54.8768 48.1891 54.6594 48.2704 54.4424 48.3709C54.384 48.3979 54.333 48.4253 54.2889 48.454C54.0597 48.6033 54.0186 48.7879 54.0966 49.128C54.147 49.3473 54.2002 49.5644 54.2565 49.7791C54.2593 49.7896 54.2621 49.8002 54.2648 49.8107C54.2898 49.9053 54.3154 49.9995 54.3416 50.0932C54.4047 50.3187 54.4715 50.5415 54.5421 50.7612C54.5424 50.7622 54.5428 50.7633 54.5431 50.7644C54.5794 50.8772 54.6167 50.9891 54.655 51.1003C54.7394 51.3449 54.829 51.5854 54.9242 51.8216C55.0952 52.2463 55.2843 52.6569 55.4938 53.0515C55.81 53.6471 56.1726 54.2063 56.5899 54.7223C56.5904 54.723 56.5909 54.7236 56.5914 54.7242C57.6255 56.0025 58.9952 57.0161 60.825 57.6645C61.0299 57.7369 61.2354 57.8014 61.4416 57.8586C61.4421 57.8588 61.4426 57.8589 61.4431 57.859C63.2204 58.3518 65.043 58.3028 66.876 58.1197C67.4691 58.0607 68.062 57.9961 68.655 57.9315C69.3848 57.8521 70.1145 57.7726 70.8446 57.7034C71.7584 57.6168 72.6727 57.5462 73.5883 57.5118C76.7405 57.3933 79.5541 58.3382 81.8078 60.6546C83.0464 61.9264 83.656 63.5278 84.1561 65.1801C84.8774 67.5578 85.578 71.2308 86.1026 74.3533C86.4507 76.425 86.7212 78.2543 86.8689 79.3026L19.8065 85.7798C20.0605 84.6492 20.5377 82.6786 21.0807 80.6334C21.8542 77.7194 22.761 74.6542 23.3449 73.6525C24.5945 71.5109 26.1915 69.6963 28.1808 68.2315C28.7432 67.8142 29.3715 67.4757 29.9973 67.1576C30.3584 66.9741 30.7188 66.7889 31.0793 66.6037C32.4507 65.8991 33.8224 65.1943 35.2328 64.5785C36.2451 64.1365 37.2772 63.7404 38.3435 63.4231C39.1439 63.1844 39.9502 62.9651 40.7565 62.7457C40.8803 62.7121 41.0042 62.6784 41.128 62.6446C41.1285 62.6445 41.1289 62.6443 41.1294 62.6442C41.912 62.4308 42.6937 62.2146 43.4693 61.978C44.1939 61.7556 44.8927 61.4282 45.5617 61.0701C46.4476 60.5925 47.0981 59.8574 47.584 58.9725C48.3483 57.5816 48.8479 56.1183 49.1751 54.6083C49.1754 54.6066 49.1758 54.605 49.1762 54.6033C49.1906 54.5365 49.2047 54.4696 49.2185 54.4027C49.3152 53.9332 49.3957 53.4594 49.4628 52.982C49.4883 52.8005 49.5118 52.6184 49.5336 52.4358C49.561 52.2062 49.5856 51.9757 49.6076 51.7446C49.6076 51.7448 49.6077 51.7445 49.6076 51.7446C49.6082 51.7383 49.6089 51.7314 49.6095 51.725C49.6161 51.6552 49.6225 51.5854 49.6287 51.5156C49.6626 51.1247 49.6708 50.7228 49.6242 50.333C49.6175 50.2729 49.6058 50.2165 49.5896 50.1638C49.5893 50.1629 49.589 50.162 49.5888 50.1611C49.5147 49.923 49.347 49.7588 49.1144 49.6598C49.0982 49.6529 49.0817 49.6463 49.0648 49.64C49.0269 49.6259 48.9874 49.6133 48.9465 49.6024C48.921 49.5955 48.895 49.5893 48.8685 49.5837C47.8784 49.378 47.1774 49.7161 46.8115 50.6495C46.8088 50.6564 46.8061 50.6633 46.8034 50.6703C46.8019 50.6742 46.8004 50.6781 46.799 50.682C46.7652 50.7711 46.7314 50.8603 46.6976 50.9494C46.6599 51.0487 46.6223 51.1479 46.5847 51.2473C46.5842 51.2486 46.5838 51.2498 46.5833 51.2511C46.4069 51.7176 46.2328 52.1859 46.0738 52.6585C45.9947 52.8936 45.9192 53.1297 45.8491 53.3672C45.8189 53.4695 45.7897 53.572 45.7616 53.6748C45.3932 55.0297 44.7553 56.1014 43.9106 56.954C43.9102 56.9544 43.9099 56.9547 43.9096 56.955C43.7915 57.0742 43.6693 57.1891 43.5433 57.2998C43.54 57.3027 43.5368 57.3056 43.5335 57.3084C43.1592 57.6362 42.7509 57.928 42.313 58.1883C42.3111 58.1894 42.3093 58.1904 42.3075 58.1915C41.6085 58.6063 40.8342 58.941 40.0028 59.2141C39.0849 59.5151 38.1587 59.6636 37.2301 59.6821C37.2295 59.6821 37.2289 59.6821 37.2282 59.6821C36.3664 59.6991 35.5026 59.6042 34.6417 59.4156C34.4445 59.3724 34.2475 59.3242 34.0506 59.2714C32.7902 58.9338 31.717 58.2846 31.3643 56.9295C31.228 56.4005 31.2466 55.7803 31.3647 55.2401C32.1652 51.5966 33.8507 48.7074 36.5556 46.7055C37.3278 46.134 38.183 45.6348 39.1245 45.211C39.1426 45.2028 39.1608 45.1947 39.1789 45.1866C39.6099 44.9946 40.0589 44.8183 40.5261 44.658C41.0122 44.4896 41.5187 44.3585 42.0282 44.2677C42.0295 44.2674 42.0307 44.2672 42.0319 44.267C42.1415 44.2475 42.2511 44.2299 42.3608 44.2142C43.5866 44.041 44.6579 44.3732 45.5761 45.1181C45.5989 45.1366 45.6215 45.1553 45.6441 45.1742C45.7536 45.2663 45.8609 45.3642 45.966 45.468C45.9969 45.4983 46.0285 45.537 46.0606 45.5826C46.0612 45.5834 46.0618 45.5843 46.0624 45.5852C46.2068 45.7913 46.362 46.1365 46.5206 46.4895C46.6454 46.7671 46.7723 47.0494 46.8978 47.2728C46.8984 47.2738 46.899 47.2748 46.8995 47.2758C46.9979 47.4505 47.0955 47.5887 47.1904 47.6598C47.6066 47.9711 48.0785 48.058 48.5558 48.0426C48.6352 48.04 48.7148 48.0346 48.7943 48.0269C48.908 48.0079 49.0215 47.9887 49.1319 47.9668C49.1573 47.9617 49.1825 47.9566 49.2075 47.9512C49.2101 47.9507 49.2126 47.9501 49.2152 47.9495C49.802 47.8227 50.277 47.5952 50.1791 46.8446C50.1425 46.5663 50.0694 46.199 49.9781 45.8158C49.9724 45.792 49.9667 45.7682 49.9609 45.7443C49.9603 45.742 49.9598 45.7397 49.9592 45.7374C49.9121 45.544 49.8608 45.3479 49.8074 45.1583C49.8036 45.1448 49.7998 45.1313 49.796 45.1178C49.7488 44.952 49.7003 44.7917 49.6519 44.6433C49.6306 44.5782 49.6094 44.5153 49.5884 44.4553C49.5885 44.4555 49.5883 44.455 49.5884 44.4553C49.5563 44.3639 49.5244 44.2784 49.4936 44.2019C49.3366 43.8116 49.1552 43.4432 48.9512 43.0978C48.8707 42.9614 48.7867 42.8285 48.6992 42.6993C48.6965 42.6953 48.6938 42.6913 48.6911 42.6873C48.5005 42.4068 48.294 42.1435 48.0728 41.8981C46.5461 40.2045 44.3234 39.3662 41.8408 39.6032C41.7977 39.6073 41.7545 39.6117 41.7112 39.6165C41.7079 39.6169 41.7046 39.6172 41.7012 39.6176C41.5774 39.6314 41.4529 39.6478 41.3278 39.667C41.1144 39.6995 40.9036 39.7381 40.6953 39.7829C40.6944 39.783 40.6935 39.7832 40.6926 39.7834C40.6902 39.784 40.6878 39.7845 40.6853 39.785C40.114 39.9082 39.5616 40.0769 39.0266 40.2879C39.0224 40.2896 39.0181 40.2913 39.0139 40.293C38.2463 40.5969 37.5143 40.9882 36.8131 41.4577C36.8102 41.4596 36.8074 41.4615 36.8046 41.4633C36.7379 41.5081 36.6715 41.5535 36.6054 41.5996C36.4755 41.6928 36.2147 41.7539 36.1096 41.6856C36.0044 41.6173 35.9465 41.3429 35.9932 41.1994C35.9961 41.1901 35.999 41.1808 36.002 41.1715C36.0321 41.0759 36.0622 40.9803 36.0925 40.8847C36.0939 40.88 36.0954 40.8753 36.0969 40.8707C36.367 40.0169 36.6441 39.1652 36.9688 38.3336C37.1553 37.8547 37.343 37.3763 37.5314 36.8983C37.7432 36.3612 37.9559 35.8245 38.1689 35.288C38.2695 35.0346 38.3702 34.7812 38.4709 34.5278C38.5961 34.2126 38.7213 33.8974 38.8464 33.5822C39.5375 31.8407 40.2244 30.0978 40.8843 28.3445C40.8855 28.3413 40.8866 28.3382 40.8878 28.3351C40.9701 28.1164 41.052 27.8975 41.1334 27.6785C41.1843 27.5416 41.2322 27.4036 41.2776 27.2647C41.2895 27.228 41.3013 27.1913 41.313 27.1545C41.3132 27.1539 41.3134 27.1532 41.3136 27.1526C41.5588 26.3769 41.7295 25.5733 41.9002 24.7698C41.9359 24.6021 41.9715 24.4343 42.0078 24.2669C42.0086 24.2633 42.0094 24.2597 42.0101 24.2562C42.0557 24.0461 42.1024 23.8365 42.1515 23.6278C42.2794 23.0827 42.23 22.7512 42.0126 22.5468C41.9602 22.4976 41.8982 22.4558 41.8265 22.4201C41.2755 22.144 40.753 22.2325 40.3174 22.7093C40.2488 22.7837 40.1801 22.8581 40.1114 22.9325C40.057 22.9915 40.0025 23.0505 39.9481 23.1095C39.9478 23.1098 39.9476 23.1101 39.9473 23.1104C39.4333 23.6679 38.9219 24.2284 38.4437 24.8149C38.4344 24.8263 38.4252 24.8378 38.416 24.8493C38.416 24.8492 38.4159 24.8494 38.416 24.8493C38.2569 25.0486 38.1143 25.2617 37.9783 25.4795C37.8959 25.6114 37.8159 25.7451 37.7359 25.8786C37.6616 26.0028 37.5873 26.1269 37.5113 26.2493C37.4974 26.2718 37.4835 26.2942 37.4696 26.3167C37.4696 26.3167 37.4696 26.3167 37.4696 26.3167C37.1093 26.8995 36.7461 27.4805 36.383 28.0615C35.6993 29.1554 35.0156 30.2492 34.351 31.3547C34.0735 31.8162 33.7993 32.2797 33.5299 32.7461C33.1495 33.4032 32.8335 34.097 32.515 34.7964C32.487 34.8578 32.459 34.9193 32.4309 34.9808C32.4308 34.9811 32.4306 34.9814 32.4305 34.9818C32.2266 35.4285 32.0193 35.8765 31.7911 36.3175C31.8285 36.1636 31.8606 36.0077 31.8928 35.8517C31.9613 35.5194 32.0299 35.187 32.149 34.8736C32.1912 34.7639 32.2334 34.6541 32.2757 34.5444C32.5407 33.8569 32.8076 33.1701 33.0755 32.4837C33.0755 32.4838 33.0756 32.4835 33.0755 32.4837C33.2829 31.9522 33.491 31.4205 33.6989 30.8892C34.4275 29.0276 35.1562 27.1658 35.8622 25.2948C35.8622 25.2949 35.8623 25.2947 35.8622 25.2948C35.8687 25.2776 35.8754 25.26 35.8819 25.2428C35.8824 25.2413 35.883 25.2397 35.8836 25.2382C36.03 24.85 36.1754 24.4614 36.3196 24.0723C36.3788 23.9125 36.4357 23.752 36.4906 23.5906C36.5233 23.4947 36.5553 23.3985 36.5866 23.3021C36.5867 23.3017 36.5869 23.3013 36.587 23.3009C36.8361 22.5346 37.0462 21.7538 37.2563 20.9729C37.2586 20.9644 37.2609 20.9559 37.2632 20.9473C37.2634 20.9469 37.2635 20.9464 37.2636 20.946C37.3375 20.6714 37.4114 20.3968 37.4872 20.1229C37.4887 20.1172 37.4903 20.1115 37.4919 20.1058C37.5575 19.8685 37.6245 19.6316 37.694 19.3956C37.8036 19.0221 37.6253 18.8466 37.3235 18.7144C37.3132 18.7099 37.3027 18.7054 37.2922 18.7011C36.8563 18.5236 36.2507 18.585 35.7883 18.8347C35.7875 18.8351 35.7867 18.8356 35.7859 18.836C35.6578 18.9054 35.5408 18.9893 35.4415 19.0866C35.1241 19.3974 34.8154 19.7157 34.5179 20.0429C34.1006 20.5021 33.7055 20.9789 33.3402 21.4769C33.3181 21.5071 33.2961 21.5373 33.2742 21.5676C33.2687 21.5753 33.2632 21.5829 33.2577 21.5906C33.0056 21.9408 32.7684 22.3016 32.5486 22.6741C32.5486 22.674 32.5485 22.6742 32.5486 22.6741C32.4057 22.9162 32.27 23.1635 32.1425 23.4159C32.0622 23.5749 31.9822 23.734 31.9023 23.8932C31.9015 23.895 31.9006 23.8967 31.8997 23.8984C31.6415 24.4134 31.3855 24.9296 31.1312 25.4466C31.1303 25.4484 31.1294 25.4503 31.1285 25.4522C31.0396 25.6328 30.951 25.8134 30.8625 25.9942C30.8623 25.9946 30.8621 25.995 30.8619 25.9955C30.8027 26.1165 30.7435 26.2376 30.6844 26.3587C30.2094 27.3323 29.7388 28.3081 29.2681 29.2838C28.9721 29.8975 28.6761 30.5112 28.379 31.1244C28.3791 31.1243 28.379 31.1244 28.379 31.1244C28.1796 31.536 27.9797 31.9474 27.7789 32.3583C27.7511 32.4149 27.7229 32.4714 27.6945 32.5277C27.4724 32.968 27.2323 33.4005 26.9769 33.8205C26.8985 33.9496 26.782 34.0561 26.6658 34.1622C26.6207 34.2034 26.5756 34.2446 26.5328 34.2871C26.5255 34.2944 26.5182 34.3017 26.511 34.3091C26.4687 34.2885 26.4263 34.268 26.3862 34.2472C26.3905 34.2314 26.3948 34.2156 26.3991 34.1999C26.4557 33.9906 26.5109 33.7809 26.5656 33.571C26.5655 33.5712 26.5656 33.5708 26.5656 33.571C26.601 33.435 26.6363 33.2984 26.6714 33.1623C26.7742 32.7645 26.877 32.3666 26.9857 31.9708C26.986 31.97 26.9862 31.9692 26.9864 31.9684C27.0956 31.5713 27.2107 31.1763 27.338 30.7854C27.7765 29.4387 28.2321 28.098 28.6877 26.7574C28.7138 26.6806 28.7399 26.6039 28.7659 26.5271C28.9231 26.0647 29.0801 25.6022 29.2363 25.1395C29.2362 25.1398 29.2364 25.1392 29.2363 25.1395C29.4468 24.5156 29.6562 23.8904 29.862 23.265C29.8623 23.2641 29.8626 23.2631 29.8629 23.2622C29.8663 23.2521 29.8696 23.2419 29.8729 23.2318C29.9649 22.9496 29.9912 22.6241 29.9662 22.3168C29.9662 22.3169 29.9662 22.3167 29.9662 22.3168C29.9606 22.2488 29.9526 22.1816 29.9422 22.116C29.8554 21.5889 29.4095 21.4259 28.9512 21.6919C28.9169 21.7118 28.8829 21.7319 28.8491 21.7523C28.8492 21.7523 28.849 21.7524 28.8491 21.7523C28.5169 21.953 28.2092 22.1804 27.9299 22.435C27.9244 22.44 27.919 22.4449 27.9135 22.4499C27.8771 22.4834 27.8411 22.5174 27.8056 22.5519C27.804 22.5534 27.8024 22.5549 27.8009 22.5565C27.411 22.9357 27.0807 23.372 26.8199 23.8673C26.5912 24.302 26.3626 24.7367 26.1344 25.1717C25.3552 26.6574 24.5812 28.1454 23.8262 29.642C23.8262 29.6419 23.8262 29.642 23.8262 29.642C23.7223 29.848 23.6186 30.0544 23.5154 30.2607C23.5134 30.2647 23.5114 30.2687 23.5094 30.2727C23.3855 30.5206 23.2621 30.7688 23.1393 31.0173C23.0799 31.1376 23.0206 31.258 22.9615 31.3784C22.9607 31.3801 22.9598 31.3819 22.959 31.3836C22.6804 31.951 22.4053 32.52 22.1344 33.0909C21.8869 33.6125 21.6428 34.1357 21.4028 34.6607C20.0885 37.536 18.8955 40.466 17.9158 43.4921C17.3879 45.1244 16.8753 46.7616 16.3664 48.4002C16.2047 48.9211 16.0433 49.4421 15.8818 49.9631C15.761 50.3531 15.6402 50.7432 15.5192 51.1332C14.9762 52.8885 13.3963 57.827 12.5136 60.518L8.14441 15.2814C9.16339 15.1833 10.8775 15.0182 13.1214 14.8021C14.9229 14.6287 17.0659 14.4224 19.4649 14.1914C28.9246 13.2806 42.365 11.9866 54.5448 10.8133C55.4973 10.7215 56.4421 10.6305 57.3766 10.5405C66.2934 9.68145 74.2802 8.91158 79.16 8.44024C82.2054 8.14609 84.0406 7.9682 84.1367 7.95747L87.9329 47.2626C85.9973 43.9913 84.0278 40.7414 81.9714 37.5488C79.9526 34.4143 77.8501 31.3351 75.6139 28.3454C75.5811 28.3015 75.5482 28.2576 75.5153 28.2138C75.3461 27.988 75.1759 27.7629 75.005 27.5383C74.4297 26.7828 73.8451 26.0341 73.254 25.2903C73.2489 25.2839 73.2438 25.2774 73.2387 25.271C73.1481 25.1571 73.0574 25.0432 72.9665 24.9295C72.8729 24.8123 72.7791 24.6953 72.6852 24.5784C72.6805 24.5725 72.6758 24.5667 72.6711 24.5608C72.1793 23.9484 71.6835 23.3389 71.1855 22.731C71.1849 22.7302 71.1842 22.7293 71.1835 22.7285C70.4559 21.8404 69.7235 20.956 68.9911 20.0715C68.8955 19.9561 68.7999 19.8406 68.7043 19.7251C68.7022 19.7227 68.7002 19.7202 68.6981 19.7177C68.512 19.4929 68.3259 19.2681 68.1399 19.0431C67.9051 18.7591 67.6705 18.475 67.4363 18.1906C67.4356 18.1897 67.4348 18.1888 67.434 18.1878C67.3634 18.1021 67.2928 18.0164 67.2223 17.9306C67.0549 17.7268 66.8781 17.5304 66.6952 17.339C66.6667 17.3091 66.638 17.2794 66.6091 17.2497C66.6083 17.2489 66.6075 17.2481 66.6068 17.2473C66.2658 16.897 65.9056 16.5623 65.5457 16.2279C65.4229 16.1138 65.3001 15.9998 65.1782 15.8852C65.1775 15.8845 65.1769 15.8839 65.1762 15.8833C65.0993 15.811 65.0227 15.7385 64.9467 15.6656C64.8575 15.5778 64.5872 15.5165 64.5451 15.5677C64.4428 15.6918 64.3487 15.9003 64.3786 16.0476C64.3897 16.1012 64.4005 16.1553 64.4112 16.2096C64.412 16.2136 64.4128 16.2176 64.4136 16.2216C64.4448 16.3803 64.4747 16.5412 64.5049 16.7034C64.6434 17.4478 64.7865 18.2176 65.0757 18.9044C65.076 18.905 65.0762 18.9055 65.0765 18.9061C65.1537 19.0895 65.2414 19.2669 65.3422 19.4363L65.3736 19.4889C65.5497 19.7841 65.7264 20.0802 65.9108 20.3707C66.1325 20.72 66.3652 21.0612 66.6214 21.3831C66.677 21.4524 66.733 21.5212 66.7892 21.5896C66.9424 21.7759 67.0974 21.9589 67.2517 22.1413C67.7929 22.7805 68.3268 23.4111 68.7522 24.1438C69.1054 24.7506 69.4925 25.3384 69.8831 25.9249C69.9246 25.9872 69.9661 26.0495 70.0077 26.1118C70.1738 26.3609 70.34 26.6101 70.504 26.8608C70.5043 26.8613 70.5045 26.8617 70.5048 26.8621C70.5329 26.9051 70.561 26.9481 70.5889 26.9912C70.6549 27.0946 70.7169 27.2029 70.7104 27.3671C70.6612 27.3216 70.6113 27.2762 70.5613 27.2306C70.5141 27.1876 70.4667 27.1445 70.4197 27.1011C70.4193 27.1007 70.4189 27.1004 70.4185 27.1C70.3936 27.0769 70.3687 27.0538 70.344 27.0306C69.6789 26.3955 69.0159 25.7584 68.3529 25.1212C68.192 24.9666 68.0311 24.8119 67.8701 24.6573C67.8698 24.657 67.8696 24.6568 67.8693 24.6565C67.7345 24.527 67.5997 24.3976 67.4649 24.2682C66.7907 23.6211 66.1156 22.9751 65.4375 22.3325C65.4362 22.3312 65.4348 22.33 65.4335 22.3287C64.8819 21.806 64.3282 21.2855 63.7713 20.7685C63.7709 20.768 63.7704 20.7675 63.7699 20.7671C63.6954 20.6979 63.6209 20.6288 63.5463 20.5598C63.535 20.5494 63.5237 20.539 63.5124 20.5285C63.5116 20.5278 63.5108 20.5271 63.51 20.5263C63.4926 20.5103 63.4752 20.4944 63.4578 20.4784C63.4569 20.4776 63.456 20.4767 63.4551 20.4759C63.4146 20.4388 63.3741 20.4018 63.3335 20.3649C62.8165 19.8956 62.286 19.4435 61.7441 19.0062C61.7281 18.9934 61.7122 18.9806 61.6963 18.9678C61.2618 18.6184 60.82 18.2785 60.3718 17.9468ZM70.0609 37.6137C70.2893 37.1544 70.4417 36.6716 70.5203 36.182C71.2593 35.9561 71.953 35.5568 72.5371 34.9905C72.8962 34.6423 73.1935 34.2507 73.4271 33.8306C77.0506 38.9179 80.3591 44.2812 83.6298 49.8088C84.8229 51.8251 87.256 52.7426 89.4834 52.0161C91.7108 51.2896 93.135 49.1139 92.9097 46.7819L89.1135 7.47679C88.9848 6.14387 88.3267 4.91831 87.2868 4.07462C86.2469 3.23094 84.912 2.83965 83.5812 2.98842C83.5851 2.98798 83.5555 2.99088 83.4884 2.99745C83.3747 3.0086 83.153 3.03031 82.8036 3.06428C82.2855 3.11465 81.5409 3.18678 80.5991 3.27787C78.7157 3.46001 76.0468 3.71764 72.8312 4.02778C66.4002 4.64803 57.7846 5.47813 48.899 6.33396C38.2059 7.36388 27.1213 8.43111 18.9833 9.21463C13.597 9.73322 9.50161 10.1275 7.66493 10.3045C6.34475 10.4317 5.12919 11.0782 4.28574 12.1017C3.4423 13.1253 3.04007 14.442 3.16757 15.7621L7.53671 60.9987C7.76418 63.3538 9.61127 65.2271 11.9629 65.4876C14.3146 65.7482 16.527 64.3247 17.2645 62.0765C18.1528 59.3687 19.741 54.4044 20.2953 52.6126C20.4173 52.2193 20.5388 51.8273 20.6599 51.4364C21.3291 49.2762 21.9876 47.1507 22.6727 45.0322M70.0609 37.6137C72.3458 39.8026 73.9338 42.702 75.0956 46.0932C75.7493 47.9181 75.9212 49.9241 75.3608 51.9177C75.3019 52.1272 75.2361 52.3324 75.1638 52.5333C78.9038 52.7554 82.4764 54.1726 85.3897 57.166C87.5174 59.3507 88.4032 61.9525 88.9417 63.7315C90.2745 68.1271 91.4623 76.0665 91.82 78.6049C92.0104 79.9556 91.6406 81.3253 90.7966 82.3968C89.9525 83.4682 88.7073 84.1483 87.3496 84.2794L20.2872 90.7566C18.6914 90.9107 17.1185 90.2903 16.0576 89.0882C14.9968 87.8861 14.5767 86.2483 14.9281 84.684C15.2533 83.2362 15.9089 80.5523 16.6142 77.9971C16.9666 76.7203 17.3444 75.4282 17.7103 74.3171C18.0268 73.356 18.476 72.0768 19.0253 71.1345L19.0262 71.1329C20.5994 68.4365 22.6444 66.1005 25.2088 64.2107C26.1279 63.5298 27.0719 63.0358 27.7315 62.7005C28.0582 62.5344 28.3969 62.3599 28.7465 62.1798C28.7976 62.1535 28.849 62.127 28.9006 62.1004C27.8709 61.1918 26.9792 59.932 26.5255 58.189L26.5222 58.1764C26.148 56.7232 26.2359 55.2888 26.4801 54.1721L26.4812 54.1671C27.3442 50.2392 29.0873 46.8375 31.7781 44.2167C31.7048 44.096 31.6467 43.9895 31.602 43.9031C31.3469 43.4115 31.2038 42.9501 31.1207 42.5874C31.0504 42.2807 30.9705 41.8147 30.9772 41.2515C30.6625 41.1994 30.3486 41.1163 30.0397 41.0008C29.0538 40.6321 28.2471 39.9811 27.6841 39.1695C26.7852 39.3863 25.8298 39.3535 24.9276 39.052C24.0882 41.0224 23.3284 43.007 22.6732 45.0306" fill="#3B3B3B"/>
<path d="M89.3751 77.7605L90.4234 45.7172L73.4457 23.1338L58.2098 33.1144L61.8832 49.1231L89.3751 77.7605Z" fill="white"/>
<path d="M12.6311 85.6573L5.12478 59.5604L17.4707 28.5401L34.6292 35.392L34.0488 51.8115L12.6311 85.6573Z" fill="white"/>
<path d="M62.0583 13.6775C61.956 13.8016 61.8619 14.0101 61.8918 14.1574C62.1239 15.2844 62.2643 16.5524 62.8554 17.5461C63.2537 18.2135 63.6527 18.8874 64.1346 19.4929C64.8733 20.4141 65.6741 21.2353 66.2654 22.2536C66.8322 23.2273 67.4862 24.1522 68.1021 25.101C68.1681 25.2044 68.2301 25.3127 68.2236 25.4769C68.103 25.3653 67.978 25.2542 67.8572 25.1404C65.5939 22.9795 63.3551 20.7938 61.0594 18.6696C59.079 16.8399 56.8932 15.272 54.6185 13.8292C54.2844 13.6172 53.9506 13.4321 53.5727 13.742C53.2033 14.0465 53.0855 14.497 53.2863 14.9751C53.3823 15.2033 53.5171 15.4166 53.6558 15.6228C55.0454 17.7157 56.7098 19.567 58.5704 21.2469C61.0049 23.4406 63.4434 25.6294 65.5638 28.1424C65.9229 28.5671 66.2677 29.0043 66.5697 29.5106C66.448 29.4327 66.3222 29.3598 66.2046 29.2792C63.7811 27.6178 61.3559 25.961 58.9386 24.2944C57.9714 23.6283 57.0237 22.9334 56.0564 22.2672C54.9503 21.5092 53.7836 20.8668 52.4831 20.5085C52.2758 20.4501 51.9478 20.2554 51.7349 20.2782C51.1055 20.3502 50.9674 20.8453 51.0545 21.4687C51.1903 22.4572 51.5335 23.3426 52.3108 24.0137C53.5333 25.0719 54.7638 26.1204 55.9758 27.1864C57.3324 28.3795 58.6646 29.5997 60.0274 30.7878C60.7885 31.4537 61.5982 32.0656 62.3718 32.7213C62.638 32.9487 62.8563 33.2369 63.0966 33.4982C63.0682 33.5525 63.0374 33.6047 63.0068 33.6592C62.2507 33.5553 61.495 33.4557 60.7384 33.3473C59.9842 33.2409 59.2283 33.1392 58.4746 33.0148C56.2867 32.6547 54.5029 33.3939 53.0067 34.9769C50.9188 37.1838 50.2051 40.5352 50.5354 43.5147C50.5963 44.0756 50.7078 44.6497 51.3348 44.8782C51.9851 45.1156 52.6989 44.7576 53.1428 44.3428C53.9161 43.6273 53.829 42.3541 53.7206 41.2779C53.6106 40.2086 54.0283 38.8731 54.4731 37.9115C54.9902 36.7928 56.2112 36.722 57.6253 36.5854C62.4719 37.0292 65.7314 39.5286 67.8912 45.8602C68.617 47.8537 68.0941 49.6541 66.4597 51.0129C64.5474 52.6024 62.3603 53.1094 59.9446 52.4331C58.8485 52.1267 57.9892 51.4658 57.3233 50.5331C56.5202 49.4097 55.454 48.0204 54.6197 46.9225C53.8935 45.9686 52.9207 46.0335 51.9556 46.4807C51.5931 46.6479 51.5168 46.8323 51.6097 47.2378C52.5064 51.1395 54.3037 54.3447 58.3382 55.7743C60.31 56.4712 62.3431 56.4339 64.3891 56.2295C66.6261 56.0068 68.86 55.7059 71.1015 55.6216C74.2537 55.5031 77.0673 56.448 79.321 58.7644C80.5596 60.0362 81.1691 61.6376 81.6693 63.2899C82.8691 67.2451 84.0118 74.7841 84.3821 77.4124L17.3197 83.8896C17.9355 81.1481 19.8644 73.4671 20.8581 71.7623C22.1077 69.6207 23.7047 67.8061 25.694 66.3413C26.2564 65.924 26.8847 65.5855 27.5105 65.2674C30.2314 63.8843 32.9142 62.4086 35.8567 61.5329C37.5576 61.0258 39.2848 60.6058 40.9825 60.0878C41.7071 59.8654 42.4059 59.538 43.0749 59.1799C43.9608 58.7023 44.6113 57.9672 45.0972 57.0823C46.3739 54.7588 46.912 52.2332 47.1418 49.6254C47.1758 49.2345 47.184 48.8326 47.1374 48.4428C47.09 48.0216 46.8025 47.7828 46.3817 47.6935C45.3802 47.4855 44.6744 47.8337 44.3121 48.7918C43.9391 49.7779 43.5529 50.7674 43.2748 51.7846C42.4564 54.7943 40.3088 56.4066 37.516 57.3239C35.5505 57.9685 33.5466 57.9134 31.5638 57.3812C30.3034 57.0436 29.2302 56.3944 28.8775 55.0393C28.7412 54.5103 28.7597 53.8901 28.8778 53.3499C30.0156 48.1718 32.9406 44.5172 38.0392 42.7678C38.6311 42.5628 39.253 42.4131 39.874 42.324C41.2776 42.1257 42.4786 42.59 43.4792 43.5778C43.8454 43.9368 44.2979 45.4659 44.7036 45.7696C45.189 46.1327 45.7503 46.1905 46.3075 46.1367C47.0637 46.0099 47.8129 45.8793 47.6922 44.9544C47.5994 44.2486 47.272 42.9695 47.0068 42.3117C45.6563 38.9536 42.4908 37.2181 38.841 37.7768C37.1099 38.0403 35.5502 38.7108 34.1186 39.7094C33.9887 39.8026 33.7279 39.8637 33.6227 39.7954C33.5176 39.7271 33.4597 39.4527 33.5063 39.3092C33.8098 38.3456 34.1156 37.3818 34.482 36.4434C35.8662 32.8884 37.3181 29.3626 38.6466 25.7883C39.1285 24.4915 39.3454 23.0948 39.6647 21.7376C39.8234 21.0613 39.7092 20.7138 39.3397 20.5299C38.7887 20.2538 38.2662 20.3423 37.8305 20.8191C37.1937 21.5102 36.5499 22.1975 35.9569 22.9247C35.5983 23.3649 35.325 23.8752 35.0244 24.3591C33.6894 26.5202 32.3139 28.6562 31.043 30.8559C30.3863 31.9904 29.9217 33.234 29.3042 34.4273C29.4213 33.9455 29.4871 33.444 29.6622 32.9834C31.0463 29.3813 32.4908 25.8025 33.8328 22.1821C34.3963 20.6623 34.7483 19.0644 35.2072 17.5054C35.3167 17.1319 35.1385 16.9564 34.8367 16.8242C34.2796 16.5778 33.4214 16.7391 32.9547 17.1964C31.6446 18.4791 30.4814 19.891 29.6557 21.5257C28.1604 24.4866 26.7475 27.4887 25.2921 30.4681C25.0468 30.9668 24.7781 31.4566 24.49 31.9303C24.376 32.1183 24.1811 32.2581 24.0241 32.4189C23.9818 32.3983 23.9395 32.3778 23.8994 32.357C24.2136 31.2019 24.4814 30.0311 24.8512 28.8952C25.6737 26.3691 26.5565 23.864 27.3861 21.3416C27.4985 20.9969 27.5127 20.5878 27.4554 20.2258C27.3686 19.6987 26.9227 19.5357 26.4644 19.8017C25.5541 20.3288 24.8216 21.0493 24.3331 21.9771C20.9824 28.3458 17.6551 34.7257 15.4289 41.6019C14.6077 44.1414 13.8235 46.693 13.0324 49.243C12.4894 50.9983 10.9095 55.9368 10.0267 58.6278L5.65759 13.3912C14.8814 12.5026 81.0602 6.13318 81.6498 6.06727L85.4461 45.3724C81.5822 38.8423 77.5832 32.397 73.0285 26.3236C70.3896 22.8031 67.5332 19.4425 64.7355 16.0404C64.0601 15.2183 63.2327 14.5163 62.4599 13.7754C62.3707 13.6876 62.1004 13.6263 62.0583 13.6775Z" fill="#606060"/>
<path fill-rule="evenodd" clip-rule="evenodd" d="M57.885 16.0567C57.6088 15.8522 57.3301 15.6509 57.0493 15.4524C56.5395 15.0922 56.0227 14.7413 55.5002 14.3981C55.4963 14.3955 55.4923 14.3929 55.4884 14.3904C55.3829 14.3211 55.2771 14.2521 55.1712 14.1835C55.1708 14.1833 55.1705 14.1831 55.1702 14.1828C54.9869 14.0641 54.803 13.9463 54.6185 13.8292C54.5568 13.7901 54.4951 13.7518 54.4331 13.7175C54.1595 13.5658 53.8808 13.4894 53.5727 13.742C53.5471 13.7631 53.5227 13.7849 53.4996 13.8074C53.1885 14.1091 53.0994 14.5302 53.2863 14.9751C53.3615 15.1539 53.4605 15.3235 53.5665 15.4877C53.5665 15.4877 53.5665 15.4877 53.5665 15.4877C53.5906 15.5249 53.6149 15.5618 53.6395 15.5985C53.6449 15.6066 53.6503 15.6147 53.6558 15.6228C53.6965 15.6842 53.7375 15.7454 53.7787 15.8063C53.7856 15.8164 53.7924 15.8265 53.7993 15.8366C54.3719 16.6809 54.9895 17.4857 55.6469 18.2557C56.2244 18.9322 56.8326 19.5818 57.4678 20.2077C57.4692 20.2091 57.4706 20.2104 57.472 20.2118C57.8297 20.5642 58.1961 20.9091 58.5704 21.247L58.6704 21.3371C59.1446 21.7644 59.6189 22.1917 60.0908 22.6215C60.091 22.6217 60.0913 22.622 60.0916 22.6222C60.2787 22.7926 60.4654 22.9634 60.6516 23.1347C61.1784 23.6194 61.7009 24.1083 62.2159 24.6049C62.2173 24.6062 62.2186 24.6074 62.2199 24.6087C62.559 24.9358 62.8949 25.2662 63.2265 25.6009C63.7521 26.1316 64.2671 26.6731 64.7676 27.2293C64.7745 27.237 64.7814 27.2447 64.7883 27.2524C64.9584 27.4417 65.1268 27.6328 65.2934 27.8257C65.2988 27.8319 65.3041 27.8381 65.3094 27.8443C65.3947 27.9432 65.4795 28.0426 65.5638 28.1425C65.5945 28.1788 65.6251 28.2151 65.6555 28.2517C65.8855 28.5272 66.1085 28.8101 66.3169 29.1154C66.3168 29.1153 66.3169 29.1154 66.3169 29.1154C66.4039 29.2428 66.4884 29.3743 66.5698 29.5107C66.5249 29.482 66.4795 29.454 66.4342 29.426C66.3564 29.378 66.2789 29.3302 66.2046 29.2793C65.9203 29.0844 65.636 28.8896 65.3517 28.6948C65.33 28.68 65.3083 28.6651 65.2866 28.6502C65.2271 28.6094 65.1676 28.5687 65.1081 28.5279C65.1083 28.5281 65.1079 28.5278 65.1081 28.5279C65.0186 28.4666 64.9285 28.4049 64.839 28.3436C64.8309 28.338 64.8229 28.3325 64.8148 28.327C64.6029 28.1819 64.391 28.0367 64.1791 27.8916C64.1182 27.8499 64.0573 27.8082 63.9964 27.7665C63.9851 27.7587 63.9738 27.7509 63.9624 27.7432C63.9041 27.7032 63.8457 27.6632 63.7873 27.6232C63.7811 27.619 63.7749 27.6148 63.7687 27.6105C63.5683 27.4732 63.3678 27.3359 63.1674 27.1986C63.1651 27.1971 63.1629 27.1955 63.1606 27.194C62.7107 26.8858 62.2609 26.5775 61.8113 26.2691C60.8529 25.6118 59.8951 24.9539 58.9387 24.2945C58.8517 24.2346 58.7649 24.1745 58.6782 24.1141C58.6782 24.1142 58.6781 24.1141 58.6782 24.1141C58.2829 23.8391 57.8901 23.5599 57.4975 23.2809C57.3431 23.1712 57.1887 23.0614 57.0342 22.9519C57.0335 22.9515 57.0329 22.951 57.0322 22.9506C56.7082 22.721 56.3834 22.4925 56.0564 22.2673C56.0007 22.2291 55.9449 22.1913 55.8889 22.1537C55.4691 21.8722 55.0402 21.6084 54.5982 21.3713C54.5967 21.3705 54.5953 21.3698 54.5939 21.369C54.3947 21.2622 54.1927 21.1609 53.9878 21.0658C53.984 21.064 53.9803 21.0623 53.9765 21.0606C53.4968 20.8387 53.0005 20.6511 52.4831 20.5085C52.4135 20.4889 52.3302 20.4539 52.2423 20.417C52.0684 20.3439 51.8763 20.2632 51.7349 20.2783C51.431 20.3131 51.2416 20.4465 51.1368 20.6454C51.0246 20.8584 51.0094 21.1464 51.0545 21.4688C51.1471 22.1427 51.3361 22.7688 51.6934 23.3117C51.6974 23.3179 51.7015 23.324 51.7056 23.3302C51.8234 23.5066 51.9592 23.6742 52.1155 23.8317C52.1251 23.8414 52.1349 23.8511 52.1447 23.8607C52.1977 23.9129 52.253 23.9639 52.3108 24.0138C52.6742 24.3283 53.0383 24.642 53.4024 24.9555C53.4458 24.993 53.4893 25.0304 53.5328 25.0679C53.6573 25.1751 53.7818 25.2823 53.9063 25.3895C53.9085 25.3914 53.9107 25.3933 53.9128 25.3952C54.6032 25.99 55.2925 26.5854 55.9758 27.1864C56.177 27.3633 56.3776 27.5408 56.5778 27.7187C56.5784 27.7192 56.5789 27.7197 56.5795 27.7202C56.6617 27.7933 56.7438 27.8663 56.8259 27.9395C57.1511 28.2293 57.4757 28.52 57.8002 28.8108C58.1968 29.166 58.5933 29.5212 58.9913 29.8749C58.9918 29.8753 58.9922 29.8757 58.9927 29.8761C59.3362 30.1815 59.6808 30.4857 60.0274 30.7878C60.3408 31.062 60.6624 31.3271 60.9864 31.5898C60.9875 31.5907 60.9887 31.5916 60.9898 31.5926C61.106 31.6868 61.2224 31.7806 61.3389 31.8746C61.5472 32.0424 61.7555 32.2104 61.9623 32.3802C62.0844 32.4805 62.2061 32.5814 62.3269 32.6834C62.3419 32.696 62.3568 32.7087 62.3718 32.7213C62.5553 32.8782 62.7161 33.0638 62.877 33.2496C62.9303 33.3112 62.9837 33.3729 63.0379 33.4335C63.0573 33.4552 63.0769 33.4768 63.0966 33.4983C63.0765 33.5367 63.0552 33.5741 63.0337 33.612C63.0248 33.6276 63.0158 33.6434 63.0068 33.6593C62.9821 33.6559 62.9573 33.6525 62.9326 33.6491C62.7053 33.6179 62.478 33.5871 62.2508 33.5563C62.0754 33.5325 61.9 33.5088 61.7247 33.4848C61.7231 33.4846 61.7215 33.4844 61.7199 33.4842C61.3928 33.4395 61.0657 33.3943 60.7384 33.3474C60.6056 33.3286 60.4727 33.31 60.3399 33.2915C59.7181 33.2044 59.0956 33.1173 58.4746 33.0148C58.3579 32.9956 58.2424 32.9795 58.1279 32.9666C58.1259 32.9663 58.1239 32.9661 58.1219 32.9659C58.0671 32.9597 58.0125 32.9542 57.9582 32.9495C57.7247 32.929 57.496 32.9216 57.2719 32.9269C56.5874 32.943 55.946 33.0775 55.3432 33.3208C54.4913 33.6647 53.7166 34.2258 53.0067 34.9769C52.5259 35.4852 52.1179 36.0541 51.7788 36.6651C51.7787 36.6654 51.7785 36.6657 51.7783 36.666C51.396 37.3553 51.1012 38.0982 50.8881 38.8682C50.7713 39.2905 50.6791 39.7209 50.6105 40.1552C50.5716 40.4014 50.5403 40.6489 50.5164 40.8968C50.5163 40.898 50.5162 40.8993 50.5161 40.9005C50.4982 41.0867 50.4846 41.2731 50.475 41.4594C50.4745 41.4684 50.4741 41.4775 50.4736 41.4866C50.4717 41.5262 50.4699 41.5659 50.4683 41.6056C50.4683 41.6079 50.4682 41.6102 50.4681 41.6125C50.4671 41.6371 50.4662 41.6616 50.4654 41.6861C50.4465 42.2524 50.4654 42.8163 50.52 43.3684C50.5207 43.3746 50.5213 43.3808 50.5219 43.3869C50.5262 43.4296 50.5307 43.4722 50.5354 43.5147C50.5755 43.8846 50.6377 44.2601 50.855 44.5385C50.8558 44.5395 50.8565 44.5404 50.8573 44.5414C50.9404 44.6471 51.046 44.7387 51.1816 44.8105C51.1832 44.8113 51.1847 44.8121 51.1863 44.813C51.2323 44.8371 51.2817 44.8589 51.3348 44.8782C51.7933 45.0456 52.2833 44.917 52.6881 44.6812C52.8574 44.5826 53.0118 44.4652 53.1428 44.3429C53.4759 44.0346 53.6494 43.6228 53.7303 43.1679C53.7307 43.1654 53.7312 43.1629 53.7316 43.1604C53.8366 42.5612 53.782 41.8879 53.7206 41.2779C53.7175 41.2477 53.7148 41.2173 53.7125 41.1866C53.6962 40.968 53.7009 40.7394 53.7223 40.5059C53.8041 39.6142 54.1306 38.6521 54.4731 37.9116C54.6508 37.5273 54.9114 37.2667 55.2345 37.0845C55.2349 37.0843 55.2353 37.0841 55.2358 37.0838C55.8147 36.7579 56.5936 36.6838 57.4536 36.6019C57.5105 36.5965 57.5677 36.591 57.6253 36.5855C57.7111 36.5933 57.7963 36.6018 57.8811 36.611C57.8817 36.611 57.8823 36.6111 57.8829 36.6112C58.4046 36.6675 58.9076 36.7487 59.3925 36.8568C59.4064 36.86 59.4204 36.8631 59.4343 36.8663C59.6965 36.9257 59.9534 36.9932 60.2051 37.0689C60.2077 37.0697 60.2103 37.0705 60.2129 37.0713C60.993 37.3068 61.7231 37.6224 62.406 38.029C62.7206 38.2162 63.0251 38.4228 63.32 38.6497C65.2203 40.1123 66.718 42.4209 67.8912 45.8603C68.6103 47.8354 68.1036 49.621 66.5046 50.9753C66.4897 50.9879 66.4748 51.0005 66.4597 51.013C65.6864 51.6557 64.8682 52.1215 64.0081 52.4036C64.0078 52.4037 64.0074 52.4038 64.0071 52.4039C62.7405 52.819 61.3831 52.8359 59.9446 52.4331C59.8151 52.3969 59.6889 52.3558 59.5659 52.3098C59.5649 52.3095 59.5639 52.3091 59.5629 52.3087C58.6465 51.9654 57.9099 51.3548 57.3233 50.5331C56.9634 50.0296 56.5506 49.4727 56.1295 48.9125C56.0417 48.7957 55.9535 48.6788 55.8654 48.5622C55.5701 48.1713 55.2752 47.7839 54.9961 47.4172C54.8668 47.2473 54.7408 47.0818 54.6198 46.9225C54.5294 46.8039 54.4353 46.701 54.3378 46.6126C54.3373 46.6122 54.3368 46.6117 54.3363 46.6113C53.8266 46.1503 53.2262 46.0863 52.6048 46.2443C52.39 46.299 52.1726 46.3802 51.9556 46.4808C51.8971 46.5077 51.8461 46.5351 51.8021 46.5639C51.5729 46.7132 51.5318 46.8977 51.6097 47.2379C51.6601 47.4572 51.7134 47.6742 51.7697 47.8889C51.7725 47.8995 51.7752 47.91 51.778 47.9206C51.803 48.0152 51.8286 48.1094 51.8548 48.2031C51.9179 48.4286 51.9846 48.6513 52.0552 48.871C52.0556 48.8721 52.0559 48.8732 52.0563 48.8743C52.0926 48.987 52.1298 49.099 52.1682 49.2101C52.2526 49.4547 52.3422 49.6953 52.4374 49.9315C52.6084 50.3562 52.7975 50.7668 53.007 51.1614C53.3231 51.757 53.6858 52.3161 54.1031 52.8322C54.1036 52.8328 54.1041 52.8335 54.1046 52.8341C55.1387 54.1123 56.5084 55.126 58.3382 55.7744C58.5431 55.8468 58.7486 55.9113 58.9548 55.9685C58.9552 55.9686 58.9557 55.9688 58.9562 55.9689C60.7336 56.4617 62.5562 56.4127 64.3891 56.2296C64.9823 56.1705 65.5752 56.106 66.1681 56.0414C66.8979 55.9619 67.6277 55.8825 68.3578 55.8133C69.2716 55.7266 70.1859 55.6561 71.1015 55.6216C74.2537 55.5031 77.0673 56.448 79.321 58.7645C80.5596 60.0362 81.1691 61.6376 81.6693 63.2899C82.3906 65.6677 83.0912 69.3406 83.6158 72.4632C83.9639 74.5348 84.2344 76.3642 84.3821 77.4125L17.3197 83.8896C17.5737 82.7591 18.0509 80.7884 18.5938 78.7433C19.3674 75.8293 20.2742 72.7641 20.8581 71.7624C22.1077 69.6207 23.7047 67.8062 25.694 66.3414C26.2564 65.9241 26.8847 65.5856 27.5105 65.2675C27.8716 65.0839 28.232 64.8988 28.5925 64.7136C29.9638 64.0089 31.3356 63.3042 32.746 62.6883C33.7583 62.2464 34.7904 61.8503 35.8567 61.5329C36.6571 61.2943 37.4634 61.075 38.2696 60.8556C38.3935 60.8219 38.5174 60.7882 38.6412 60.7545C38.6416 60.7543 38.6421 60.7542 38.6426 60.7541C39.4252 60.5407 40.2069 60.3245 40.9825 60.0879C41.7071 59.8655 42.4059 59.5381 43.0749 59.18C43.9608 58.7023 44.6113 57.9673 45.0972 57.0824C45.8615 55.6915 46.3611 54.2282 46.6883 52.7182C46.6886 52.7165 46.689 52.7148 46.6894 52.7132C46.7038 52.6464 46.7179 52.5795 46.7317 52.5125C46.8284 52.0431 46.9089 51.5693 46.9759 51.0919C47.0014 50.9103 47.025 50.7283 47.0468 50.5457C47.0742 50.316 47.0988 50.0856 47.1208 49.8545C47.1208 49.8547 47.1208 49.8543 47.1208 49.8545C47.1214 49.8481 47.1221 49.8412 47.1227 49.8348C47.1293 49.7651 47.1357 49.6953 47.1418 49.6254C47.1758 49.2345 47.184 48.8327 47.1374 48.4428C47.1306 48.3828 47.119 48.3264 47.1028 48.2736C47.1025 48.2728 47.1022 48.2719 47.102 48.271C47.0279 48.0328 46.8602 47.8687 46.6276 47.7697C46.6114 47.7627 46.5948 47.7561 46.578 47.7499C46.54 47.7357 46.5006 47.7232 46.4596 47.7122C46.4342 47.7054 46.4082 47.6992 46.3817 47.6935C45.3916 47.4879 44.6905 47.8259 44.3246 48.7594C44.3219 48.7663 44.3193 48.7732 44.3166 48.7801C44.3151 48.784 44.3136 48.788 44.3121 48.7919C44.2784 48.881 44.2446 48.9701 44.2108 49.0593C44.1731 49.1585 44.1355 49.2578 44.0979 49.3572C44.0974 49.3584 44.0969 49.3597 44.0964 49.361C43.9201 49.8275 43.746 50.2957 43.5869 50.7684C43.5078 51.0034 43.4324 51.2396 43.3623 51.4771C43.3321 51.5793 43.3029 51.6819 43.2748 51.7847C42.9063 53.1396 42.2685 54.2113 41.4237 55.0639C41.4234 55.0642 41.4231 55.0646 41.4228 55.0649C41.3047 55.184 41.1825 55.2989 41.0565 55.4097C41.0532 55.4126 41.05 55.4154 41.0467 55.4183C40.6724 55.7461 40.2641 56.0379 39.8262 56.2981C39.8243 56.2992 39.8225 56.3003 39.8206 56.3014C39.1216 56.7162 38.3474 57.0509 37.516 57.3239C36.5981 57.625 35.6719 57.7734 34.7433 57.7919C34.7427 57.792 34.742 57.792 34.7414 57.792C33.8796 57.809 33.0158 57.7141 32.1549 57.5254C31.9577 57.4822 31.7606 57.4341 31.5638 57.3813C30.3034 57.0437 29.2302 56.3945 28.8775 55.0394C28.7412 54.5103 28.7597 53.8901 28.8778 53.35C29.6784 49.7065 31.3638 46.8173 34.0688 44.8153C34.841 44.2438 35.6962 43.7446 36.6377 43.3208C36.6558 43.3127 36.674 43.3046 36.6921 43.2965C37.1231 43.1045 37.572 42.9282 38.0392 42.7679C38.5254 42.5994 39.0319 42.4684 39.5414 42.3775C39.5427 42.3773 39.5439 42.3771 39.5451 42.3769C39.6547 42.3574 39.7643 42.3398 39.874 42.324C41.0998 42.1508 42.1711 42.4831 43.0893 43.228C43.1121 43.2464 43.1347 43.2652 43.1573 43.2841C43.2668 43.3761 43.3741 43.4741 43.4792 43.5778C43.5101 43.6082 43.5417 43.6468 43.5738 43.6924C43.5744 43.6933 43.575 43.6942 43.5756 43.6951C43.72 43.9012 43.8752 44.2464 44.0338 44.5994C44.1586 44.8769 44.2855 45.1593 44.411 45.3826C44.4116 45.3837 44.4121 45.3847 44.4127 45.3857C44.5111 45.5603 44.6086 45.6986 44.7036 45.7696C45.1198 46.081 45.5917 46.1679 46.069 46.1524C46.1484 46.1499 46.228 46.1445 46.3075 46.1368C46.4212 46.1177 46.5347 46.0986 46.6451 46.0766C46.6705 46.0716 46.6957 46.0664 46.7207 46.0611C46.7233 46.0605 46.7258 46.06 46.7284 46.0594C47.3152 45.9326 47.7902 45.7051 47.6922 44.9544C47.6556 44.6762 47.5826 44.3089 47.4913 43.9257C47.4856 43.9019 47.4799 43.878 47.4741 43.8541C47.4735 43.8519 47.473 43.8496 47.4724 43.8473C47.4253 43.6539 47.374 43.4578 47.3206 43.2682C47.3168 43.2546 47.313 43.2412 47.3092 43.2277C47.262 43.0619 47.2135 42.9016 47.1651 42.7532C47.1438 42.688 47.1226 42.6252 47.1016 42.5651C47.1016 42.5653 47.1015 42.5649 47.1016 42.5651C47.0695 42.4738 47.0376 42.3882 47.0068 42.3118C46.8498 41.9215 46.6683 41.5531 46.4644 41.2076C46.3839 41.0712 46.2998 40.9384 46.2124 40.8092C46.2097 40.8052 46.207 40.8012 46.2043 40.7972C46.0137 40.5166 45.8071 40.2533 45.586 40.008C44.0593 38.3143 41.8366 37.476 39.354 37.713C39.3109 37.7172 39.2677 37.7216 39.2244 37.7264C39.2211 37.7267 39.2178 37.7271 39.2144 37.7275C39.0906 37.7412 38.9661 37.7577 38.841 37.7768C38.6276 37.8093 38.4168 37.848 38.2085 37.8927C38.2076 37.8929 38.2067 37.8931 38.2058 37.8933C38.2034 37.8938 38.201 37.8943 38.1985 37.8949C37.6272 38.0181 37.0748 38.1868 36.5398 38.3978C36.5355 38.3995 36.5313 38.4012 36.527 38.4028C35.7594 38.7068 35.0275 39.098 34.3262 39.5675C34.3234 39.5694 34.3206 39.5713 34.3178 39.5732C34.2511 39.6179 34.1847 39.6634 34.1186 39.7095C33.9887 39.8027 33.7279 39.8637 33.6228 39.7955C33.5176 39.7272 33.4597 39.4527 33.5063 39.3093C33.5093 39.3 33.5122 39.2907 33.5151 39.2814C33.5453 39.1857 33.5754 39.0901 33.6056 38.9946C33.6071 38.9899 33.6086 38.9852 33.6101 38.9805C33.8802 38.1267 34.1573 37.2751 34.482 36.4435C34.6685 35.9646 34.8562 35.4862 35.0446 35.0082C35.2564 34.4711 35.4691 33.9344 35.6821 33.3978C35.7827 33.1444 35.8834 32.891 35.984 32.6376C36.1093 32.3225 36.2345 32.0073 36.3596 31.692C37.0507 29.9505 37.7375 28.2077 38.3975 26.4543C38.3986 26.4512 38.3998 26.4481 38.401 26.445C38.4833 26.2263 38.5652 26.0074 38.6466 25.7883C38.6974 25.6515 38.7454 25.5135 38.7908 25.3746C38.8027 25.3379 38.8145 25.3012 38.8262 25.2644C38.8264 25.2637 38.8266 25.2631 38.8268 25.2624C39.0719 24.4868 39.2427 23.6831 39.4134 22.8797C39.449 22.7119 39.4847 22.5442 39.521 22.3767C39.5218 22.3732 39.5225 22.3696 39.5233 22.366C39.5689 22.156 39.6156 21.9463 39.6647 21.7376C39.7926 21.1925 39.7432 20.861 39.5258 20.6567C39.4734 20.6075 39.4113 20.5656 39.3397 20.53C38.7887 20.2538 38.2662 20.3424 37.8305 20.8191C37.7619 20.8936 37.6933 20.968 37.6246 21.0424C37.5701 21.1014 37.5157 21.1603 37.4613 21.2193C37.461 21.2196 37.4607 21.2199 37.4605 21.2203C36.9464 21.7777 36.4351 22.3383 35.9569 22.9247C35.9476 22.9362 35.9383 22.9476 35.9291 22.9592C35.9292 22.9591 35.9291 22.9592 35.9291 22.9592C35.7701 23.1584 35.6275 23.3715 35.4914 23.5894C35.4091 23.7213 35.329 23.8549 35.2491 23.9885C35.1747 24.1127 35.1005 24.2368 35.0244 24.3592C35.0106 24.3816 34.9967 24.4041 34.9828 24.4266C34.9828 24.4266 34.9827 24.4266 34.9828 24.4266C34.6225 25.0093 34.2593 25.5904 33.8962 26.1714C33.2124 27.2653 32.5288 28.3591 31.8641 29.4645C31.5867 29.926 31.3125 30.3896 31.0431 30.856C30.6627 31.5131 30.3467 32.2068 30.0282 32.9062C30.0002 32.9677 29.9722 33.0292 29.9441 33.0907C29.944 33.091 29.9438 33.0913 29.9437 33.0916C29.7398 33.5384 29.5325 33.9863 29.3043 34.4274C29.3416 34.2735 29.3738 34.1175 29.406 33.9616C29.4745 33.6293 29.543 33.2969 29.6622 32.9835C29.7044 32.8737 29.7466 32.764 29.7889 32.6543C30.0538 31.9667 30.3208 31.28 30.5887 30.5935C30.5886 30.5937 30.5888 30.5934 30.5887 30.5935C30.7961 30.062 31.0042 29.5303 31.2121 28.999C31.9407 27.1374 32.6694 25.2757 33.3754 23.4047C33.3754 23.4048 33.3755 23.4046 33.3754 23.4047C33.3819 23.3874 33.3885 23.3699 33.3951 23.3526C33.3956 23.3511 33.3962 23.3496 33.3968 23.3481C33.5432 22.9599 33.6886 22.5712 33.8328 22.1821C33.892 22.0224 33.9489 21.8618 34.0038 21.7005C34.0365 21.6046 34.0684 21.5084 34.0998 21.412C34.0999 21.4116 34.1001 21.4112 34.1002 21.4108C34.3493 20.6444 34.5594 19.8636 34.7695 19.0828C34.7718 19.0743 34.7741 19.0657 34.7764 19.0572C34.7765 19.0567 34.7767 19.0563 34.7768 19.0558C34.8507 18.7812 34.9246 18.5067 35.0003 18.2327C35.0019 18.2271 35.0035 18.2214 35.0051 18.2157C35.0707 17.9783 35.1377 17.7415 35.2072 17.5055C35.3167 17.1319 35.1385 16.9565 34.8367 16.8243C34.8263 16.8197 34.8159 16.8153 34.8054 16.811C34.3695 16.6335 33.7639 16.6948 33.3015 16.9446C33.3007 16.945 33.2999 16.9454 33.2991 16.9459C33.171 17.0153 33.054 17.0992 32.9547 17.1965C32.6373 17.5072 32.3285 17.8256 32.0311 18.1528C31.6137 18.612 31.2187 19.0888 30.8534 19.5868C30.8313 19.6169 30.8093 19.6472 30.7874 19.6775C30.7819 19.6851 30.7764 19.6928 30.7708 19.7004C30.5188 20.0507 30.2816 20.4114 30.0617 20.7839C30.0618 20.7838 30.0617 20.7841 30.0617 20.7839C29.9189 21.026 29.7832 21.2734 29.6557 21.5258C29.5754 21.6848 29.4953 21.8439 29.4155 22.0031C29.4146 22.0048 29.4138 22.0066 29.4129 22.0083C29.1547 22.5233 28.8987 23.0395 28.6444 23.5564C28.6435 23.5583 28.6426 23.5602 28.6416 23.5621C28.5528 23.7426 28.4642 23.9233 28.3757 24.104C28.3755 24.1045 28.3753 24.1049 28.3751 24.1053C28.3159 24.2264 28.2567 24.3474 28.1976 24.4686C27.7226 25.4422 27.2519 26.418 26.7813 27.3937C26.4853 28.0074 26.1893 28.6211 25.8922 29.2342C25.8922 29.2342 25.8922 29.2342 25.8922 29.2342C25.6928 29.6458 25.4928 30.0572 25.2921 30.4682C25.2643 30.5248 25.2361 30.5812 25.2077 30.6376C24.9855 31.0778 24.7454 31.5104 24.49 31.9303C24.4117 32.0595 24.2952 32.1659 24.179 32.272C24.1339 32.3133 24.0888 32.3545 24.046 32.3969C24.0386 32.4042 24.0314 32.4116 24.0241 32.4189C23.9818 32.3984 23.9395 32.3778 23.8994 32.3571C23.9037 32.3413 23.908 32.3255 23.9123 32.3097C23.9689 32.1005 24.0241 31.8908 24.0788 31.6809C24.0787 31.6811 24.0788 31.6807 24.0788 31.6809C24.1141 31.5449 24.1495 31.4082 24.1846 31.2722C24.2874 30.8743 24.3902 30.4765 24.4989 30.0807C24.4991 30.0799 24.4994 30.0791 24.4996 30.0783C24.6087 29.6812 24.7239 29.2862 24.8512 28.8953C25.2897 27.5486 25.7453 26.2078 26.2009 24.8673C26.227 24.7905 26.253 24.7137 26.2791 24.637C26.4363 24.1746 26.5933 23.7121 26.7494 23.2494C26.7494 23.2497 26.7495 23.2491 26.7494 23.2494C26.96 22.6255 27.1694 22.0003 27.3752 21.3749C27.3755 21.3739 27.3758 21.373 27.3761 21.3721C27.3795 21.3619 27.3828 21.3518 27.3861 21.3417C27.4781 21.0595 27.5043 20.734 27.4793 20.4267C27.4793 20.4267 27.4793 20.4266 27.4793 20.4267C27.4738 20.3587 27.4658 20.2914 27.4554 20.2259C27.3686 19.6988 26.9227 19.5357 26.4644 19.8018C26.4301 19.8217 26.3961 19.8418 26.3623 19.8622C26.3624 19.8621 26.3622 19.8623 26.3623 19.8622C26.0301 20.0628 25.7224 20.2903 25.4431 20.5448C25.4376 20.5498 25.4322 20.5548 25.4267 20.5598C25.3903 20.5933 25.3543 20.6273 25.3188 20.6617C25.3172 20.6633 25.3156 20.6648 25.314 20.6663C24.9242 21.0456 24.5939 21.4818 24.3331 21.9771C24.1044 22.4118 23.8758 22.8466 23.6476 23.2816C22.8684 24.7672 22.0944 26.2553 21.3394 27.7518C21.3394 27.7518 21.3394 27.7519 21.3394 27.7518C21.2354 27.9579 21.1318 28.1642 21.0286 28.3706C21.0266 28.3746 21.0246 28.3786 21.0226 28.3825C20.8987 28.6305 20.7753 28.8787 20.6525 29.1272C20.5931 29.2475 20.5338 29.3678 20.4747 29.4883C20.4738 29.49 20.473 29.4917 20.4721 29.4934C20.1936 30.0609 19.9185 30.6299 19.6476 31.2007C19.4001 31.7223 19.156 32.2455 18.916 32.7706C17.6016 35.6458 16.4087 38.5758 15.4289 41.602C14.9011 43.2342 14.3885 44.8715 13.8796 46.5101C13.7178 47.0309 13.5564 47.5519 13.395 48.073C13.2742 48.463 13.1534 48.8531 13.0324 49.2431C12.4894 50.9984 10.9095 55.9368 10.0267 58.6279L5.6576 13.3913C6.67657 13.2931 8.39064 13.1281 10.6346 12.912C12.4361 12.7386 14.5791 12.5322 16.9781 12.3012C26.4378 11.3905 39.8782 10.0964 52.058 8.92314C53.0105 8.83139 53.9553 8.74038 54.8898 8.65035C63.8066 7.79131 71.7934 7.02144 76.6732 6.5501C79.7186 6.25595 81.5538 6.07807 81.6498 6.06733L85.4461 45.3724C83.5105 42.1012 81.5409 38.8512 79.4846 35.6586C77.4658 32.5242 75.3633 29.445 73.1271 26.4553C73.0942 26.4114 73.0614 26.3675 73.0285 26.3236C72.8593 26.0978 72.6891 25.8727 72.5182 25.6482C71.9429 24.8927 71.3583 24.144 70.7672 23.4001C70.7621 23.3937 70.757 23.3873 70.7519 23.3809C70.6613 23.2669 70.5705 23.1531 70.4797 23.0393C70.3861 22.9222 70.2923 22.8052 70.1984 22.6882C70.1937 22.6824 70.189 22.6766 70.1843 22.6707C69.6924 22.0583 69.1967 21.4487 68.6987 20.8409C68.698 20.84 68.6974 20.8392 68.6967 20.8384C67.9691 19.9503 67.2367 19.0658 66.5043 18.1814C66.4087 18.0659 66.3131 17.9505 66.2175 17.835C66.2154 17.8325 66.2134 17.8301 66.2113 17.8276C66.0252 17.6028 65.8391 17.3779 65.6531 17.153C65.4183 16.869 65.1837 16.5849 64.9495 16.3005C64.9487 16.2996 64.948 16.2986 64.9472 16.2977C64.8766 16.212 64.806 16.1262 64.7355 16.0404C64.5681 15.8367 64.3913 15.6403 64.2084 15.4489C64.1798 15.419 64.1511 15.3892 64.1223 15.3596C64.1215 15.3588 64.1207 15.358 64.1199 15.3572C63.779 15.0069 63.4187 14.6722 63.0588 14.3378C62.936 14.2237 62.8133 14.1096 62.6914 13.995C62.6907 13.9944 62.69 13.9938 62.6894 13.9932C62.6125 13.9209 62.5359 13.8483 62.4599 13.7754C62.3707 13.6877 62.1004 13.6264 62.0583 13.6775C61.956 13.8017 61.8619 14.0102 61.8918 14.1574C61.9029 14.2111 61.9137 14.2651 61.9244 14.3194C61.9252 14.3234 61.926 14.3275 61.9268 14.3315C61.958 14.4901 61.9879 14.6511 62.0181 14.8132C62.1565 15.5577 62.2997 16.3274 62.5889 17.0143C62.5892 17.0148 62.5894 17.0154 62.5896 17.016C62.6669 17.1993 62.7546 17.3768 62.8554 17.5462L62.8868 17.5987C63.0629 17.8939 63.2396 18.19 63.424 18.4806C63.6457 18.8299 63.8784 19.1711 64.1346 19.493C64.1902 19.5623 64.2462 19.6311 64.3024 19.6994C64.4556 19.8858 64.6106 20.0688 64.7649 20.2511C65.3061 20.8904 65.84 21.521 66.2654 22.2537C66.6186 22.8605 67.0057 23.4483 67.3963 24.0348C67.4378 24.0971 67.4793 24.1593 67.5209 24.2216C67.687 24.4708 67.8532 24.72 68.0171 24.9707C68.0174 24.9711 68.0177 24.9716 68.018 24.972C68.0461 25.015 68.0742 25.058 68.1021 25.1011C68.1681 25.2045 68.2301 25.3128 68.2236 25.477C68.1744 25.4315 68.1245 25.3861 68.0745 25.3405C68.0272 25.2975 67.9799 25.2544 67.9329 25.2109C67.9325 25.2106 67.9321 25.2102 67.9317 25.2099C67.9067 25.1868 67.8819 25.1637 67.8572 25.1404C67.1921 24.5054 66.5291 23.8682 65.8661 23.2311C65.7052 23.0765 65.5443 22.9218 65.3833 22.7672C65.383 22.7669 65.3827 22.7666 65.3825 22.7664C65.2477 22.6369 65.1129 22.5075 64.9781 22.3781C64.3039 21.731 63.6288 21.085 62.9507 20.4424C62.9493 20.4411 62.948 20.4398 62.9467 20.4386C62.395 19.9158 61.8414 19.3954 61.2845 18.8783C61.284 18.8779 61.2836 18.8774 61.2831 18.877C61.2086 18.8078 61.134 18.7387 61.0594 18.6697C61.0481 18.6592 61.0368 18.6488 61.0255 18.6384C61.0247 18.6377 61.0239 18.6369 61.0231 18.6362C61.0058 18.6202 60.9884 18.6042 60.971 18.5883C60.9701 18.5874 60.9692 18.5866 60.9683 18.5858C60.9278 18.5487 60.8873 18.5117 60.8466 18.4748C60.3297 18.0054 59.7992 17.5533 59.2572 17.1161C59.2413 17.1033 59.2254 17.0904 59.2095 17.0776C58.775 16.7282 58.3331 16.3883 57.885 16.0567ZM67.5741 35.7236C67.8025 35.2643 67.9549 34.7815 68.0335 34.2919C68.7725 34.066 69.4662 33.6666 70.0503 33.1004C70.4094 32.7522 70.7067 32.3606 70.9402 31.9405C74.5638 37.0278 77.8723 42.391 81.143 47.9186C82.336 49.9349 84.7692 50.8525 86.9966 50.126C89.2239 49.3995 90.6482 47.2238 90.4229 44.8917L86.6267 5.58665C86.4979 4.25374 85.8399 3.02817 84.8 2.18449C83.7601 1.3408 82.4252 0.949517 81.0944 1.09828C81.0983 1.09785 81.0687 1.10074 81.0016 1.10732C80.8879 1.11846 80.6662 1.14018 80.3168 1.17414C79.7987 1.22451 79.0541 1.29665 78.1123 1.38773C76.2289 1.56987 73.5599 1.82751 70.3444 2.13764C63.9134 2.75789 55.2978 3.58799 46.4122 4.44383C35.7191 5.47374 24.6345 6.54097 16.4965 7.32449C11.1102 7.84309 7.01479 8.23739 5.17811 8.41434C3.85793 8.54153 2.64238 9.18803 1.79893 10.2116C0.955479 11.2351 0.553252 12.5518 0.680757 13.872L5.0499 59.1086C5.27736 61.4637 7.12445 63.3369 9.47612 63.5975C11.8278 63.858 14.0401 62.4346 14.7776 60.1864C15.6659 57.4785 17.2542 52.5142 17.8085 50.7225C17.9305 50.3292 18.052 49.9371 18.1731 49.5463C18.8423 47.3861 19.5008 45.2606 20.1859 43.1421M67.5741 35.7236C69.8589 37.9125 71.447 40.8119 72.6087 44.203C73.2625 46.028 73.4344 48.0339 72.874 50.0276C72.8151 50.2371 72.7493 50.4422 72.677 50.6432C76.417 50.8652 79.9896 52.2824 82.9029 55.2759C85.0306 57.4605 85.9163 60.0624 86.4548 61.8413C87.7877 66.2369 88.9755 74.1763 89.3332 76.7148C89.5235 78.0654 89.1538 79.4352 88.3097 80.5066C87.4657 81.5781 86.2205 82.2582 84.8628 82.3893L17.8004 88.8665C16.2046 89.0206 14.6317 88.4001 13.5708 87.1981C12.51 85.996 12.0899 84.3581 12.4413 82.7939C12.7665 81.346 13.4221 78.6622 14.1274 76.1069C14.4798 74.8302 14.8576 73.5381 15.2235 72.427C15.54 71.4659 15.9892 70.1866 16.5385 69.2443L16.5394 69.2427C18.1126 66.5463 20.1576 64.2104 22.722 62.3205C23.6411 61.6397 24.5851 61.1456 25.2447 60.8103C25.5714 60.6443 25.91 60.4698 26.2596 60.2897C26.3108 60.2633 26.3622 60.2369 26.4138 60.2103C25.384 59.3017 24.4923 58.0419 24.0387 56.2988L24.0354 56.2863C23.6612 54.833 23.7491 53.3986 23.9932 52.2819L23.9943 52.2769C24.8574 48.3491 26.6005 44.9473 29.2912 42.3266C29.218 42.2059 29.1599 42.0993 29.1151 42.013C28.8601 41.5213 28.717 41.06 28.6339 40.6973C28.5636 40.3905 28.4837 39.9245 28.4904 39.3614C28.1756 39.3092 27.8618 39.2262 27.5529 39.1106C26.567 38.7419 25.7602 38.091 25.1972 37.2794C24.2984 37.4962 23.343 37.4634 22.4408 37.1618C21.6014 39.1323 20.8416 41.1169 20.1864 43.1405" fill="white"/>
</svg>
