<svg width="77" height="73" viewBox="0 0 77 73" fill="none" xmlns="http://www.w3.org/2000/svg">
<path d="M56.5629 6.58423C56.4491 6.69797 56.3354 6.89646 56.351 7.04588C56.4737 8.18998 56.4915 9.46565 56.9844 10.5116C57.3167 11.2141 57.649 11.9233 58.0705 12.5723C58.7172 13.5603 59.4354 14.4546 59.926 15.5251C60.3966 16.5488 60.9586 17.5323 61.4805 18.5359C61.5362 18.6452 61.5875 18.7589 61.5652 18.9217C61.4559 18.7991 61.3422 18.6764 61.2329 18.5515C59.1878 16.183 57.1695 13.7922 55.0887 11.4572C53.2934 9.44558 51.2684 7.6748 49.143 6.01999C48.8308 5.7769 48.5163 5.56057 48.1104 5.83265C47.7134 6.10027 47.5528 6.53739 47.7067 7.0325C47.7803 7.2689 47.8941 7.49415 48.0123 7.71271C49.1943 9.92954 50.6729 11.9323 52.3634 13.7833C54.5758 16.2009 56.7926 18.614 58.6615 21.3192C58.9782 21.7764 59.2793 22.2447 59.5313 22.7777C59.4175 22.6885 59.2993 22.6038 59.1901 22.5123C56.9375 20.6256 54.6828 18.7433 52.437 16.8521C51.5382 16.0961 50.6618 15.3132 49.763 14.5572C48.7349 13.6964 47.6354 12.9448 46.3753 12.463C46.1746 12.385 45.8668 12.1597 45.6527 12.162C45.0193 12.1731 44.8342 12.6526 44.861 13.2815C44.9011 14.2784 45.1576 15.1928 45.8668 15.9355C46.9819 17.1063 48.1059 18.2683 49.2099 19.4458C50.4454 20.7639 51.6542 22.1065 52.8964 23.42C53.59 24.156 54.3371 24.8429 55.0441 25.57C55.2872 25.822 55.4768 26.1297 55.6909 26.413C55.6574 26.4643 55.6217 26.5133 55.586 26.5646C54.8434 26.3884 54.1007 26.2167 53.3581 26.0361C52.6176 25.8577 51.875 25.6837 51.1368 25.4874C48.9936 24.9187 47.147 25.483 45.5055 26.9148C43.2151 28.9108 42.1825 32.1781 42.2249 35.1754C42.2316 35.7397 42.2873 36.3218 42.8895 36.6095C43.5139 36.9083 44.2588 36.6206 44.7406 36.2504C45.5791 35.6126 45.6148 34.3369 45.6103 33.2552C45.6036 32.1803 46.1478 30.8912 46.6831 29.9768C47.3053 28.913 48.5274 28.9599 49.9481 28.9599C54.7296 29.8676 57.7337 32.6687 59.2748 39.1787C59.8056 41.2327 59.112 42.9745 57.3546 44.1699C55.2983 45.5682 53.0726 45.8626 50.7331 44.9571C49.6715 44.5468 48.8798 43.8063 48.3067 42.8139C47.6153 41.6185 46.6875 40.1332 45.9627 38.9601C45.3316 37.9409 44.357 37.9119 43.3534 38.2643C42.9765 38.3959 42.8828 38.572 42.9363 38.9846C43.4537 42.9544 44.9346 46.3175 48.8129 48.1285C50.7086 49.0116 52.7358 49.17 54.7921 49.1633C57.0401 49.1566 59.2926 49.0719 61.5318 49.2034C64.6808 49.3885 67.3905 50.5995 69.4111 53.1219C70.5217 54.5069 70.9745 56.1594 71.3134 57.8522C72.1275 61.9044 72.5401 69.5184 72.656 72.1701H5.28155C6.15802 69.5005 8.81642 62.0405 9.96944 60.4392C11.4191 58.4276 13.1832 56.775 15.3041 55.5082C15.904 55.1469 16.5619 54.8704 17.2154 54.6139C20.0567 53.4988 22.8689 52.2878 25.8819 51.699C27.6237 51.3578 29.3834 51.1058 31.1229 50.7534C31.8656 50.6018 32.5926 50.3431 33.2929 50.0509C34.2207 49.6606 34.9388 48.9916 35.5075 48.1575C37.0017 45.9674 37.7801 43.5053 38.2596 40.9316C38.331 40.5458 38.3778 40.1466 38.3689 39.7541C38.3622 39.3303 38.099 39.0649 37.6887 38.9356C36.7118 38.6323 35.9759 38.911 35.5231 39.8299C35.057 40.7755 34.5775 41.7233 34.2028 42.7091C33.0989 45.6262 30.8062 47.0245 27.9382 47.6691C25.9199 48.1218 23.9305 47.8742 22.0081 47.1539C20.7859 46.6967 19.7801 45.9473 19.5593 44.5646C19.4746 44.0249 19.5526 43.4094 19.7221 42.883C21.3524 37.8383 24.6152 34.4819 29.8584 33.2307C30.4673 33.0835 31.1006 32.9943 31.7273 32.9653C33.1435 32.9029 34.2943 33.4805 35.1953 34.5599C35.5254 34.9524 35.8287 36.518 36.2033 36.8593C36.6516 37.2674 37.2047 37.3789 37.7645 37.3789C38.5294 37.3254 39.2877 37.2674 39.2565 36.3352C39.232 35.6237 39.029 34.319 38.8283 33.6388C37.8069 30.1664 34.8228 28.1347 31.1363 28.3399C29.3878 28.4358 27.7709 28.9532 26.2499 29.8096C26.1117 29.8899 25.8463 29.9255 25.7481 29.8475C25.65 29.7694 25.6188 29.4907 25.679 29.3524C26.0737 28.4224 26.4707 27.4924 26.9257 26.5936C28.6452 23.1881 30.4293 19.8183 32.0953 16.3882C32.6997 15.1438 33.0498 13.7744 33.4981 12.4541C33.7211 11.7962 33.6408 11.4394 33.2907 11.2208C32.7688 10.893 32.2403 10.9309 31.7608 11.3636C31.0605 11.9902 30.3535 12.6125 29.6934 13.2793C29.2942 13.683 28.973 14.1647 28.6273 14.6174C27.0907 16.6402 25.5162 18.634 24.0398 20.7014C23.2771 21.7675 22.695 22.9606 21.9657 24.0891C22.1285 23.6208 22.2423 23.1279 22.4608 22.6863C24.1848 19.2339 25.9667 15.8106 27.6505 12.3359C28.3575 10.8774 28.8615 9.32069 29.4681 7.81307C29.6131 7.45178 29.4525 7.25998 29.1648 7.09941C28.634 6.80056 27.7642 6.87862 27.2558 7.28897C25.8284 8.43976 24.5349 9.73328 23.5558 11.281C21.7828 14.0844 20.0879 16.9368 18.3528 19.7625C18.0606 20.2353 17.7462 20.697 17.4139 21.1408C17.2823 21.317 17.0749 21.4374 16.9031 21.5824C16.863 21.5578 16.8229 21.5333 16.7849 21.5088C17.2087 20.3892 17.5878 19.2496 18.0651 18.1545C19.1267 15.7191 20.2462 13.3105 21.3145 10.8796C21.4595 10.5473 21.513 10.1414 21.4907 9.77565C21.455 9.24263 21.0268 9.03745 20.5451 9.25824C19.5883 9.69536 18.7899 10.3421 18.2145 11.2186C14.267 17.2357 10.3419 23.2662 7.46492 29.8966C6.40334 32.3453 5.37745 34.8097 4.34486 37.2718C3.63566 38.9668 1.58833 43.7305 0.450928 46.3242V0.877136C9.71743 0.879366 76.2021 0.901668 76.7953 0.892748V40.3807C73.5771 33.5095 70.2162 26.7096 66.2665 20.2264C63.9783 16.4685 61.4582 12.8489 59.0005 9.19357C58.4073 8.31041 57.6512 7.53207 56.9532 6.72027C56.8729 6.62437 56.6097 6.53739 56.5629 6.58423Z" fill="#C22F12"/>
</svg>
