<svg width="77" height="73" viewBox="0 0 77 73" fill="none" xmlns="http://www.w3.org/2000/svg">
<path d="M56.1119 6.58423C55.9982 6.69797 55.8845 6.89646 55.9001 7.04588C56.0227 8.18998 56.0406 9.46565 56.5335 10.5116C56.8658 11.2141 57.1981 11.9233 57.6196 12.5723C58.2663 13.5603 58.9844 14.4546 59.4751 15.5251C59.9457 16.5488 60.5077 17.5323 61.0295 18.5359C61.0853 18.6452 61.1366 18.7589 61.1143 18.9217C61.005 18.7991 60.8913 18.6764 60.782 18.5515C58.7369 16.183 56.7186 13.7922 54.6378 11.4572C52.8425 9.44558 50.8174 7.6748 48.6921 6.01999C48.3798 5.7769 48.0654 5.56057 47.6595 5.83265C47.2625 6.10027 47.1019 6.53739 47.2558 7.0325C47.3294 7.2689 47.4431 7.49415 47.5613 7.71271C48.7433 9.92954 50.222 11.9323 51.9125 13.7833C54.1248 16.2009 56.3417 18.614 58.2106 21.3192C58.5273 21.7764 58.8283 22.2447 59.0803 22.7777C58.9666 22.6885 58.8484 22.6038 58.7391 22.5123C56.4866 20.6256 54.2319 18.7433 51.9861 16.8521C51.0873 16.0961 50.2108 15.3132 49.3121 14.5572C48.2839 13.6964 47.1844 12.9448 45.9244 12.463C45.7237 12.385 45.4159 12.1597 45.2018 12.162C44.5684 12.1731 44.3833 12.6526 44.4101 13.2815C44.4502 14.2784 44.7067 15.1928 45.4159 15.9355C46.531 17.1063 47.655 18.2683 48.759 19.4458C49.9945 20.7639 51.2033 22.1065 52.4455 23.42C53.1391 24.156 53.8862 24.8429 54.5932 25.57C54.8363 25.822 55.0258 26.1297 55.2399 26.413C55.2065 26.4643 55.1708 26.5133 55.1351 26.5646C54.3925 26.3884 53.6498 26.2167 52.9071 26.0361C52.1667 25.8577 51.4241 25.6837 50.6859 25.4874C48.5426 24.9187 46.696 25.483 45.0546 26.9148C42.7642 28.9108 41.7316 32.1781 41.774 35.1754C41.7807 35.7397 41.8364 36.3218 42.4386 36.6095C43.063 36.9083 43.8079 36.6206 44.2896 36.2504C45.1282 35.6126 45.1639 34.3369 45.1594 33.2552C45.1527 32.1803 45.6969 30.8912 46.2321 29.9768C46.8544 28.913 48.0765 28.9599 49.4972 28.9599C54.2787 29.8676 57.2828 32.6687 58.8239 39.1787C59.3547 41.2327 58.6611 42.9745 56.9037 44.1699C54.8474 45.5682 52.6217 45.8626 50.2822 44.9571C49.2206 44.5468 48.4289 43.8063 47.8557 42.8139C47.1644 41.6185 46.2366 40.1332 45.5118 38.9601C44.8806 37.9409 43.906 37.9119 42.9024 38.2643C42.5255 38.3959 42.4319 38.572 42.4854 38.9846C43.0028 42.9544 44.4837 46.3175 48.362 48.1285C50.2577 49.0116 52.2849 49.17 54.3412 49.1633C56.5892 49.1566 58.8417 49.0719 61.0808 49.2034C64.2299 49.3885 66.9396 50.5995 68.9602 53.1219C70.0708 54.5069 70.5235 56.1594 70.8625 57.8522C71.6765 61.9044 72.0891 69.5184 72.2051 72.1701H4.83062C5.70709 69.5005 8.3655 62.0405 9.51851 60.4392C10.9681 58.4276 12.7322 56.775 14.8532 55.5082C15.4531 55.1469 16.111 54.8704 16.7644 54.6139C19.6057 53.4988 22.418 52.2878 25.431 51.699C27.1728 51.3578 28.9324 51.1058 30.672 50.7534C31.4147 50.6018 32.1417 50.3431 32.842 50.0509C33.7698 49.6606 34.4879 48.9916 35.0566 48.1575C36.5508 45.9674 37.3292 43.5053 37.8087 40.9316C37.88 40.5458 37.9269 40.1466 37.9179 39.7541C37.9112 39.3303 37.6481 39.0649 37.2377 38.9356C36.2609 38.6323 35.5249 38.911 35.0722 39.8299C34.6061 40.7755 34.1266 41.7233 33.7519 42.7091C32.648 45.6262 30.3553 47.0245 27.4873 47.6691C25.4689 48.1218 23.4796 47.8742 21.5572 47.1539C20.335 46.6967 19.3292 45.9473 19.1084 44.5646C19.0236 44.0249 19.1017 43.4094 19.2712 42.883C20.9015 37.8383 24.1643 34.4819 29.4075 33.2307C30.0163 33.0835 30.6497 32.9943 31.2764 32.9653C32.6926 32.9029 33.8434 33.4805 34.7444 34.5599C35.0744 34.9524 35.3777 36.518 35.7524 36.8593C36.2007 37.2674 36.7538 37.3789 37.3136 37.3789C38.0785 37.3254 38.8368 37.2674 38.8056 36.3352C38.781 35.6237 38.5781 34.319 38.3774 33.6388C37.3559 30.1664 34.3719 28.1347 30.6854 28.3399C28.9369 28.4358 27.32 28.9532 25.799 29.8096C25.6607 29.8899 25.3953 29.9255 25.2972 29.8475C25.1991 29.7694 25.1679 29.4907 25.2281 29.3524C25.6228 28.4224 26.0198 27.4924 26.4748 26.5936C28.1942 23.1881 29.9784 19.8183 31.6444 16.3882C32.2488 15.1438 32.5989 13.7744 33.0472 12.4541C33.2702 11.7962 33.1899 11.4394 32.8398 11.2208C32.3179 10.893 31.7893 10.9309 31.3098 11.3636C30.6096 11.9902 29.9026 12.6125 29.2424 13.2793C28.8432 13.683 28.5221 14.1647 28.1764 14.6174C26.6398 16.6402 25.0653 18.634 23.5889 20.7014C22.8261 21.7675 22.2441 22.9606 21.5148 24.0891C21.6776 23.6208 21.7913 23.1279 22.0099 22.6863C23.7338 19.2339 25.5158 15.8106 27.1996 12.3359C27.9065 10.8774 28.4106 9.32069 29.0172 7.81307C29.1622 7.45178 29.0016 7.25998 28.7139 7.09941C28.1831 6.80056 27.3133 6.87862 26.8048 7.28897C25.3775 8.43976 24.084 9.73328 23.1049 11.281C21.3319 14.0844 19.6369 16.9368 17.9019 19.7625C17.6097 20.2353 17.2952 20.697 16.9629 21.1408C16.8314 21.317 16.6239 21.4374 16.4522 21.5824C16.4121 21.5578 16.3719 21.5333 16.334 21.5088C16.7578 20.3892 17.1369 19.2496 17.6142 18.1545C18.6757 15.7191 19.7953 13.3105 20.8636 10.8796C21.0085 10.5473 21.0621 10.1414 21.0397 9.77565C21.0041 9.24263 20.5759 9.03745 20.0941 9.25824C19.1374 9.69536 18.339 10.3421 17.7636 11.2186C13.8161 17.2357 9.89096 23.2662 7.01399 29.8966C5.95242 32.3453 4.92652 34.8097 3.89394 37.2718C3.18473 38.9668 1.1374 43.7305 0 46.3242V0.877136C9.2665 0.879366 75.7511 0.901668 76.3444 0.892748V40.3807C73.1262 33.5095 69.7653 26.7096 65.8156 20.2264C63.5274 16.4685 61.0072 12.8489 58.5496 9.19357C57.9563 8.31041 57.2003 7.53207 56.5022 6.72027C56.4219 6.62437 56.1588 6.53739 56.1119 6.58423Z" fill="#3A3A3A"/>
</svg>
