<svg width="78" height="73" viewBox="0 0 78 73" fill="none" xmlns="http://www.w3.org/2000/svg">
<path d="M56.8373 6.58423C56.7235 6.69797 56.6098 6.89646 56.6254 7.04588C56.7481 8.18998 56.7659 9.46565 57.2588 10.5116C57.5911 11.2141 57.9234 11.9233 58.3449 12.5723C58.9917 13.5603 59.7098 14.4546 60.2004 15.5251C60.671 16.5488 61.233 17.5323 61.7549 18.5359C61.8106 18.6452 61.8619 18.7589 61.8396 18.9217C61.7304 18.7991 61.6166 18.6764 61.5073 18.5515C59.4622 16.183 57.4439 13.7922 55.3631 11.4572C53.5678 9.44558 51.5428 7.6748 49.4174 6.01999C49.1052 5.7769 48.7907 5.56057 48.3848 5.83265C47.9878 6.10027 47.8273 6.53739 47.9811 7.0325C48.0547 7.2689 48.1685 7.49415 48.2867 7.71271C49.4687 9.92954 50.9473 11.9323 52.6378 13.7833C54.8502 16.2009 57.067 18.614 58.9359 21.3192C59.2526 21.7764 59.5537 22.2447 59.8057 22.7777C59.6919 22.6885 59.5737 22.6038 59.4645 22.5123C57.212 20.6256 54.9572 18.7433 52.7114 16.8521C51.8126 16.0961 50.9362 15.3132 50.0374 14.5572C49.0093 13.6964 47.9098 12.9448 46.6497 12.463C46.449 12.385 46.1412 12.1597 45.9271 12.162C45.2937 12.1731 45.1086 12.6526 45.1354 13.2815C45.1755 14.2784 45.432 15.1928 46.1412 15.9355C47.2563 17.1063 48.3804 18.2683 49.4843 19.4458C50.7198 20.7639 51.9286 22.1065 53.1708 23.42C53.8644 24.156 54.6115 24.8429 55.3185 25.57C55.5616 25.822 55.7512 26.1297 55.9653 26.413C55.9318 26.4643 55.8961 26.5133 55.8605 26.5646C55.1178 26.3884 54.3751 26.2167 53.6325 26.0361C52.8921 25.8577 52.1494 25.6837 51.4112 25.4874C49.268 24.9187 47.4214 25.483 45.7799 26.9148C43.4895 28.9108 42.4569 32.1781 42.4993 35.1754C42.506 35.7397 42.5617 36.3218 43.1639 36.6095C43.7884 36.9083 44.5332 36.6206 45.015 36.2504C45.8535 35.6126 45.8892 34.3369 45.8848 33.2552C45.8781 32.1803 46.4222 30.8912 46.9575 29.9768C47.5797 28.913 48.8019 28.9599 50.2225 28.9599C55.0041 29.8676 58.0081 32.6687 59.5492 39.1787C60.08 41.2327 59.3864 42.9745 57.629 44.1699C55.5728 45.5682 53.347 45.8626 51.0075 44.9571C49.946 44.5468 49.1542 43.8063 48.5811 42.8139C47.8897 41.6185 46.9619 40.1332 46.2371 38.9601C45.606 37.9409 44.6314 37.9119 43.6278 38.2643C43.2509 38.3959 43.1572 38.572 43.2107 38.9846C43.7281 42.9544 45.209 46.3175 49.0873 48.1285C50.983 49.0116 53.0103 49.17 55.0665 49.1633C57.3146 49.1566 59.5671 49.0719 61.8062 49.2034C64.9552 49.3885 67.6649 50.5995 69.6855 53.1219C70.7961 54.5069 71.2489 56.1594 71.5879 57.8522C72.4019 61.9044 72.8145 69.5184 72.9304 72.1701H5.55596C6.43244 69.5005 9.09084 62.0405 10.2439 60.4392C11.6935 58.4276 13.4576 56.775 15.5785 55.5082C16.1784 55.1469 16.8363 54.8704 17.4898 54.6139C20.3311 53.4988 23.1434 52.2878 26.1564 51.699C27.8982 51.3578 29.6578 51.1058 31.3973 50.7534C32.14 50.6018 32.867 50.3431 33.5673 50.0509C34.4951 49.6606 35.2132 48.9916 35.7819 48.1575C37.2762 45.9674 38.0545 43.5053 38.534 40.9316C38.6054 40.5458 38.6522 40.1466 38.6433 39.7541C38.6366 39.3303 38.3734 39.0649 37.9631 38.9356C36.9862 38.6323 36.2503 38.911 35.7975 39.8299C35.3314 40.7755 34.8519 41.7233 34.4773 42.7091C33.3733 45.6262 31.0807 47.0245 28.2126 47.6691C26.1943 48.1218 24.2049 47.8742 22.2825 47.1539C21.0603 46.6967 20.0545 45.9473 19.8337 44.5646C19.749 44.0249 19.827 43.4094 19.9965 42.883C21.6268 37.8383 24.8896 34.4819 30.1328 33.2307C30.7417 33.0835 31.375 32.9943 32.0017 32.9653C33.4179 32.9029 34.5687 33.4805 35.4697 34.5599C35.7998 34.9524 36.1031 36.518 36.4777 36.8593C36.926 37.2674 37.4791 37.3789 38.0389 37.3789C38.8039 37.3254 39.5621 37.2674 39.5309 36.3352C39.5064 35.6237 39.3034 34.319 39.1027 33.6388C38.0813 30.1664 35.0973 28.1347 31.4107 28.3399C29.6622 28.4358 28.0453 28.9532 26.5243 29.8096C26.3861 29.8899 26.1207 29.9255 26.0226 29.8475C25.9244 29.7694 25.8932 29.4907 25.9534 29.3524C26.3482 28.4224 26.7451 27.4924 27.2001 26.5936C28.9196 23.1881 30.7038 19.8183 32.3697 16.3882C32.9741 15.1438 33.3242 13.7744 33.7725 12.4541C33.9955 11.7962 33.9152 11.4394 33.5651 11.2208C33.0432 10.893 32.5147 10.9309 32.0352 11.3636C31.3349 11.9902 30.6279 12.6125 29.9678 13.2793C29.5686 13.683 29.2474 14.1647 28.9017 14.6174C27.3651 16.6402 25.7906 18.634 24.3142 20.7014C23.5515 21.7675 22.9694 22.9606 22.2401 24.0891C22.4029 23.6208 22.5167 23.1279 22.7352 22.6863C24.4592 19.2339 26.2411 15.8106 27.9249 12.3359C28.6319 10.8774 29.1359 9.32069 29.7425 7.81307C29.8875 7.45178 29.7269 7.25998 29.4392 7.09941C28.9084 6.80056 28.0387 6.87862 27.5302 7.28897C26.1028 8.43976 24.8093 9.73328 23.8303 11.281C22.0572 14.0844 20.3623 16.9368 18.6272 19.7625C18.335 20.2353 18.0206 20.697 17.6883 21.1408C17.5567 21.317 17.3493 21.4374 17.1776 21.5824C17.1374 21.5578 17.0973 21.5333 17.0594 21.5088C17.4831 20.3892 17.8622 19.2496 18.3395 18.1545C19.4011 15.7191 20.5206 13.3105 21.5889 10.8796C21.7339 10.5473 21.7874 10.1414 21.7651 9.77565C21.7294 9.24263 21.3012 9.03745 20.8195 9.25824C19.8627 9.69536 19.0643 10.3421 18.4889 11.2186C14.5415 17.2357 10.6163 23.2662 7.73934 29.8966C6.67776 32.3453 5.65186 34.8097 4.61928 37.2718C3.91007 38.9668 1.86275 43.7305 0.725342 46.3242V0.877136C9.99184 0.879366 76.4765 0.901668 77.0697 0.892748V40.3807C73.8515 33.5095 70.4906 26.7096 66.5409 20.2264C64.2527 16.4685 61.7326 12.8489 59.2749 9.19357C58.6817 8.31041 57.9256 7.53207 57.2276 6.72027C57.1473 6.62437 56.8841 6.53739 56.8373 6.58423Z" fill="#FFC800"/>
</svg>
