<svg width="77" height="72" viewBox="0 0 77 72" fill="none" xmlns="http://www.w3.org/2000/svg">
<path d="M56.1119 5.70709C55.9982 5.82083 55.8845 6.01932 55.9001 6.16875C56.0227 7.31284 56.0406 8.58852 56.5335 9.63448C56.8658 10.337 57.1981 11.0462 57.6196 11.6952C58.2663 12.6832 58.9844 13.5775 59.4751 14.648C59.9457 15.6716 60.5077 16.6552 61.0295 17.6588C61.0853 17.768 61.1366 17.8818 61.1143 18.0446C61.005 17.9219 60.8913 17.7993 60.782 17.6744C58.7369 15.3059 56.7186 12.9151 54.6378 10.5801C52.8425 8.56844 50.8174 6.79766 48.6921 5.14285C48.3798 4.89976 48.0654 4.68343 47.6595 4.95551C47.2625 5.22314 47.1019 5.66026 47.2558 6.15536C47.3294 6.39177 47.4431 6.61702 47.5613 6.83558C48.7433 9.0524 50.222 11.0551 51.9125 12.9062C54.1248 15.3237 56.3417 17.7368 58.2106 20.4421C58.5273 20.8992 58.8283 21.3676 59.0803 21.9006C58.9666 21.8114 58.8484 21.7267 58.7391 21.6352C56.4866 19.7485 54.2319 17.8662 51.9861 15.975C51.0873 15.2189 50.2108 14.4361 49.3121 13.6801C48.2839 12.8192 47.1844 12.0676 45.9244 11.5859C45.7237 11.5079 45.4159 11.2826 45.2018 11.2848C44.5684 11.296 44.3833 11.7755 44.4101 12.4044C44.4502 13.4013 44.7067 14.3157 45.4159 15.0583C46.531 16.2292 47.655 17.3911 48.759 18.5687C49.9945 19.8867 51.2033 21.2293 52.4455 22.5429C53.1391 23.2789 53.8862 23.9658 54.5932 24.6928C54.8363 24.9448 55.0258 25.2526 55.2399 25.5358C55.2065 25.5871 55.1708 25.6362 55.1351 25.6875C54.3925 25.5113 53.6498 25.3396 52.9071 25.1589C52.1667 24.9805 51.4241 24.8066 50.6859 24.6103C48.5426 24.0416 46.696 24.6058 45.0546 26.0376C42.7642 28.0337 41.7316 31.3009 41.774 34.2983C41.7807 34.8626 41.8364 35.4446 42.4386 35.7323C43.063 36.0312 43.8079 35.7435 44.2896 35.3733C45.1282 34.7354 45.1639 33.4598 45.1594 32.3781C45.1527 31.3031 45.6969 30.0141 46.2321 29.0997C46.8544 28.0359 48.0765 28.0827 49.4972 28.0827C54.2787 28.9904 57.2828 31.7916 58.8239 38.3015C59.3547 40.3555 58.6611 42.0973 56.9037 43.2927C54.8474 44.6911 52.6217 44.9855 50.2822 44.08C49.2206 43.6696 48.4289 42.9292 47.8557 41.9368C47.1644 40.7414 46.2366 39.2561 45.5118 38.083C44.8806 37.0638 43.906 37.0348 42.9024 37.3871C42.5255 37.5187 42.4319 37.6949 42.4854 38.1075C43.0028 42.0773 44.4837 45.4404 48.362 47.2513C50.2577 48.1345 52.2849 48.2928 54.3412 48.2862C56.5892 48.2795 58.8417 48.1947 61.0808 48.3263C64.2299 48.5114 66.9396 49.7224 68.9602 52.2448C70.0708 53.6297 70.5235 55.2823 70.8625 56.975C71.6765 61.0273 72.0891 68.6412 72.2051 71.2929H4.83062C5.70709 68.6234 8.3655 61.1634 9.51851 59.5621C10.9681 57.5504 12.7322 55.8978 14.8532 54.6311C15.4531 54.2698 16.111 53.9932 16.7644 53.7368C19.6057 52.6217 22.418 51.4107 25.431 50.8219C27.1728 50.4807 28.9324 50.2287 30.672 49.8763C31.4147 49.7246 32.1417 49.4659 32.842 49.1738C33.7698 48.7835 34.4879 48.1144 35.0566 47.2803C36.5508 45.0903 37.3292 42.6281 37.8087 40.0545C37.88 39.6686 37.9269 39.2694 37.9179 38.8769C37.9112 38.4532 37.6481 38.1878 37.2377 38.0584C36.2609 37.7551 35.5249 38.0339 35.0722 38.9527C34.6061 39.8984 34.1266 40.8462 33.7519 41.8319C32.648 44.7491 30.3553 46.1474 27.4873 46.7919C25.4689 47.2446 23.4796 46.9971 21.5572 46.2767C20.335 45.8195 19.3292 45.0702 19.1084 43.6875C19.0236 43.1478 19.1017 42.5322 19.2712 42.0059C20.9015 36.9612 24.1643 33.6047 29.4075 32.3536C30.0163 32.2064 30.6497 32.1172 31.2764 32.0882C32.6926 32.0257 33.8434 32.6034 34.7444 33.6828C35.0744 34.0753 35.3777 35.6409 35.7524 35.9821C36.2007 36.3902 36.7538 36.5018 37.3136 36.5018C38.0785 36.4482 38.8368 36.3902 38.8056 35.458C38.781 34.7466 38.5781 33.4419 38.3774 32.7617C37.3559 29.2893 34.3719 27.2576 30.6854 27.4627C28.9369 27.5586 27.32 28.076 25.799 28.9324C25.6607 29.0127 25.3953 29.0484 25.2972 28.9704C25.1991 28.8923 25.1679 28.6135 25.2281 28.4752C25.6228 27.5453 26.0198 26.6153 26.4748 25.7165C28.1942 22.311 29.9784 18.9411 31.6444 15.5111C32.2488 14.2666 32.5989 12.8973 33.0472 11.577C33.2702 10.9191 33.1899 10.5622 32.8398 10.3437C32.3179 10.0158 31.7893 10.0538 31.3098 10.4864C30.6096 11.1131 29.9026 11.7353 29.2424 12.4022C28.8432 12.8058 28.5221 13.2876 28.1764 13.7403C26.6398 15.7631 25.0653 17.7569 23.5889 19.8243C22.8261 20.8903 22.2441 22.0835 21.5148 23.212C21.6776 22.7436 21.7913 22.2507 22.0099 21.8092C23.7338 18.3568 25.5158 14.9334 27.1996 11.4588C27.9065 10.0002 28.4106 8.44355 29.0172 6.93594C29.1622 6.57464 29.0016 6.38284 28.7139 6.22227C28.1831 5.92342 27.3133 6.00148 26.8048 6.41184C25.3775 7.56262 24.084 8.85614 23.1049 10.4039C21.3319 13.2073 19.6369 16.0597 17.9019 18.8854C17.6097 19.3582 17.2952 19.8198 16.9629 20.2636C16.8314 20.4398 16.6239 20.5603 16.4522 20.7052C16.4121 20.6807 16.3719 20.6562 16.334 20.6316C16.7578 19.5121 17.1369 18.3724 17.6142 17.2774C18.6757 14.842 19.7953 12.4334 20.8636 10.0025C21.0085 9.67017 21.0621 9.26427 21.0397 8.89852C21.0041 8.3655 20.5759 8.16032 20.0941 8.38111C19.1374 8.81823 18.339 9.46499 17.7636 10.3415C13.8161 16.3585 9.89096 22.389 7.01399 29.0194C5.95242 31.4682 4.92652 33.9326 3.89394 36.3947C3.18473 38.0897 1.1374 42.8534 0 45.4471V0C9.2665 0.0022302 75.7511 0.0245322 76.3444 0.0156114V39.5036C73.1262 32.6324 69.7653 25.8325 65.8156 19.3493C63.5274 15.5914 61.0072 11.9717 58.5496 8.31643C57.9563 7.43327 57.2003 6.65493 56.5022 5.84314C56.4219 5.74724 56.1588 5.66026 56.1119 5.70709Z" fill="#FFC800"/>
</svg>
