<svg width="77" height="72" viewBox="0 0 77 72" fill="none" xmlns="http://www.w3.org/2000/svg">
<path d="M56.1119 6.26874C55.9982 6.38248 55.8845 6.58097 55.9001 6.73039C56.0227 7.87449 56.0406 9.15016 56.5335 10.1961C56.8658 10.8986 57.1981 11.6078 57.6196 12.2568C58.2663 13.2448 58.9844 14.1391 59.4751 15.2096C59.9457 16.2333 60.5077 17.2168 61.0295 18.2204C61.0853 18.3297 61.1366 18.4434 61.1143 18.6062C61.005 18.4836 60.8913 18.3609 60.782 18.236C58.7369 15.8675 56.7186 13.4768 54.6378 11.1417C52.8425 9.13009 50.8174 7.35931 48.6921 5.7045C48.3798 5.4614 48.0654 5.24507 47.6595 5.51716C47.2625 5.78478 47.1019 6.2219 47.2558 6.71701C47.3294 6.95341 47.4431 7.17866 47.5613 7.39722C48.7433 9.61405 50.222 11.6168 51.9125 13.4678C54.1248 15.8854 56.3417 18.2985 58.2106 21.0037C58.5273 21.4609 58.8283 21.9292 59.0803 22.4623C58.9666 22.373 58.8484 22.2883 58.7391 22.1969C56.4866 20.3101 54.2319 18.4278 51.9861 16.5366C51.0873 15.7806 50.2108 14.9978 49.312 14.2417C48.2839 13.3809 47.1844 12.6293 45.9244 12.1476C45.7237 12.0695 45.4159 11.8442 45.2018 11.8465C44.5684 11.8576 44.3833 12.3371 44.4101 12.966C44.4502 13.9629 44.7067 14.8773 45.4159 15.62C46.531 16.7908 47.655 17.9528 48.759 19.1303C49.9945 20.4484 51.2033 21.791 52.4455 23.1046C53.1391 23.8405 53.8862 24.5274 54.5932 25.2545C54.8363 25.5065 55.0258 25.8142 55.2399 26.0975C55.2065 26.1488 55.1708 26.1978 55.1351 26.2491C54.3925 26.073 53.6498 25.9012 52.9071 25.7206C52.1667 25.5422 51.4241 25.3682 50.6859 25.1719C48.5426 24.6032 46.696 25.1675 45.0546 26.5993C42.7642 28.5953 41.7316 31.8626 41.774 34.86C41.7807 35.4242 41.8364 36.0063 42.4386 36.294C43.063 36.5928 43.8079 36.3051 44.2896 35.9349C45.1282 35.2971 45.1639 34.0214 45.1594 32.9398C45.1527 31.8648 45.6969 30.5757 46.2321 29.6614C46.8544 28.5975 48.0765 28.6444 49.4972 28.6444C54.2787 29.5521 57.2828 32.3532 58.8239 38.8632C59.3547 40.9172 58.6611 42.659 56.9037 43.8544C54.8474 45.2527 52.6217 45.5471 50.2822 44.6416C49.2206 44.2313 48.4289 43.4908 47.8557 42.4984C47.1644 41.303 46.2366 39.8177 45.5118 38.6446C44.8806 37.6254 43.906 37.5964 42.9024 37.9488C42.5255 38.0804 42.4319 38.2566 42.4854 38.6691C43.0028 42.6389 44.4837 46.0021 48.362 47.813C50.2577 48.6961 52.2849 48.8545 54.3412 48.8478C56.5892 48.8411 58.8417 48.7564 61.0808 48.8879C64.2299 49.0731 66.9396 50.284 68.9602 52.8064C70.0708 54.1914 70.5235 55.844 70.8625 57.5367C71.6765 61.589 72.0891 69.2029 72.2051 71.8546H4.83062C5.70709 69.185 8.3655 61.725 9.51851 60.1237C10.9681 58.1121 12.7322 56.4595 14.8532 55.1927C15.4531 54.8314 16.111 54.5549 16.7644 54.2984C19.6057 53.1833 22.418 51.9723 25.431 51.3835C27.1728 51.0423 28.9324 50.7903 30.672 50.4379C31.4147 50.2863 32.1417 50.0276 32.842 49.7354C33.7698 49.3451 34.4879 48.6761 35.0566 47.842C36.5508 45.6519 37.3292 43.1898 37.8087 40.6161C37.88 40.2303 37.9269 39.8311 37.9179 39.4386C37.9112 39.0148 37.6481 38.7494 37.2377 38.6201C36.2609 38.3168 35.5249 38.5956 35.0722 39.5144C34.6061 40.46 34.1266 41.4078 33.7519 42.3936C32.648 45.3107 30.3553 46.709 27.4873 47.3536C25.4689 47.8063 23.4796 47.5587 21.5572 46.8384C20.335 46.3812 19.3292 45.6318 19.1084 44.2491C19.0236 43.7094 19.1017 43.0939 19.2712 42.5675C20.9015 37.5228 24.1643 34.1664 29.4075 32.9152C30.0163 32.768 30.6497 32.6788 31.2764 32.6498C32.6926 32.5874 33.8434 33.165 34.7444 34.2444C35.0744 34.6369 35.3777 36.2025 35.7524 36.5438C36.2007 36.9519 36.7538 37.0634 37.3135 37.0634C38.0785 37.0099 38.8368 36.9519 38.8056 36.0197C38.781 35.3082 38.5781 34.0036 38.3774 33.3233C37.3559 29.8509 34.3719 27.8192 30.6854 28.0244C28.9369 28.1203 27.32 28.6377 25.799 29.4941C25.6607 29.5744 25.3953 29.6101 25.2972 29.532C25.1991 29.4539 25.1679 29.1752 25.2281 29.0369C25.6228 28.1069 26.0198 27.1769 26.4748 26.2781C28.1942 22.8726 29.9784 19.5028 31.6444 16.0727C32.2488 14.8283 32.5989 13.4589 33.0472 12.1386C33.2702 11.4807 33.1899 11.1239 32.8398 10.9053C32.3179 10.5775 31.7893 10.6154 31.3098 11.0481C30.6096 11.6748 29.9026 12.297 29.2424 12.9638C28.8432 13.3675 28.5221 13.8492 28.1764 14.3019C26.6398 16.3247 25.0653 18.3185 23.5889 20.3859C22.8261 21.452 22.2441 22.6451 21.5148 23.7736C21.6776 23.3053 21.7913 22.8124 22.0099 22.3708C23.7338 18.9185 25.5158 15.4951 27.1996 12.0204C27.9065 10.5619 28.4106 9.0052 29.0172 7.49758C29.1622 7.13629 29.0016 6.94449 28.7139 6.78392C28.1831 6.48507 27.3133 6.56313 26.8048 6.97348C25.3775 8.12427 24.084 9.41779 23.1049 10.9655C21.3319 13.7689 19.6369 16.6213 17.9019 19.447C17.6097 19.9198 17.2952 20.3815 16.9629 20.8253C16.8314 21.0015 16.6239 21.1219 16.4522 21.2669C16.4121 21.2423 16.3719 21.2178 16.334 21.1933C16.7578 20.0737 17.1369 18.9341 17.6142 17.839C18.6757 15.4037 19.7953 12.995 20.8636 10.5641C21.0085 10.2318 21.062 9.82591 21.0397 9.46016C21.0041 8.92714 20.5759 8.72196 20.0941 8.94275C19.1374 9.37987 18.339 10.0266 17.7636 10.9031C13.8161 16.9202 9.89096 22.9507 7.01399 29.5811C5.95242 32.0298 4.92652 34.4942 3.89394 36.9564C3.18473 38.6513 1.1374 43.415 0 46.0088V0.561646C9.2665 0.563876 75.7511 0.586178 76.3444 0.577257V40.0653C73.1262 33.194 69.7653 26.3941 65.8156 19.9109C63.5274 16.153 61.0072 12.5334 58.5496 8.87808C57.9563 7.99492 57.2003 7.21658 56.5022 6.40478C56.4219 6.30888 56.1588 6.2219 56.1119 6.26874Z" fill="black"/>
</svg>
