<svg width="2133" height="1003" viewBox="0 0 2133 1003" fill="none" xmlns="http://www.w3.org/2000/svg">
<path d="M199.428 667.37L201.858 655.572H231.009L280.635 422.362H251.484L253.913 410.562H319.503C334.31 410.562 346.341 414.381 355.595 422.015C364.849 429.65 371.559 439.83 375.723 452.555C380.119 465.048 382.317 479.045 382.317 494.546C382.317 516.988 379.078 538.504 372.6 559.095C366.122 579.686 357.33 598.194 346.225 614.62C335.351 630.815 322.858 643.657 308.745 653.142C294.864 662.628 280.288 667.37 265.018 667.37H199.428ZM255.301 656.266H267.448C277.627 656.266 287.344 653.836 296.599 648.978C306.084 644.119 314.413 637.063 321.585 627.809C328.757 618.323 333.732 606.871 336.508 593.452L359.759 484.482C362.767 470.832 362.651 459.38 359.412 450.125C356.405 440.871 351.084 433.815 343.449 428.956C336.045 424.098 327.254 421.668 317.074 421.668H304.928L255.301 656.266Z" fill="black"/>
<path d="M352.471 667.37L354.9 655.572H384.051L433.677 422.362H404.526L406.956 410.562H549.588L533.971 484.829H524.254L528.766 447.696C529.922 437.516 528.072 430.807 523.213 427.568C518.355 424.329 511.877 422.709 503.779 422.709H457.97L436.801 521.268H481.569L490.939 477.194H502.044L480.875 577.141H469.769L479.139 533.066H434.372L408.344 655.224H457.623C463.176 655.224 468.15 654.762 472.546 653.836C476.941 652.68 480.875 650.366 484.345 646.896C487.815 643.194 490.707 637.525 493.021 629.891L506.208 586.164H515.925L498.573 667.37H352.471Z" fill="black"/>
<path d="M511.762 667.37L514.191 655.572H543.342L592.969 422.362H563.817L566.247 410.562H631.837C646.644 410.562 658.674 414.381 667.929 422.015C677.183 429.65 683.892 439.83 688.057 452.555C692.453 465.048 694.651 479.045 694.651 494.546C694.651 516.988 691.411 538.504 684.933 559.095C678.455 579.686 669.664 598.194 658.559 614.62C647.685 630.815 635.191 643.657 621.079 653.142C607.197 662.628 592.622 667.37 577.352 667.37H511.762ZM567.635 656.266H579.781C589.961 656.266 599.678 653.836 608.932 648.978C618.418 644.119 626.747 637.063 633.919 627.809C641.091 618.323 646.065 606.871 648.842 593.452L672.093 484.482C675.101 470.832 674.985 459.38 671.746 450.125C668.738 440.871 663.417 433.815 655.782 428.956C648.379 424.098 639.587 421.668 629.407 421.668H617.261L567.635 656.266Z" fill="black"/>
<path d="M816.46 670.841C806.743 670.841 799.223 667.602 793.902 661.124C788.812 654.415 786.267 645.739 786.267 635.096V571.241C786.267 558.517 783.838 549.725 778.98 544.867C774.352 539.777 764.982 537.232 750.87 537.232H734.212V655.572H763.016V667.37H680.768V655.572H709.919V422.362H680.768V410.562H760.587C777.938 410.562 791.704 413.802 801.884 420.28C812.295 426.758 819.699 434.856 824.094 444.573C828.722 454.29 831.035 463.891 831.035 473.377C831.035 488.878 826.292 501.603 816.807 511.551C807.321 521.499 794.712 528.093 778.98 531.332L777.244 531.678V533.76L778.98 534.108C789.159 536.191 796.91 539.891 802.231 545.214C807.552 550.535 810.213 559.211 810.213 571.241V632.32C810.213 634.634 810.329 637.641 810.56 641.343C811.023 644.813 812.179 647.937 814.03 650.713C815.881 653.258 818.889 654.53 823.053 654.53C828.375 654.53 831.845 652.448 833.464 648.284C835.084 643.888 835.894 639.26 835.894 634.401V574.365H846.305V635.443C846.305 640.533 845.379 645.854 843.529 651.406C841.909 656.959 838.901 661.587 834.506 665.289C830.341 668.99 824.326 670.841 816.46 670.841ZM734.212 526.127H754.687C770.188 526.127 781.987 523.234 790.085 517.451C798.414 511.435 802.578 500.677 802.578 485.176V466.089C802.578 450.588 798.414 439.367 790.085 432.427C781.987 425.254 770.188 421.668 754.687 421.668H734.212V526.127Z" fill="black"/>
<path d="M917.447 670.841C905.648 670.841 895.237 667.139 886.214 659.736C877.422 652.333 870.019 642.384 864.004 629.891C858.22 617.166 853.824 602.938 850.816 587.205C847.809 571.473 846.305 555.393 846.305 538.967C846.305 522.541 847.809 506.461 850.816 490.729C853.824 474.996 858.22 460.884 864.004 448.39C870.019 435.666 877.422 425.601 886.214 418.198C895.237 410.795 905.648 407.093 917.447 407.093C929.247 407.093 939.542 410.795 948.334 418.198C957.357 425.601 964.76 435.666 970.544 448.39C976.559 460.884 981.071 474.996 984.079 490.729C987.086 506.461 988.59 522.541 988.59 538.967C988.59 555.393 987.086 571.473 984.079 587.205C981.071 602.938 976.559 617.166 970.544 629.891C964.76 642.384 957.357 652.333 948.334 659.736C939.542 667.139 929.247 670.841 917.447 670.841ZM917.447 658.001C931.098 658.001 941.509 652.68 948.681 642.037C955.853 631.395 959.439 616.125 959.439 596.228V481.706C959.439 461.809 955.853 446.539 948.681 435.897C941.509 425.254 931.098 419.933 917.447 419.933C904.029 419.933 893.618 425.254 886.214 435.897C879.042 446.539 875.456 461.809 875.456 481.706V596.228C875.456 616.125 879.042 631.395 886.214 642.037C893.386 652.68 903.797 658.001 917.447 658.001Z" fill="black"/>
<path d="M975.057 667.37L977.486 655.572H1002.12L1070.14 541.743L1049.67 422.362H1025.03L1027.46 410.562H1101.38L1098.95 422.362H1074.66L1090.27 513.633L1144.76 422.362H1125.67L1128.1 410.562H1182.93L1180.5 422.362H1155.86L1093.05 528.209L1114.91 655.572H1139.55L1137.12 667.37H1060.77L1063.2 655.572H1089.93L1072.92 556.319L1013.23 655.572H1034.05L1031.62 667.37H975.057Z" fill="black"/>
<path d="M1213.12 670.841C1208.5 670.841 1204.68 669.453 1201.67 666.677C1198.89 663.9 1197.51 660.314 1197.51 655.919C1197.51 649.903 1199.94 644.582 1204.79 639.955C1209.65 635.096 1215.09 632.667 1221.11 632.667C1225.73 632.667 1229.43 634.055 1232.21 636.832C1235.22 639.608 1236.72 643.194 1236.72 647.59C1236.72 653.605 1234.29 659.042 1229.43 663.9C1224.58 668.528 1219.14 670.841 1213.12 670.841Z" fill="black"/>
<path d="M1292.59 667.37L1295.02 655.572H1324.18L1373.8 422.362H1344.65L1347.08 410.562H1412.67C1427.48 410.562 1439.51 414.381 1448.76 422.015C1458.02 429.65 1464.73 439.83 1468.89 452.555C1473.29 465.048 1475.48 479.045 1475.48 494.546C1475.48 516.988 1472.24 538.504 1465.77 559.095C1459.29 579.686 1450.5 598.194 1439.39 614.62C1428.52 630.815 1416.02 643.657 1401.91 653.142C1388.03 662.628 1373.45 667.37 1358.18 667.37H1292.59ZM1348.47 656.266H1360.61C1370.79 656.266 1380.51 653.836 1389.77 648.978C1399.25 644.119 1407.58 637.063 1414.75 627.809C1421.92 618.323 1426.9 606.871 1429.67 593.452L1452.93 484.482C1455.93 470.832 1455.82 459.38 1452.58 450.125C1449.57 440.871 1444.25 433.815 1436.62 428.956C1429.21 424.098 1420.42 421.668 1410.24 421.668H1398.09L1348.47 656.266Z" fill="black"/>
<path d="M1534.13 670.841C1521.41 670.841 1511.23 668.181 1503.59 662.859C1495.96 657.538 1490.52 651.06 1487.28 643.425C1484.28 635.559 1482.89 628.156 1483.12 621.215H1480.34L1470.62 667.371H1459.17L1481.04 564.995H1495.96L1493.18 578.529C1492.26 582.462 1491.45 587.784 1490.75 594.493C1490.29 601.202 1490.41 608.259 1491.1 615.662C1491.79 623.066 1493.53 630.122 1496.31 636.832C1499.31 643.31 1503.82 648.631 1509.84 652.795C1515.86 656.96 1523.95 659.042 1534.13 659.042C1546.63 659.042 1556.69 654.993 1564.32 646.896C1571.96 638.567 1575.78 627.577 1575.78 613.927C1575.78 603.053 1573.58 592.758 1569.18 583.041C1564.79 573.324 1559.35 563.838 1552.87 554.584C1546.63 545.329 1540.26 536.075 1533.79 526.821C1527.54 517.335 1522.22 507.618 1517.82 497.67C1513.43 487.721 1511.23 477.194 1511.23 466.089C1511.23 454.753 1513.54 444.688 1518.17 435.897C1523.03 427.105 1529.62 420.165 1537.95 415.075C1546.51 409.753 1556.23 407.093 1567.1 407.093C1576.82 407.093 1585.03 409.059 1591.74 412.992C1598.45 416.694 1603.77 421.206 1607.7 426.527C1611.64 431.848 1614.18 437.054 1615.34 442.144H1618.12L1624.71 410.563H1636.16L1620.89 482.747H1605.97C1608.28 471.179 1608.17 460.537 1605.62 450.819C1603.08 441.102 1598.45 433.352 1591.74 427.568C1585.03 421.553 1576.59 418.545 1566.41 418.545C1556.46 418.545 1548.36 421.9 1542.11 428.609C1535.87 435.318 1532.74 444.341 1532.74 455.678C1532.74 465.395 1534.94 474.881 1539.34 484.135C1543.73 493.389 1549.06 502.644 1555.3 511.898C1561.78 521.152 1568.14 530.638 1574.39 540.355C1580.87 550.072 1586.3 560.136 1590.7 570.547C1595.1 580.958 1597.29 592.064 1597.29 603.863C1597.29 616.356 1594.52 627.693 1588.96 637.873C1583.64 647.821 1576.24 655.803 1566.75 661.818C1557.27 667.834 1546.39 670.841 1534.13 670.841Z" fill="black"/>
<path d="M1697.93 670.841C1687.52 670.841 1678.04 667.486 1669.48 660.777C1661.15 654.068 1653.86 644.698 1647.61 632.667C1641.6 620.636 1636.86 606.755 1633.39 591.023C1630.15 575.059 1628.53 557.938 1628.53 539.661C1628.53 523.003 1630.03 506.808 1633.04 491.076C1636.05 475.343 1640.56 461.115 1646.57 448.39C1652.59 435.666 1660.11 425.601 1669.13 418.198C1678.15 410.795 1688.8 407.093 1701.06 407.093C1709.62 407.093 1716.91 409.059 1722.92 412.992C1729.17 416.694 1734.14 421.206 1737.84 426.527C1741.78 431.848 1744.32 437.054 1745.48 442.144H1748.25V410.563H1759.36V498.017H1741.31V490.035C1741.31 472.22 1739.23 458.223 1735.07 448.043C1731.13 437.863 1725.93 430.691 1719.45 426.527C1712.97 422.131 1706.03 419.933 1698.63 419.933C1685.9 419.933 1675.84 425.254 1668.44 435.897C1661.26 446.539 1657.68 461.809 1657.68 481.706V596.228C1657.68 616.125 1661.26 631.395 1668.44 642.037C1675.61 652.68 1685.21 658.001 1697.24 658.001C1706.96 658.001 1714.71 654.877 1720.49 648.631C1726.28 642.384 1730.56 634.287 1733.33 624.338C1736.34 614.39 1738.31 603.863 1739.23 592.758C1740.16 581.421 1740.62 570.779 1740.62 560.83V538.967H1683.01V527.168H1760.05V667.371H1747.91V625.726H1744.78C1743.63 632.204 1741.2 638.914 1737.5 645.854C1733.79 652.795 1728.59 658.695 1721.88 663.553C1715.4 668.412 1707.42 670.841 1697.93 670.841Z" fill="black"/>
<path d="M1903.03 670.841L1814.54 464.007V655.572H1843.69V667.37H1780.53V655.572H1802.74V422.362H1780.53V410.562H1815.93L1899.56 606.292V422.362H1870.41V410.562H1933.57V422.362H1911.36V670.841H1903.03Z" fill="black"/>
</svg>
