<svg width="2133" height="1003" viewBox="0 0 2133 1003" fill="none" xmlns="http://www.w3.org/2000/svg">
<path d="M199.427 577.371L201.857 565.572H231.008L280.634 332.362H251.483L253.912 320.563H319.502C334.309 320.563 346.34 324.381 355.594 332.015C364.848 339.65 371.558 349.83 375.722 362.555C380.118 375.048 382.316 389.045 382.316 404.546C382.316 426.988 379.077 448.504 372.599 469.095C366.121 489.686 357.329 508.195 346.224 524.621C335.35 540.816 322.857 553.657 308.744 563.142C294.863 572.628 280.287 577.371 265.017 577.371H199.427ZM255.3 566.266H267.447C277.626 566.266 287.343 563.836 296.598 558.978C306.083 554.119 314.412 547.063 321.584 537.809C328.756 528.323 333.731 516.871 336.507 503.452L359.758 394.482C362.766 380.832 362.65 369.38 359.411 360.125C356.404 350.871 351.083 343.815 343.448 338.956C336.044 334.098 327.253 331.668 317.073 331.668H304.927L255.3 566.266Z" fill="black"/>
<path d="M352.471 577.371L354.9 565.572H384.051L433.677 332.362H404.526L406.956 320.563H549.588L533.971 394.829H524.254L528.766 357.696C529.922 347.516 528.072 340.807 523.213 337.568C518.355 334.329 511.877 332.709 503.779 332.709H457.97L436.801 431.268H481.569L490.939 387.194H502.044L480.875 487.141H469.769L479.139 443.067H434.372L408.344 565.224H457.623C463.176 565.224 468.15 564.762 472.546 563.836C476.941 562.68 480.875 560.366 484.345 556.896C487.815 553.194 490.707 547.526 493.021 539.891L506.208 496.164H515.925L498.573 577.371H352.471Z" fill="black"/>
<path d="M511.761 577.371L514.19 565.572H543.341L592.968 332.362H563.816L566.246 320.563H631.836C646.643 320.563 658.673 324.381 667.928 332.015C677.182 339.65 683.891 349.83 688.056 362.555C692.452 375.048 694.65 389.045 694.65 404.546C694.65 426.988 691.41 448.504 684.932 469.095C678.454 489.686 669.663 508.195 658.558 524.621C647.684 540.816 635.19 553.657 621.078 563.142C607.196 572.628 592.621 577.371 577.351 577.371H511.761ZM567.634 566.266H579.78C589.96 566.266 599.677 563.836 608.931 558.978C618.417 554.119 626.746 547.063 633.918 537.809C641.09 528.323 646.064 516.871 648.841 503.452L672.092 394.482C675.1 380.832 674.984 369.38 671.745 360.125C668.737 350.871 663.416 343.815 655.781 338.956C648.378 334.098 639.586 331.668 629.406 331.668H617.26L567.634 566.266Z" fill="black"/>
<path d="M816.46 580.841C806.743 580.841 799.223 577.602 793.902 571.124C788.812 564.415 786.267 555.739 786.267 545.096V481.241C786.267 468.517 783.838 459.725 778.98 454.867C774.352 449.777 764.982 447.232 750.87 447.232H734.212V565.572H763.016V577.371H680.768V565.572H709.919V332.362H680.768V320.563H760.587C777.938 320.563 791.704 323.802 801.884 330.28C812.295 336.758 819.699 344.856 824.094 354.573C828.722 364.29 831.035 373.891 831.035 383.377C831.035 398.878 826.292 411.603 816.807 421.551C807.321 431.499 794.712 438.093 778.98 441.332L777.244 441.679V443.761L778.98 444.108C789.159 446.191 796.91 449.892 802.231 455.214C807.552 460.535 810.213 469.211 810.213 481.241V542.32C810.213 544.634 810.329 547.641 810.56 551.343C811.023 554.813 812.179 557.937 814.03 560.713C815.881 563.258 818.889 564.53 823.053 564.53C828.375 564.53 831.845 562.448 833.464 558.284C835.084 553.888 835.894 549.261 835.894 544.402V484.365H846.305V545.443C846.305 550.533 845.379 555.854 843.529 561.407C841.909 566.96 838.901 571.587 834.506 575.289C830.341 578.99 824.326 580.841 816.46 580.841ZM734.212 436.127H754.687C770.188 436.127 781.987 433.235 790.085 427.451C798.414 421.435 802.578 410.677 802.578 395.176V376.089C802.578 360.588 798.414 349.367 790.085 342.427C781.987 335.254 770.188 331.668 754.687 331.668H734.212V436.127Z" fill="black"/>
<path d="M917.447 580.841C905.648 580.841 895.237 577.139 886.214 569.736C877.422 562.333 870.019 552.384 864.004 539.891C858.22 527.166 853.824 512.938 850.816 497.205C847.809 481.473 846.305 465.393 846.305 448.967C846.305 432.541 847.809 416.461 850.816 400.729C853.824 384.996 858.22 370.884 864.004 358.39C870.019 345.666 877.422 335.601 886.214 328.198C895.237 320.795 905.648 317.093 917.447 317.093C929.247 317.093 939.542 320.795 948.334 328.198C957.357 335.601 964.76 345.666 970.544 358.39C976.559 370.884 981.071 384.996 984.079 400.729C987.086 416.461 988.59 432.541 988.59 448.967C988.59 465.393 987.086 481.473 984.079 497.205C981.071 512.938 976.559 527.166 970.544 539.891C964.76 552.384 957.357 562.333 948.334 569.736C939.542 577.139 929.247 580.841 917.447 580.841ZM917.447 568.001C931.098 568.001 941.509 562.68 948.681 552.037C955.853 541.395 959.439 526.125 959.439 506.228V391.706C959.439 371.809 955.853 356.539 948.681 345.897C941.509 335.254 931.098 329.933 917.447 329.933C904.029 329.933 893.618 335.254 886.214 345.897C879.042 356.539 875.456 371.809 875.456 391.706V506.228C875.456 526.125 879.042 541.395 886.214 552.037C893.386 562.68 903.797 568.001 917.447 568.001Z" fill="black"/>
<path d="M975.056 577.371L977.485 565.572H1002.12L1070.14 451.743L1049.67 332.362H1025.03L1027.46 320.563H1101.38L1098.95 332.362H1074.66L1090.27 423.633L1144.76 332.362H1125.67L1128.1 320.563H1182.93L1180.5 332.362H1155.86L1093.05 438.209L1114.91 565.572H1139.55L1137.12 577.371H1060.77L1063.2 565.572H1089.93L1072.92 466.319L1013.23 565.572H1034.05L1031.62 577.371H975.056Z" fill="black"/>
<path d="M1213.12 580.841C1208.5 580.841 1204.68 579.453 1201.67 576.677C1198.89 573.9 1197.51 570.314 1197.51 565.919C1197.51 559.903 1199.94 554.582 1204.79 549.955C1209.65 545.096 1215.09 542.667 1221.11 542.667C1225.73 542.667 1229.43 544.055 1232.21 546.832C1235.22 549.608 1236.72 553.194 1236.72 557.59C1236.72 563.605 1234.29 569.042 1229.43 573.9C1224.58 578.528 1219.14 580.841 1213.12 580.841Z" fill="black"/>
<path d="M1292.59 577.371L1295.02 565.572H1324.18L1373.8 332.362H1344.65L1347.08 320.563H1412.67C1427.48 320.563 1439.51 324.381 1448.76 332.015C1458.02 339.65 1464.73 349.83 1468.89 362.555C1473.29 375.048 1475.48 389.045 1475.48 404.546C1475.48 426.988 1472.24 448.504 1465.77 469.095C1459.29 489.686 1450.5 508.195 1439.39 524.621C1428.52 540.816 1416.02 553.657 1401.91 563.142C1388.03 572.628 1373.45 577.371 1358.18 577.371H1292.59ZM1348.47 566.266H1360.61C1370.79 566.266 1380.51 563.836 1389.77 558.978C1399.25 554.119 1407.58 547.063 1414.75 537.809C1421.92 528.323 1426.9 516.871 1429.67 503.452L1452.93 394.482C1455.93 380.832 1455.82 369.38 1452.58 360.125C1449.57 350.871 1444.25 343.815 1436.62 338.956C1429.21 334.098 1420.42 331.668 1410.24 331.668H1398.09L1348.47 566.266Z" fill="black"/>
<path d="M1534.13 580.841C1521.41 580.841 1511.23 578.181 1503.59 572.859C1495.96 567.538 1490.52 561.06 1487.28 553.425C1484.28 545.559 1482.89 538.156 1483.12 531.215H1480.34L1470.62 577.371H1459.17L1481.04 474.995H1495.96L1493.18 488.529C1492.26 492.462 1491.45 497.784 1490.75 504.493C1490.29 511.202 1490.41 518.259 1491.1 525.662C1491.79 533.066 1493.53 540.122 1496.31 546.832C1499.31 553.31 1503.82 558.631 1509.84 562.795C1515.86 566.96 1523.95 569.042 1534.13 569.042C1546.63 569.042 1556.69 564.993 1564.32 556.896C1571.96 548.567 1575.78 537.577 1575.78 523.927C1575.78 513.053 1573.58 502.758 1569.18 493.041C1564.79 483.324 1559.35 473.838 1552.87 464.584C1546.63 455.329 1540.26 446.075 1533.79 436.821C1527.54 427.335 1522.22 417.618 1517.82 407.67C1513.43 397.721 1511.23 387.194 1511.23 376.089C1511.23 364.753 1513.54 354.688 1518.17 345.897C1523.03 337.105 1529.62 330.165 1537.95 325.075C1546.51 319.753 1556.23 317.093 1567.1 317.093C1576.82 317.093 1585.03 319.059 1591.74 322.992C1598.45 326.694 1603.77 331.206 1607.7 336.527C1611.64 341.848 1614.18 347.054 1615.34 352.144H1618.12L1624.71 320.563H1636.16L1620.89 392.747H1605.97C1608.28 381.179 1608.17 370.537 1605.62 360.819C1603.08 351.102 1598.45 343.352 1591.74 337.568C1585.03 331.553 1576.59 328.545 1566.41 328.545C1556.46 328.545 1548.36 331.9 1542.11 338.609C1535.87 345.318 1532.74 354.341 1532.74 365.678C1532.74 375.395 1534.94 384.881 1539.34 394.135C1543.73 403.389 1549.06 412.644 1555.3 421.898C1561.78 431.152 1568.14 440.638 1574.39 450.355C1580.87 460.072 1586.3 470.136 1590.7 480.547C1595.1 490.958 1597.29 502.064 1597.29 513.863C1597.29 526.356 1594.52 537.693 1588.96 547.873C1583.64 557.821 1576.24 565.803 1566.75 571.818C1557.27 577.834 1546.39 580.841 1534.13 580.841Z" fill="black"/>
<path d="M1697.93 580.841C1687.52 580.841 1678.04 577.486 1669.48 570.777C1661.15 564.068 1653.86 554.698 1647.61 542.667C1641.6 530.636 1636.86 516.755 1633.39 501.023C1630.15 485.059 1628.53 467.938 1628.53 449.661C1628.53 433.003 1630.03 416.808 1633.04 401.076C1636.05 385.343 1640.56 371.115 1646.57 358.39C1652.59 345.666 1660.11 335.601 1669.13 328.198C1678.15 320.795 1688.8 317.093 1701.06 317.093C1709.62 317.093 1716.91 319.059 1722.92 322.992C1729.17 326.694 1734.14 331.206 1737.84 336.527C1741.78 341.848 1744.32 347.054 1745.48 352.144H1748.25V320.563H1759.36V408.017H1741.31V400.035C1741.31 382.22 1739.23 368.223 1735.07 358.043C1731.13 347.863 1725.93 340.691 1719.45 336.527C1712.97 332.131 1706.03 329.933 1698.63 329.933C1685.9 329.933 1675.84 335.254 1668.44 345.897C1661.26 356.539 1657.68 371.809 1657.68 391.706V506.228C1657.68 526.125 1661.26 541.395 1668.44 552.037C1675.61 562.68 1685.21 568.001 1697.24 568.001C1706.96 568.001 1714.71 564.877 1720.49 558.631C1726.28 552.384 1730.56 544.287 1733.33 534.338C1736.34 524.39 1738.31 513.863 1739.23 502.758C1740.16 491.421 1740.62 480.779 1740.62 470.83V448.967H1683.01V437.168H1760.05V577.371H1747.91V535.726H1744.78C1743.63 542.204 1741.2 548.914 1737.5 555.854C1733.79 562.795 1728.59 568.695 1721.88 573.553C1715.4 578.412 1707.42 580.841 1697.93 580.841Z" fill="black"/>
<path d="M1903.03 580.841L1814.54 374.007V565.572H1843.69V577.371H1780.53V565.572H1802.74V332.362H1780.53V320.563H1815.93L1899.56 516.292V332.362H1870.41V320.563H1933.57V332.362H1911.36V580.841H1903.03Z" fill="black"/>
<path d="M833.702 715.819C833.064 714.907 832.381 713.541 831.652 711.718C830.923 709.941 830.308 707.8 829.806 705.294C829.305 702.742 829.055 699.917 829.055 696.819C829.055 692.353 829.601 688.048 830.695 683.901C831.789 679.71 833.201 675.814 834.932 672.214C836.709 668.569 838.6 665.334 840.605 662.509C842.655 659.639 844.615 657.315 846.483 655.538H848.396C846.619 657.406 844.751 659.798 842.792 662.714C840.833 665.63 839.01 668.934 837.324 672.624C835.639 676.315 834.272 680.302 833.224 684.585C832.176 688.822 831.652 693.196 831.652 697.707C831.652 702.127 832.085 705.909 832.95 709.053C833.862 712.242 834.75 714.497 835.616 715.819H833.702Z" fill="black"/>
<path d="M860.015 708.164C856.416 708.164 853.864 707.139 852.36 705.088C850.902 703.038 850.583 700.076 851.404 696.204L859.263 659.229H854.889L855.368 656.905H869.583L869.105 659.229H864.048L856.188 696.272C855.595 699.188 855.755 701.443 856.666 703.038C857.623 704.587 859.332 705.362 861.792 705.362C864.253 705.362 866.303 704.587 867.943 703.038C869.629 701.443 870.768 699.188 871.36 696.272L879.22 659.229H875.188L875.666 656.905H886.055L885.576 659.229H881.544L873.684 696.204C872.864 700.076 871.269 703.038 868.9 705.088C866.576 707.139 863.615 708.164 860.015 708.164Z" fill="black"/>
<path d="M900.271 708.164L891.522 667.43L883.458 705.157H889.199L888.72 707.481H876.281L876.76 705.157H881.134L890.907 659.229H886.533L887.012 656.905H893.983L902.253 695.452L909.976 659.229H904.235L904.713 656.905H917.152L916.673 659.229H912.299L901.911 708.164H900.271Z" fill="black"/>
<path d="M908.199 707.481L908.677 705.157H919.886L929.659 659.229H918.45L918.929 656.905H946.13L945.652 659.229H934.443L924.67 705.157H935.879L935.4 707.481H908.199Z" fill="black"/>
<path d="M940.594 707.481L941.073 705.294H950.573L951.871 699.142L952.213 697.502L960.346 659.297H956.314C955.175 659.297 954.195 659.411 953.375 659.639C952.555 659.821 951.849 660.254 951.256 660.937C950.664 661.621 950.117 662.714 949.616 664.218L947.087 671.531H945.173L948.386 656.222H949.616L951.53 656.905H974.904L977.091 656.222H978.321L975.109 671.531H973.195L973.81 664.218C973.992 662.122 973.651 660.778 972.785 660.186C971.965 659.593 970.757 659.297 969.163 659.297H965.13L956.656 699.142L955.357 705.294H964.857L964.379 707.481H940.594Z" fill="black"/>
<path d="M967.933 707.481L968.411 705.157H974.152L983.925 659.229H978.184L978.663 656.905H1006.75L1003.68 671.531H1001.76L1002.65 664.218C1002.88 662.213 1002.52 660.892 1001.56 660.254C1000.6 659.616 999.326 659.297 997.731 659.297H988.71L984.54 678.707H993.357L995.202 670.027H997.389L993.22 689.711H991.033L992.879 681.031H984.062L978.936 705.088H988.641C989.735 705.088 990.714 704.997 991.58 704.815C992.446 704.587 993.22 704.132 993.904 703.448C994.587 702.719 995.157 701.603 995.612 700.099L998.21 691.488H1000.12L996.706 707.481H967.933Z" fill="black"/>
<path d="M999.303 707.481L999.781 705.157H1005.52L1015.3 659.229H1009.55L1010.03 656.905H1022.95C1025.87 656.905 1028.24 657.657 1030.06 659.16C1031.88 660.664 1033.2 662.669 1034.02 665.175C1034.89 667.635 1035.32 670.392 1035.32 673.445C1035.32 677.864 1034.68 682.102 1033.41 686.157C1032.13 690.212 1030.4 693.857 1028.21 697.092C1026.07 700.282 1023.61 702.81 1020.83 704.678C1018.1 706.547 1015.23 707.481 1012.22 707.481H999.303ZM1010.31 705.294H1012.7C1014.7 705.294 1016.62 704.815 1018.44 703.858C1020.31 702.901 1021.95 701.512 1023.36 699.689C1024.77 697.821 1025.75 695.566 1026.3 692.923L1030.88 671.463C1031.47 668.774 1031.45 666.519 1030.81 664.696C1030.22 662.874 1029.17 661.484 1027.67 660.527C1026.21 659.57 1024.48 659.092 1022.47 659.092H1020.08L1010.31 705.294Z" fill="black"/>
<path d="M1058.76 707.481L1059.24 705.157H1063.75L1073.53 659.229H1069.02L1069.49 656.905H1083.16L1082.68 659.229H1078.17L1073.12 682.876L1093.55 659.229H1089.45L1089.93 656.905H1101.21L1100.73 659.229H1096.35L1081.45 676.588L1088.9 705.157H1093.07L1092.59 707.481H1078.31L1078.79 705.157H1084.19L1077.76 680.758L1072.23 687.25L1068.4 705.157H1074.96L1074.48 707.481H1058.76Z" fill="black"/>
<path d="M1092.73 707.481L1093.21 705.157H1104.42L1114.19 659.229H1102.98L1103.46 656.905H1130.66L1130.18 659.229H1118.98L1109.2 705.157H1120.41L1119.93 707.481H1092.73Z" fill="black"/>
<path d="M1146.31 708.164L1137.57 667.43L1129.5 705.157H1135.24L1134.76 707.481H1122.32L1122.8 705.157H1127.18L1136.95 659.229H1132.58L1133.05 656.905H1140.03L1148.3 695.452L1156.02 659.229H1150.28L1150.76 656.905H1163.2L1162.72 659.229H1158.34L1147.95 708.164H1146.31Z" fill="black"/>
<path d="M1168.66 708.164C1165.79 708.164 1163.49 706.82 1161.76 704.132C1160.03 701.443 1159.16 697.457 1159.16 692.171C1159.16 688.8 1159.5 685.405 1160.19 681.988C1160.92 678.57 1161.92 675.335 1163.2 672.283C1164.52 669.184 1166.04 666.428 1167.77 664.013C1169.55 661.598 1171.49 659.707 1173.58 658.34C1175.73 656.928 1177.96 656.222 1180.28 656.222C1182.1 656.222 1183.54 656.632 1184.59 657.452C1185.64 658.272 1186.39 659.274 1186.84 660.459C1187.34 661.644 1187.57 662.783 1187.53 663.876H1188.07L1189.71 656.222H1191.97L1188.14 674.128H1184.72L1185.07 672.556C1185.84 669.002 1186.07 666.223 1185.75 664.218C1185.43 662.213 1184.7 660.801 1183.56 659.981C1182.47 659.16 1181.15 658.75 1179.6 658.75C1176.91 658.75 1174.59 659.798 1172.63 661.894C1170.67 663.99 1169.28 666.997 1168.46 670.916L1163.67 693.47C1162.85 697.388 1162.9 700.395 1163.81 702.491C1164.77 704.587 1166.45 705.635 1168.87 705.635C1170.87 705.635 1172.58 705.02 1173.99 703.79C1175.41 702.514 1176.59 700.897 1177.55 698.937C1178.55 696.933 1179.35 694.837 1179.94 692.65C1180.58 690.417 1181.1 688.367 1181.51 686.499L1182.4 682.193H1171.05L1171.6 679.869H1186.77L1180.9 707.481H1178.5L1180.21 699.279H1179.6C1179.1 700.555 1178.32 701.876 1177.27 703.243C1176.27 704.61 1175.04 705.772 1173.58 706.729C1172.13 707.686 1170.49 708.164 1168.66 708.164Z" fill="black"/>
<path d="M1183.84 707.481L1184.31 705.157H1190.05L1199.83 659.229H1194.09L1194.57 656.905H1207.48C1210.4 656.905 1212.77 657.657 1214.59 659.16C1216.41 660.664 1217.73 662.669 1218.56 665.175C1219.42 667.635 1219.85 670.392 1219.85 673.445C1219.85 677.864 1219.22 682.102 1217.94 686.157C1216.66 690.212 1214.93 693.857 1212.75 697.092C1210.6 700.282 1208.14 702.81 1205.36 704.678C1202.63 706.547 1199.76 707.481 1196.75 707.481H1183.84ZM1194.84 705.294H1197.23C1199.24 705.294 1201.15 704.815 1202.97 703.858C1204.84 702.901 1206.48 701.512 1207.89 699.689C1209.31 697.821 1210.29 695.566 1210.83 692.923L1215.41 671.463C1216 668.774 1215.98 666.519 1215.34 664.696C1214.75 662.874 1213.7 661.484 1212.2 660.527C1210.74 659.57 1209.01 659.092 1207 659.092H1204.61L1194.84 705.294Z" fill="black"/>
<path d="M1228.26 708.164C1226.07 708.164 1224.27 707.481 1222.86 706.114C1221.49 704.701 1220.47 702.81 1219.79 700.441C1219.15 698.026 1218.83 695.315 1218.83 692.308C1218.83 688.982 1219.19 685.61 1219.92 682.193C1220.65 678.776 1221.68 675.518 1223 672.419C1224.32 669.321 1225.85 666.564 1227.58 664.15C1229.35 661.689 1231.27 659.753 1233.32 658.34C1235.41 656.928 1237.56 656.222 1239.74 656.222C1241.93 656.222 1243.71 656.928 1245.07 658.34C1246.49 659.707 1247.51 661.575 1248.15 663.945C1248.83 666.314 1249.17 669.002 1249.17 672.009C1249.17 675.335 1248.81 678.707 1248.08 682.124C1247.35 685.542 1246.33 688.8 1245 691.898C1243.68 694.996 1242.13 697.776 1240.36 700.236C1238.63 702.696 1236.73 704.633 1234.68 706.045C1232.63 707.458 1230.49 708.164 1228.26 708.164ZM1228.94 705.635C1231.63 705.635 1233.91 704.587 1235.78 702.491C1237.69 700.395 1239.06 697.388 1239.88 693.47L1244.66 670.916C1245.48 666.997 1245.41 663.99 1244.46 661.894C1243.55 659.798 1241.75 658.75 1239.06 658.75C1236.42 658.75 1234.14 659.798 1232.22 661.894C1230.31 663.99 1228.94 666.997 1228.12 670.916L1223.34 693.47C1222.52 697.388 1222.56 700.395 1223.48 702.491C1224.43 704.587 1226.26 705.635 1228.94 705.635Z" fill="black"/>
<path d="M1243.64 707.481L1244.12 705.157H1248.22L1257.99 659.229H1253.89L1254.37 656.905H1261.07L1261.95 699.553L1280.89 656.905H1288.61L1288.13 659.229H1283.76L1273.98 705.157H1278.36L1277.88 707.481H1265.17L1265.64 705.157H1269.34L1276.51 671.531L1260.52 707.481H1258.4L1257.72 671.531L1250.54 705.157H1254.91L1254.44 707.481H1243.64Z" fill="black"/>
<path d="M1279.86 715.819C1281.64 713.951 1283.51 711.559 1285.47 708.642C1287.42 705.726 1289.25 702.423 1290.93 698.732C1292.62 695.042 1293.99 691.078 1295.03 686.84C1296.08 682.557 1296.61 678.16 1296.61 673.65C1296.61 669.23 1296.15 665.425 1295.24 662.236C1294.37 659.046 1293.51 656.814 1292.64 655.538H1294.56C1295.24 656.449 1295.92 657.816 1296.61 659.639C1297.33 661.416 1297.95 663.58 1298.45 666.132C1298.95 668.638 1299.2 671.44 1299.2 674.538C1299.2 679.003 1298.66 683.332 1297.56 687.524C1296.47 691.67 1295.03 695.566 1293.26 699.211C1291.53 702.81 1289.63 706.023 1287.58 708.847C1285.58 711.718 1283.64 714.042 1281.77 715.819H1279.86Z" fill="black"/>
</svg>
