<svg width="2133" height="1003" viewBox="0 0 2133 1003" fill="none" xmlns="http://www.w3.org/2000/svg">
<path d="M214.854 595.093V298.576H296.396C317.736 298.576 333.798 304.528 344.58 316.434C355.363 328.227 360.754 345.524 360.754 368.325V507.149C360.754 535.228 355.812 556.905 345.928 572.181C336.156 587.456 318.972 595.093 294.374 595.093H214.854ZM274.494 542.697H284.771C295.666 542.697 301.113 537.418 301.113 526.861V373.884C301.113 364 299.765 357.654 297.07 354.847C294.487 351.926 289.151 350.466 281.065 350.466H274.494V542.697Z" fill="black"/>
<path d="M385.014 595.093V298.576H503.622V355.857H445.329V413.645H501.263V469.41H445.329V537.306H507.496V595.093H385.014Z" fill="black"/>
<path d="M527.208 595.093V298.576H608.751C630.091 298.576 646.152 304.528 656.935 316.434C667.717 328.227 673.108 345.524 673.108 368.325V507.149C673.108 535.228 668.167 556.905 658.283 572.181C648.511 587.456 631.326 595.093 606.729 595.093H527.208ZM586.849 542.697H597.126C608.021 542.697 613.468 537.418 613.468 526.861V373.884C613.468 364 612.12 357.654 609.425 354.847C606.841 351.926 601.506 350.466 593.419 350.466H586.849V542.697Z" fill="black"/>
<path d="M697.369 595.093V298.576H788.346C803.509 298.576 814.965 302.057 822.715 309.021C830.465 315.872 835.632 325.532 838.215 337.999C840.911 350.354 842.258 364.899 842.258 381.634C842.258 397.808 840.181 410.724 836.025 420.384C831.981 430.043 824.288 436.726 812.944 440.432C822.266 442.342 828.78 447.003 832.487 454.416C836.306 461.717 838.215 471.207 838.215 482.888V595.093H779.754V479.013C779.754 470.365 777.957 465.03 774.363 463.008C770.881 460.874 765.209 459.807 757.347 459.807V595.093H697.369ZM757.683 408.422H772.004C780.203 408.422 784.303 399.493 784.303 381.634C784.303 370.066 783.404 362.484 781.607 358.89C779.81 355.296 776.441 353.499 771.499 353.499H757.683V408.422Z" fill="black"/>
<path d="M932.562 597.789C908.863 597.789 890.723 590.657 878.144 576.393C865.677 562.016 859.443 541.293 859.443 514.225V373.379C859.443 347.995 865.62 328.733 877.975 315.592C890.443 302.45 908.638 295.88 932.562 295.88C956.485 295.88 974.625 302.45 986.979 315.592C999.447 328.733 1005.68 347.995 1005.68 373.379V514.225C1005.68 541.293 999.391 562.016 986.811 576.393C974.344 590.657 956.261 597.789 932.562 597.789ZM933.067 543.203C942.052 543.203 946.545 534.498 946.545 517.089V372.368C946.545 357.767 942.165 350.466 933.404 350.466C923.52 350.466 918.578 357.935 918.578 372.873V517.426C918.578 526.636 919.701 533.263 921.948 537.306C924.194 541.237 927.9 543.203 933.067 543.203Z" fill="black"/>
<path d="M1021.01 595.093L1052.85 437.905L1027.58 298.407H1085.54L1100.87 400.335L1114.52 298.407H1172.64L1147.37 437.905L1179.04 595.093H1119.06L1100.36 479.182L1081.16 595.093H1021.01Z" fill="black"/>
<path d="M1192.86 594.925V544.719H1253.17V594.925H1192.86Z" fill="black"/>
<path d="M1275.58 595.093V298.576H1357.12C1378.46 298.576 1394.52 304.528 1405.31 316.434C1416.09 328.227 1421.48 345.524 1421.48 368.325V507.149C1421.48 535.228 1416.54 556.905 1406.65 572.181C1396.88 587.456 1379.7 595.093 1355.1 595.093H1275.58ZM1335.22 542.697H1345.5C1356.39 542.697 1361.84 537.418 1361.84 526.861V373.884C1361.84 364 1360.49 357.654 1357.8 354.847C1355.21 351.926 1349.88 350.466 1341.79 350.466H1335.22V542.697Z" fill="black"/>
<path d="M1516.16 597.789C1489.09 597.789 1469.55 591.05 1457.53 577.572C1445.63 564.094 1439.67 542.641 1439.67 513.214V484.236H1498.3V521.301C1498.3 528.152 1499.32 533.543 1501.34 537.475C1503.47 541.293 1507.12 543.203 1512.29 543.203C1517.68 543.203 1521.39 541.63 1523.41 538.485C1525.54 535.341 1526.61 530.174 1526.61 522.986C1526.61 513.888 1525.71 506.307 1523.91 500.241C1522.12 494.064 1518.97 488.223 1514.48 482.72C1510.1 477.104 1503.98 470.59 1496.11 463.177L1469.5 437.905C1449.61 419.148 1439.67 397.696 1439.67 373.547C1439.67 348.276 1445.52 329.014 1457.2 315.76C1468.99 302.507 1486.01 295.88 1508.24 295.88C1535.43 295.88 1554.69 303.124 1566.03 317.613C1577.49 332.102 1583.22 354.116 1583.22 383.656H1522.9V363.27C1522.9 359.227 1521.72 356.082 1519.36 353.836C1517.12 351.589 1514.03 350.466 1510.1 350.466C1505.38 350.466 1501.9 351.814 1499.65 354.51C1497.52 357.093 1496.45 360.462 1496.45 364.618C1496.45 368.774 1497.57 373.267 1499.82 378.096C1502.07 382.926 1506.5 388.486 1513.13 394.775L1547.33 427.628C1554.18 434.143 1560.47 441.05 1566.2 448.351C1571.93 455.539 1576.53 463.963 1580.02 473.622C1583.5 483.169 1585.24 494.85 1585.24 508.665C1585.24 536.52 1580.07 558.366 1569.74 574.202C1559.52 589.927 1541.66 597.789 1516.16 597.789Z" fill="black"/>
<path d="M1666.28 597.789C1623.93 597.789 1602.76 567.463 1602.76 506.812V378.939C1602.76 323.566 1627.02 295.88 1675.54 295.88C1695.53 295.88 1710.87 299.923 1721.54 308.01C1732.21 315.985 1739.56 327.666 1743.61 343.053C1747.65 358.441 1749.67 377.198 1749.67 399.324H1691.72V373.042C1691.72 366.64 1690.82 361.305 1689.02 357.037C1687.33 352.656 1683.74 350.466 1678.24 350.466C1671.39 350.466 1666.84 352.769 1664.59 357.374C1662.46 361.979 1661.39 367.033 1661.39 372.537V516.247C1661.39 524.221 1662.4 530.736 1664.42 535.79C1666.56 540.732 1670.66 543.203 1676.72 543.203C1683.01 543.203 1687.17 540.732 1689.19 535.79C1691.32 530.736 1692.39 524.109 1692.39 515.91V473.622H1676.55V422.405H1749V595.093H1725.24L1715.13 570.159C1704.8 588.579 1688.51 597.789 1666.28 597.789Z" fill="black"/>
<path d="M1772.58 595.093V298.576H1833.57L1860.86 440.601V298.576H1918.15V595.093H1860.19L1830.54 446.834V595.093H1772.58Z" fill="black"/>
<path d="M879.367 707.121H875.816C873.536 707.033 871.454 706.397 869.569 705.214C867.684 703.986 866.171 702.386 865.032 700.413C863.892 698.441 863.322 696.271 863.322 693.903L863.388 673.058C863.388 670.734 863.936 668.608 865.032 666.679C866.171 664.706 867.684 663.128 869.569 661.944C871.454 660.717 873.536 660.059 875.816 659.972H879.498C879.718 659.972 879.827 660.059 879.827 660.235V667.665C879.827 667.841 879.718 667.928 879.498 667.928H875.75C874.479 667.928 873.405 668.433 872.528 669.441C871.651 670.449 871.213 671.655 871.213 673.058V693.903C871.213 695.262 871.651 696.446 872.528 697.454C873.449 698.462 874.523 699.032 875.75 699.164H879.301C879.52 699.164 879.63 699.252 879.63 699.427L879.696 706.858C879.696 707.033 879.586 707.121 879.367 707.121Z" fill="black"/>
<path d="M897.067 707.121C894.744 707.121 892.596 706.529 890.623 705.345C888.65 704.118 887.072 702.496 885.888 700.479C884.749 698.462 884.179 696.249 884.179 693.837L884.31 660.958C884.31 660.783 884.398 660.695 884.573 660.695H891.938C892.114 660.695 892.201 660.783 892.201 660.958V693.837C892.201 695.328 892.661 696.599 893.582 697.651C894.547 698.66 895.708 699.164 897.067 699.164C898.47 699.164 899.632 698.66 900.553 697.651C901.517 696.599 901.999 695.328 901.999 693.837V660.958C901.999 660.783 902.087 660.695 902.262 660.695H909.627C909.803 660.695 909.89 660.783 909.89 660.958L910.022 693.837C910.022 696.292 909.43 698.528 908.246 700.545C907.107 702.561 905.55 704.162 903.577 705.345C901.649 706.529 899.478 707.121 897.067 707.121Z" fill="black"/>
<path d="M915.806 706.463C915.455 706.463 915.28 706.31 915.28 706.003L915.214 661.221C915.214 660.87 915.39 660.695 915.74 660.695H921.659L932.772 686.604L932.443 661.221C932.443 660.87 932.64 660.695 933.035 660.695H939.545C939.808 660.695 939.939 660.87 939.939 661.221L940.005 706.069C940.005 706.332 939.896 706.463 939.676 706.463H933.89L922.513 682.264L922.974 705.937C922.974 706.288 922.776 706.463 922.382 706.463H915.806Z" fill="black"/>
<path d="M946.046 706.463C945.827 706.463 945.718 706.354 945.718 706.134L945.783 660.958C945.783 660.783 945.871 660.695 946.046 660.695H953.411C953.587 660.695 953.674 660.783 953.674 660.958L953.74 706.134C953.74 706.354 953.652 706.463 953.477 706.463H946.046Z" fill="black"/>
<path d="M966.1 706.463C965.925 706.463 965.837 706.354 965.837 706.134V668.652H957.289C957.069 668.652 956.96 668.542 956.96 668.323L957.025 660.958C957.025 660.783 957.113 660.695 957.289 660.695H982.277C982.496 660.695 982.606 660.783 982.606 660.958V668.323C982.606 668.542 982.518 668.652 982.343 668.652H973.728L973.794 706.134C973.794 706.354 973.706 706.463 973.531 706.463H966.1Z" fill="black"/>
<path d="M986.117 706.463C985.941 706.463 985.854 706.354 985.854 706.134L985.919 660.958C985.919 660.783 986.007 660.695 986.182 660.695H1007.29C1007.47 660.695 1007.55 660.805 1007.55 661.024V668.389C1007.55 668.564 1007.47 668.652 1007.29 668.652H993.81V678.91H1007.29C1007.47 678.91 1007.55 678.998 1007.55 679.173L1007.62 686.604C1007.62 686.779 1007.53 686.867 1007.36 686.867H993.81V698.375H1007.36C1007.53 698.375 1007.62 698.484 1007.62 698.704V706.2C1007.62 706.375 1007.53 706.463 1007.36 706.463H986.117Z" fill="black"/>
<path d="M1013.8 706.463C1013.58 706.463 1013.47 706.354 1013.47 706.134L1013.6 660.958C1013.6 660.783 1013.69 660.695 1013.86 660.695L1026.16 660.629C1028.57 660.585 1030.76 661.155 1032.73 662.339C1034.75 663.523 1036.35 665.123 1037.53 667.139C1038.72 669.112 1039.31 671.304 1039.31 673.715V692.588C1039.31 695.131 1038.7 697.454 1037.47 699.558C1036.24 701.619 1034.6 703.263 1032.54 704.49C1030.48 705.718 1028.15 706.354 1025.57 706.397L1013.8 706.463ZM1021.49 698.375H1025.57C1027.19 698.375 1028.55 697.805 1029.64 696.665C1030.78 695.525 1031.35 694.166 1031.35 692.588V673.65C1031.35 672.247 1030.83 671.041 1029.78 670.033C1028.77 668.981 1027.56 668.476 1026.16 668.52L1021.56 668.586L1021.49 698.375Z" fill="black"/>
<path d="M1054.51 706.463C1054.33 706.463 1054.25 706.354 1054.25 706.134L1054.38 661.024C1054.38 660.805 1054.46 660.695 1054.64 660.695H1062C1062.18 660.695 1062.27 660.805 1062.27 661.024V676.609L1072.59 660.958C1072.72 660.783 1072.88 660.695 1073.05 660.695H1080.61C1080.79 660.695 1080.83 660.783 1080.75 660.958L1069.37 679.107L1082.13 706.2C1082.21 706.375 1082.11 706.463 1081.8 706.463H1073.78C1073.56 706.463 1073.42 706.375 1073.38 706.2L1064.5 686.867L1062.2 690.484V706.134C1062.2 706.354 1062.11 706.463 1061.94 706.463H1054.51Z" fill="black"/>
<path d="M1084.76 706.463C1084.54 706.463 1084.43 706.354 1084.43 706.134L1084.49 660.958C1084.49 660.783 1084.58 660.695 1084.76 660.695H1092.12C1092.3 660.695 1092.38 660.783 1092.38 660.958L1092.45 706.134C1092.45 706.354 1092.36 706.463 1092.19 706.463H1084.76Z" fill="black"/>
<path d="M1098.83 706.463C1098.48 706.463 1098.3 706.31 1098.3 706.003L1098.23 661.221C1098.23 660.87 1098.41 660.695 1098.76 660.695H1104.68L1115.79 686.604L1115.46 661.221C1115.46 660.87 1115.66 660.695 1116.05 660.695H1122.56C1122.83 660.695 1122.96 660.87 1122.96 661.221L1123.03 706.069C1123.03 706.332 1122.92 706.463 1122.7 706.463H1116.91L1105.53 682.264L1105.99 705.937C1105.99 706.288 1105.8 706.463 1105.4 706.463H1098.83Z" fill="black"/>
<path d="M1140.77 707.121C1138.4 707.121 1136.26 706.529 1134.33 705.345C1132.4 704.162 1130.84 702.583 1129.66 700.611C1128.52 698.594 1127.95 696.358 1127.95 693.903V673.058C1127.95 670.69 1128.52 668.52 1129.66 666.548C1130.84 664.531 1132.4 662.931 1134.33 661.747C1136.3 660.564 1138.45 659.972 1140.77 659.972C1143.18 659.972 1145.35 660.564 1147.28 661.747C1149.25 662.887 1150.81 664.443 1151.95 666.416C1153.09 668.389 1153.66 670.603 1153.66 673.058V676.083C1153.66 676.258 1153.55 676.346 1153.33 676.346H1145.97C1145.79 676.346 1145.7 676.258 1145.7 676.083V673.584C1145.7 671.918 1145.22 670.537 1144.26 669.441C1143.34 668.345 1142.17 667.797 1140.77 667.797C1139.5 667.797 1138.36 668.323 1137.35 669.375C1136.39 670.427 1135.91 671.655 1135.91 673.058V693.903C1135.91 695.35 1136.39 696.599 1137.35 697.651C1138.32 698.66 1139.46 699.164 1140.77 699.164C1142.17 699.164 1143.34 698.66 1144.26 697.651C1145.22 696.643 1145.7 695.394 1145.7 693.903V690.681H1141.1C1140.88 690.681 1140.77 690.571 1140.77 690.352V682.987C1140.77 682.768 1140.88 682.658 1141.1 682.658H1153.4C1153.57 682.658 1153.66 682.768 1153.66 682.987V693.903C1153.66 696.358 1153.07 698.594 1151.88 700.611C1150.74 702.583 1149.21 704.162 1147.28 705.345C1145.35 706.529 1143.18 707.121 1140.77 707.121Z" fill="black"/>
<path d="M1158.67 706.463C1158.45 706.463 1158.34 706.354 1158.34 706.134L1158.47 660.958C1158.47 660.783 1158.56 660.695 1158.74 660.695L1171.03 660.629C1173.44 660.585 1175.64 661.155 1177.61 662.339C1179.63 663.523 1181.23 665.123 1182.41 667.139C1183.59 669.112 1184.19 671.304 1184.19 673.715V692.588C1184.19 695.131 1183.57 697.454 1182.34 699.558C1181.12 701.619 1179.47 703.263 1177.41 704.49C1175.35 705.718 1173.03 706.354 1170.44 706.397L1158.67 706.463ZM1166.36 698.375H1170.44C1172.06 698.375 1173.42 697.805 1174.52 696.665C1175.66 695.525 1176.23 694.166 1176.23 692.588V673.65C1176.23 672.247 1175.7 671.041 1174.65 670.033C1173.64 668.981 1172.44 668.476 1171.03 668.52L1166.43 668.586L1166.36 698.375Z" fill="black"/>
<path d="M1199.92 707.121C1197.55 707.121 1195.38 706.529 1193.41 705.345C1191.48 704.118 1189.92 702.518 1188.74 700.545C1187.56 698.528 1186.96 696.314 1186.96 693.903L1187.03 673.058C1187.03 670.647 1187.6 668.455 1188.74 666.482C1189.92 664.509 1191.5 662.931 1193.47 661.747C1195.45 660.564 1197.6 659.972 1199.92 659.972C1202.29 659.972 1204.43 660.564 1206.36 661.747C1208.29 662.931 1209.83 664.509 1210.97 666.482C1212.15 668.455 1212.74 670.647 1212.74 673.058L1212.81 693.903C1212.81 696.314 1212.22 698.528 1211.03 700.545C1209.89 702.518 1208.34 704.118 1206.36 705.345C1204.43 706.529 1202.29 707.121 1199.92 707.121ZM1199.92 699.164C1201.23 699.164 1202.37 698.638 1203.34 697.586C1204.35 696.49 1204.85 695.262 1204.85 693.903L1204.79 673.058C1204.79 671.611 1204.32 670.383 1203.4 669.375C1202.48 668.367 1201.32 667.863 1199.92 667.863C1198.56 667.863 1197.4 668.367 1196.43 669.375C1195.47 670.34 1194.99 671.567 1194.99 673.058V693.903C1194.99 695.35 1195.47 696.599 1196.43 697.651C1197.4 698.66 1198.56 699.164 1199.92 699.164Z" fill="black"/>
<path d="M1218.07 706.463C1217.89 706.463 1217.81 706.354 1217.81 706.134L1217.94 660.958C1217.94 660.783 1218.03 660.695 1218.2 660.695H1226.22C1226.4 660.695 1226.55 660.783 1226.68 660.958L1232.67 669.638L1238.65 660.958C1238.78 660.783 1238.94 660.695 1239.11 660.695H1247.2C1247.38 660.695 1247.46 660.783 1247.46 660.958L1247.6 706.134C1247.6 706.354 1247.51 706.463 1247.33 706.463H1239.9C1239.73 706.463 1239.64 706.354 1239.64 706.134L1239.57 672.597L1232.67 682.593L1225.83 672.597L1225.76 706.134C1225.76 706.354 1225.68 706.463 1225.5 706.463H1218.07Z" fill="black"/>
<path d="M1253.46 707.121C1253.24 707.121 1253.13 707.033 1253.13 706.858V699.427C1253.13 699.252 1253.24 699.164 1253.46 699.164H1256.94C1258.26 699.032 1259.35 698.462 1260.23 697.454C1261.15 696.446 1261.61 695.262 1261.61 693.903V673.058C1261.61 671.655 1261.17 670.449 1260.29 669.441C1259.42 668.433 1258.3 667.928 1256.94 667.928H1253.32C1253.11 667.928 1253 667.841 1253 667.665V660.235C1253 660.059 1253.11 659.972 1253.32 659.972H1257.01C1259.29 660.059 1261.37 660.717 1263.25 661.944C1265.14 663.128 1266.63 664.706 1267.73 666.679C1268.87 668.608 1269.44 670.734 1269.44 673.058L1269.5 693.903C1269.5 696.271 1268.93 698.441 1267.79 700.413C1266.65 702.386 1265.14 703.986 1263.25 705.214C1261.37 706.397 1259.26 707.033 1256.94 707.121H1253.46Z" fill="black"/>
</svg>
