<svg width="2133" height="1003" viewBox="0 0 2133 1003" fill="none" xmlns="http://www.w3.org/2000/svg">
<path d="M214.854 685.093V388.576H296.396C317.736 388.576 333.798 394.528 344.579 406.434C355.363 418.227 360.754 435.524 360.754 458.325V597.149C360.754 625.228 355.812 646.905 345.928 662.181C336.156 677.456 318.972 685.093 294.374 685.093H214.854ZM274.493 632.697H284.771C295.666 632.697 301.113 627.418 301.113 616.861V463.884C301.113 454 299.765 447.654 297.07 444.847C294.487 441.926 289.151 440.466 281.065 440.466H274.493V632.697Z" fill="black"/>
<path d="M385.014 685.093V388.576H503.622V445.857H445.329V503.645H501.263V559.41H445.329V627.306H507.496V685.093H385.014Z" fill="black"/>
<path d="M527.208 685.093V388.576H608.751C630.091 388.576 646.152 394.528 656.935 406.434C667.717 418.227 673.108 435.524 673.108 458.325V597.149C673.108 625.228 668.167 646.905 658.283 662.181C648.511 677.456 631.326 685.093 606.729 685.093H527.208ZM586.849 632.697H597.126C608.021 632.697 613.468 627.418 613.468 616.861V463.884C613.468 454 612.12 447.654 609.425 444.847C606.841 441.926 601.506 440.466 593.419 440.466H586.849V632.697Z" fill="black"/>
<path d="M697.369 685.093V388.576H788.346C803.509 388.576 814.965 392.057 822.715 399.021C830.465 405.872 835.632 415.532 838.215 427.999C840.911 440.354 842.258 454.899 842.258 471.634C842.258 487.808 840.181 500.724 836.025 510.384C831.981 520.043 824.288 526.726 812.944 530.432C822.266 532.342 828.78 537.003 832.487 544.416C836.306 551.717 838.215 561.207 838.215 572.888V685.093H779.754V569.013C779.754 560.365 777.957 555.03 774.363 553.008C770.881 550.874 765.209 549.807 757.347 549.807V685.093H697.369ZM757.683 498.422H772.004C780.203 498.422 784.303 489.493 784.303 471.634C784.303 460.066 783.404 452.484 781.607 448.89C779.81 445.296 776.441 443.499 771.499 443.499H757.683V498.422Z" fill="black"/>
<path d="M932.562 687.789C908.863 687.789 890.723 680.657 878.144 666.393C865.677 652.016 859.443 631.293 859.443 604.225V463.379C859.443 437.995 865.62 418.733 877.975 405.592C890.443 392.45 908.638 385.88 932.562 385.88C956.485 385.88 974.625 392.45 986.979 405.592C999.447 418.733 1005.68 437.995 1005.68 463.379V604.225C1005.68 631.293 999.391 652.016 986.811 666.393C974.344 680.657 956.261 687.789 932.562 687.789ZM933.067 633.203C942.052 633.203 946.545 624.498 946.545 607.089V462.368C946.545 447.767 942.165 440.466 933.404 440.466C923.52 440.466 918.578 447.935 918.578 462.873V607.426C918.578 616.636 919.701 623.263 921.948 627.306C924.194 631.237 927.9 633.203 933.067 633.203Z" fill="black"/>
<path d="M1021.01 685.093L1052.85 527.905L1027.58 388.407H1085.54L1100.87 490.335L1114.52 388.407H1172.64L1147.37 527.905L1179.04 685.093H1119.06L1100.36 569.182L1081.16 685.093H1021.01Z" fill="black"/>
<path d="M1192.86 684.925V634.719H1253.17V684.925H1192.86Z" fill="black"/>
<path d="M1275.58 685.093V388.576H1357.12C1378.46 388.576 1394.52 394.528 1405.31 406.434C1416.09 418.227 1421.48 435.524 1421.48 458.325V597.149C1421.48 625.228 1416.54 646.905 1406.65 662.181C1396.88 677.456 1379.7 685.093 1355.1 685.093H1275.58ZM1335.22 632.697H1345.5C1356.39 632.697 1361.84 627.418 1361.84 616.861V463.884C1361.84 454 1360.49 447.654 1357.8 444.847C1355.21 441.926 1349.88 440.466 1341.79 440.466H1335.22V632.697Z" fill="black"/>
<path d="M1516.16 687.789C1489.09 687.789 1469.55 681.05 1457.53 667.572C1445.63 654.094 1439.67 632.641 1439.67 603.214V574.236H1498.3V611.301C1498.3 618.152 1499.32 623.543 1501.34 627.475C1503.47 631.293 1507.12 633.203 1512.29 633.203C1517.68 633.203 1521.39 631.63 1523.41 628.485C1525.54 625.341 1526.61 620.174 1526.61 612.986C1526.61 603.888 1525.71 596.307 1523.91 590.241C1522.12 584.064 1518.97 578.223 1514.48 572.72C1510.1 567.104 1503.98 560.59 1496.11 553.177L1469.5 527.905C1449.61 509.148 1439.67 487.696 1439.67 463.547C1439.67 438.276 1445.52 419.014 1457.2 405.76C1468.99 392.507 1486.01 385.88 1508.24 385.88C1535.43 385.88 1554.69 393.124 1566.03 407.613C1577.49 422.102 1583.22 444.116 1583.22 473.656H1522.9V453.27C1522.9 449.227 1521.72 446.082 1519.36 443.836C1517.12 441.589 1514.03 440.466 1510.1 440.466C1505.38 440.466 1501.9 441.814 1499.65 444.51C1497.52 447.093 1496.45 450.462 1496.45 454.618C1496.45 458.774 1497.57 463.267 1499.82 468.096C1502.07 472.926 1506.5 478.486 1513.13 484.775L1547.33 517.628C1554.18 524.143 1560.47 531.05 1566.2 538.351C1571.93 545.539 1576.53 553.963 1580.02 563.622C1583.5 573.169 1585.24 584.85 1585.24 598.665C1585.24 626.52 1580.07 648.366 1569.74 664.202C1559.52 679.927 1541.66 687.789 1516.16 687.789Z" fill="black"/>
<path d="M1666.28 687.789C1623.93 687.789 1602.76 657.463 1602.76 596.812V468.939C1602.76 413.566 1627.02 385.88 1675.54 385.88C1695.53 385.88 1710.87 389.923 1721.54 398.01C1732.21 405.985 1739.56 417.666 1743.61 433.053C1747.65 448.441 1749.67 467.198 1749.67 489.324H1691.72V463.042C1691.72 456.64 1690.82 451.305 1689.02 447.037C1687.33 442.656 1683.74 440.466 1678.24 440.466C1671.39 440.466 1666.84 442.769 1664.59 447.374C1662.46 451.979 1661.39 457.033 1661.39 462.537V606.247C1661.39 614.221 1662.4 620.736 1664.42 625.79C1666.56 630.732 1670.66 633.203 1676.72 633.203C1683.01 633.203 1687.17 630.732 1689.19 625.79C1691.32 620.736 1692.39 614.109 1692.39 605.91V563.622H1676.55V512.405H1749V685.093H1725.24L1715.13 660.159C1704.8 678.579 1688.51 687.789 1666.28 687.789Z" fill="black"/>
<path d="M1772.58 685.093V388.576H1833.57L1860.86 530.601V388.576H1918.15V685.093H1860.19L1830.54 536.834V685.093H1772.58Z" fill="black"/>
</svg>
