<svg width="2133" height="1003" viewBox="0 0 2133 1003" fill="none" xmlns="http://www.w3.org/2000/svg">
<path d="M214.854 415.058H315.286V434.143H334.372V453.541H353.77V630.942H334.372V650.34H315.286V670.051H214.854V415.058ZM311.845 646.898V627.813H331.243V456.983H311.845V437.585H238.006V646.898H311.845Z" fill="black"/>
<path d="M371.291 415.058H510.208V437.585H394.444V530.821H490.81V553.661H394.444V646.898H510.208V670.051H371.291V415.058Z" fill="black"/>
<path d="M527.729 415.058H628.161V434.143H647.247V453.541H666.646V630.942H647.247V650.34H628.161V670.051H527.729V415.058ZM624.719 646.898V627.813H644.117V456.983H624.719V437.585H550.882V646.898H624.719Z" fill="black"/>
<path d="M684.168 415.058H784.601V434.143H803.686V453.541H823.084V514.865H803.686V534.263H784.601V550.22H803.686V608.415H823.084V670.051H800.557V611.543H781.159V553.661H707.32V670.051H684.168V415.058ZM781.159 530.821V511.736H800.557V456.983H781.159V437.585H707.32V530.821H781.159Z" fill="black"/>
<path d="M860.315 630.942H840.604V453.541H860.315V434.143H879.714V415.058H941.036V434.143H960.122V453.541H979.521V630.942H960.122V650.34H941.036V670.051H879.714V650.34H860.315V630.942ZM882.841 627.813V646.898H937.596V627.813H956.994V456.983H937.596V437.585H882.841V456.983H863.757V627.813H882.841Z" fill="black"/>
<path d="M997.043 627.813H1016.75V589.016H1036.15V550.22H1055.24V534.263H1036.15V495.779H1016.75V456.983H997.043V415.058H1020.19V453.541H1039.28V492.338H1058.68V530.821H1074.63V492.338H1094.03V453.541H1113.43V415.058H1135.96V456.983H1116.56V495.779H1097.47V534.263H1078.08V550.22H1097.47V589.016H1116.56V627.813H1135.96V670.051H1113.43V630.942H1094.03V592.458H1074.63V553.661H1058.68V592.458H1039.28V630.942H1020.19V670.051H997.043V627.813Z" fill="black"/>
<path d="M1164.43 608.415H1206.36V650.34H1164.43V608.415Z" fill="black"/>
<path d="M1309.92 415.058H1410.35V434.143H1429.44V453.541H1448.83V630.942H1429.44V650.34H1410.35V670.051H1309.92V415.058ZM1406.91 646.898V627.813H1426.31V456.983H1406.91V437.585H1333.07V646.898H1406.91Z" fill="black"/>
<path d="M1486.07 630.942H1466.35V589.016H1489.51V627.813H1508.59V646.898H1563.35V627.813H1582.74V573.06H1563.35V553.661H1505.46V534.263H1486.07V514.865H1466.35V453.541H1486.07V434.143H1505.46V415.058H1566.79V434.143H1585.87V453.541H1605.27V495.779H1582.74V456.983H1563.35V437.585H1508.59V456.983H1489.51V511.736H1508.59V530.821H1566.79V550.22H1585.87V569.618H1605.27V630.942H1585.87V650.34H1566.79V670.051H1505.46V650.34H1486.07V630.942Z" fill="black"/>
<path d="M1642.5 630.942H1622.79V453.541H1642.5V434.143H1661.9V415.058H1723.23V434.143H1742.31V453.541H1761.71V495.779H1739.18V456.983H1719.78V437.585H1665.03V456.983H1645.95V627.813H1665.03V646.898H1719.78V627.813H1739.18V553.661H1680.99V530.821H1761.71V630.942H1742.31V650.34H1723.23V670.051H1661.9V650.34H1642.5V630.942Z" fill="black"/>
<path d="M1779.23 415.058H1802.38V453.541H1821.47V492.338H1840.87V530.821H1860.26V569.618H1879.66V608.415H1895.62V415.058H1918.15V670.051H1895.62V650.34H1876.22V611.543H1856.82V573.06H1837.43V534.263H1818.34V495.779H1802.38V670.051H1779.23V415.058Z" fill="black"/>
</svg>
