<svg width="2133" height="1003" viewBox="0 0 2133 1003" fill="none" xmlns="http://www.w3.org/2000/svg">
<path d="M214.854 325.058H315.286V344.143H334.372V363.541H353.77V540.942H334.372V560.34H315.286V580.051H214.854V325.058ZM311.845 556.898V537.813H331.243V366.983H311.845V347.585H238.006V556.898H311.845Z" fill="black"/>
<path d="M371.291 325.058H510.208V347.585H394.444V440.821H490.81V463.661H394.444V556.898H510.208V580.051H371.291V325.058Z" fill="black"/>
<path d="M527.729 325.058H628.162V344.143H647.247V363.541H666.646V540.942H647.247V560.34H628.162V580.051H527.729V325.058ZM624.72 556.898V537.813H644.118V366.983H624.72V347.585H550.882V556.898H624.72Z" fill="black"/>
<path d="M684.167 325.058H784.6V344.143H803.685V363.541H823.083V424.865H803.685V444.263H784.6V460.22H803.685V518.415H823.083V580.051H800.556V521.543H781.158V463.661H707.319V580.051H684.167V325.058ZM781.158 440.821V421.736H800.556V366.983H781.158V347.585H707.319V440.821H781.158Z" fill="black"/>
<path d="M860.315 540.942H840.604V363.541H860.315V344.143H879.714V325.058H941.037V344.143H960.123V363.541H979.521V540.942H960.123V560.34H941.037V580.051H879.714V560.34H860.315V540.942ZM882.842 537.813V556.898H937.596V537.813H956.994V366.983H937.596V347.585H882.842V366.983H863.757V537.813H882.842Z" fill="black"/>
<path d="M997.042 537.813H1016.75V499.016H1036.15V460.22H1055.24V444.263H1036.15V405.779H1016.75V366.983H997.042V325.058H1020.19V363.541H1039.28V402.338H1058.68V440.821H1074.63V402.338H1094.03V363.541H1113.43V325.058H1135.96V366.983H1116.56V405.779H1097.47V444.263H1078.08V460.22H1097.47V499.016H1116.56V537.813H1135.96V580.051H1113.43V540.942H1094.03V502.458H1074.63V463.661H1058.68V502.458H1039.28V540.942H1020.19V580.051H997.042V537.813Z" fill="black"/>
<path d="M1164.43 518.415H1206.36V560.34H1164.43V518.415Z" fill="black"/>
<path d="M1309.92 325.058H1410.35V344.143H1429.44V363.541H1448.83V540.942H1429.44V560.34H1410.35V580.051H1309.92V325.058ZM1406.91 556.898V537.813H1426.31V366.983H1406.91V347.585H1333.07V556.898H1406.91Z" fill="black"/>
<path d="M1486.07 540.942H1466.35V499.016H1489.51V537.813H1508.59V556.898H1563.35V537.813H1582.74V483.06H1563.35V463.661H1505.46V444.263H1486.07V424.865H1466.35V363.541H1486.07V344.143H1505.46V325.058H1566.79V344.143H1585.87V363.541H1605.27V405.779H1582.74V366.983H1563.35V347.585H1508.59V366.983H1489.51V421.736H1508.59V440.821H1566.79V460.22H1585.87V479.618H1605.27V540.942H1585.87V560.34H1566.79V580.051H1505.46V560.34H1486.07V540.942Z" fill="black"/>
<path d="M1642.5 540.942H1622.79V363.541H1642.5V344.143H1661.9V325.058H1723.23V344.143H1742.31V363.541H1761.71V405.779H1739.18V366.983H1719.78V347.585H1665.03V366.983H1645.95V537.813H1665.03V556.898H1719.78V537.813H1739.18V463.661H1680.99V440.821H1761.71V540.942H1742.31V560.34H1723.23V580.051H1661.9V560.34H1642.5V540.942Z" fill="black"/>
<path d="M1779.23 325.058H1802.38V363.541H1821.47V402.338H1840.87V440.821H1860.26V479.618H1879.66V518.415H1895.62V325.058H1918.15V580.051H1895.62V560.34H1876.22V521.543H1856.82V483.06H1837.43V444.263H1818.34V405.779H1802.38V580.051H1779.23V325.058Z" fill="black"/>
<path d="M874.3 696.069H871.056V672.893H874.3V663.215H877.543V659.972H881.31V663.738H878.066V673.469H874.875V695.546H878.066V705.224H881.31V709.096H877.543V705.852H874.3V696.069Z" fill="black"/>
<path d="M889 699.313H885.704V663.215H889.576V698.789H892.767V701.981H901.922V698.789H905.166V663.215H908.932V699.313H905.689V702.556H902.497V705.852H892.244V702.556H889V699.313Z" fill="black"/>
<path d="M911.862 663.215H915.733V669.65H918.924V676.137H922.168V682.572H925.411V689.059H928.655V695.546H931.323V663.215H935.09V705.852H931.323V702.556H928.08V696.069H924.836V689.634H921.592V683.147H918.401V676.712H915.733V705.852H911.862V663.215Z" fill="black"/>
<path d="M947.698 663.215H951.517V705.852H947.698V663.215Z" fill="black"/>
<path d="M973.908 670.225H964.177V666.406H987.405V670.225H977.727V705.852H973.908V670.225Z" fill="black"/>
<path d="M990.334 663.215H1013.56V666.982H994.206V682.572H1010.32V686.391H994.206V701.981H1013.56V705.852H990.334V663.215Z" fill="black"/>
<path d="M1016.49 663.215H1033.29V666.406H1036.48V669.65H1039.72V699.313H1036.48V702.556H1033.29V705.852H1016.49V663.215ZM1032.71 701.981V698.789H1035.95V670.225H1032.71V666.982H1020.36V701.981H1032.71Z" fill="black"/>
<path d="M1068.81 663.215H1072.68V679.381H1075.35V676.137H1078.54V672.893H1081.78V669.65H1085.02V666.406H1088.27V663.215H1092.03V666.982H1088.79V670.225H1085.6V673.469H1082.36V676.712H1079.11V679.904H1075.87V685.815H1079.11V689.059H1082.36V692.302H1085.6V698.789H1088.79V701.981H1092.03V705.852H1088.27V702.556H1085.02V699.313H1081.78V692.878H1078.54V689.634H1075.35V686.391H1072.68V705.852H1068.81V663.215Z" fill="black"/>
<path d="M1104.64 663.215H1108.46V705.852H1104.64V663.215Z" fill="black"/>
<path d="M1121.12 663.215H1124.99V669.65H1128.18V676.137H1131.43V682.572H1134.67V689.059H1137.92V695.546H1140.58V663.215H1144.35V705.852H1140.58V702.556H1137.34V696.069H1134.1V689.634H1130.85V683.147H1127.66V676.712H1124.99V705.852H1121.12V663.215Z" fill="black"/>
<path d="M1150.58 699.313H1147.28V669.65H1150.58V666.406H1153.82V663.215H1164.07V666.406H1167.26V669.65H1170.51V676.712H1166.74V670.225H1163.5V666.982H1154.34V670.225H1151.15V698.789H1154.34V701.981H1163.5V698.789H1166.74V686.391H1157.01V682.572H1170.51V699.313H1167.26V702.556H1164.07V705.852H1153.82V702.556H1150.58V699.313Z" fill="black"/>
<path d="M1173.44 663.215H1190.23V666.406H1193.42V669.65H1196.67V699.313H1193.42V702.556H1190.23V705.852H1173.44V663.215ZM1189.65 701.981V698.789H1192.9V670.225H1189.65V666.982H1177.31V701.981H1189.65Z" fill="black"/>
<path d="M1202.89 699.313H1199.59V669.65H1202.89V666.406H1206.13V663.215H1216.39V666.406H1219.58V669.65H1222.82V699.313H1219.58V702.556H1216.39V705.852H1206.13V702.556H1202.89V699.313ZM1206.66 698.789V701.981H1215.81V698.789H1219.06V670.225H1215.81V666.982H1206.66V670.225H1203.47V698.789H1206.66Z" fill="black"/>
<path d="M1225.75 663.215H1229.62V669.65H1232.81V679.381H1236.06V692.302H1238.73V679.381H1241.97V669.65H1245.21V663.215H1248.98V705.852H1245.21V679.904H1242.55V692.878H1239.3V702.556H1235.48V692.878H1232.29V679.904H1229.62V705.852H1225.75V663.215Z" fill="black"/>
<path d="M1256.98 705.224V695.546H1260.18V673.469H1256.98V663.738H1253.74V659.972H1257.51V663.215H1260.75V672.893H1263.99V696.069H1260.75V705.852H1257.51V709.096H1253.74V705.224H1256.98Z" fill="black"/>
</svg>
