<svg width="2133" height="1003" viewBox="0 0 2133 1003" fill="none" xmlns="http://www.w3.org/2000/svg">
<path d="M184.968 550.671V517.267H211.461V382.498H184.968V349.094H267.902C294.971 349.094 315.513 356.005 329.527 369.828C343.734 383.458 350.837 403.808 350.837 430.877V468.889C350.837 495.958 343.734 516.403 329.527 530.226C315.513 543.856 294.971 550.671 267.902 550.671H184.968ZM249.472 516.115H268.478C283.836 516.115 295.067 512.084 302.17 504.021C309.274 495.958 312.825 484.631 312.825 470.04V429.725C312.825 414.943 309.274 403.616 302.17 395.745C295.067 387.682 283.836 383.65 268.478 383.65H249.472V516.115ZM368.119 550.671V349.094H497.705V383.65H406.131V431.741H489.642V466.297H406.131V516.115H499.433V550.671H368.119ZM507.412 550.671V517.267H533.906V382.498H507.412V349.094H590.347C617.416 349.094 637.958 356.005 651.972 369.828C666.179 383.458 673.282 403.808 673.282 430.877V468.889C673.282 495.958 666.179 516.403 651.972 530.226C637.958 543.856 617.416 550.671 590.347 550.671H507.412ZM571.917 516.115H590.923C606.281 516.115 617.512 512.084 624.615 504.021C631.718 495.958 635.27 484.631 635.27 470.04V429.725C635.27 414.943 631.718 403.616 624.615 395.745C617.512 387.682 606.281 383.65 590.923 383.65H571.917V516.115ZM690.564 550.671V349.094H778.106C790.777 349.094 801.816 351.302 811.223 355.717C820.63 360.133 827.925 366.372 833.108 374.435C838.292 382.498 840.883 392.001 840.883 402.944V406.4C840.883 418.494 838.004 428.285 832.244 435.772C826.485 443.26 819.382 448.731 810.935 452.186V457.37C818.614 457.754 824.565 460.442 828.789 465.433C833.012 470.232 835.124 476.664 835.124 484.727V550.671H797.112V490.198C797.112 485.591 795.864 481.847 793.369 478.967C791.065 476.088 787.129 474.648 781.562 474.648H728.576V550.671H690.564ZM728.576 440.092H774.075C783.098 440.092 790.105 437.692 795.097 432.893C800.28 427.901 802.872 421.374 802.872 413.311V410.431C802.872 402.368 800.376 395.937 795.384 391.137C790.393 386.146 783.29 383.65 774.075 383.65H728.576V440.092ZM936.441 554.703C911.1 554.703 890.942 547.792 875.968 533.969C860.994 519.955 853.507 499.989 853.507 474.072V425.693C853.507 399.776 860.994 379.907 875.968 366.084C890.942 352.07 911.1 345.063 936.441 345.063C961.782 345.063 981.94 352.07 996.914 366.084C1011.89 379.907 1019.38 399.776 1019.38 425.693V474.072C1019.38 499.989 1011.89 519.955 996.914 533.969C981.94 547.792 961.782 554.703 936.441 554.703ZM936.441 520.723C950.648 520.723 961.686 516.595 969.558 508.34C977.429 500.085 981.364 489.046 981.364 475.224V424.542C981.364 410.719 977.429 399.68 969.558 391.425C961.686 383.17 950.648 379.043 936.441 379.043C922.427 379.043 911.388 383.17 903.325 391.425C895.454 399.68 891.518 410.719 891.518 424.542V475.224C891.518 489.046 895.454 500.085 903.325 508.34C911.388 516.595 922.427 520.723 936.441 520.723ZM1018.62 550.671L1077.65 449.019L1019.19 349.094H1062.39L1102.42 421.95H1107.6L1147.63 349.094H1190.82L1132.36 449.019L1191.4 550.671H1148.2L1107.6 476.088H1102.42L1061.81 550.671H1018.62ZM1226.11 554.703C1218.43 554.703 1211.91 552.207 1206.53 547.216C1201.35 542.032 1198.76 535.409 1198.76 527.346C1198.76 519.283 1201.35 512.756 1206.53 507.764C1211.91 502.581 1218.43 499.989 1226.11 499.989C1233.99 499.989 1240.51 502.581 1245.7 507.764C1250.88 512.756 1253.47 519.283 1253.47 527.346C1253.47 535.409 1250.88 542.032 1245.7 547.216C1240.51 552.207 1233.99 554.703 1226.11 554.703ZM1267.83 550.671V517.267H1294.32V382.498H1267.83V349.094H1350.76C1377.83 349.094 1398.37 356.005 1412.39 369.828C1426.59 383.458 1433.7 403.808 1433.7 430.877V468.889C1433.7 495.958 1426.59 516.403 1412.39 530.226C1398.37 543.856 1377.83 550.671 1350.76 550.671H1267.83ZM1332.33 516.115H1351.34C1366.7 516.115 1377.93 512.084 1385.03 504.021C1392.13 495.958 1395.68 484.631 1395.68 470.04V429.725C1395.68 414.943 1392.13 403.616 1385.03 395.745C1377.93 387.682 1366.7 383.65 1351.34 383.65H1332.33V516.115ZM1520.95 554.703C1505.4 554.703 1491.68 551.919 1479.78 546.352C1467.87 540.785 1458.56 532.817 1451.84 522.451C1445.12 512.084 1441.76 499.605 1441.76 485.015V476.952H1479.2V485.015C1479.2 497.109 1482.94 506.228 1490.43 512.372C1497.92 518.323 1508.09 521.299 1520.95 521.299C1534.01 521.299 1543.7 518.707 1550.04 513.524C1556.57 508.34 1559.83 501.717 1559.83 493.654C1559.83 488.086 1558.2 483.575 1554.93 480.119C1551.86 476.664 1547.26 473.88 1541.11 471.768C1535.16 469.465 1527.87 467.353 1519.23 465.433L1512.6 463.993C1498.78 460.922 1486.88 457.082 1476.9 452.474C1467.1 447.675 1459.52 441.436 1454.15 433.757C1448.96 426.077 1446.37 416.095 1446.37 403.808C1446.37 391.521 1449.25 381.059 1455.01 372.419C1460.96 363.588 1469.22 356.869 1479.78 352.262C1490.53 347.462 1503.1 345.063 1517.5 345.063C1531.9 345.063 1544.66 347.558 1555.8 352.55C1567.13 357.349 1575.96 364.644 1582.29 374.435C1588.82 384.034 1592.08 396.129 1592.08 410.719V419.358H1554.65V410.719C1554.65 403.04 1553.11 396.897 1550.04 392.289C1547.16 387.49 1542.94 384.034 1537.37 381.922C1531.8 379.619 1525.18 378.467 1517.5 378.467C1505.98 378.467 1497.44 380.675 1491.87 385.09C1486.49 389.314 1483.81 395.169 1483.81 402.656C1483.81 407.648 1485.05 411.871 1487.55 415.327C1490.24 418.782 1494.17 421.662 1499.36 423.966C1504.54 426.269 1511.16 428.285 1519.23 430.013L1525.85 431.453C1540.25 434.524 1552.73 438.46 1563.29 443.26C1574.04 448.059 1582.39 454.394 1588.34 462.265C1594.29 470.136 1597.27 480.215 1597.27 492.502C1597.27 504.789 1594.1 515.635 1587.76 525.042C1581.62 534.257 1572.79 541.552 1561.27 546.928C1549.94 552.111 1536.5 554.703 1520.95 554.703ZM1680.9 554.703C1667.08 554.703 1654.51 551.631 1643.18 545.488C1632.05 539.153 1623.12 530.034 1616.4 518.131C1609.87 506.036 1606.61 491.35 1606.61 474.072V425.693C1606.61 399.776 1613.9 379.907 1628.49 366.084C1643.08 352.07 1662.86 345.063 1687.82 345.063C1712.58 345.063 1731.68 351.686 1745.12 364.932C1758.75 377.987 1765.57 395.745 1765.57 418.206V419.358H1728.13V417.054C1728.13 409.951 1726.6 403.52 1723.52 397.761C1720.64 392.001 1716.23 387.49 1710.28 384.226C1704.33 380.771 1696.84 379.043 1687.82 379.043C1674.38 379.043 1663.82 383.17 1656.14 391.425C1648.46 399.68 1644.62 410.911 1644.62 425.118V474.648C1644.62 488.662 1648.46 499.989 1656.14 508.628C1663.82 517.075 1674.57 521.299 1688.39 521.299C1702.21 521.299 1712.29 517.651 1718.63 510.356C1724.96 503.061 1728.13 493.846 1728.13 482.711V479.831H1680.33V447.579H1765.57V550.671H1730.44V531.378H1725.25C1723.91 534.641 1721.7 538.097 1718.63 541.744C1715.75 545.392 1711.33 548.464 1705.38 550.959C1699.43 553.455 1691.27 554.703 1680.9 554.703ZM1787.48 550.671V349.094H1859.76L1899.79 524.754H1904.98V349.094H1942.41V550.671H1870.13L1830.1 375.011H1824.92V550.671H1787.48Z" fill="black"/>
<path d="M881.341 713.678C878.154 713.678 875.412 713.103 873.114 711.955C870.854 710.769 869.112 709.101 867.889 706.952C866.703 704.765 866.11 702.19 866.11 699.225V673.989H873.448V699.448C873.448 701.819 874.115 703.691 875.449 705.062C876.82 706.433 878.784 707.119 881.341 707.119C883.898 707.119 885.843 706.433 887.178 705.062C888.549 703.691 889.234 701.819 889.234 699.448V673.989H896.572V699.225C896.572 702.19 895.96 704.765 894.737 706.952C893.551 709.101 891.81 710.769 889.512 711.955C887.252 713.103 884.528 713.678 881.341 713.678ZM900.9 712.9V673.989H914.853L922.579 707.897H923.58V673.989H930.806V712.9H916.854L909.127 678.992H908.127V712.9H900.9ZM935.36 712.9V673.989H942.697V712.9H935.36ZM956.242 712.9V680.659H944.903V673.989H974.919V680.659H963.58V712.9H956.242ZM977.137 712.9V673.989H1002.15V680.659H984.474V689.942H1000.59V696.613H984.474V706.229H1002.48V712.9H977.137ZM1004.02 712.9V706.452H1009.14V680.437H1004.02V673.989H1020.03C1025.26 673.989 1029.22 675.323 1031.93 677.991C1034.67 680.622 1036.04 684.55 1036.04 689.776V697.113C1036.04 702.338 1034.67 706.285 1031.93 708.953C1029.22 711.584 1025.26 712.9 1020.03 712.9H1004.02ZM1016.48 706.229H1020.14C1023.11 706.229 1025.28 705.451 1026.65 703.895C1028.02 702.338 1028.71 700.152 1028.71 697.335V689.553C1028.71 686.7 1028.02 684.513 1026.65 682.994C1025.28 681.438 1023.11 680.659 1020.14 680.659H1016.48V706.229ZM1050.71 712.9V673.989H1058.05V689.442H1059.05L1071.67 673.989H1081.06L1064.83 693.166L1081.62 712.9H1071.95L1059.05 697.113H1058.05V712.9H1050.71ZM1082.73 712.9V673.989H1090.07V712.9H1082.73ZM1094.61 712.9V673.989H1108.56L1116.29 707.897H1117.29V673.989H1124.51V712.9H1110.56L1102.83 678.992H1101.83V712.9H1094.61ZM1142.52 713.678C1139.85 713.678 1137.42 713.085 1135.24 711.899C1133.09 710.676 1131.36 708.916 1130.07 706.618C1128.81 704.284 1128.18 701.449 1128.18 698.114V688.775C1128.18 683.772 1129.59 679.937 1132.4 677.269C1135.22 674.563 1139.03 673.211 1143.85 673.211C1148.63 673.211 1152.32 674.489 1154.91 677.046C1157.55 679.566 1158.86 682.994 1158.86 687.33V687.552H1151.63V687.107C1151.63 685.736 1151.34 684.495 1150.75 683.383C1150.19 682.271 1149.34 681.401 1148.19 680.771C1147.04 680.104 1145.59 679.77 1143.85 679.77C1141.26 679.77 1139.22 680.567 1137.74 682.16C1136.26 683.754 1135.51 685.922 1135.51 688.664V698.225C1135.51 700.93 1136.26 703.116 1137.74 704.784C1139.22 706.415 1141.3 707.23 1143.96 707.23C1146.63 707.23 1148.58 706.526 1149.8 705.118C1151.02 703.709 1151.63 701.931 1151.63 699.781V699.225H1142.41V693H1158.86V712.9H1152.08V709.175H1151.08C1150.82 709.805 1150.39 710.472 1149.8 711.176C1149.24 711.881 1148.39 712.473 1147.24 712.955C1146.09 713.437 1144.52 713.678 1142.52 713.678ZM1161.98 712.9V706.452H1167.09V680.437H1161.98V673.989H1177.99C1183.21 673.989 1187.18 675.323 1189.88 677.991C1192.63 680.622 1194 684.55 1194 689.776V697.113C1194 702.338 1192.63 706.285 1189.88 708.953C1187.18 711.584 1183.21 712.9 1177.99 712.9H1161.98ZM1174.43 706.229H1178.1C1181.06 706.229 1183.23 705.451 1184.6 703.895C1185.97 702.338 1186.66 700.152 1186.66 697.335V689.553C1186.66 686.7 1185.97 684.513 1184.6 682.994C1183.23 681.438 1181.06 680.659 1178.1 680.659H1174.43V706.229ZM1212.45 713.678C1207.56 713.678 1203.67 712.344 1200.78 709.676C1197.89 706.97 1196.44 703.116 1196.44 698.114V688.775C1196.44 683.772 1197.89 679.937 1200.78 677.269C1203.67 674.563 1207.56 673.211 1212.45 673.211C1217.35 673.211 1221.24 674.563 1224.13 677.269C1227.02 679.937 1228.46 683.772 1228.46 688.775V698.114C1228.46 703.116 1227.02 706.97 1224.13 709.676C1221.24 712.344 1217.35 713.678 1212.45 713.678ZM1212.45 707.119C1215.2 707.119 1217.33 706.322 1218.85 704.728C1220.37 703.135 1221.12 701.004 1221.12 698.336V688.553C1221.12 685.885 1220.37 683.754 1218.85 682.16C1217.33 680.567 1215.2 679.77 1212.45 679.77C1209.75 679.77 1207.62 680.567 1206.06 682.16C1204.54 683.754 1203.78 685.885 1203.78 688.553V698.336C1203.78 701.004 1204.54 703.135 1206.06 704.728C1207.62 706.322 1209.75 707.119 1212.45 707.119ZM1232.12 712.9V673.989H1245.74L1252.46 707.897H1253.46L1260.19 673.989H1273.81V712.9H1266.69V679.381H1265.69L1259.02 712.9H1246.9L1240.23 679.381H1239.23V712.9H1232.12Z" fill="black"/>
</svg>
