<svg width="2133" height="1003" viewBox="0 0 2133 1003" fill="none" xmlns="http://www.w3.org/2000/svg">
<path d="M344.849 378.219L366.397 398.878V495.289L327.077 533.72H210.007V378.219H344.849ZM300.642 451.971V398.878L297.532 396.879H228.667V495.289H284.87L300.642 451.971Z" fill="black"/>
<path d="M376.667 515.06V378.441H532.835V405.987H528.836L517.063 397.101H405.102V418.871H415.987V436.421H405.102V474.852L415.987 487.514V498.399L420.874 503.286V487.514H532.835V533.72H395.327L376.667 515.06ZM420.874 436.421V418.871H532.835V444.418H527.059L515.063 436.421H420.874Z" fill="black"/>
<path d="M677.519 378.219L699.067 398.878V495.289L659.747 533.72H542.677V378.219H677.519ZM633.312 451.971V398.878L630.202 396.879H561.337V495.289H617.54L633.312 451.971Z" fill="black"/>
<path d="M709.337 533.72V378.219H864.839V477.295H855.286L864.839 488.402V533.72H805.082L748.657 477.295H744.658V533.72H709.337ZM799.528 398.878H742.659V455.081H788.421L801.305 441.974V400.655L799.528 398.878Z" fill="black"/>
<path d="M1010.86 378.219L1031.52 397.99V513.06L1010.86 533.72H895.79L875.13 513.06V397.99L895.79 378.219H1010.86ZM1013.97 461.967V411.763L998.198 395.99H908.674L892.902 411.763V500.176L908.674 515.948H959.767L1013.97 461.967Z" fill="black"/>
<path d="M1041.79 378.219H1089.11L1132.43 441.086L1170.63 385.105L1175.74 378.219H1197.29V409.763L1183.52 430.423H1155.97L1141.31 453.081L1196.4 533.72H1132.43L1108.66 499.288L1085.11 533.72H1041.79V524.834H1074.22L1100.88 487.514L1057.56 425.536H1041.79V378.219Z" fill="black"/>
<path d="M1231.8 490.624L1250.68 509.506V533.72H1207.58V490.624H1231.8Z" fill="black"/>
<path d="M1404.52 378.219L1426.07 398.878V495.289L1386.75 533.72H1269.68V378.219H1404.52ZM1360.31 451.971V398.878L1357.2 396.879H1288.34V495.289H1344.54L1360.31 451.971Z" fill="black"/>
<path d="M1436.34 515.06V445.973H1449.89L1461.22 457.302H1504.76V445.084L1436.34 424.203V378.219H1591.84V404.21H1578.29L1570.74 396.657H1504.76V409.763L1591.84 439.753V514.393L1572.51 533.72H1454.11L1436.34 515.06Z" fill="black"/>
<path d="M1602.13 533.498V391.103L1614.8 378.441H1757.19V403.988H1742.31L1727.64 410.874H1652.12V387.327H1647.23V410.874L1618.79 462.856V517.726H1739.42V497.066L1726.76 484.404H1658.11V478.406H1678.55L1689.44 467.743H1757.19V533.498H1602.13Z" fill="black"/>
<path d="M1767.49 400.877L1790.15 378.219H1839.24V511.061H1843.24L1874.79 378.219H1922.99V510.173L1914.11 518.836V533.72H1874.79V402.877L1843.24 533.72H1767.49V505.063L1777.27 495.289V470.631H1767.49V400.877Z" fill="black"/>
<path d="M837.224 698.895V675.034L844.937 667.321H856.619V688.926H860.498L863.249 686.22V667.321H868.797V696.82L866.722 698.895H837.224Z" fill="black"/>
<path d="M871.789 671.922L876.389 667.321H886.357V694.294H887.169L893.574 667.321H903.362V694.113L901.558 695.873V698.895H893.574V672.328L887.169 698.895H871.789V693.076L873.773 691.091V686.085H871.789V671.922Z" fill="black"/>
<path d="M909.06 674.899H906.354V667.321H937.927V674.899H935.356L932.334 671.742H923.493V690.144H924.486V683.108H932.424L935.356 686.987H937.927V698.895H912.804L906.354 692.49V686.987H909.06L912.082 683.108H920.787V671.742H912.217L909.06 674.899Z" fill="black"/>
<path d="M940.919 667.321H965.771L967.169 667.998H972.492V689.558H964.553V698.895H952.736V689.558L950.3 687.167H943.129V689.558H940.919V667.321Z" fill="black"/>
<path d="M975.483 695.106V667.366H1007.19V672.959H1006.38L1003.99 671.155H981.257V675.575H983.467V679.139H981.257V686.942L983.467 689.513V691.723L984.459 692.715V689.513H1007.19V698.895H979.272L975.483 695.106ZM984.459 679.139V675.575H1007.19V680.762H1006.02L1003.58 679.139H984.459Z" fill="black"/>
<path d="M1037.47 667.321L1041.85 671.516V691.091L1033.86 698.895H1010.09V667.321H1037.47ZM1028.5 682.296V671.516L1027.86 671.11H1013.88V691.091H1025.29L1028.5 682.296Z" fill="black"/>
<path d="M1071.54 698.895H1057.46V679.094L1060.3 676.252V667.321H1071.54V677.56L1084.21 667.321H1089.04V668.99L1086.19 671.832H1083.49L1071.54 681.619V683.018L1076.68 678.733L1089.04 691.091V698.895H1081.82L1071.54 688.656V698.895Z" fill="black"/>
<path d="M1094.73 674.899H1092.03V667.321H1123.6V674.899H1121.03L1118.01 671.742H1109.17V690.144H1110.16V683.108H1118.1L1121.03 686.987H1123.6V698.895H1098.48L1092.03 692.49V686.987H1094.73L1097.76 683.108H1106.46V671.742H1097.89L1094.73 674.899Z" fill="black"/>
<path d="M1126.59 671.922L1131.19 667.321H1141.16V694.294H1141.97L1148.38 667.321H1158.17V694.113L1156.36 695.873V698.895H1148.38V672.328L1141.97 698.895H1126.59V693.076L1128.58 691.091V686.085H1126.59V671.922Z" fill="black"/>
<path d="M1161.16 698.849V669.937L1163.73 667.366H1192.64V672.553H1189.62L1186.64 673.952H1171.31V669.171H1170.31V673.952L1164.54 684.506V695.647H1189.03V691.452L1186.46 688.881H1172.52V687.663H1176.67L1178.88 685.498H1192.64V698.849H1161.16Z" fill="black"/>
<path d="M1223.01 667.321L1227.39 671.516V691.091L1219.4 698.895H1195.63V667.321H1223.01ZM1214.04 682.296V671.516L1213.41 671.11H1199.42V691.091H1210.84L1214.04 682.296Z" fill="black"/>
<path d="M1257.93 667.321L1262.13 671.336V694.7L1257.93 698.895H1234.57L1230.38 694.7V671.336L1234.57 667.321H1257.93ZM1258.57 684.326V674.132L1255.36 670.93H1237.19L1233.98 674.132V692.084L1237.19 695.286H1247.56L1258.57 684.326Z" fill="black"/>
<path d="M1265.12 671.967L1269.76 667.321H1279.6V678.507H1280.41L1286.81 667.321H1296.69V694.023L1294.75 695.918V698.895H1286.81V672.463L1280.41 683.108H1275.76V671.922H1274.95V693.798L1272.78 695.918V698.895H1265.12V671.967Z" fill="black"/>
</svg>
