<svg width="2133" height="1003" viewBox="0 0 2133 1003" fill="none" xmlns="http://www.w3.org/2000/svg">
<path d="M184.968 640.671V607.267H211.461V472.497H184.968V439.094H267.902C294.971 439.094 315.513 446.005 329.527 459.828C343.734 473.458 350.837 493.808 350.837 520.877V558.889C350.837 585.958 343.734 606.403 329.527 620.226C315.513 633.856 294.971 640.671 267.902 640.671H184.968ZM249.472 606.115H268.478C283.836 606.115 295.067 602.084 302.17 594.021C309.274 585.958 312.825 574.631 312.825 560.04V519.725C312.825 504.943 309.274 493.616 302.17 485.745C295.067 477.682 283.836 473.65 268.478 473.65H249.472V606.115ZM368.119 640.671V439.094H497.705V473.65H406.131V521.741H489.642V556.297H406.131V606.115H499.433V640.671H368.119ZM507.412 640.671V607.267H533.906V472.497H507.412V439.094H590.347C617.416 439.094 637.958 446.005 651.972 459.828C666.179 473.458 673.282 493.808 673.282 520.877V558.889C673.282 585.958 666.179 606.403 651.972 620.226C637.958 633.856 617.416 640.671 590.347 640.671H507.412ZM571.917 606.115H590.923C606.281 606.115 617.512 602.084 624.615 594.021C631.718 585.958 635.27 574.631 635.27 560.04V519.725C635.27 504.943 631.718 493.616 624.615 485.745C617.512 477.682 606.281 473.65 590.923 473.65H571.917V606.115ZM690.564 640.671V439.094H778.106C790.777 439.094 801.816 441.302 811.223 445.717C820.63 450.133 827.925 456.372 833.108 464.435C838.292 472.498 840.883 482.001 840.883 492.944V496.4C840.883 508.494 838.004 518.285 832.244 525.772C826.485 533.26 819.382 538.731 810.935 542.186V547.37C818.614 547.754 824.565 550.442 828.789 555.433C833.012 560.232 835.124 566.663 835.124 574.727V640.671H797.112V580.198C797.112 575.591 795.864 571.847 793.369 568.967C791.065 566.088 787.129 564.648 781.562 564.648H728.576V640.671H690.564ZM728.576 530.092H774.075C783.098 530.092 790.105 527.692 795.097 522.893C800.28 517.901 802.872 511.374 802.872 503.311V500.431C802.872 492.368 800.376 485.937 795.384 481.137C790.393 476.146 783.29 473.65 774.075 473.65H728.576V530.092ZM936.441 644.703C911.1 644.703 890.942 637.792 875.968 623.969C860.994 609.954 853.507 589.988 853.507 564.072V515.693C853.507 489.776 860.994 469.907 875.968 456.084C890.942 442.07 911.1 435.062 936.441 435.062C961.782 435.062 981.94 442.07 996.914 456.084C1011.89 469.907 1019.38 489.776 1019.38 515.693V564.072C1019.38 589.988 1011.89 609.954 996.914 623.969C981.94 637.792 961.782 644.703 936.441 644.703ZM936.441 610.723C950.648 610.723 961.686 606.595 969.558 598.34C977.429 590.085 981.364 579.046 981.364 565.224V514.542C981.364 500.719 977.429 489.68 969.558 481.424C961.686 473.169 950.648 469.043 936.441 469.043C922.427 469.043 911.388 473.169 903.325 481.424C895.454 489.68 891.518 500.719 891.518 514.542V565.224C891.518 579.046 895.454 590.085 903.325 598.34C911.388 606.595 922.427 610.723 936.441 610.723ZM1018.62 640.671L1077.65 539.019L1019.19 439.094H1062.39L1102.42 511.95H1107.6L1147.63 439.094H1190.82L1132.36 539.019L1191.4 640.671H1148.2L1107.6 566.088H1102.42L1061.81 640.671H1018.62ZM1226.11 644.703C1218.43 644.703 1211.91 642.207 1206.53 637.216C1201.35 632.032 1198.76 625.409 1198.76 617.346C1198.76 609.283 1201.35 602.756 1206.53 597.764C1211.91 592.581 1218.43 589.989 1226.11 589.989C1233.99 589.989 1240.51 592.581 1245.7 597.764C1250.88 602.756 1253.47 609.283 1253.47 617.346C1253.47 625.409 1250.88 632.032 1245.7 637.216C1240.51 642.207 1233.99 644.703 1226.11 644.703ZM1267.83 640.671V607.267H1294.32V472.497H1267.83V439.094H1350.76C1377.83 439.094 1398.37 446.005 1412.39 459.828C1426.59 473.458 1433.7 493.808 1433.7 520.877V558.889C1433.7 585.958 1426.59 606.403 1412.39 620.226C1398.37 633.856 1377.83 640.671 1350.76 640.671H1267.83ZM1332.33 606.115H1351.34C1366.7 606.115 1377.93 602.084 1385.03 594.021C1392.13 585.958 1395.68 574.631 1395.68 560.04V519.725C1395.68 504.943 1392.13 493.616 1385.03 485.745C1377.93 477.682 1366.7 473.65 1351.34 473.65H1332.33V606.115ZM1520.95 644.703C1505.4 644.703 1491.68 641.919 1479.78 636.352C1467.87 630.785 1458.56 622.816 1451.84 612.451C1445.12 602.083 1441.76 589.605 1441.76 575.015V566.952H1479.2V575.015C1479.2 587.109 1482.94 596.228 1490.43 602.372C1497.92 608.323 1508.09 611.299 1520.95 611.299C1534.01 611.299 1543.7 608.706 1550.04 603.523C1556.57 598.339 1559.83 591.717 1559.83 583.654C1559.83 578.086 1558.2 573.574 1554.93 570.118C1551.86 566.663 1547.26 563.88 1541.11 561.768C1535.16 559.465 1527.87 557.353 1519.23 555.433L1512.6 553.993C1498.78 550.922 1486.88 547.082 1476.9 542.474C1467.1 537.675 1459.52 531.436 1454.15 523.757C1448.96 516.076 1446.37 506.095 1446.37 493.808C1446.37 481.521 1449.25 471.059 1455.01 462.419C1460.96 453.588 1469.22 446.869 1479.78 442.262C1490.53 437.462 1503.1 435.062 1517.5 435.062C1531.9 435.062 1544.66 437.557 1555.8 442.549C1567.13 447.348 1575.96 454.644 1582.29 464.435C1588.82 474.034 1592.08 486.129 1592.08 500.719V509.358H1554.65V500.719C1554.65 493.04 1553.11 486.897 1550.04 482.289C1547.16 477.49 1542.94 474.034 1537.37 471.922C1531.8 469.619 1525.18 468.467 1517.5 468.467C1505.98 468.467 1497.44 470.675 1491.87 475.09C1486.49 479.314 1483.81 485.169 1483.81 492.656C1483.81 497.648 1485.05 501.871 1487.55 505.327C1490.24 508.782 1494.17 511.662 1499.36 513.966C1504.54 516.269 1511.16 518.285 1519.23 520.013L1525.85 521.453C1540.25 524.524 1552.73 528.46 1563.29 533.26C1574.04 538.059 1582.39 544.394 1588.34 552.265C1594.29 560.136 1597.27 570.215 1597.27 582.502C1597.27 594.789 1594.1 605.635 1587.76 615.042C1581.62 624.257 1572.79 631.551 1561.27 636.927C1549.94 642.11 1536.5 644.703 1520.95 644.703ZM1680.9 644.703C1667.08 644.703 1654.51 641.63 1643.18 635.487C1632.05 629.152 1623.12 620.033 1616.4 608.13C1609.87 596.035 1606.61 581.35 1606.61 564.072V515.693C1606.61 489.776 1613.9 469.907 1628.49 456.084C1643.08 442.07 1662.86 435.062 1687.82 435.062C1712.58 435.062 1731.68 441.686 1745.12 454.932C1758.75 467.987 1765.57 485.745 1765.57 508.206V509.358H1728.13V507.053C1728.13 499.951 1726.6 493.519 1723.52 487.76C1720.64 482 1716.23 477.49 1710.28 474.226C1704.33 470.771 1696.84 469.043 1687.82 469.043C1674.38 469.043 1663.82 473.169 1656.14 481.424C1648.46 489.68 1644.62 500.911 1644.62 515.118V564.648C1644.62 578.662 1648.46 589.988 1656.14 598.628C1663.82 607.075 1674.57 611.299 1688.39 611.299C1702.21 611.299 1712.29 607.65 1718.63 600.355C1724.96 593.061 1728.13 583.846 1728.13 572.711V569.831H1680.33V537.579H1765.57V640.671H1730.44V621.378H1725.25C1723.91 624.641 1721.7 628.097 1718.63 631.744C1715.75 635.392 1711.33 638.464 1705.38 640.958C1699.43 643.454 1691.27 644.703 1680.9 644.703ZM1787.48 640.671V439.094H1859.76L1899.79 614.754H1904.98V439.094H1942.41V640.671H1870.13L1830.1 465.01H1824.92V640.671H1787.48Z" fill="black"/>
</svg>
