<svg width="2133" height="1003" viewBox="0 0 2133 1003" fill="none" xmlns="http://www.w3.org/2000/svg">
<path d="M865.882 670.526H862.063V682.426H862.509L865.691 686.244V690.89C864.079 690.89 863.039 691.187 862.573 691.781C862.106 692.375 861.873 693.308 861.873 694.581V695.408C861.873 697.614 861.321 699.502 860.218 701.072C859.157 702.642 857.715 703.83 855.891 704.636C852.454 706.121 848.551 706.863 844.181 706.863C838.072 706.863 833.066 705.399 829.163 702.472C825.259 699.587 823.308 695.96 823.308 691.59V690.89H822.671L819.489 687.071V682.426C821.229 682.426 822.459 682.49 823.181 682.617V670.526H822.671L819.489 666.707V657.734H838.836L842.017 661.553V670.526H838.199V682.426H838.772L841.954 686.244V690.89C841.233 690.932 840.66 690.996 840.236 691.081C839.811 691.123 839.345 691.335 838.836 691.717C838.369 692.099 838.135 692.65 838.135 693.372C838.135 694.263 838.984 694.708 840.681 694.708C842.378 694.708 843.736 694.369 844.754 693.69C845.815 692.969 846.515 692.035 846.854 690.89H846.408L843.227 687.071V682.426C845.051 682.426 846.324 682.49 847.045 682.617V670.526H846.536L843.354 666.707V657.734H862.7L865.882 661.553V670.526ZM833.617 700.308C835.866 700.86 838.326 701.136 840.999 701.136C843.672 701.136 846.133 700.86 848.381 700.308C850.63 699.757 852.581 698.738 854.236 697.254C855.933 695.726 856.782 693.817 856.782 691.526V690.89C856.782 687.368 858.16 685.608 860.918 685.608V684.08C860.154 684.08 859.56 684.123 859.136 684.208C858.754 684.25 858.224 684.505 857.545 684.971C856.909 685.396 856.315 686.053 855.763 686.944C854.83 686.732 853.897 686.011 852.963 684.78C852.2 685.884 851.224 686.605 850.036 686.944C849.527 686.053 848.954 685.396 848.318 684.971C847.681 684.505 847.151 684.25 846.727 684.208C846.302 684.123 845.708 684.08 844.945 684.08V685.608C846.345 685.608 847.342 686.011 847.936 686.817C848.53 687.623 848.827 688.429 848.827 689.235C848.827 691.526 848.084 693.329 846.599 694.644C845.114 695.917 843.248 696.554 840.999 696.554C838.751 696.554 836.884 695.917 835.399 694.644C833.914 693.329 833.172 691.526 833.172 689.235C833.172 688.429 833.469 687.623 834.063 686.817C834.657 686.011 835.654 685.608 837.054 685.608V684.08C836.29 684.08 835.696 684.123 835.272 684.208C834.848 684.25 834.317 684.505 833.681 684.971C833.044 685.396 832.472 686.053 831.963 686.944C830.86 686.732 829.884 686.011 829.035 684.78C828.187 685.884 827.253 686.605 826.235 686.944C825.684 686.053 825.068 685.396 824.39 684.971C823.753 684.505 823.223 684.25 822.799 684.208C822.417 684.123 821.844 684.08 821.08 684.08V685.608C823.838 685.608 825.217 687.368 825.217 690.89V691.526C825.217 693.817 826.044 695.726 827.699 697.254C829.396 698.738 831.369 699.757 833.617 700.308ZM850.609 684.526C851.033 684.271 851.542 683.762 852.136 682.999H853.727C854.278 683.762 854.809 684.271 855.318 684.526C855.785 683.974 856.336 683.529 856.972 683.19V664.925H860.918V659.516H845.136V664.925H848.954V683.19C849.548 683.529 850.099 683.974 850.609 684.526ZM826.681 684.526C827.19 684.229 827.72 683.72 828.272 682.999H829.863C830.414 683.762 830.923 684.271 831.39 684.526C831.857 683.932 832.429 683.465 833.108 683.126V664.925H837.054V659.516H821.271V664.925H825.09V683.19C825.641 683.487 826.172 683.932 826.681 684.526ZM897.536 704.19C896.985 704.445 896.624 705.081 896.454 706.099C894.503 706.099 892.339 705.081 889.963 703.045C888.818 702.069 887.842 700.69 887.036 698.908C886.272 697.084 885.891 695.069 885.891 692.863V690.89H885.127L882.963 688.281V690.89C881.309 690.89 880.227 691.187 879.718 691.781C879.251 692.375 879.018 693.329 879.018 694.644V695.599C879.315 695.599 879.569 695.429 879.781 695.09L881.563 696.235L884.745 700.054C884.49 702.048 883.769 703.554 882.581 704.572C881.393 705.59 879.951 706.099 878.254 706.099C876.599 706.099 874.966 705.527 873.354 704.381C871.742 705.527 870.066 706.099 868.326 706.099C866.629 706.099 864.678 705.081 862.472 703.045C860.266 701.008 859.035 698.738 858.781 696.235L860.563 695.09C860.732 695.472 861.135 695.663 861.772 695.663C863.596 695.663 864.508 694.072 864.508 690.89H863.744L860.563 687.071V682.426C862.26 682.426 863.447 682.468 864.126 682.553V670.526H863.617L860.435 666.707V657.734H875.327L889.582 674.726V670.526H888.882L885.7 666.707V657.734H905.046L908.228 661.553V670.526H904.409V682.426H904.982L908.164 686.244V690.89C906.509 690.89 905.449 691.187 904.982 691.781C904.515 692.375 904.282 693.329 904.282 694.644V695.599C904.579 695.514 904.812 695.344 904.982 695.09L909.946 700.054C909.691 702.048 908.949 703.554 907.718 704.572C906.531 705.59 905.3 706.099 904.027 706.099C902.755 706.099 901.524 705.908 900.336 705.527C899.149 705.187 898.215 704.742 897.536 704.19ZM867.817 684.526C868.242 684.271 868.751 683.762 869.345 682.999H870.999C871.551 683.762 872.06 684.271 872.527 684.526C872.993 683.932 873.566 683.465 874.245 683.126V670.971H876.027L885.318 682.553C887.057 682.765 888.372 683.423 889.263 684.526C889.688 684.271 890.197 683.762 890.791 682.999H896.073C896.624 683.762 897.155 684.271 897.664 684.526C898.215 683.932 898.767 683.487 899.318 683.19V664.925H903.264V659.516H887.481V664.925H891.3V678.289H889.136L873.354 659.516H862.217V664.925H866.035V683.062C866.714 683.402 867.308 683.89 867.817 684.526ZM900.273 700.372C902.352 700.372 903.794 699.311 904.6 697.19C904.346 697.36 904.027 697.444 903.646 697.444C902.373 697.444 901.376 697.105 900.655 696.426C899.976 695.705 899.552 694.941 899.382 694.135C899.255 693.287 899.191 692.205 899.191 690.89C899.191 687.326 900.57 685.544 903.327 685.544V683.953C902.564 683.953 901.97 683.996 901.546 684.08C901.164 684.123 900.633 684.377 899.955 684.844C899.318 685.311 898.724 686.011 898.173 686.944C897.155 686.732 896.2 685.99 895.309 684.717H891.554C890.663 685.905 889.709 686.647 888.691 686.944C888.139 686.011 887.545 685.311 886.909 684.844C886.272 684.377 885.742 684.123 885.318 684.08C884.936 683.996 884.363 683.953 883.6 683.953V685.544C886.315 685.544 887.672 687.326 887.672 690.89V692.544C887.672 695.854 888.754 698.208 890.918 699.608C891.342 699.863 891.724 700.032 892.063 700.117C892.403 698.929 893.103 698.335 894.164 698.335C894.885 698.929 895.882 699.417 897.155 699.799C898.427 700.181 899.467 700.372 900.273 700.372ZM870.363 698.399C871.89 699.714 873.566 700.372 875.39 700.372C877.257 700.372 878.615 699.311 879.463 697.19C879.166 697.36 878.827 697.444 878.445 697.444C875.475 697.444 873.99 695.26 873.99 690.89C873.99 687.326 875.39 685.544 878.19 685.544V683.953C877.384 683.953 876.769 683.996 876.345 684.08C875.921 684.123 875.39 684.377 874.754 684.844C874.117 685.311 873.545 686.011 873.036 686.944C872.017 686.732 871.063 685.99 870.172 684.717C869.281 685.862 868.326 686.605 867.308 686.944C866.757 686.011 866.163 685.311 865.526 684.844C864.89 684.377 864.36 684.123 863.935 684.08C863.511 683.996 862.917 683.953 862.153 683.953V685.544C864.954 685.544 866.354 687.326 866.354 690.89C866.354 694.114 865.675 696.129 864.317 696.935C863.681 697.275 862.875 697.444 861.899 697.444L860.881 697.19C861.729 699.311 863.066 700.372 864.89 700.372C866.757 700.372 868.454 699.714 869.981 698.399H870.363ZM879.145 682.426H879.781L881.945 685.035V682.426H882.836L879.145 677.78V682.426ZM927.445 670.526H923.627V682.426H924.136L927.318 686.244V690.89C925.663 690.89 924.582 691.187 924.072 691.781C923.606 692.375 923.372 693.329 923.372 694.644V695.599C923.669 695.599 923.924 695.429 924.136 695.09L925.918 696.235L929.1 700.054C928.845 702.048 928.124 703.554 926.936 704.572C925.748 705.59 924.306 706.099 922.609 706.099C920.954 706.099 919.321 705.527 917.709 704.381C916.097 705.527 914.421 706.099 912.681 706.099C910.984 706.099 909.033 705.081 906.827 703.045C904.62 701.008 903.39 698.738 903.136 696.235L904.917 695.09C905.087 695.472 905.49 695.663 906.127 695.663C907.951 695.663 908.863 694.072 908.863 690.89H908.099L904.917 687.071V682.426C906.657 682.426 907.887 682.49 908.608 682.617V670.526H908.099L904.917 666.707V657.734H924.263L927.445 661.553V670.526ZM912.172 684.526C912.596 684.271 913.106 683.762 913.699 682.999H915.354C915.906 683.762 916.415 684.271 916.881 684.526C917.306 683.932 917.857 683.465 918.536 683.126V664.925H922.482V659.516H906.699V664.925H910.518V683.126C911.112 683.423 911.663 683.89 912.172 684.526ZM914.718 698.399C916.245 699.714 917.921 700.372 919.745 700.372C921.612 700.372 922.969 699.311 923.818 697.19C923.521 697.36 923.182 697.444 922.8 697.444C919.83 697.444 918.345 695.26 918.345 690.89C918.345 687.326 919.745 685.544 922.545 685.544V683.953C921.739 683.953 921.124 683.996 920.7 684.08C920.275 684.123 919.745 684.377 919.109 684.844C918.472 685.311 917.9 686.011 917.39 686.944C916.372 686.732 915.418 685.99 914.527 684.717C913.636 685.862 912.681 686.605 911.663 686.944C911.112 686.011 910.518 685.311 909.881 684.844C909.245 684.377 908.714 684.123 908.29 684.08C907.866 683.996 907.272 683.953 906.508 683.953V685.544C909.308 685.544 910.708 687.326 910.708 690.89C910.708 694.114 910.03 696.129 908.672 696.935C908.036 697.275 907.23 697.444 906.254 697.444L905.236 697.19C906.084 699.311 907.42 700.372 909.245 700.372C911.112 700.372 912.809 699.714 914.336 698.399H914.718ZM949.457 670.526V682.426H949.966L953.148 686.244V690.89C951.494 690.89 950.412 691.187 949.903 691.781C949.436 692.375 949.203 693.329 949.203 694.644V695.599C949.5 695.599 949.754 695.429 949.966 695.09L951.748 696.235L954.93 700.054C954.676 702.048 953.954 703.554 952.766 704.572C951.578 705.59 950.136 706.099 948.439 706.099C946.784 706.099 945.151 705.527 943.539 704.381C941.927 705.527 940.251 706.099 938.511 706.099C936.814 706.099 934.863 705.081 932.657 703.045C930.451 701.008 929.22 698.738 928.966 696.235L930.748 695.09C930.917 695.472 931.32 695.663 931.957 695.663C933.781 695.663 934.693 694.072 934.693 690.89H933.929L930.748 687.071V682.426C932.487 682.426 933.717 682.49 934.439 682.617V670.526H932.593V677.08H925.211L922.029 673.262V657.734H958.685L961.867 661.553V677.08H954.866L951.685 673.262V670.526H949.457ZM938.002 684.526C938.427 684.271 938.936 683.762 939.53 682.999H941.184C941.736 683.762 942.245 684.271 942.712 684.526C943.136 683.932 943.687 683.465 944.366 683.126V664.925H953.276V671.48H956.903V659.516H923.811V671.48H927.629V664.925H936.348V683.126C936.942 683.423 937.493 683.89 938.002 684.526ZM940.548 698.399C942.075 699.714 943.751 700.372 945.575 700.372C947.442 700.372 948.8 699.311 949.648 697.19C949.351 697.36 949.012 697.444 948.63 697.444C945.66 697.444 944.175 695.26 944.175 690.89C944.175 687.326 945.575 685.544 948.375 685.544V683.953C947.569 683.953 946.954 683.996 946.53 684.08C946.106 684.123 945.575 684.377 944.939 684.844C944.303 685.311 943.73 686.011 943.221 686.944C942.202 686.732 941.248 685.99 940.357 684.717C939.466 685.862 938.511 686.605 937.493 686.944C936.942 686.011 936.348 685.311 935.711 684.844C935.075 684.377 934.545 684.123 934.12 684.08C933.696 683.996 933.102 683.953 932.339 683.953V685.544C935.139 685.544 936.539 687.326 936.539 690.89C936.539 694.114 935.86 696.129 934.502 696.935C933.866 697.275 933.06 697.444 932.084 697.444L931.066 697.19C931.914 699.311 933.251 700.372 935.075 700.372C936.942 700.372 938.639 699.714 940.166 698.399H940.548ZM992.126 701.454C992.126 702.939 992.507 703.914 993.271 704.381L992.126 706.099C991.023 706.099 989.856 705.824 988.626 705.272C987.438 704.72 986.504 704.127 985.825 703.49C985.104 704.127 983.874 704.72 982.134 705.272C980.437 705.824 978.825 706.099 977.298 706.099C974.201 706.099 971.677 705.272 969.725 703.617C967.986 705.272 965.992 706.099 963.743 706.099C961.537 706.099 959.479 705.017 957.57 702.854C955.703 700.732 954.622 698.526 954.325 696.235L956.106 695.09C956.319 695.429 956.743 695.599 957.379 695.599C959.076 695.599 959.925 694.029 959.925 690.89H959.288L956.106 687.071V682.426C957.888 682.426 959.14 682.49 959.861 682.617V670.526H958.079L954.897 666.707V657.734H989.071L992.253 661.553V677.08H984.871L981.689 673.262V670.526H974.88V674.217H979.398L982.58 678.035V685.417H977.807L978.507 686.244V690.89C977.828 690.932 977.277 690.996 976.852 691.081C976.428 691.123 975.983 691.335 975.516 691.717C975.049 692.099 974.816 692.65 974.816 693.372V693.626C975.41 693.838 976.259 693.944 977.362 693.944C978.465 693.944 979.504 693.605 980.48 692.926C981.456 692.247 981.944 691.293 981.944 690.062C981.944 689.85 981.816 689.235 981.562 688.217V686.181H988.944L992.126 689.999V701.454ZM963.361 684.526C963.785 684.271 964.295 683.762 964.888 682.999H966.607C967.158 683.762 967.646 684.271 968.07 684.526C968.537 683.932 969.11 683.465 969.789 683.126V679.817H977.616V675.998H969.789V664.925H983.471V671.48H987.289V659.516H956.679V664.925H961.77V683.19C962.322 683.487 962.852 683.932 963.361 684.526ZM983.662 690.317C983.662 692.014 983.004 693.35 981.689 694.326C980.416 695.302 978.846 695.79 976.98 695.79C975.113 695.79 973.437 695.26 971.952 694.199C970.51 693.096 969.789 691.441 969.789 689.235C969.789 688.472 970.086 687.687 970.68 686.881C971.316 686.032 972.313 685.608 973.671 685.608V684.08C972.907 684.08 972.313 684.123 971.889 684.208C971.507 684.25 970.998 684.505 970.361 684.971C969.725 685.396 969.152 686.053 968.643 686.944C967.625 686.732 966.649 686.011 965.716 684.78C964.952 685.884 963.998 686.605 962.852 686.944C962.301 686.053 961.707 685.396 961.07 684.971C960.434 684.505 959.903 684.25 959.479 684.208C959.097 684.123 958.525 684.08 957.761 684.08V685.608C959.203 685.608 960.243 686.117 960.879 687.135C961.558 688.111 961.897 689.49 961.897 691.272C961.897 693.053 961.601 694.517 961.007 695.663C960.455 696.808 959.267 697.381 957.443 697.381L956.552 697.254C957.316 699.417 958.652 700.499 960.561 700.499C962.47 700.499 964.337 699.545 966.161 697.635H966.734L966.989 697.89C969.025 699.587 971.486 700.435 974.371 700.435C977.298 700.435 980.056 699.438 982.644 697.444C983.025 697.826 983.81 698.378 984.998 699.099C986.186 699.778 987.119 700.181 987.798 700.308C987.416 699.884 987.226 698.781 987.226 696.999V688.09H983.344C983.556 688.811 983.662 689.553 983.662 690.317ZM1029.12 673.135V682.426H1029.94L1033.12 686.244V690.89C1031.43 690.89 1030.35 691.229 1029.88 691.908C1029.41 692.587 1029.18 693.753 1029.18 695.408C1029.18 702.536 1023.45 706.099 1012 706.099C1008.9 706.099 1006.63 705.908 1005.19 705.527C1003.74 705.145 1002.41 704.508 1001.18 703.617C999.608 705.272 997.869 706.099 995.96 706.099C993.457 706.099 991.251 705.039 989.341 702.917C987.475 700.796 986.372 698.569 986.032 696.235L987.751 695.09C988.005 695.429 988.472 695.599 989.151 695.599C989.829 695.599 990.381 695.344 990.805 694.835C991.229 694.284 991.484 693.732 991.569 693.181C991.654 692.587 991.696 691.823 991.696 690.89H990.932L987.751 687.071V682.426C989.617 682.426 990.932 682.49 991.696 682.617V670.526H991.187L988.005 666.707V657.734H1009.9C1014.99 657.734 1019.38 658.88 1023.07 661.171C1024.94 662.359 1026.4 663.992 1027.46 666.071C1028.56 668.107 1029.12 670.462 1029.12 673.135ZM1018.04 684.526C1018.47 684.187 1018.95 683.677 1019.51 682.999H1021.22C1021.69 683.762 1022.18 684.271 1022.69 684.526C1023.11 683.974 1023.6 683.55 1024.15 683.253V669.38C1024.15 665.986 1022.79 663.504 1020.08 661.934C1017.36 660.322 1013.97 659.516 1009.9 659.516H989.787V664.925H993.605V683.317C994.03 683.529 994.496 683.932 995.005 684.526C995.345 684.314 995.833 683.805 996.469 682.999H998.124C998.675 683.762 999.163 684.271 999.587 684.526C1000.22 683.762 1000.94 683.232 1001.75 682.935V664.925H1008.75C1010.87 664.925 1012.57 665.477 1013.84 666.58C1015.11 667.683 1015.75 669.274 1015.75 671.353V682.871C1016.64 683.211 1017.41 683.762 1018.04 684.526ZM1016.2 689.235C1016.2 693.605 1013.71 695.79 1008.75 695.79C1003.83 695.79 1001.37 693.605 1001.37 689.235C1001.37 688.472 1001.67 687.687 1002.26 686.881C1002.9 686.032 1003.91 685.608 1005.31 685.608V684.08C1004.55 684.08 1003.96 684.123 1003.53 684.208C1003.11 684.25 1002.58 684.505 1001.94 684.971C1001.31 685.396 1000.71 686.053 1000.16 686.944C999.142 686.732 998.187 686.011 997.296 684.78C996.448 685.884 995.514 686.605 994.496 686.944C993.945 686.053 993.351 685.396 992.714 684.971C992.078 684.505 991.548 684.25 991.123 684.208C990.699 684.123 990.105 684.08 989.341 684.08V685.608C992.057 685.608 993.414 687.368 993.414 690.89C993.414 692.247 993.329 693.329 993.16 694.135C993.033 694.941 992.629 695.684 991.951 696.363C991.314 697.041 990.36 697.381 989.087 697.381L988.005 697.254C989.023 699.46 990.572 700.563 992.651 700.563C993.626 700.563 994.475 700.329 995.196 699.863C995.96 699.396 996.808 698.654 997.742 697.635H998.251C999.396 698.654 1000.67 699.375 1002.07 699.799C1003.51 700.223 1005.76 700.435 1008.81 700.435C1019.08 700.435 1024.22 697.466 1024.22 691.526C1024.22 687.581 1025.57 685.608 1028.29 685.608V684.08C1027.52 684.08 1026.93 684.123 1026.51 684.208C1026.12 684.25 1025.62 684.505 1024.98 684.971C1024.34 685.396 1023.75 686.053 1023.2 686.944C1022.22 686.732 1021.29 686.011 1020.4 684.78C1019.55 685.884 1018.55 686.605 1017.41 686.944C1016.85 686.053 1016.26 685.396 1015.62 684.971C1015.03 684.505 1014.52 684.25 1014.1 684.208C1013.71 684.123 1013.12 684.08 1012.31 684.08V685.608C1013.71 685.608 1014.71 686.011 1015.31 686.817C1015.9 687.623 1016.2 688.429 1016.2 689.235ZM1010.66 682.426C1012.23 682.426 1013.33 682.468 1013.97 682.553V671.607L1013.91 670.78C1013.4 670.61 1012.74 670.526 1011.93 670.526H1006.71V682.426H1006.97L1010.15 686.244V690.89C1007.65 690.975 1006.4 691.802 1006.4 693.372V693.69C1007.08 693.86 1007.88 693.944 1008.81 693.944C1011.91 693.944 1013.74 692.926 1014.29 690.89H1013.84L1010.66 687.071V682.426ZM1066.1 690.89H1065.33C1063.68 690.89 1062.62 691.187 1062.15 691.781C1061.73 692.375 1061.51 693.329 1061.51 694.644V695.599C1061.77 695.472 1061.98 695.302 1062.15 695.09L1067.11 700.054C1066.86 702.048 1066.14 703.554 1064.95 704.572C1063.76 705.59 1062.36 706.099 1060.75 706.099C1059.14 706.099 1057.48 705.527 1055.79 704.381C1054.09 705.527 1052.44 706.099 1050.82 706.099C1048.53 706.099 1046.43 705.017 1044.52 702.854C1042.61 700.732 1041.51 698.526 1041.21 696.235L1043 695.09C1043.21 695.472 1043.67 695.663 1044.4 695.663C1045.12 695.663 1045.67 695.387 1046.05 694.835C1046.47 694.241 1046.71 693.669 1046.75 693.117C1046.84 692.566 1046.88 691.823 1046.88 690.89H1046.18L1043 687.071V682.426C1044.73 682.426 1045.97 682.49 1046.69 682.617V670.526H1046.18L1043 666.707V657.734H1061.07L1064.25 661.553V669.316L1065.84 667.471L1064.82 666.707V657.734H1081.37L1084.55 661.553V670.526H1081.24L1071.7 681.662L1073.16 683.253C1075.49 683.805 1077.3 685.184 1078.57 687.39C1079.84 689.553 1080.48 691.993 1080.48 694.708V695.599C1080.78 695.472 1081.01 695.302 1081.18 695.09L1082.9 696.235L1086.08 700.054C1085.87 702.175 1085.08 703.702 1083.72 704.636C1082.37 705.611 1080.25 706.099 1077.36 706.099C1074.48 706.099 1071.87 704.848 1069.53 702.345C1067.24 699.884 1066.1 696.723 1066.1 692.863V690.89ZM1050.25 684.526C1050.67 684.271 1051.18 683.762 1051.78 682.999H1053.43C1053.98 683.762 1054.51 684.271 1055.02 684.526C1055.96 683.296 1057.29 682.617 1059.03 682.49C1059.67 682.447 1060.71 682.426 1062.15 682.426C1063.64 682.426 1064.72 682.447 1065.4 682.49C1067.22 682.617 1068.6 683.296 1069.53 684.526C1069.91 684.356 1070.36 683.953 1070.87 683.317L1065.91 678.162L1077.17 664.925H1079.59V659.516H1066.54V664.925H1070.3L1058.97 678.035H1056.61V664.925H1059.29V659.516H1044.78V664.925H1048.6V683.126C1049.23 683.465 1049.78 683.932 1050.25 684.526ZM1060.56 683.953C1059.8 683.953 1059.2 683.996 1058.78 684.08C1058.4 684.123 1057.89 684.377 1057.25 684.844C1056.61 685.311 1056.04 686.011 1055.53 686.944C1054.47 686.732 1053.5 685.99 1052.6 684.717C1051.71 685.862 1050.74 686.605 1049.68 686.944C1049.17 686.011 1048.6 685.311 1047.96 684.844C1047.32 684.377 1046.79 684.123 1046.37 684.08C1045.99 683.996 1045.43 683.953 1044.71 683.953V685.544C1047.43 685.544 1048.79 687.326 1048.79 690.89C1048.79 692.205 1048.7 693.287 1048.53 694.135C1048.4 694.941 1048 695.705 1047.32 696.426C1046.64 697.105 1045.67 697.444 1044.4 697.444L1043.44 697.19C1044.29 699.311 1045.63 700.372 1047.45 700.372C1049.27 700.372 1050.93 699.714 1052.41 698.399H1052.8C1054.28 699.714 1055.91 700.372 1057.7 700.372C1059.52 700.372 1060.9 699.311 1061.83 697.19C1061.62 697.36 1061.15 697.444 1060.43 697.444C1059.71 697.444 1059.03 697.275 1058.4 696.935C1057.8 696.554 1057.38 696.023 1057.12 695.344C1056.7 694.199 1056.49 692.714 1056.49 690.89C1056.49 687.326 1057.84 685.544 1060.56 685.544H1063.87C1066.63 685.544 1068.01 687.326 1068.01 690.89V692.544C1068.01 697.763 1070.21 700.372 1074.62 700.372C1076.87 700.372 1078.44 699.99 1079.33 699.226C1080.18 698.548 1080.67 697.869 1080.8 697.19C1080.54 697.36 1080.22 697.444 1079.84 697.444C1078.1 697.444 1076.96 696.851 1076.41 695.663C1075.85 694.475 1075.58 692.799 1075.58 690.635C1075.58 687.496 1074.33 685.523 1071.82 684.717C1071.02 685.862 1070.08 686.605 1069.02 686.944C1068.47 686.011 1067.88 685.311 1067.24 684.844C1066.61 684.377 1066.07 684.123 1065.65 684.08C1065.23 683.996 1064.63 683.953 1063.87 683.953H1060.56ZM1102.97 670.526H1099.15V682.426H1099.66L1102.85 686.244V690.89C1101.19 690.89 1100.11 691.187 1099.6 691.781C1099.13 692.375 1098.9 693.329 1098.9 694.644V695.599C1099.2 695.599 1099.45 695.429 1099.66 695.09L1101.45 696.235L1104.63 700.054C1104.37 702.048 1103.65 703.554 1102.46 704.572C1101.28 705.59 1099.83 706.099 1098.14 706.099C1096.48 706.099 1094.85 705.527 1093.24 704.381C1091.62 705.527 1089.95 706.099 1088.21 706.099C1086.51 706.099 1084.56 705.081 1082.35 703.045C1080.15 701.008 1078.92 698.738 1078.66 696.235L1080.44 695.09C1080.61 695.472 1081.02 695.663 1081.65 695.663C1083.48 695.663 1084.39 694.072 1084.39 690.89H1083.63L1080.44 687.071V682.426C1082.18 682.426 1083.41 682.49 1084.14 682.617V670.526H1083.63L1080.44 666.707V657.734H1099.79L1102.97 661.553V670.526ZM1087.7 684.526C1088.12 684.271 1088.63 683.762 1089.23 682.999H1090.88C1091.43 683.762 1091.94 684.271 1092.41 684.526C1092.83 683.932 1093.38 683.465 1094.06 683.126V664.925H1098.01V659.516H1082.23V664.925H1086.04V683.126C1086.64 683.423 1087.19 683.89 1087.7 684.526ZM1090.24 698.399C1091.77 699.714 1093.45 700.372 1095.27 700.372C1097.14 700.372 1098.5 699.311 1099.35 697.19C1099.05 697.36 1098.71 697.444 1098.33 697.444C1095.36 697.444 1093.87 695.26 1093.87 690.89C1093.87 687.326 1095.27 685.544 1098.07 685.544V683.953C1097.27 683.953 1096.65 683.996 1096.23 684.08C1095.8 684.123 1095.27 684.377 1094.64 684.844C1094 685.311 1093.43 686.011 1092.92 686.944C1091.9 686.732 1090.94 685.99 1090.05 684.717C1089.16 685.862 1088.21 686.605 1087.19 686.944C1086.64 686.011 1086.04 685.311 1085.41 684.844C1084.77 684.377 1084.24 684.123 1083.82 684.08C1083.39 683.996 1082.8 683.953 1082.04 683.953V685.544C1084.84 685.544 1086.24 687.326 1086.24 690.89C1086.24 694.114 1085.56 696.129 1084.2 696.935C1083.56 697.275 1082.76 697.444 1081.78 697.444L1080.76 697.19C1081.61 699.311 1082.95 700.372 1084.77 700.372C1086.64 700.372 1088.34 699.714 1089.86 698.399H1090.24ZM1136.5 704.19C1135.95 704.445 1135.59 705.081 1135.42 706.099C1133.47 706.099 1131.31 705.081 1128.93 703.045C1127.78 702.069 1126.81 700.69 1126 698.908C1125.24 697.084 1124.86 695.069 1124.86 692.863V690.89H1124.09L1121.93 688.281V690.89C1120.28 690.89 1119.19 691.187 1118.68 691.781C1118.22 692.375 1117.98 693.329 1117.98 694.644V695.599C1118.28 695.599 1118.54 695.429 1118.75 695.09L1120.53 696.235L1123.71 700.054C1123.46 702.048 1122.74 703.554 1121.55 704.572C1120.36 705.59 1118.92 706.099 1117.22 706.099C1115.57 706.099 1113.93 705.527 1112.32 704.381C1110.71 705.527 1109.03 706.099 1107.29 706.099C1105.6 706.099 1103.64 705.081 1101.44 703.045C1099.23 701.008 1098 698.738 1097.75 696.235L1099.53 695.09C1099.7 695.472 1100.1 695.663 1100.74 695.663C1102.56 695.663 1103.47 694.072 1103.47 690.89H1102.71L1099.53 687.071V682.426C1101.23 682.426 1102.41 682.468 1103.09 682.553V670.526H1102.58L1099.4 666.707V657.734H1114.29L1128.55 674.726V670.526H1127.85L1124.67 666.707V657.734H1144.01L1147.19 661.553V670.526H1143.38V682.426H1143.95L1147.13 686.244V690.89C1145.48 690.89 1144.42 691.187 1143.95 691.781C1143.48 692.375 1143.25 693.329 1143.25 694.644V695.599C1143.55 695.514 1143.78 695.344 1143.95 695.09L1148.91 700.054C1148.66 702.048 1147.92 703.554 1146.69 704.572C1145.5 705.59 1144.27 706.099 1142.99 706.099C1141.72 706.099 1140.49 705.908 1139.3 705.527C1138.12 705.187 1137.18 704.742 1136.5 704.19ZM1106.78 684.526C1107.21 684.271 1107.72 683.762 1108.31 682.999H1109.97C1110.52 683.762 1111.03 684.271 1111.49 684.526C1111.96 683.932 1112.53 683.465 1113.21 683.126V670.971H1114.99L1124.28 682.553C1126.02 682.765 1127.34 683.423 1128.23 684.526C1128.65 684.271 1129.16 683.762 1129.76 682.999H1135.04C1135.59 683.762 1136.12 684.271 1136.63 684.526C1137.18 683.932 1137.73 683.487 1138.28 683.19V664.925H1142.23V659.516H1126.45V664.925H1130.27V678.289H1128.1L1112.32 659.516H1101.18V664.925H1105V683.062C1105.68 683.402 1106.27 683.89 1106.78 684.526ZM1139.24 700.372C1141.32 700.372 1142.76 699.311 1143.57 697.19C1143.31 697.36 1142.99 697.444 1142.61 697.444C1141.34 697.444 1140.34 697.105 1139.62 696.426C1138.94 695.705 1138.52 694.941 1138.35 694.135C1138.22 693.287 1138.16 692.205 1138.16 690.89C1138.16 687.326 1139.54 685.544 1142.29 685.544V683.953C1141.53 683.953 1140.94 683.996 1140.51 684.08C1140.13 684.123 1139.6 684.377 1138.92 684.844C1138.28 685.311 1137.69 686.011 1137.14 686.944C1136.12 686.732 1135.17 685.99 1134.28 684.717H1130.52C1129.63 685.905 1128.68 686.647 1127.66 686.944C1127.11 686.011 1126.51 685.311 1125.88 684.844C1125.24 684.377 1124.71 684.123 1124.28 684.08C1123.9 683.996 1123.33 683.953 1122.57 683.953V685.544C1125.28 685.544 1126.64 687.326 1126.64 690.89V692.544C1126.64 695.854 1127.72 698.208 1129.88 699.608C1130.31 699.863 1130.69 700.032 1131.03 700.117C1131.37 698.929 1132.07 698.335 1133.13 698.335C1133.85 698.929 1134.85 699.417 1136.12 699.799C1137.39 700.181 1138.43 700.372 1139.24 700.372ZM1109.33 698.399C1110.86 699.714 1112.53 700.372 1114.36 700.372C1116.22 700.372 1117.58 699.311 1118.43 697.19C1118.13 697.36 1117.79 697.444 1117.41 697.444C1114.44 697.444 1112.96 695.26 1112.96 690.89C1112.96 687.326 1114.36 685.544 1117.16 685.544V683.953C1116.35 683.953 1115.74 683.996 1115.31 684.08C1114.89 684.123 1114.36 684.377 1113.72 684.844C1113.08 685.311 1112.51 686.011 1112 686.944C1110.98 686.732 1110.03 685.99 1109.14 684.717C1108.25 685.862 1107.29 686.605 1106.27 686.944C1105.72 686.011 1105.13 685.311 1104.49 684.844C1103.86 684.377 1103.33 684.123 1102.9 684.08C1102.48 683.996 1101.88 683.953 1101.12 683.953V685.544C1103.92 685.544 1105.32 687.326 1105.32 690.89C1105.32 694.114 1104.64 696.129 1103.28 696.935C1102.65 697.275 1101.84 697.444 1100.87 697.444L1099.85 697.19C1100.7 699.311 1102.03 700.372 1103.86 700.372C1105.72 700.372 1107.42 699.714 1108.95 698.399H1109.33ZM1118.11 682.426H1118.75L1120.91 685.035V682.426H1121.8L1118.11 677.78V682.426ZM1170.93 684.526C1171.35 684.187 1171.84 683.677 1172.39 682.999H1174.05C1174.56 683.762 1175.05 684.271 1175.51 684.526C1176.28 683.593 1177.15 683.02 1178.12 682.808C1179.14 682.553 1180.69 682.426 1182.77 682.426L1185.95 686.244V690.89C1184.34 690.89 1183.28 691.187 1182.77 691.781C1182.26 692.375 1182 693.287 1182 694.517V695.535C1182.3 695.493 1182.55 695.344 1182.77 695.09L1184.49 696.235L1187.67 700.054C1187.37 702.048 1186.63 703.554 1185.44 704.572C1184.25 705.59 1182.72 706.099 1180.86 706.099C1178.99 706.099 1177.27 705.272 1175.7 703.617C1174.68 704.381 1173.88 704.933 1173.28 705.272C1172.73 705.611 1171.72 705.951 1170.23 706.29C1168.75 706.672 1166.58 706.863 1163.74 706.863C1160.9 706.863 1157.99 706.375 1155.02 705.399C1152.09 704.466 1149.61 702.811 1147.58 700.435C1145.54 698.06 1144.52 695.111 1144.52 691.59V690.89H1143.76L1140.57 687.071V682.426C1142.44 682.426 1143.76 682.49 1144.52 682.617V668.489C1144.52 663.525 1147.11 660.152 1152.28 658.371C1154.91 657.437 1157.8 656.971 1160.94 656.971C1164.08 656.971 1166.81 657.268 1169.15 657.862C1171.48 658.413 1173.62 659.283 1175.58 660.471C1177.57 661.616 1179.14 663.207 1180.29 665.244C1181.43 667.28 1182 669.635 1182 672.307V678.735H1169.66L1166.48 674.917V670.335L1166.41 669.316C1166.03 669.189 1165.48 669.125 1164.76 669.125C1161.62 669.125 1160.05 670.801 1160.05 674.153V682.68L1163.04 686.244V690.89C1162.32 690.932 1161.72 690.996 1161.26 691.081C1160.83 691.123 1160.39 691.335 1159.92 691.717C1159.45 692.099 1159.22 692.65 1159.22 693.372L1159.28 694.326C1159.96 694.581 1160.9 694.708 1162.08 694.708C1163.31 694.708 1164.4 694.369 1165.33 693.69C1166.31 693.011 1166.92 692.078 1167.18 690.89H1166.73L1163.55 687.071V682.426C1164.99 682.426 1166.05 682.447 1166.73 682.49C1168.6 682.617 1170 683.296 1170.93 684.526ZM1147.83 684.526C1148.34 684.229 1148.83 683.72 1149.29 682.999H1151.01C1151.56 683.762 1152.05 684.271 1152.48 684.526C1153.24 683.635 1154.11 683.062 1155.08 682.808V670.271C1155.08 668.065 1155.66 666.368 1156.8 665.18C1157.95 663.992 1159.56 663.398 1161.64 663.398C1163.72 663.398 1165.35 663.992 1166.54 665.18C1167.73 666.325 1168.32 668.022 1168.32 670.271V673.135H1177.04V668.616C1177.04 666.283 1176.23 664.353 1174.62 662.825C1173.05 661.298 1171.16 660.259 1168.96 659.707C1166.75 659.113 1164.48 658.816 1162.15 658.816C1159.81 658.816 1157.78 658.986 1156.04 659.325C1154.34 659.665 1152.73 660.195 1151.2 660.916C1149.72 661.637 1148.53 662.656 1147.64 663.971C1146.75 665.286 1146.3 666.834 1146.3 668.616V683.19C1146.9 683.529 1147.41 683.974 1147.83 684.526ZM1167.11 694.644C1165.75 695.917 1163.95 696.554 1161.7 696.554C1159.45 696.554 1157.65 695.917 1156.29 694.644C1154.98 693.372 1154.32 691.569 1154.32 689.235C1154.32 688.429 1154.62 687.623 1155.21 686.817C1155.81 686.011 1156.8 685.608 1158.2 685.608V684.08C1157.4 684.08 1156.78 684.123 1156.36 684.208C1155.98 684.25 1155.47 684.505 1154.83 684.971C1154.24 685.396 1153.66 686.053 1153.11 686.944C1152.05 686.732 1151.05 686.011 1150.12 684.78C1149.36 685.884 1148.42 686.605 1147.32 686.944C1146.77 686.053 1146.17 685.396 1145.54 684.971C1144.9 684.505 1144.37 684.25 1143.95 684.208C1143.57 684.123 1142.99 684.08 1142.23 684.08V685.608C1144.94 685.608 1146.3 687.581 1146.3 691.526C1146.3 693.817 1147.11 695.705 1148.72 697.19C1151.56 699.863 1155.89 701.199 1161.7 701.199C1163.74 701.199 1165.48 701.008 1166.92 700.626C1168.41 700.202 1169.42 699.799 1169.98 699.417C1170.57 699.035 1171.33 698.441 1172.27 697.635H1172.78C1173.71 698.654 1174.54 699.396 1175.26 699.863C1176.02 700.329 1176.89 700.563 1177.87 700.563C1179.95 700.563 1181.49 699.46 1182.51 697.254C1182.26 697.338 1181.9 697.381 1181.43 697.381C1180.16 697.381 1179.18 697.041 1178.5 696.363C1177.87 695.684 1177.46 694.941 1177.29 694.135C1177.17 693.329 1177.1 692.247 1177.1 690.89C1177.1 687.368 1178.46 685.608 1181.18 685.608V684.08C1180.41 684.08 1179.82 684.123 1179.39 684.208C1178.97 684.25 1178.44 684.505 1177.8 684.971C1177.17 685.396 1176.57 686.053 1176.02 686.944C1175.09 686.732 1174.15 686.011 1173.22 684.78C1172.46 685.884 1171.5 686.605 1170.36 686.944C1169.81 686.053 1169.21 685.396 1168.58 684.971C1167.94 684.505 1167.41 684.25 1166.98 684.208C1166.56 684.123 1165.97 684.08 1165.2 684.08V685.608C1166.6 685.608 1167.6 686.032 1168.19 686.881C1168.83 687.687 1169.15 688.472 1169.15 689.235C1169.15 691.569 1168.47 693.372 1167.11 694.644ZM1223.35 673.135V682.426H1224.18L1227.36 686.244V690.89C1225.66 690.89 1224.58 691.229 1224.11 691.908C1223.65 692.587 1223.41 693.753 1223.41 695.408C1223.41 702.536 1217.68 706.099 1206.23 706.099C1203.13 706.099 1200.86 705.908 1199.42 705.527C1197.98 705.145 1196.64 704.508 1195.41 703.617C1193.84 705.272 1192.1 706.099 1190.19 706.099C1187.69 706.099 1185.48 705.039 1183.57 702.917C1181.71 700.796 1180.61 698.569 1180.27 696.235L1181.98 695.09C1182.24 695.429 1182.71 695.599 1183.38 695.599C1184.06 695.599 1184.61 695.344 1185.04 694.835C1185.46 694.284 1185.72 693.732 1185.8 693.181C1185.89 692.587 1185.93 691.823 1185.93 690.89H1185.17L1181.98 687.071V682.426C1183.85 682.426 1185.17 682.49 1185.93 682.617V670.526H1185.42L1182.24 666.707V657.734H1204.13C1209.22 657.734 1213.61 658.88 1217.3 661.171C1219.17 662.359 1220.63 663.992 1221.69 666.071C1222.8 668.107 1223.35 670.462 1223.35 673.135ZM1212.28 684.526C1212.7 684.187 1213.19 683.677 1213.74 682.999H1215.46C1215.92 683.762 1216.41 684.271 1216.92 684.526C1217.35 683.974 1217.83 683.55 1218.39 683.253V669.38C1218.39 665.986 1217.03 663.504 1214.31 661.934C1211.6 660.322 1208.2 659.516 1204.13 659.516H1184.02V664.925H1187.84V683.317C1188.26 683.529 1188.73 683.932 1189.24 684.526C1189.58 684.314 1190.07 683.805 1190.7 682.999H1192.36C1192.91 683.762 1193.4 684.271 1193.82 684.526C1194.46 683.762 1195.18 683.232 1195.98 682.935V664.925H1202.98C1205.11 664.925 1206.8 665.477 1208.08 666.58C1209.35 667.683 1209.98 669.274 1209.98 671.353V682.871C1210.88 683.211 1211.64 683.762 1212.28 684.526ZM1210.43 689.235C1210.43 693.605 1207.95 695.79 1202.98 695.79C1198.06 695.79 1195.6 693.605 1195.6 689.235C1195.6 688.472 1195.9 687.687 1196.49 686.881C1197.13 686.032 1198.15 685.608 1199.55 685.608V684.08C1198.78 684.08 1198.19 684.123 1197.77 684.208C1197.34 684.25 1196.81 684.505 1196.18 684.971C1195.54 685.396 1194.94 686.053 1194.39 686.944C1193.38 686.732 1192.42 686.011 1191.53 684.78C1190.68 685.884 1189.75 686.605 1188.73 686.944C1188.18 686.053 1187.58 685.396 1186.95 684.971C1186.31 684.505 1185.78 684.25 1185.36 684.208C1184.93 684.123 1184.34 684.08 1183.57 684.08V685.608C1186.29 685.608 1187.65 687.368 1187.65 690.89C1187.65 692.247 1187.56 693.329 1187.39 694.135C1187.27 694.941 1186.86 695.684 1186.18 696.363C1185.55 697.041 1184.59 697.381 1183.32 697.381L1182.24 697.254C1183.26 699.46 1184.81 700.563 1186.88 700.563C1187.86 700.563 1188.71 700.329 1189.43 699.863C1190.19 699.396 1191.04 698.654 1191.98 697.635H1192.48C1193.63 698.654 1194.9 699.375 1196.3 699.799C1197.75 700.223 1199.99 700.435 1203.05 700.435C1213.32 700.435 1218.45 697.466 1218.45 691.526C1218.45 687.581 1219.81 685.608 1222.52 685.608V684.08C1221.76 684.08 1221.16 684.123 1220.74 684.208C1220.36 684.25 1219.85 684.505 1219.21 684.971C1218.58 685.396 1217.98 686.053 1217.43 686.944C1216.45 686.732 1215.52 686.011 1214.63 684.78C1213.78 685.884 1212.78 686.605 1211.64 686.944C1211.09 686.053 1210.49 685.396 1209.86 684.971C1209.26 684.505 1208.75 684.25 1208.33 684.208C1207.95 684.123 1207.35 684.08 1206.55 684.08V685.608C1207.95 685.608 1208.95 686.011 1209.54 686.817C1210.13 687.623 1210.43 688.429 1210.43 689.235ZM1204.89 682.426C1206.46 682.426 1207.57 682.468 1208.2 682.553V671.607L1208.14 670.78C1207.63 670.61 1206.97 670.526 1206.17 670.526H1200.95V682.426H1201.2L1204.38 686.244V690.89C1201.88 690.975 1200.63 691.802 1200.63 693.372V693.69C1201.31 693.86 1202.11 693.944 1203.05 693.944C1206.15 693.944 1207.97 692.926 1208.52 690.89H1208.08L1204.89 687.071V682.426ZM1243.69 706.863C1237.58 706.863 1232.58 705.399 1228.68 702.472C1224.77 699.587 1222.82 695.96 1222.82 691.59V690.89H1222.18L1219 687.071V682.426C1220.87 682.426 1222.16 682.49 1222.88 682.617V668.489C1222.88 666.283 1223.41 664.395 1224.47 662.825C1225.58 661.213 1227.04 660.004 1228.87 659.198C1232.22 657.713 1236.1 656.971 1240.51 656.971C1246.71 656.971 1251.71 658.392 1255.53 661.234C1259.39 664.034 1261.32 667.725 1261.32 672.307V682.426H1262.02L1265.2 686.244V690.89C1263.59 690.89 1262.55 691.187 1262.09 691.781C1261.62 692.375 1261.39 693.308 1261.39 694.581V695.408C1261.39 697.614 1260.83 699.502 1259.73 701.072C1258.67 702.642 1257.21 703.83 1255.34 704.636C1251.95 706.121 1248.06 706.863 1243.69 706.863ZM1226.19 684.526C1226.7 684.229 1227.23 683.72 1227.78 682.999H1229.38C1229.93 683.762 1230.44 684.271 1230.9 684.526C1231.67 683.635 1232.54 683.062 1233.51 682.808V670.271C1233.51 668.107 1234.17 666.431 1235.48 665.244C1236.8 664.013 1238.5 663.398 1240.58 663.398C1242.65 663.398 1244.33 663.992 1245.6 665.18C1246.88 666.368 1247.51 668.065 1247.51 670.271V682.808C1248.49 683.062 1249.36 683.635 1250.12 684.526C1250.55 684.271 1251.05 683.762 1251.65 682.999H1253.24C1253.79 683.762 1254.32 684.271 1254.83 684.526C1255.25 683.974 1255.74 683.55 1256.29 683.253V668.616C1256.29 666.834 1255.83 665.286 1254.89 663.971C1253.96 662.656 1252.71 661.637 1251.14 660.916C1249.57 660.195 1247.89 659.665 1246.11 659.325C1244.33 658.986 1242.46 658.816 1240.51 658.816C1238.56 658.816 1236.69 658.986 1234.91 659.325C1233.17 659.665 1231.5 660.195 1229.88 660.916C1228.31 661.637 1227.06 662.656 1226.13 663.971C1225.2 665.286 1224.73 666.834 1224.73 668.616V683.253C1225.32 683.635 1225.81 684.059 1226.19 684.526ZM1233.13 700.308C1235.38 700.86 1237.84 701.136 1240.51 701.136C1243.18 701.136 1245.65 700.86 1247.89 700.308C1250.14 699.757 1252.09 698.738 1253.75 697.254C1255.45 695.726 1256.29 693.817 1256.29 691.526V690.89C1256.29 687.368 1257.67 685.608 1260.43 685.608V684.08C1259.67 684.08 1259.07 684.123 1258.65 684.208C1258.27 684.25 1257.74 684.505 1257.06 684.971C1256.42 685.396 1255.83 686.053 1255.28 686.944C1254.34 686.732 1253.41 686.011 1252.48 684.78C1251.71 685.884 1250.74 686.605 1249.55 686.944C1249.04 686.053 1248.47 685.396 1247.83 684.971C1247.19 684.505 1246.66 684.25 1246.24 684.208C1245.81 684.123 1245.22 684.08 1244.46 684.08V685.608C1245.86 685.608 1246.85 686.011 1247.45 686.817C1248.04 687.623 1248.34 688.429 1248.34 689.235C1248.34 691.526 1247.6 693.329 1246.11 694.644C1244.63 695.917 1242.76 696.554 1240.51 696.554C1238.26 696.554 1236.4 695.917 1234.91 694.644C1233.43 693.329 1232.68 691.526 1232.68 689.235C1232.68 688.429 1232.98 687.623 1233.58 686.817C1234.17 686.011 1235.17 685.608 1236.57 685.608V684.08C1235.8 684.08 1235.21 684.123 1234.78 684.208C1234.36 684.25 1233.83 684.505 1233.19 684.971C1232.56 685.396 1231.98 686.053 1231.48 686.944C1230.37 686.732 1229.4 686.011 1228.55 684.78C1227.7 685.884 1226.77 686.605 1225.75 686.944C1225.2 686.053 1224.58 685.396 1223.9 684.971C1223.27 684.505 1222.74 684.25 1222.31 684.208C1221.93 684.123 1221.36 684.08 1220.59 684.08V685.608C1223.35 685.608 1224.73 687.368 1224.73 690.89V691.526C1224.73 693.817 1225.56 695.726 1227.21 697.254C1228.91 698.738 1230.88 699.757 1233.13 700.308ZM1238.54 674.153V682.744L1241.47 686.244V690.89C1240.75 690.932 1240.17 690.996 1239.75 691.081C1239.32 691.123 1238.86 691.335 1238.35 691.717C1237.88 692.099 1237.65 692.65 1237.65 693.372C1237.65 694.263 1238.5 694.708 1240.19 694.708C1241.89 694.708 1243.25 694.369 1244.27 693.69C1245.33 692.969 1246.03 692.035 1246.37 690.89H1245.92L1242.74 687.071V682.426C1244.1 682.426 1245.07 682.447 1245.67 682.49V670.335C1245.67 669.995 1245.43 669.719 1244.97 669.507C1244.5 669.253 1244.08 669.125 1243.69 669.125C1242.12 669.125 1240.87 669.571 1239.94 670.462C1239.01 671.31 1238.54 672.541 1238.54 674.153ZM1278.12 682.426H1278.63L1281.81 686.244V690.89C1280.15 690.89 1279.07 691.187 1278.56 691.781C1278.1 692.375 1277.86 693.329 1277.86 694.644V695.599C1278.16 695.599 1278.41 695.429 1278.63 695.09L1280.41 696.235L1283.59 700.054C1283.34 702.048 1282.61 703.554 1281.43 704.572C1280.24 705.59 1278.8 706.099 1277.1 706.099C1275.44 706.099 1273.81 705.527 1272.2 704.381C1270.59 705.527 1268.91 706.099 1267.17 706.099C1265.47 706.099 1263.52 705.081 1261.32 703.045C1259.11 701.008 1257.88 698.738 1257.63 696.235L1259.41 695.09C1259.58 695.472 1259.98 695.663 1260.62 695.663C1262.44 695.663 1263.35 694.072 1263.35 690.89H1262.59L1259.41 687.071V682.426C1261.15 682.426 1262.38 682.49 1263.1 682.617V670.526H1262.59L1259.41 666.707V657.734H1274.62L1284.86 670.144L1295.24 657.734H1309.11L1312.29 661.553V670.526H1308.47V682.426H1308.98L1312.16 686.244V690.89C1310.51 690.89 1309.43 691.187 1308.92 691.781C1308.45 692.375 1308.22 693.329 1308.22 694.644V695.599C1308.52 695.599 1308.77 695.429 1308.98 695.09L1310.76 696.235L1313.95 700.054C1313.69 702.048 1312.97 703.554 1311.78 704.572C1310.59 705.59 1309.15 706.099 1307.45 706.099C1305.8 706.099 1304.17 705.527 1302.55 704.381C1300.94 705.527 1299.27 706.099 1297.53 706.099C1295.83 706.099 1293.88 705.081 1291.67 703.045C1289.47 701.008 1288.24 698.738 1287.98 696.235L1289.76 695.09C1289.93 695.472 1290.34 695.663 1290.97 695.663C1292.8 695.663 1293.71 694.072 1293.71 690.89H1292.95L1289.76 687.071V685.99L1288.11 688.026H1286.65L1283.46 684.271L1278.12 677.526V682.426ZM1297.02 684.526C1297.44 684.271 1297.95 683.762 1298.55 682.999H1300.2C1300.75 683.762 1301.26 684.271 1301.73 684.526C1302.15 683.932 1302.7 683.465 1303.38 683.126V664.925H1307.33V659.516H1296.13L1284.93 672.689H1283.46L1272.33 659.516H1261.19V664.925H1265.01V683.126C1265.6 683.423 1266.15 683.89 1266.66 684.526C1267.09 684.271 1267.6 683.762 1268.19 682.999H1269.84C1270.4 683.762 1270.91 684.271 1271.37 684.526C1271.84 683.89 1272.45 683.402 1273.22 683.062V670.971H1274.94L1284.16 682.49L1293.45 670.971H1295.17V683.062C1295.85 683.359 1296.47 683.847 1297.02 684.526ZM1269.21 698.399C1270.74 699.714 1272.41 700.372 1274.24 700.372C1276.1 700.372 1277.46 699.311 1278.31 697.19C1278.01 697.36 1277.67 697.444 1277.29 697.444C1274.32 697.444 1272.84 695.26 1272.84 690.89C1272.84 687.326 1274.24 685.544 1277.04 685.544V683.953C1276.23 683.953 1275.61 683.996 1275.19 684.08C1274.77 684.123 1274.24 684.377 1273.6 684.844C1272.96 685.311 1272.39 686.011 1271.88 686.944C1270.86 686.732 1269.91 685.99 1269.02 684.717C1268.13 685.862 1267.17 686.605 1266.15 686.944C1265.6 686.011 1265.01 685.311 1264.37 684.844C1263.74 684.377 1263.2 684.123 1262.78 684.08C1262.36 683.996 1261.76 683.953 1261 683.953V685.544C1263.8 685.544 1265.2 687.326 1265.2 690.89C1265.2 694.114 1264.52 696.129 1263.16 696.935C1262.53 697.275 1261.72 697.444 1260.74 697.444L1259.73 697.19C1260.57 699.311 1261.91 700.372 1263.74 700.372C1265.6 700.372 1267.3 699.714 1268.83 698.399H1269.21ZM1299.56 698.399C1301.09 699.714 1302.77 700.372 1304.59 700.372C1306.46 700.372 1307.82 699.311 1308.66 697.19C1308.37 697.36 1308.03 697.444 1307.65 697.444C1304.68 697.444 1303.19 695.26 1303.19 690.89C1303.19 687.326 1304.59 685.544 1307.39 685.544V683.953C1306.58 683.953 1305.97 683.996 1305.55 684.08C1305.12 684.123 1304.59 684.377 1303.95 684.844C1303.32 685.311 1302.75 686.011 1302.24 686.944C1301.22 686.732 1300.26 685.99 1299.37 684.717C1298.48 685.862 1297.53 686.605 1296.51 686.944C1295.36 684.993 1293.84 684.017 1291.93 684.017H1291.35V685.544C1294.15 685.544 1295.55 687.326 1295.55 690.89C1295.55 694.114 1294.88 696.129 1293.52 696.935C1292.88 697.275 1292.08 697.444 1291.1 697.444L1290.08 697.19C1290.93 699.311 1292.27 700.372 1294.09 700.372C1295.96 700.372 1297.65 699.714 1299.18 698.399H1299.56Z" fill="black"/>
<path d="M348.443 408.515V448.305H351.986L365.613 464.658V484.553C358.345 484.553 353.712 486.007 351.713 488.914C349.715 491.821 348.715 496.817 348.715 503.903C348.715 534.428 324.187 549.69 275.13 549.69C261.866 549.69 252.146 548.872 245.968 547.237C239.791 545.602 234.067 542.876 228.798 539.061C222.076 546.147 214.626 549.69 206.45 549.69C195.73 549.69 186.282 545.147 178.106 536.063C170.112 526.978 165.388 517.439 163.934 507.446L171.293 502.541C172.383 503.994 174.382 504.721 177.289 504.721C180.196 504.721 182.558 503.631 184.375 501.45C186.192 499.088 187.282 496.726 187.645 494.364C188.008 491.821 188.19 488.55 188.19 484.553H184.92L171.293 468.201V448.305C179.287 448.305 184.92 448.578 188.19 449.123V397.341H186.01L172.383 380.988V342.56H266.136C287.939 342.56 306.744 347.466 322.552 357.277C330.546 362.365 336.815 369.36 341.357 378.263C346.081 386.984 348.443 397.068 348.443 408.515ZM301.021 457.299C302.838 455.846 304.928 453.665 307.29 450.758H314.648C316.647 454.029 318.736 456.209 320.916 457.299C322.733 454.937 324.823 453.12 327.185 451.848V392.435C327.185 377.9 321.371 367.271 309.742 360.548C298.114 353.644 283.579 350.191 266.136 350.191H180.014V373.357H196.366V452.121C198.183 453.029 200.182 454.755 202.362 457.299C203.816 456.391 205.905 454.21 208.631 450.758H215.717C218.079 454.029 220.168 456.209 221.985 457.299C224.71 454.029 227.799 451.757 231.251 450.486V373.357H261.231C270.315 373.357 277.583 375.719 283.034 380.443C288.484 385.167 291.21 391.981 291.21 400.884V450.213C295.025 451.667 298.296 454.029 301.021 457.299ZM293.118 477.467C293.118 496.181 282.489 505.538 261.231 505.538C240.154 505.538 229.616 496.181 229.616 477.467C229.616 474.197 230.888 470.835 233.432 467.383C236.157 463.749 240.518 461.932 246.513 461.932V455.391C243.243 455.391 240.699 455.573 238.882 455.936C237.065 456.118 234.794 457.208 232.069 459.207C229.343 461.024 226.8 463.84 224.438 467.656C220.077 466.747 215.989 463.658 212.174 458.389C208.54 463.113 204.542 466.202 200.182 467.656C197.82 463.84 195.276 461.024 192.551 459.207C189.825 457.208 187.554 456.118 185.737 455.936C183.92 455.573 181.377 455.391 178.106 455.391V461.932C189.735 461.932 195.549 469.473 195.549 484.553C195.549 490.367 195.185 495 194.459 498.452C193.913 501.905 192.187 505.084 189.28 507.991C186.555 510.898 182.467 512.352 177.016 512.352L172.383 511.807C176.744 521.255 183.375 525.979 192.278 525.979C196.457 525.979 200.091 524.98 203.18 522.981C206.45 520.982 210.084 517.803 214.081 513.442H216.262C221.167 517.803 226.618 520.891 232.614 522.708C238.792 524.525 248.421 525.434 261.503 525.434C305.473 525.434 327.457 512.715 327.457 487.278C327.457 470.381 333.272 461.932 344.9 461.932V455.391C341.629 455.391 339.086 455.573 337.269 455.936C335.634 456.118 333.453 457.208 330.728 459.207C328.002 461.024 325.459 463.84 323.097 467.656C318.918 466.747 314.921 463.658 311.105 458.389C307.471 463.113 303.201 466.202 298.296 467.656C295.934 463.84 293.39 461.024 290.665 459.207C288.121 457.208 285.941 456.118 284.124 455.936C282.489 455.573 279.945 455.391 276.493 455.391V461.932C282.489 461.932 286.758 463.658 289.302 467.111C291.846 470.563 293.118 474.015 293.118 477.467ZM269.407 448.305C276.129 448.305 280.853 448.487 283.579 448.85V401.974L283.306 398.431C281.126 397.704 278.31 397.341 274.857 397.341H252.509V448.305H253.599L267.226 464.658V484.553C256.507 484.916 251.147 488.459 251.147 495.182V496.545C254.054 497.271 257.506 497.635 261.503 497.635C274.767 497.635 282.579 493.274 284.941 484.553H283.034L269.407 468.201V448.305ZM503.162 529.794C503.162 536.154 504.797 540.333 508.068 542.331L503.162 549.69C498.438 549.69 493.441 548.509 488.172 546.147C483.085 543.785 479.088 541.241 476.18 538.516C473.092 541.241 467.823 543.785 460.373 546.147C453.106 548.509 446.201 549.69 439.66 549.69C426.397 549.69 415.586 546.147 407.228 539.061C399.779 546.147 391.239 549.69 381.61 549.69C372.162 549.69 363.349 545.057 355.173 535.79C347.179 526.706 342.546 517.258 341.274 507.446L348.905 502.541C349.813 503.994 351.63 504.721 354.356 504.721C361.623 504.721 365.257 497.998 365.257 484.553H362.532L348.905 468.201V448.305C356.536 448.305 361.896 448.578 364.985 449.123V397.341H357.354L343.727 380.988V342.56H490.08L503.707 358.913V425.412H472.092L458.465 409.06V397.341H429.304V413.148H448.654L462.281 429.5V461.115H441.841L444.839 464.658V484.553C441.931 484.735 439.569 485.007 437.753 485.371C435.936 485.552 434.028 486.461 432.029 488.096C430.031 489.731 429.031 492.093 429.031 495.182V496.272C431.575 497.181 435.209 497.635 439.933 497.635C444.657 497.635 449.108 496.181 453.287 493.274C457.466 490.367 459.556 486.279 459.556 481.01C459.556 480.102 459.011 477.467 457.92 473.106V464.385H489.535L503.162 480.737V529.794ZM379.974 457.299C381.791 456.209 383.972 454.029 386.515 450.758H393.874C396.236 454.029 398.325 456.209 400.142 457.299C402.141 454.755 404.594 452.757 407.501 451.303V437.131H441.023V420.779H407.501V373.357H466.097V401.429H482.449V350.191H351.358V373.357H373.161V451.576C375.523 452.848 377.794 454.755 379.974 457.299ZM466.914 482.1C466.914 489.368 464.098 495.091 458.465 499.27C453.015 503.449 446.292 505.538 438.298 505.538C430.303 505.538 423.126 503.267 416.767 498.725C410.59 494.001 407.501 486.915 407.501 477.467C407.501 474.197 408.773 470.835 411.316 467.383C414.042 463.749 418.311 461.932 424.126 461.932V455.391C420.855 455.391 418.311 455.573 416.495 455.936C414.859 456.118 412.679 457.208 409.954 459.207C407.228 461.024 404.775 463.84 402.595 467.656C398.234 466.747 394.056 463.658 390.058 458.389C386.788 463.113 382.7 466.202 377.794 467.656C375.432 463.84 372.888 461.024 370.163 459.207C367.438 457.208 365.166 456.118 363.349 455.936C361.714 455.573 359.261 455.391 355.991 455.391V461.932C362.168 461.932 366.62 464.113 369.345 468.473C372.252 472.652 373.706 478.557 373.706 486.188C373.706 493.819 372.434 500.088 369.89 504.993C367.528 509.899 362.441 512.352 354.628 512.352L350.813 511.807C354.083 521.073 359.806 525.706 367.983 525.706C376.159 525.706 384.153 521.618 391.966 513.442H394.419L395.509 514.532C404.23 521.8 414.768 525.434 427.124 525.434C439.66 525.434 451.47 521.164 462.554 512.624C464.189 514.26 467.55 516.622 472.637 519.71C477.725 522.618 481.722 524.344 484.629 524.889C482.994 523.072 482.176 518.348 482.176 510.717V472.561H465.551C466.46 475.65 466.914 478.83 466.914 482.1ZM669.751 408.515V448.305H673.294L686.921 464.658V484.553C679.653 484.553 675.02 486.007 673.022 488.914C671.023 491.821 670.024 496.817 670.024 503.903C670.024 534.428 645.495 549.69 596.438 549.69C583.175 549.69 573.454 548.872 567.277 547.237C561.099 545.602 555.376 542.876 550.107 539.061C543.384 546.147 535.935 549.69 527.758 549.69C517.039 549.69 507.591 545.147 499.414 536.063C491.42 526.978 486.696 517.439 485.242 507.446L492.601 502.541C493.691 503.994 495.69 504.721 498.597 504.721C501.504 504.721 503.866 503.631 505.683 501.45C507.5 499.088 508.59 496.726 508.953 494.364C509.317 491.821 509.498 488.55 509.498 484.553H506.228L492.601 468.201V448.305C500.595 448.305 506.228 448.578 509.498 449.123V397.341H507.318L493.691 380.988V342.56H587.444C609.248 342.56 628.053 347.466 643.86 357.277C651.854 362.365 658.123 369.36 662.665 378.263C667.389 386.984 669.751 397.068 669.751 408.515ZM622.329 457.299C624.146 455.846 626.236 453.665 628.598 450.758H635.956C637.955 454.029 640.044 456.209 642.225 457.299C644.042 454.937 646.131 453.12 648.493 451.848V392.435C648.493 377.9 642.679 367.271 631.051 360.548C619.422 353.644 604.887 350.191 587.444 350.191H501.322V373.357H517.675V452.121C519.491 453.029 521.49 454.755 523.67 457.299C525.124 456.391 527.213 454.21 529.939 450.758H537.025C539.387 454.029 541.476 456.209 543.293 457.299C546.019 454.029 549.107 451.757 552.559 450.486V373.357H582.539C591.623 373.357 598.891 375.719 604.342 380.443C609.793 385.167 612.518 391.981 612.518 400.884V450.213C616.334 451.667 619.604 454.029 622.329 457.299ZM614.426 477.467C614.426 496.181 603.797 505.538 582.539 505.538C561.462 505.538 550.924 496.181 550.924 477.467C550.924 474.197 552.196 470.835 554.74 467.383C557.465 463.749 561.826 461.932 567.822 461.932V455.391C564.551 455.391 562.007 455.573 560.191 455.936C558.374 456.118 556.102 457.208 553.377 459.207C550.652 461.024 548.108 463.84 545.746 467.656C541.385 466.747 537.297 463.658 533.482 458.389C529.848 463.113 525.851 466.202 521.49 467.656C519.128 463.84 516.584 461.024 513.859 459.207C511.134 457.208 508.862 456.118 507.046 455.936C505.229 455.573 502.685 455.391 499.414 455.391V461.932C511.043 461.932 516.857 469.473 516.857 484.553C516.857 490.367 516.494 495 515.767 498.452C515.222 501.905 513.496 505.084 510.589 507.991C507.863 510.898 503.775 512.352 498.324 512.352L493.691 511.807C498.052 521.255 504.683 525.979 513.586 525.979C517.765 525.979 521.399 524.98 524.488 522.981C527.758 520.982 531.392 517.803 535.39 513.442H537.57C542.476 517.803 547.926 520.891 553.922 522.708C560.1 524.525 569.729 525.434 582.811 525.434C626.781 525.434 648.766 512.715 648.766 487.278C648.766 470.381 654.58 461.932 666.208 461.932V455.391C662.938 455.391 660.394 455.573 658.577 455.936C656.942 456.118 654.761 457.208 652.036 459.207C649.311 461.024 646.767 463.84 644.405 467.656C640.226 466.747 636.229 463.658 632.413 458.389C628.779 463.113 624.51 466.202 619.604 467.656C617.242 463.84 614.698 461.024 611.973 459.207C609.429 457.208 607.249 456.118 605.432 455.936C603.797 455.573 601.253 455.391 597.801 455.391V461.932C603.797 461.932 608.067 463.658 610.61 467.111C613.154 470.563 614.426 474.015 614.426 477.467ZM590.715 448.305C597.437 448.305 602.161 448.487 604.887 448.85V401.974L604.614 398.431C602.434 397.704 599.618 397.341 596.166 397.341H573.817V448.305H574.908L588.535 464.658V484.553C577.815 484.916 572.455 488.459 572.455 495.182V496.545C575.362 497.271 578.814 497.635 582.811 497.635C596.075 497.635 603.888 493.274 606.25 484.553H604.342L590.715 468.201V448.305ZM770.78 484.553H767.509C760.423 484.553 755.881 485.825 753.883 488.369C752.066 490.912 751.157 495 751.157 500.633V504.721C752.247 504.176 753.156 503.449 753.883 502.541L775.141 523.799C774.05 532.338 770.962 538.788 765.874 543.149C760.787 547.509 754.791 549.69 747.887 549.69C740.982 549.69 733.896 547.237 726.629 542.331C719.361 547.237 712.275 549.69 705.371 549.69C695.559 549.69 686.565 545.057 678.389 535.79C670.213 526.706 665.489 517.258 664.217 507.446L671.848 502.541C672.757 504.176 674.755 504.993 677.844 504.993C680.933 504.993 683.295 503.812 684.93 501.45C686.747 498.907 687.746 496.454 687.928 494.092C688.292 491.73 688.473 488.55 688.473 484.553H685.475L671.848 468.201V448.305C679.298 448.305 684.567 448.578 687.656 449.123V397.341H680.025L666.398 380.988V342.56H764.239C789.131 342.56 808.663 349.737 822.835 364.091C837.007 378.445 844.093 396.705 844.093 418.871C844.093 441.038 837.188 457.481 823.38 468.201C829.376 477.467 832.374 488.369 832.374 500.905V504.721C833.645 504.176 834.645 503.449 835.372 502.541L842.73 507.446L856.357 523.799C855.449 532.883 852.087 539.424 846.273 543.421C840.459 547.6 831.374 549.69 819.019 549.69C806.664 549.69 795.49 544.33 785.497 533.61C775.686 523.072 770.78 509.536 770.78 493.002V484.553ZM785.497 457.299C787.677 456.027 789.948 453.847 792.31 450.758C794.127 450.758 795.399 450.849 796.126 451.031C813.568 443.036 822.29 426.411 822.29 401.156C822.29 392.253 820.745 384.622 817.657 378.263C814.749 371.722 811.206 366.725 807.028 363.273C803.03 359.639 797.125 356.551 789.313 354.007C781.681 351.463 772.688 350.191 762.331 350.191H674.029V373.357H695.832V451.303C698.557 452.757 700.919 454.755 702.918 457.299C704.735 456.209 706.915 454.029 709.459 450.758H716.545C718.907 454.029 721.178 456.209 723.358 457.299C727.355 452.03 733.079 449.123 740.528 448.578C743.253 448.396 748.432 448.305 756.063 448.305C763.694 448.305 769.69 448.85 774.05 449.941C778.411 450.849 782.227 453.302 785.497 457.299ZM747.069 454.846C743.799 454.846 741.255 455.028 739.438 455.391C737.803 455.573 735.622 456.663 732.897 458.662C730.172 460.66 727.719 463.658 725.538 467.656C720.996 466.747 716.817 463.568 713.002 458.117C709.186 463.022 705.007 466.202 700.465 467.656C698.285 463.658 695.832 460.66 693.106 458.662C690.381 456.663 688.11 455.573 686.293 455.391C684.658 455.028 682.296 454.846 679.207 454.846V461.66C690.835 461.66 696.649 469.291 696.649 484.553C696.649 490.185 696.286 494.819 695.559 498.452C695.014 501.905 693.288 505.175 690.381 508.264C687.474 511.171 683.295 512.624 677.844 512.624L673.756 511.534C677.39 520.619 683.113 525.161 690.926 525.161C698.739 525.161 705.825 522.345 712.184 516.713H713.819C720.179 522.345 727.174 525.161 734.805 525.161C742.618 525.161 748.523 520.619 752.52 511.534C751.611 512.261 749.613 512.624 746.524 512.624C743.435 512.624 740.528 511.898 737.803 510.444C735.259 508.809 733.442 506.538 732.352 503.631C730.535 498.725 729.627 492.366 729.627 484.553C729.627 469.291 735.441 461.66 747.069 461.66H761.241C773.051 461.66 778.956 469.291 778.956 484.553V491.639C778.956 513.987 788.404 525.161 807.3 525.161C816.93 525.161 823.652 523.526 827.468 520.256C831.102 517.348 833.191 514.441 833.736 511.534C832.646 512.261 831.283 512.624 829.648 512.624C822.199 512.624 817.293 510.081 814.931 504.993C812.569 499.906 811.388 492.729 811.388 483.463C811.388 470.018 806.028 461.569 795.308 458.117C791.856 463.022 787.859 466.202 783.317 467.656C780.955 463.658 778.411 460.66 775.686 458.662C772.96 456.663 770.689 455.573 768.872 455.391C767.055 455.028 764.512 454.846 761.241 454.846H747.069ZM730.717 373.357H747.887C773.869 373.357 786.86 383.441 786.86 403.609C786.86 414.329 783.68 423.141 777.321 430.045C771.143 436.95 761.423 440.402 748.159 440.402H730.717V373.357ZM760.696 397.068H751.975V432.498C770.144 431.045 779.229 421.415 779.229 403.609L778.956 399.521C775.504 397.886 769.417 397.068 760.696 397.068ZM934.361 552.96C908.197 552.96 886.757 546.692 870.041 534.155C853.326 521.8 844.968 506.265 844.968 487.551V484.553H842.242L828.616 468.201V448.305C836.61 448.305 842.152 448.578 845.24 449.123V388.619C845.24 379.171 847.512 371.086 852.054 364.363C856.778 357.459 863.046 352.281 870.859 348.829C885.213 342.469 901.838 339.29 920.734 339.29C947.261 339.29 968.7 345.377 985.053 357.55C1001.59 369.542 1009.85 385.349 1009.85 404.972V448.305H1012.85L1026.48 464.658V484.553C1019.57 484.553 1015.12 485.825 1013.12 488.369C1011.13 490.912 1010.13 494.909 1010.13 500.36V503.903C1010.13 513.351 1007.76 521.437 1003.04 528.159C998.498 534.882 992.23 539.969 984.235 543.421C969.7 549.781 953.075 552.96 934.361 552.96ZM859.412 457.299C861.593 456.027 863.864 453.847 866.226 450.758H873.039C875.401 454.029 877.582 456.209 879.58 457.299C882.851 453.484 886.575 451.031 890.754 449.941V396.25C890.754 386.984 893.571 379.807 899.203 374.72C904.836 369.451 912.103 366.816 921.006 366.816C929.909 366.816 937.086 369.36 942.537 374.447C947.987 379.535 950.713 386.802 950.713 396.25V449.941C954.892 451.031 958.616 453.484 961.887 457.299C963.704 456.209 965.884 454.029 968.428 450.758H975.241C977.603 454.029 979.875 456.209 982.055 457.299C983.872 454.937 985.961 453.12 988.323 451.848V389.164C988.323 381.533 986.325 374.902 982.327 369.269C978.33 363.637 972.97 359.276 966.248 356.187C959.525 353.098 952.348 350.827 944.717 349.374C937.086 347.92 929.091 347.193 920.734 347.193C912.376 347.193 904.381 347.92 896.75 349.374C889.301 350.827 882.124 353.098 875.22 356.187C868.497 359.276 863.137 363.637 859.14 369.269C855.143 374.902 853.144 381.533 853.144 389.164V451.848C855.688 453.484 857.777 455.3 859.412 457.299ZM889.119 524.889C898.749 527.251 909.287 528.432 920.734 528.432C932.18 528.432 942.718 527.251 952.348 524.889C961.978 522.527 970.336 518.166 977.422 511.807C984.689 505.266 988.323 497.09 988.323 487.278V484.553C988.323 469.473 994.228 461.932 1006.04 461.932V455.391C1002.77 455.391 1000.22 455.573 998.407 455.936C996.772 456.118 994.501 457.208 991.594 459.207C988.868 461.024 986.325 463.84 983.963 467.656C979.965 466.747 975.968 463.658 971.971 458.389C968.7 463.113 964.522 466.202 959.434 467.656C957.254 463.84 954.801 461.024 952.076 459.207C949.35 457.208 947.079 456.118 945.262 455.936C943.445 455.573 940.901 455.391 937.631 455.391V461.932C943.627 461.932 947.897 463.658 950.44 467.111C952.984 470.563 954.256 474.015 954.256 477.467C954.256 487.278 951.076 495 944.717 500.633C938.358 506.084 930.363 508.809 920.734 508.809C911.104 508.809 903.109 506.084 896.75 500.633C890.391 495 887.211 487.278 887.211 477.467C887.211 474.015 888.483 470.563 891.027 467.111C893.571 463.658 897.84 461.932 903.836 461.932V455.391C900.566 455.391 898.022 455.573 896.205 455.936C894.388 456.118 892.117 457.208 889.392 459.207C886.666 461.024 884.213 463.84 882.033 467.656C877.309 466.747 873.13 463.658 869.496 458.389C865.862 463.113 861.865 466.202 857.505 467.656C855.143 463.84 852.508 461.024 849.601 459.207C846.876 457.208 844.604 456.118 842.788 455.936C841.152 455.573 838.699 455.391 835.429 455.391V461.932C847.239 461.932 853.144 469.473 853.144 484.553V487.278C853.144 497.09 856.687 505.266 863.773 511.807C871.041 518.166 879.489 522.527 889.119 524.889ZM912.285 412.875V449.668L924.822 464.658V484.553C921.733 484.735 919.28 485.007 917.463 485.371C915.646 485.552 913.648 486.461 911.467 488.096C909.469 489.731 908.469 492.093 908.469 495.182C908.469 498.998 912.103 500.905 919.371 500.905C926.639 500.905 932.453 499.452 936.813 496.545C941.356 493.456 944.354 489.459 945.807 484.553H943.899L930.272 468.201V448.305C936.087 448.305 940.266 448.396 942.809 448.578V396.523C942.809 395.069 941.81 393.888 939.811 392.98C937.813 391.89 935.996 391.345 934.361 391.345C927.638 391.345 922.278 393.253 918.281 397.068C914.284 400.702 912.285 405.971 912.285 412.875ZM1012.83 342.56H1096.23L1109.31 358.368V342.56H1192.44L1206.06 358.913V397.341H1187.53L1156.19 454.574L1157.82 457.299C1161.82 451.303 1171.45 448.305 1186.71 448.305L1200.34 464.658L1203.61 484.28C1193.8 484.28 1188.89 488.641 1188.89 497.362C1188.89 502.631 1189.53 505.266 1190.8 505.266C1193.89 505.266 1195.62 504.357 1195.98 502.541L1204.7 507.719L1218.33 524.071C1218.33 532.792 1216.15 539.242 1211.79 543.421C1207.61 547.6 1202.16 549.69 1195.43 549.69C1188.89 549.69 1181.35 547.419 1172.81 542.876C1166.09 547.419 1159.55 549.69 1153.19 549.69C1143.2 549.69 1133.75 545.238 1124.85 536.335C1116.12 527.432 1110.22 517.894 1107.13 507.719L1113.67 502.541C1115.13 504.357 1117.21 505.266 1119.94 505.266C1125.94 505.266 1128.93 501.723 1128.93 494.637L1128.12 488.369C1124.66 486.552 1120.39 485.643 1115.31 485.643C1110.4 485.643 1105.68 487.097 1101.14 490.004C1096.59 492.911 1093.5 497.09 1091.87 502.541L1098.41 507.719L1112.04 524.071C1109.49 532.611 1105.22 538.97 1099.23 543.149C1093.41 547.509 1087.14 549.69 1080.42 549.69C1073.88 549.69 1066.98 547.419 1059.71 542.876C1051.53 547.419 1043.99 549.69 1037.09 549.69C1027.64 549.69 1019.28 545.147 1012.01 536.063C1004.93 526.978 1001.39 517.53 1001.39 507.719L1009.83 502.541C1010.2 504.357 1011.92 505.266 1015.01 505.266C1018.28 505.266 1021.37 503.086 1024.28 498.725C1027.37 494.364 1029.28 489.55 1030 484.28L1015.56 467.928L1018.83 448.305C1034.27 448.305 1044.08 451.394 1048.26 457.572C1050.62 456.481 1052.99 454.392 1055.35 451.303L1062.98 437.949L1040.36 397.341H1026.46L1012.83 380.988V342.56ZM1184.8 373.357V350.191H1116.67V373.357H1134.11L1106.31 424.049H1099.5L1071.16 373.357H1088.6V350.191H1020.46V373.357H1036.54L1072.25 438.221L1064.07 452.938C1065.34 455.482 1066.52 457.027 1067.61 457.572C1074.52 450.667 1086.15 447.215 1102.5 447.215C1119.03 447.215 1130.57 450.667 1137.11 457.572C1139.11 456.481 1140.47 454.937 1141.2 452.938L1133.29 438.221L1168.45 373.357H1184.8ZM1158.37 516.713C1166.36 522.89 1173.99 525.979 1181.26 525.979C1188.71 525.979 1193.62 521.255 1195.98 511.807C1195.07 512.534 1193.8 512.897 1192.16 512.897C1185.26 512.897 1179.35 509.536 1174.45 502.813C1169.72 495.909 1167.36 489.368 1167.36 483.19C1167.36 470.29 1172.36 463.113 1182.35 461.66L1181.26 455.119C1177.81 455.119 1175.17 455.3 1173.36 455.664C1171.72 455.846 1169.72 456.936 1167.36 458.934C1165 460.751 1163 463.658 1161.37 467.656C1157.19 466.929 1152.46 463.84 1147.19 458.389C1145.92 460.751 1144.38 462.75 1142.56 464.385C1140.93 465.839 1139.02 466.929 1136.84 467.656C1129.75 458.934 1118.31 454.574 1102.5 454.574C1086.69 454.574 1075.43 458.934 1068.7 467.656C1064.52 466.929 1060.98 463.84 1058.07 458.389C1053.71 463.113 1049.17 466.202 1044.45 467.656C1042.81 463.658 1040.72 460.751 1038.18 458.934C1035.82 456.936 1033.73 455.846 1031.91 455.664C1030.09 455.3 1027.55 455.119 1024.28 455.119L1023.19 461.66C1028.28 462.387 1032 464.567 1034.36 468.201C1036.91 471.653 1038.18 476.559 1038.18 482.918C1038.18 489.277 1035.73 495.909 1030.82 502.813C1026.1 509.536 1020.37 512.897 1013.65 512.897L1009.83 511.807C1012.2 521.255 1016.92 525.979 1024.01 525.979C1031.27 525.979 1039 522.89 1047.17 516.713H1048.81C1054.99 522.89 1061.16 525.979 1067.34 525.979C1075.52 525.979 1082.6 521.255 1088.6 511.807C1087.14 512.534 1085.51 512.897 1083.69 512.897C1073.52 512.897 1068.43 507.628 1068.43 497.09C1068.43 486.552 1071.88 478.285 1078.79 472.289C1085.69 466.111 1093.69 463.022 1102.77 463.022C1111.85 463.022 1119.85 466.111 1126.75 472.289C1133.66 478.285 1137.11 486.552 1137.11 497.09C1137.11 507.628 1132.02 512.897 1121.85 512.897L1116.67 511.807C1122.48 521.255 1129.66 525.979 1138.2 525.979C1144.56 525.979 1150.74 522.89 1156.73 516.713H1158.37ZM1109.86 397.341H1097.86L1105.5 412.603L1116.94 389.982L1109.86 381.806V397.341ZM1254.88 514.26V533.882C1254.88 539.152 1252.52 543.058 1247.79 545.602C1243.07 548.327 1237.89 549.69 1232.26 549.69C1224.08 549.69 1216.45 545.874 1209.37 538.243C1202.28 530.794 1198.74 523.889 1198.74 517.53V497.907C1198.74 492.638 1201.1 488.732 1205.82 486.188C1210.55 483.463 1215.73 482.1 1221.36 482.1C1230.08 482.1 1237.8 485.371 1244.52 491.912C1251.43 498.271 1254.88 505.72 1254.88 514.26ZM1206.1 513.715C1206.1 521.891 1211.18 525.979 1221.36 525.979C1231.53 525.979 1236.62 521.891 1236.62 513.715V501.723C1236.62 493.547 1231.53 489.459 1221.36 489.459C1211.18 489.459 1206.1 493.547 1206.1 501.723V513.715ZM1429.24 408.515V448.305H1432.78L1446.41 464.658V484.553C1439.14 484.553 1434.51 486.007 1432.51 488.914C1430.51 491.821 1429.51 496.817 1429.51 503.903C1429.51 534.428 1404.98 549.69 1355.93 549.69C1342.66 549.69 1332.94 548.872 1326.77 547.237C1320.59 545.602 1314.86 542.876 1309.6 539.061C1302.87 546.147 1295.42 549.69 1287.25 549.69C1276.53 549.69 1267.08 545.147 1258.9 536.063C1250.91 526.978 1246.18 517.439 1244.73 507.446L1252.09 502.541C1253.18 503.994 1255.18 504.721 1258.09 504.721C1260.99 504.721 1263.35 503.631 1265.17 501.45C1266.99 499.088 1268.08 496.726 1268.44 494.364C1268.81 491.821 1268.99 488.55 1268.99 484.553H1265.72L1252.09 468.201V448.305C1260.08 448.305 1265.72 448.578 1268.99 449.123V397.341H1266.81L1253.18 380.988V342.56H1346.93C1368.74 342.56 1387.54 347.466 1403.35 357.277C1411.34 362.365 1417.61 369.36 1422.15 378.263C1426.88 386.984 1429.24 397.068 1429.24 408.515ZM1381.82 457.299C1383.63 455.846 1385.72 453.665 1388.09 450.758H1395.44C1397.44 454.029 1399.53 456.209 1401.71 457.299C1403.53 454.937 1405.62 453.12 1407.98 451.848V392.435C1407.98 377.9 1402.17 367.271 1390.54 360.548C1378.91 353.644 1364.38 350.191 1346.93 350.191H1260.81V373.357H1277.16V452.121C1278.98 453.029 1280.98 454.755 1283.16 457.299C1284.61 456.391 1286.7 454.21 1289.43 450.758H1296.51C1298.88 454.029 1300.96 456.209 1302.78 457.299C1305.51 454.029 1308.6 451.757 1312.05 450.486V373.357H1342.03C1351.11 373.357 1358.38 375.719 1363.83 380.443C1369.28 385.167 1372.01 391.981 1372.01 400.884V450.213C1375.82 451.667 1379.09 454.029 1381.82 457.299ZM1373.91 477.467C1373.91 496.181 1363.29 505.538 1342.03 505.538C1320.95 505.538 1310.41 496.181 1310.41 477.467C1310.41 474.197 1311.68 470.835 1314.23 467.383C1316.95 463.749 1321.31 461.932 1327.31 461.932V455.391C1324.04 455.391 1321.5 455.573 1319.68 455.936C1317.86 456.118 1315.59 457.208 1312.87 459.207C1310.14 461.024 1307.6 463.84 1305.23 467.656C1300.87 466.747 1296.79 463.658 1292.97 458.389C1289.34 463.113 1285.34 466.202 1280.98 467.656C1278.62 463.84 1276.07 461.024 1273.35 459.207C1270.62 457.208 1268.35 456.118 1266.53 455.936C1264.72 455.573 1262.17 455.391 1258.9 455.391V461.932C1270.53 461.932 1276.35 469.473 1276.35 484.553C1276.35 490.367 1275.98 495 1275.26 498.452C1274.71 501.905 1272.98 505.084 1270.08 507.991C1267.35 510.898 1263.26 512.352 1257.81 512.352L1253.18 511.807C1257.54 521.255 1264.17 525.979 1273.07 525.979C1277.25 525.979 1280.89 524.98 1283.98 522.981C1287.25 520.982 1290.88 517.803 1294.88 513.442H1297.06C1301.96 517.803 1307.41 520.891 1313.41 522.708C1319.59 524.525 1329.22 525.434 1342.3 525.434C1386.27 525.434 1408.25 512.715 1408.25 487.278C1408.25 470.381 1414.07 461.932 1425.7 461.932V455.391C1422.43 455.391 1419.88 455.573 1418.07 455.936C1416.43 456.118 1414.25 457.208 1411.52 459.207C1408.8 461.024 1406.26 463.84 1403.89 467.656C1399.71 466.747 1395.72 463.658 1391.9 458.389C1388.27 463.113 1384 466.202 1379.09 467.656C1376.73 463.84 1374.19 461.024 1371.46 459.207C1368.92 457.208 1366.74 456.118 1364.92 455.936C1363.29 455.573 1360.74 455.391 1357.29 455.391V461.932C1363.29 461.932 1367.56 463.658 1370.1 467.111C1372.64 470.563 1373.91 474.015 1373.91 477.467ZM1350.2 448.305C1356.93 448.305 1361.65 448.487 1364.38 448.85V401.974L1364.1 398.431C1361.92 397.704 1359.11 397.341 1355.65 397.341H1333.31V448.305H1334.4L1348.02 464.658V484.553C1337.3 484.916 1331.94 488.459 1331.94 495.182V496.545C1334.85 497.271 1338.3 497.635 1342.3 497.635C1355.56 497.635 1363.38 493.274 1365.74 484.553H1363.83L1350.2 468.201V448.305ZM1579.87 489.459L1580.42 500.905C1580.42 517.984 1574.51 530.885 1562.7 539.606C1551.07 548.509 1537.26 552.96 1521.27 552.96C1516.37 552.96 1511.46 552.324 1506.56 551.052C1501.65 549.781 1497.93 548.418 1495.38 546.964C1492.84 545.692 1489.75 543.966 1486.12 541.786C1482.67 539.787 1480.76 538.697 1480.39 538.516L1473.85 534.7C1470.04 538.516 1464.95 541.968 1458.59 545.057C1452.41 548.145 1446.87 549.69 1441.97 549.69L1428.34 533.337L1423.43 525.706C1426.7 523.889 1428.34 519.892 1428.34 513.715V464.658H1459.95L1473.58 481.01V489.459L1474.67 497.362C1478.49 499.724 1484.39 500.905 1492.39 500.905C1500.56 500.905 1505.56 497.09 1507.38 489.459C1504.47 491.094 1502.47 492.457 1501.38 493.547L1474.94 461.932L1479.58 457.844C1471.76 452.938 1465.5 448.76 1460.77 445.307C1456.23 441.855 1450.78 437.04 1444.42 430.863C1431.7 418.871 1425.34 404.881 1425.34 388.892C1425.34 372.721 1431.43 360.457 1443.6 352.099C1455.96 343.56 1470.22 339.29 1486.39 339.29C1495.11 339.29 1502.92 340.653 1509.83 343.378C1516.73 345.922 1521.46 348.556 1524 351.282L1527.82 355.097V342.56H1561.61L1575.24 358.913V419.961H1543.35L1529.72 403.609L1525.91 391.072C1522.82 389.437 1519.19 388.619 1515.01 388.619C1510.83 388.619 1507.28 390.073 1504.38 392.98C1501.65 395.887 1500.29 399.884 1500.29 404.972L1500.56 407.425C1501.11 407.97 1506.1 410.513 1515.55 415.056C1525.18 419.416 1534.36 424.685 1543.08 430.863C1551.8 436.859 1557.25 442.855 1559.43 448.85C1562.16 448.487 1567.06 448.305 1574.15 448.305L1587.77 464.658V484.553C1582.51 484.553 1579.87 486.188 1579.87 489.459ZM1433.52 386.712C1433.52 395.615 1435.79 403.609 1440.33 410.695C1445.05 417.599 1450.14 422.868 1455.59 426.502C1461.04 429.954 1468.04 434.042 1476.58 438.766C1485.12 443.49 1491.11 447.124 1494.57 449.668C1497.84 448.76 1501.11 448.305 1504.38 448.305C1511.46 448.305 1518.28 451.031 1524.82 456.481L1529.72 451.031H1536.54C1538.9 454.119 1540.99 456.209 1542.81 457.299C1544.99 454.574 1547.71 452.484 1550.98 451.031C1547.17 444.308 1540.99 438.221 1532.45 432.771C1523.91 427.138 1515.73 422.778 1507.92 419.689C1500.29 416.6 1493.38 412.421 1487.21 407.152C1481.21 401.701 1478.21 395.524 1478.21 388.619C1478.21 384.077 1479.21 379.898 1481.21 376.083C1485.39 368.452 1492.29 364.636 1501.92 364.636C1517.91 364.636 1529.27 375.083 1535.99 395.978H1555.34V350.191H1534.63V369.269H1532.99C1521.18 354.552 1505.74 347.193 1486.66 347.193C1472.31 347.193 1459.86 350.827 1449.32 358.095C1438.79 365.181 1433.52 374.72 1433.52 386.712ZM1558.89 485.098L1558.34 473.106C1558.34 465.475 1561.34 461.66 1567.33 461.66V454.846C1563.88 454.846 1561.25 455.028 1559.43 455.391C1557.79 455.573 1555.61 456.663 1552.89 458.662C1550.16 460.66 1547.62 463.658 1545.26 467.656C1540.9 466.929 1536.9 463.84 1533.27 458.389C1529.81 462.568 1526.18 465.203 1522.36 466.293C1517.28 458.662 1510.37 454.846 1501.65 454.846C1496.02 454.846 1490.48 457.39 1485.03 462.477L1489.12 467.656C1492.57 464.93 1496.11 463.568 1499.74 463.568C1503.38 463.568 1506.56 464.658 1509.28 466.838C1512.19 469.018 1513.92 471.562 1514.46 474.469C1515.19 477.376 1515.55 480.647 1515.55 484.28C1515.55 487.733 1515.01 491.094 1513.92 494.364C1513.01 497.635 1510.65 500.905 1506.83 504.176C1503.01 507.265 1498.02 508.809 1491.84 508.809C1481.48 508.809 1472.58 505.72 1465.13 499.543C1457.68 493.365 1453.41 484.371 1452.32 472.561H1436.24V510.989C1436.24 518.439 1435.33 522.981 1433.52 524.616C1436.97 524.071 1441.6 521.982 1447.42 518.348C1453.41 514.714 1457.14 511.534 1458.59 508.809C1461.13 510.444 1464.77 512.715 1469.49 515.622C1483.85 524.525 1496.38 528.977 1507.1 528.977C1521.64 528.977 1533.9 525.252 1543.9 517.803C1553.89 510.172 1558.89 499.27 1558.89 485.098ZM1693.04 457.299C1694.86 455.846 1696.95 453.665 1699.31 450.758H1706.4C1708.58 454.029 1710.67 456.209 1712.67 457.299C1715.94 453.302 1719.66 450.849 1723.84 449.941C1728.2 448.85 1734.83 448.305 1743.73 448.305L1757.36 464.658V484.553C1750.46 484.553 1745.91 485.825 1743.73 488.369C1741.55 490.912 1740.46 494.819 1740.46 500.088V504.448C1741.74 504.267 1742.83 503.631 1743.73 502.541L1751.09 507.446L1764.72 523.799C1763.45 532.338 1760.27 538.788 1755.18 543.149C1750.09 547.509 1743.55 549.69 1735.56 549.69C1727.56 549.69 1720.21 546.147 1713.48 539.061C1709.12 542.331 1705.67 544.693 1703.13 546.147C1700.76 547.6 1696.4 549.054 1690.04 550.507C1683.69 552.143 1674.42 552.96 1662.25 552.96C1650.07 552.96 1637.63 550.871 1624.91 546.692C1612.37 542.695 1601.74 535.609 1593.02 525.434C1584.3 515.259 1579.94 502.631 1579.94 487.551V484.553H1576.67L1563.04 468.201V448.305C1571.04 448.305 1576.67 448.578 1579.94 449.123V388.619C1579.94 367.361 1591.02 352.917 1613.19 345.286C1624.45 341.288 1636.81 339.29 1650.25 339.29C1663.7 339.29 1675.42 340.562 1685.41 343.105C1695.4 345.467 1704.58 349.192 1712.94 354.279C1721.48 359.185 1728.2 365.999 1733.11 374.72C1738.01 383.441 1740.46 393.525 1740.46 404.972V432.498H1687.59L1673.96 416.146V396.523L1673.69 392.162C1672.06 391.617 1669.69 391.345 1666.61 391.345C1653.16 391.345 1646.44 398.522 1646.44 412.875V449.395L1659.25 464.658V484.553C1656.16 484.735 1653.62 485.007 1651.62 485.371C1649.8 485.552 1647.89 486.461 1645.89 488.096C1643.89 489.731 1642.9 492.093 1642.9 495.182L1643.17 499.27C1646.07 500.36 1650.07 500.905 1655.16 500.905C1660.43 500.905 1665.06 499.452 1669.06 496.545C1673.24 493.638 1675.87 489.64 1676.96 484.553H1675.05L1661.43 468.201V448.305C1667.61 448.305 1672.15 448.396 1675.05 448.578C1683.05 449.123 1689.05 452.03 1693.04 457.299ZM1594.11 457.299C1596.29 456.027 1598.38 453.847 1600.38 450.758H1607.74C1610.1 454.029 1612.19 456.209 1614.01 457.299C1617.28 453.484 1621 451.031 1625.18 449.941V396.25C1625.18 386.802 1627.63 379.535 1632.54 374.447C1637.44 369.36 1644.35 366.816 1653.25 366.816C1662.15 366.816 1669.15 369.36 1674.24 374.447C1679.32 379.353 1681.87 386.621 1681.87 396.25V408.515H1719.21V389.164C1719.21 379.171 1715.75 370.904 1708.85 364.363C1702.13 357.822 1694.04 353.371 1684.59 351.009C1675.15 348.465 1665.43 347.193 1655.43 347.193C1645.44 347.193 1636.72 347.92 1629.27 349.374C1622 350.827 1615.1 353.098 1608.56 356.187C1602.2 359.276 1597.11 363.637 1593.29 369.269C1589.48 374.902 1587.57 381.533 1587.57 389.164V451.576C1590.11 453.029 1592.29 454.937 1594.11 457.299ZM1676.69 500.633C1670.88 506.084 1663.15 508.809 1653.52 508.809C1643.89 508.809 1636.17 506.084 1630.36 500.633C1624.73 495.182 1621.91 487.46 1621.91 477.467C1621.91 474.015 1623.18 470.563 1625.73 467.111C1628.27 463.658 1632.54 461.932 1638.53 461.932V455.391C1635.08 455.391 1632.45 455.573 1630.63 455.936C1629 456.118 1626.82 457.208 1624.09 459.207C1621.55 461.024 1619.09 463.84 1616.73 467.656C1612.19 466.747 1607.92 463.658 1603.92 458.389C1600.65 463.113 1596.65 466.202 1591.93 467.656C1589.57 463.84 1587.02 461.024 1584.3 459.207C1581.57 457.208 1579.3 456.118 1577.49 455.936C1575.85 455.573 1573.4 455.391 1570.13 455.391V461.932C1581.76 461.932 1587.57 470.381 1587.57 487.278C1587.57 497.09 1591.02 505.175 1597.93 511.534C1610.1 522.981 1628.63 528.704 1653.52 528.704C1662.25 528.704 1669.69 527.887 1675.87 526.251C1682.23 524.434 1686.59 522.708 1688.95 521.073C1691.5 519.438 1694.77 516.894 1698.77 513.442H1700.95C1704.94 517.803 1708.49 520.982 1711.57 522.981C1714.85 524.98 1718.57 525.979 1722.75 525.979C1731.65 525.979 1738.28 521.255 1742.64 511.807C1741.55 512.17 1740.01 512.352 1738.01 512.352C1732.56 512.352 1728.38 510.898 1725.47 507.991C1722.75 505.084 1721.02 501.905 1720.3 498.452C1719.75 495 1719.48 490.367 1719.48 484.553C1719.48 469.473 1725.29 461.932 1736.92 461.932V455.391C1733.65 455.391 1731.11 455.573 1729.29 455.936C1727.47 456.118 1725.2 457.208 1722.48 459.207C1719.75 461.024 1717.21 463.84 1714.85 467.656C1710.85 466.747 1706.85 463.658 1702.85 458.389C1699.58 463.113 1695.5 466.202 1690.59 467.656C1688.23 463.84 1685.68 461.024 1682.96 459.207C1680.23 457.208 1677.96 456.118 1676.14 455.936C1674.33 455.573 1671.78 455.391 1668.51 455.391V461.932C1674.51 461.932 1678.78 463.749 1681.32 467.383C1684.05 470.835 1685.41 474.197 1685.41 477.467C1685.41 487.46 1682.5 495.182 1676.69 500.633ZM1907.17 541.514C1904.81 542.604 1903.27 545.329 1902.54 549.69C1894.18 549.69 1884.92 545.329 1874.74 536.608C1869.84 532.429 1865.66 526.524 1862.21 518.893C1858.94 511.08 1857.3 502.45 1857.3 493.002V484.553H1854.03L1844.76 473.379V484.553C1837.68 484.553 1833.04 485.825 1830.86 488.369C1828.87 490.912 1827.87 495 1827.87 500.633V504.721C1829.14 504.721 1830.23 503.994 1831.14 502.541L1838.77 507.446L1852.39 523.799C1851.3 532.338 1848.22 538.788 1843.13 543.149C1838.04 547.509 1831.86 549.69 1824.6 549.69C1817.51 549.69 1810.51 547.237 1803.61 542.331C1796.71 547.237 1789.53 549.69 1782.08 549.69C1774.81 549.69 1766.45 545.329 1757.01 536.608C1747.56 527.887 1742.29 518.166 1741.2 507.446L1748.83 502.541C1749.56 504.176 1751.28 504.993 1754.01 504.993C1761.82 504.993 1765.73 498.18 1765.73 484.553H1762.46L1748.83 468.201V448.305C1756.1 448.305 1761.18 448.487 1764.09 448.85V397.341H1761.91L1748.28 380.988V342.56H1812.06L1873.11 415.328V397.341H1870.11L1856.48 380.988V342.56H1939.33L1952.96 358.913V397.341H1936.61V448.305H1939.06L1952.69 464.658V484.553C1945.6 484.553 1941.06 485.825 1939.06 488.369C1937.06 490.912 1936.06 495 1936.06 500.633V504.721C1937.34 504.357 1938.33 503.631 1939.06 502.541L1960.32 523.799C1959.23 532.338 1956.05 538.788 1950.78 543.149C1945.69 547.509 1940.42 549.69 1934.97 549.69C1929.52 549.69 1924.25 548.872 1919.17 547.237C1914.08 545.783 1910.08 543.876 1907.17 541.514ZM1779.9 457.299C1781.72 456.209 1783.9 454.029 1786.44 450.758H1793.53C1795.89 454.029 1798.07 456.209 1800.07 457.299C1802.07 454.755 1804.52 452.757 1807.43 451.303V399.248H1815.06L1854.85 448.85C1862.3 449.759 1867.93 452.575 1871.74 457.299C1873.56 456.209 1875.74 454.029 1878.29 450.758H1900.91C1903.27 454.029 1905.54 456.209 1907.72 457.299C1910.08 454.755 1912.44 452.848 1914.81 451.576V373.357H1931.7V350.191H1864.11V373.357H1880.47V430.59H1871.2L1803.61 350.191H1755.92V373.357H1772.27V451.031C1775.17 452.484 1777.72 454.574 1779.9 457.299ZM1918.89 525.161C1927.8 525.161 1933.97 520.619 1937.43 511.534C1936.34 512.261 1934.97 512.624 1933.34 512.624C1927.89 512.624 1923.62 511.171 1920.53 508.264C1917.62 505.175 1915.8 501.905 1915.08 498.452C1914.53 494.819 1914.26 490.185 1914.26 484.553C1914.26 469.291 1920.17 461.66 1931.98 461.66V454.846C1928.71 454.846 1926.16 455.028 1924.34 455.391C1922.71 455.573 1920.44 456.663 1917.53 458.662C1914.81 460.66 1912.26 463.658 1909.9 467.656C1905.54 466.747 1901.45 463.568 1897.64 458.117H1881.56C1877.74 463.204 1873.65 466.384 1869.29 467.656C1866.93 463.658 1864.39 460.66 1861.66 458.662C1858.94 456.663 1856.66 455.573 1854.85 455.391C1853.21 455.028 1850.76 454.846 1847.49 454.846V461.66C1859.12 461.66 1864.93 469.291 1864.93 484.553V491.639C1864.93 505.811 1869.56 515.895 1878.83 521.891C1880.65 522.981 1882.28 523.708 1883.74 524.071C1885.19 518.984 1888.19 516.44 1892.73 516.44C1895.82 518.984 1900.09 521.073 1905.54 522.708C1910.99 524.344 1915.44 525.161 1918.89 525.161ZM1790.8 516.713C1797.34 522.345 1804.52 525.161 1812.33 525.161C1820.33 525.161 1826.14 520.619 1829.77 511.534C1828.5 512.261 1827.05 512.624 1825.41 512.624C1812.69 512.624 1806.34 503.267 1806.34 484.553C1806.34 469.291 1812.33 461.66 1824.32 461.66V454.846C1820.87 454.846 1818.24 455.028 1816.42 455.391C1814.6 455.573 1812.33 456.663 1809.61 458.662C1806.88 460.66 1804.43 463.658 1802.25 467.656C1797.89 466.747 1793.8 463.568 1789.98 458.117C1786.17 463.022 1782.08 466.202 1777.72 467.656C1775.36 463.658 1772.81 460.66 1770.09 458.662C1767.36 456.663 1765.09 455.573 1763.27 455.391C1761.46 455.028 1758.91 454.846 1755.64 454.846V461.66C1767.63 461.66 1773.63 469.291 1773.63 484.553C1773.63 498.362 1770.72 506.992 1764.91 510.444C1762.18 511.898 1758.73 512.624 1754.55 512.624L1750.19 511.534C1753.83 520.619 1759.55 525.161 1767.36 525.161C1775.36 525.161 1782.62 522.345 1789.17 516.713H1790.8ZM1828.41 448.305H1831.14L1840.4 459.479V448.305H1844.22L1828.41 428.41V448.305Z" fill="black"/>
</svg>
