<svg width="2133" height="1003" viewBox="0 0 2133 1003" fill="none" xmlns="http://www.w3.org/2000/svg">
<path d="M255.583 398.393C255.583 391.729 255.583 384.694 255.583 375.807H214.854C216.335 362.848 217.816 351.37 219.297 339.892C220.037 334.338 224.11 333.597 228.924 334.338C234.848 335.448 240.402 337.3 246.326 338.04C251.14 338.411 256.323 337.67 261.137 337.3C262.988 337.3 265.21 336.559 266.32 337.3C281.131 346.186 298.163 342.113 313.714 345.446C331.857 349.889 350.371 352.11 367.773 357.294C393.692 365.07 402.578 380.25 399.246 406.91C397.024 424.312 390.359 440.233 382.584 455.414C358.146 503.919 326.303 547.981 292.239 590.191C282.982 601.669 274.466 613.888 265.58 625.736C261.507 631.29 257.434 636.474 252.991 642.768C246.326 635.733 247.807 629.439 249.658 623.515C254.102 610.555 256.323 598.337 251.51 584.637C248.918 577.602 249.658 569.086 250.029 561.31C251.88 506.881 253.731 452.822 255.583 398.393ZM311.863 410.242C300.385 405.428 288.907 400.985 275.207 395.802C274.466 445.787 273.726 494.292 272.985 544.648C275.947 541.686 277.428 540.946 278.169 539.835C291.128 513.546 304.458 486.887 316.676 460.228C320.749 451.341 322.601 441.714 324.082 432.088C325.933 419.869 322.971 415.055 311.863 410.242Z" fill="black"/>
<path d="M457.895 373.215C453.822 373.956 449.749 374.326 444.565 375.067C444.195 391.358 443.455 406.91 442.714 422.09C452.711 423.201 461.227 423.942 469.743 425.053C490.478 428.015 490.478 428.015 498.994 449.86C481.592 459.487 461.598 456.525 442.344 462.449C441.603 476.519 440.863 490.589 440.122 504.66C460.487 505.4 478.63 506.141 497.143 507.251C501.216 507.251 505.289 508.362 509.362 509.843C516.027 513.176 516.027 516.878 511.954 523.173C504.178 534.281 493.44 539.464 480.481 541.316C461.968 544.278 443.084 547.981 424.571 550.572C418.277 551.313 412.352 551.313 406.428 550.572C396.431 548.721 394.58 543.537 400.874 535.021C401.985 533.911 402.725 532.8 403.836 532.059C394.209 520.951 395.32 515.768 407.909 511.324C411.982 509.843 416.055 509.103 421.979 507.622C421.239 493.922 420.498 479.852 419.758 464.671C413.093 465.041 407.169 466.152 401.244 465.782C397.912 465.411 394.58 462.82 390.877 460.968C392.728 457.636 393.839 453.193 396.431 450.971C401.244 447.268 406.798 444.677 413.093 441.344C413.093 437.271 410.871 430.977 417.536 428.015C419.387 427.274 420.868 424.682 421.239 422.831C422.35 407.65 423.09 392.469 424.201 375.807C418.277 375.067 412.352 375.437 407.539 373.586C403.836 372.105 398.653 368.032 398.653 364.699C397.912 360.626 400.504 354.702 403.836 351.74C407.909 348.037 413.463 346.186 419.017 344.705C456.044 333.967 494.181 329.524 532.689 329.154C534.54 328.784 536.761 328.784 538.242 329.524C541.205 331.746 544.907 333.967 545.648 336.559C546.388 339.521 544.167 343.594 541.945 346.186C538.613 350.259 531.207 350.629 531.578 358.775C531.578 360.626 524.172 363.589 519.729 364.329C499.365 367.661 478.63 370.253 457.895 373.215Z" fill="black"/>
<path d="M559.157 398.393C559.157 391.729 559.157 384.694 559.157 375.807H518.428C519.909 362.848 521.39 351.37 522.871 339.892C523.611 334.338 527.684 333.597 532.498 334.338C538.422 335.448 543.976 337.3 549.9 338.04C554.714 338.411 559.897 337.67 564.711 337.3C566.562 337.3 568.784 336.559 569.894 337.3C584.705 346.186 601.737 342.113 617.288 345.446C635.431 349.889 653.945 352.11 671.347 357.294C697.266 365.07 706.152 380.25 702.82 406.91C700.598 424.312 693.933 440.233 686.158 455.414C661.72 503.919 629.877 547.981 595.813 590.191C586.556 601.669 578.04 613.888 569.154 625.736C565.081 631.29 561.008 636.474 556.565 642.768C549.9 635.733 551.381 629.439 553.232 623.515C557.676 610.555 559.897 598.337 555.084 584.637C552.492 577.602 553.232 569.086 553.603 561.31C555.454 506.881 557.305 452.822 559.157 398.393ZM615.437 410.242C603.959 405.428 592.481 400.985 578.781 395.802C578.04 445.787 577.3 494.292 576.559 544.648C579.521 541.686 581.002 540.946 581.743 539.835C594.702 513.546 608.032 486.887 620.25 460.228C624.323 451.341 626.175 441.714 627.656 432.088C629.507 419.869 626.545 415.055 615.437 410.242Z" fill="black"/>
<path d="M794.052 451.712C792.201 455.044 791.09 458.376 788.498 463.19C795.533 466.893 801.458 471.336 807.752 474.298C834.041 486.517 859.959 498.365 886.248 510.584C889.581 512.065 892.913 513.546 896.245 515.027C911.426 521.321 925.126 528.727 921.053 549.832C906.983 550.572 893.283 547.24 880.694 540.575C847.741 523.173 814.787 505.03 781.834 487.257C779.982 486.517 778.501 485.776 775.539 484.295C775.539 488.368 775.169 491.33 775.539 494.292C777.761 518.73 779.612 543.167 782.574 567.605C784.425 582.045 784.055 594.634 768.874 604.261C749.991 533.54 746.288 460.598 733.329 388.026C728.145 388.026 723.702 388.396 719.259 388.026C709.632 387.286 700.005 386.545 690.378 385.064C685.194 384.694 680.751 380.25 680.381 375.067C679.27 368.402 682.973 363.589 688.527 362.107C700.375 358.405 712.594 355.813 725.924 352.851C724.813 342.483 723.702 331.005 722.591 319.527L725.183 319.157C727.034 325.821 728.515 332.857 730.367 339.521H731.477V298.422L745.548 299.903C746.658 313.232 747.769 326.562 748.88 339.892C749.62 352.481 751.102 353.962 764.061 354.332C773.688 354.702 783.315 355.443 792.942 355.813C797.755 356.183 802.198 356.924 806.641 358.035C819.971 361.737 828.117 371.364 825.895 384.694C824.414 395.431 820.341 406.169 815.528 416.166C809.233 428.385 801.458 439.863 794.052 451.712ZM788.128 381.732L762.209 384.323C765.172 405.058 767.393 423.571 769.985 443.936C785.906 421.72 793.682 394.691 788.128 381.732Z" fill="black"/>
<path d="M945.228 362.848C960.779 376.178 969.665 396.172 969.665 421.35C969.665 442.085 963.371 462.449 948.56 479.482C928.195 503.178 900.055 504.66 877.839 482.814C855.994 460.968 845.256 434.679 851.55 403.577C854.883 388.026 862.658 374.696 873.396 363.959C891.909 344.335 923.382 344.335 945.228 362.848ZM918.198 436.531C927.825 423.571 927.825 413.204 917.087 403.577C907.831 418.018 907.831 428.385 918.198 436.531ZM898.204 435.42C900.055 421.72 901.907 409.872 903.758 398.023C893.39 408.761 892.28 420.609 898.204 435.42ZM924.493 395.061L935.23 407.65C933.749 395.061 933.749 395.061 924.493 395.061Z" fill="black"/>
<path d="M1019.04 454.674C1022.75 449.12 1027.19 443.566 1031.63 437.271C1023.49 424.312 1015.34 412.093 1007.19 399.504C995.717 382.102 984.238 364.699 973.131 347.297C970.168 342.854 967.576 338.411 966.095 333.597C965.355 329.894 966.095 324.711 968.317 322.489C972.02 318.416 976.833 320.638 980.536 323.97C983.868 327.673 987.571 331.746 990.533 335.448C998.679 345.816 1006.45 355.813 1015.34 365.81C1009.42 349.518 999.049 335.078 996.457 317.676C1014.23 347.667 1032 378.029 1050.52 409.501C1054.22 405.428 1056.44 402.837 1058.66 400.245C1073.47 379.88 1087.91 359.516 1103.09 339.521C1108.65 331.746 1116.05 325.081 1122.72 318.416C1124.94 316.195 1127.16 314.343 1129.75 313.973C1133.09 313.232 1137.16 313.232 1140.12 314.714C1141.23 315.454 1140.86 320.638 1140.12 323.6C1139.38 326.562 1137.53 329.524 1135.68 333.227L1141.6 338.04L1155.3 328.413C1156.04 329.894 1157.15 331.005 1157.15 331.375C1148.27 349.518 1144.19 369.513 1131.23 385.804C1115.68 405.428 1102.35 426.904 1087.54 446.898C1081.62 454.674 1080.88 460.598 1086.06 469.114C1099.76 490.96 1111.61 513.546 1124.57 535.392C1129.01 542.797 1129.75 550.202 1128.64 557.978C1127.53 566.124 1121.24 569.456 1114.57 565.013C1109.02 561.31 1104.57 556.497 1101.24 550.943C1089.76 533.54 1079.03 515.768 1067.92 497.995C1066.07 494.292 1063.48 490.96 1060.51 486.146C1053.48 496.143 1046.44 504.289 1040.89 513.916C1032.74 529.097 1019.04 538.724 1006.08 549.091C1000.16 554.275 995.346 560.57 985.719 562.051C980.536 562.421 976.093 571.307 971.279 576.121C967.576 579.823 964.244 585.377 956.098 582.045C956.469 579.083 956.839 576.121 957.209 573.159C957.579 570.937 959.431 568.345 959.06 566.494C954.987 555.756 960.171 547.24 965.355 539.094C982.757 510.954 1000.9 482.814 1019.04 454.674Z" fill="black"/>
<path d="M1139.31 542.797C1155.6 538.724 1161.89 540.575 1169.3 553.164C1167.45 557.607 1166.34 559.829 1165.23 562.791C1161.52 572.418 1158.56 582.785 1144.86 582.785C1142.27 582.785 1140.05 586.118 1138.2 587.229C1136.35 584.267 1135.6 580.194 1133.01 578.713C1124.87 573.899 1121.16 567.234 1122.65 558.348C1124.5 549.091 1130.42 545.018 1139.31 542.797Z" fill="black"/>
<path d="M1228.24 398.393C1228.24 391.729 1228.24 384.694 1228.24 375.807H1187.51C1188.99 362.848 1190.47 351.37 1191.95 339.892C1192.69 334.338 1196.76 333.597 1201.58 334.338C1207.5 335.448 1213.06 337.3 1218.98 338.04C1223.79 338.411 1228.98 337.67 1233.79 337.3C1235.64 337.3 1237.86 336.559 1238.98 337.3C1253.79 346.186 1270.82 342.113 1286.37 345.446C1304.51 349.889 1323.03 352.11 1340.43 357.294C1366.35 365.07 1375.23 380.25 1371.9 406.91C1369.68 424.312 1363.01 440.233 1355.24 455.414C1330.8 503.919 1298.96 547.981 1264.89 590.191C1255.64 601.669 1247.12 613.888 1238.23 625.736C1234.16 631.29 1230.09 636.474 1225.65 642.768C1218.98 635.733 1220.46 629.439 1222.31 623.515C1226.76 610.555 1228.98 598.337 1224.16 584.637C1221.57 577.602 1222.31 569.086 1222.68 561.31C1224.53 506.881 1226.39 452.822 1228.24 398.393ZM1284.52 410.242C1273.04 405.428 1261.56 400.985 1247.86 395.802C1247.12 445.787 1246.38 494.292 1245.64 544.648C1248.6 541.686 1250.08 540.946 1250.82 539.835C1263.78 513.546 1277.11 486.887 1289.33 460.228C1293.4 451.341 1295.26 441.714 1296.74 432.088C1298.59 419.869 1295.63 415.055 1284.52 410.242Z" fill="black"/>
<path d="M1365.75 604.261C1365.75 603.15 1365.38 602.41 1365.38 601.299L1353.9 600.558C1352.05 591.672 1357.24 586.488 1360.94 580.934C1379.82 549.091 1404.63 522.432 1429.07 495.033C1431.66 492.071 1433.88 489.479 1436.47 486.517C1436.84 485.776 1436.84 484.665 1437.21 483.184C1427.96 480.963 1418.33 479.852 1409.07 477.26C1395.37 473.187 1381.3 469.484 1368.35 463.56C1350.94 456.155 1348.35 444.306 1359.46 429.125C1365.38 420.98 1372.42 413.204 1379.82 406.539C1394.26 392.839 1409.44 379.51 1424.63 366.921C1439.44 353.962 1454.62 342.113 1469.8 329.524C1477.57 323.23 1486.09 318.046 1496.46 316.195C1500.9 322.489 1497.2 327.303 1494.24 331.746C1488.31 340.632 1481.65 349.148 1474.98 357.294C1459.8 375.067 1443.88 392.839 1428.7 410.982C1425.37 414.685 1422.4 418.758 1417.96 424.312C1430.18 427.274 1440.18 429.866 1450.54 432.458C1461.28 435.42 1472.02 437.271 1482.76 440.604C1500.16 446.528 1505.34 459.487 1496.83 475.409C1493.12 482.814 1488.31 489.849 1483.13 496.514C1460.54 526.505 1437.95 556.126 1414.63 585.748C1408.33 594.264 1400.56 601.669 1393.15 609.074C1390.19 612.036 1386.49 614.628 1382.79 616.48C1370.57 622.034 1364.64 617.59 1365.75 604.261ZM1373.53 443.936L1402.41 453.933L1383.9 432.088L1373.53 443.936Z" fill="black"/>
<path d="M1691.35 402.837C1690.98 412.464 1687.28 420.239 1675.8 426.163C1673.21 420.239 1670.99 415.426 1669.14 410.612C1665.06 400.985 1662.1 391.358 1658.03 382.102C1653.59 372.105 1645.44 367.291 1634.7 367.291C1621.37 367.291 1608.78 370.253 1598.79 379.51C1568.42 408.02 1544.36 441.714 1526.95 479.482C1520.66 492.441 1521.77 502.438 1532.14 513.176C1549.91 531.689 1567.31 550.572 1589.16 563.902C1600.27 571.307 1612.49 576.861 1625.45 580.934C1646.92 587.599 1662.47 581.304 1674.69 562.421C1680.61 552.794 1685.06 542.056 1691.35 529.838C1685.8 530.578 1682.47 530.948 1679.87 531.689C1659.14 538.354 1637.66 539.094 1616.19 537.983C1610.26 537.983 1603.6 535.392 1598.42 532.059C1595.45 530.208 1594.34 525.024 1593.23 521.321C1592.49 519.47 1594.34 516.138 1593.23 514.657C1582.86 499.846 1595.08 490.589 1601.38 480.222C1603.6 476.89 1608.78 473.928 1612.86 473.187C1648.4 466.522 1683.95 460.228 1720.6 464.301C1726.53 465.041 1732.82 465.041 1736.15 472.817C1729.86 476.89 1731.34 483.184 1732.45 489.479C1733.56 493.552 1733.56 497.995 1733.19 502.068C1730.23 532.059 1723.94 561.68 1712.09 589.45C1700.61 615.739 1682.84 625.736 1654.33 623.885C1648.77 623.515 1643.59 622.404 1638.03 621.293C1599.53 613.147 1563.61 597.966 1532.88 572.788C1523.99 565.383 1516.22 556.497 1508.81 547.981C1504.37 542.427 1499.93 536.502 1498.44 529.838C1494 510.954 1490.3 492.071 1488.08 472.817C1486.6 459.857 1494.37 448.75 1501.04 438.382C1507.33 429.125 1512.51 419.128 1518.44 409.872C1521.4 405.428 1524.73 400.615 1528.81 396.912C1538.43 388.396 1548.06 379.14 1558.8 372.105C1581.38 357.294 1604.71 342.854 1628.78 329.154C1640.26 322.859 1652.84 317.676 1665.8 313.973C1683.21 309.16 1692.83 316.935 1693.2 335.078C1693.57 343.224 1692.83 351.74 1692.83 359.886C1692.09 374.326 1692.09 388.396 1691.35 402.837ZM1672.84 332.486L1645.07 342.113L1672.84 361.737V332.486Z" fill="black"/>
<path d="M1863.33 341.002C1865.18 329.524 1867.77 327.673 1881.84 328.043C1883.33 324.711 1884.81 321.008 1886.66 317.305C1888.51 313.603 1891.47 309.9 1895.54 311.381C1898.14 312.492 1899.25 316.565 1901.1 319.897C1904.43 322.119 1910.36 324.34 1912.21 328.043C1914.43 332.116 1913.69 338.04 1912.58 342.854C1908.13 364.329 1902.21 385.434 1897.77 406.91C1888.51 453.193 1879.62 499.476 1870.74 545.389C1870 549.462 1869.26 553.535 1868.15 557.237C1866.66 562.791 1862.96 566.124 1857.04 566.124C1851.48 566.124 1848.15 563.161 1846.3 558.348C1838.52 537.983 1830.38 517.989 1822.6 497.995C1811.86 470.595 1801.13 443.196 1790.02 414.315C1788.91 417.277 1787.8 419.128 1787.43 421.35C1782.24 459.857 1777.43 498.735 1772.62 537.613C1771.88 542.797 1771.14 547.61 1770.02 552.794C1769.65 555.016 1768.91 557.607 1767.43 559.459C1764.1 563.902 1759.29 564.643 1754.84 562.051C1748.18 558.348 1736.33 564.272 1735.96 550.572C1735.96 544.648 1736.33 538.724 1736.7 532.8C1740.77 476.519 1746.7 420.609 1757.81 365.44C1758.55 361.737 1759.66 357.664 1761.14 353.962C1762.99 349.889 1766.69 347.667 1770.77 350.259C1773.73 352.11 1775.95 352.481 1779.28 351C1786.32 348.408 1792.24 351 1791.87 358.775C1791.87 375.067 1802.24 386.545 1808.53 400.245C1817.42 419.128 1825.93 438.382 1834.82 457.636C1836.67 462.079 1838.52 466.522 1841.49 473.557C1842.97 468.003 1843.71 465.411 1844.08 462.449C1850.74 422.09 1857.04 381.361 1863.33 341.002ZM1839.63 495.403C1840.75 481.703 1831.49 471.706 1827.42 459.857L1824.82 460.598L1837.41 496.514L1839.63 495.403Z" fill="black"/>
<path d="M881.817 693.694H882.59C883.053 692.225 883.672 690.834 884.058 689.365C885.45 683.568 886.764 677.693 888.078 671.818C888.387 670.504 888.774 669.19 889.315 667.953C890.165 666.098 891.479 666.021 892.871 667.644C894.262 669.19 894.185 671.045 893.875 672.9C892.871 679.007 892.02 685.114 890.706 691.143C890.01 694.544 888.696 697.868 887.382 701.038C886.609 702.893 885.45 704.671 884.136 706.139C880.734 709.772 876.328 709.154 874.164 704.748C873.236 702.815 872.695 700.728 872.386 698.641C871.304 691.143 872.463 683.8 873.855 676.456C874.087 675.219 874.396 673.982 874.705 672.746C874.937 671.663 875.246 670.581 876.56 670.504C877.72 670.427 878.261 671.354 878.493 672.282C879.034 674.524 879.652 676.765 879.961 679.084C880.425 682.795 880.734 686.582 881.121 690.37C881.276 691.452 881.585 692.534 881.817 693.694ZM880.193 702.506C880.425 702.274 880.657 701.965 880.966 701.424L878.261 699.723L877.952 699.955C878.338 700.96 878.725 701.888 879.111 702.97C879.652 702.738 879.961 702.661 880.193 702.506Z" fill="black"/>
<path d="M916.153 666.794C916.539 664.397 917.081 664.011 920.018 664.088C920.327 663.392 920.636 662.619 921.023 661.846C921.409 661.073 922.028 660.3 922.878 660.61C923.419 660.841 923.651 661.692 924.038 662.387C924.733 662.851 925.97 663.315 926.357 664.088C926.82 664.938 926.666 666.175 926.434 667.18C925.506 671.663 924.27 676.07 923.342 680.553C921.409 690.215 919.554 699.878 917.699 709.463C917.544 710.314 917.39 711.164 917.158 711.937C916.849 713.096 916.076 713.792 914.839 713.792C913.679 713.792 912.984 713.174 912.597 712.169C910.974 707.917 909.273 703.743 907.65 699.569C905.408 693.849 903.167 688.128 900.848 682.099C900.616 682.717 900.384 683.104 900.306 683.568C899.224 691.607 898.219 699.723 897.214 707.84C897.06 708.922 896.905 709.927 896.673 711.009C896.596 711.473 896.441 712.014 896.132 712.401C895.437 713.328 894.432 713.483 893.504 712.942C892.113 712.169 889.639 713.406 889.562 710.545C889.562 709.309 889.639 708.072 889.716 706.835C890.567 695.085 891.803 683.413 894.122 671.895C894.277 671.122 894.509 670.272 894.818 669.499C895.205 668.649 895.978 668.185 896.828 668.726C897.446 669.113 897.91 669.19 898.606 668.881C900.075 668.34 901.311 668.881 901.234 670.504C901.234 673.905 903.398 676.301 904.713 679.162C906.568 683.104 908.346 687.123 910.201 691.143C910.587 692.071 910.974 692.998 911.592 694.467C911.901 693.307 912.056 692.766 912.133 692.148C913.525 683.722 914.839 675.219 916.153 666.794ZM911.206 699.028C911.438 696.168 909.505 694.08 908.655 691.607L908.114 691.761L910.742 699.26L911.206 699.028Z" fill="black"/>
<path d="M917.953 715.725L917.567 714.797L921.045 712.478C920.427 711.782 919.654 711.164 919.267 710.391C918.804 709.231 919.654 708.381 920.581 707.763C921.432 707.299 922.282 706.99 923.055 706.603C923.828 694.931 924.601 683.336 925.374 671.973C925.065 671.741 924.91 671.586 924.756 671.509C923.596 671.354 922.05 671.895 921.818 669.963C921.586 668.108 922.282 666.562 923.828 665.943C927.152 664.784 930.399 663.702 933.8 662.697C935.578 662.233 935.81 662.465 937.665 664.475C938.592 664.475 939.52 664.475 940.525 664.475C940.68 664.475 940.834 664.629 940.989 664.706C941.53 666.175 940.602 666.948 939.52 667.412C937.819 668.108 936.041 668.571 934.341 669.113C933.8 669.267 933.181 669.267 932.64 669.344C930.089 669.963 930.012 670.117 929.935 672.591C929.857 679.084 929.626 685.577 929.548 692.071C929.548 693.617 930.012 695.24 930.167 696.863C930.399 699.182 930.553 701.424 930.785 703.975H934.495C933.8 704.748 933.413 705.212 932.872 705.83C933.8 706.449 935.655 706.371 934.959 708.304L937.665 708.536C937.433 708.922 937.356 709.309 937.124 709.386C934.727 710.391 932.331 711.473 929.857 712.246C925.915 713.483 921.973 714.565 917.953 715.725Z" fill="black"/>
<path d="M970.56 662.465C964.067 665.248 957.033 666.639 950.23 668.108C950.23 671.277 950.153 674.137 950.308 676.997C950.694 688.206 951.158 699.492 951.622 710.7C951.622 711.628 951.699 712.633 951.622 713.56C951.544 715.57 951.313 717.425 949.148 718.353C948.684 718.585 948.452 719.203 948.066 719.667C946.443 717.425 945.747 715.106 945.36 712.555C944.046 703.434 942.578 694.39 942.809 685.114C942.964 681.249 943.351 677.384 943.582 673.519C943.66 672.359 943.582 671.122 943.582 669.499C940.413 670.04 937.708 670.581 934.925 671.045C933.533 671.277 932.065 671.509 930.673 671.586C929.9 671.663 929.205 671.509 928.122 671.354C930.132 668.649 933.07 668.881 935.466 667.489C934.693 667.18 934.075 667.025 933.533 666.716C931.833 665.789 931.678 663.779 933.224 662.697C934.075 662.078 935.157 661.692 936.162 661.537C944.819 659.682 953.554 658.677 962.366 658.6C964.144 658.6 965.845 658.986 967.546 659.295C969.014 659.605 970.251 660.3 970.56 662.465Z" fill="black"/>
<path d="M972.385 673.519C971.534 673.673 970.684 673.751 969.602 673.905C969.525 677.306 969.37 680.553 969.215 683.722C971.302 683.954 973.08 684.109 974.858 684.341C979.187 684.959 979.187 684.959 980.965 689.52C977.332 691.53 973.158 690.911 969.138 692.148C968.983 695.085 968.829 698.023 968.674 700.96C972.926 701.115 976.713 701.269 980.578 701.501C981.429 701.501 982.279 701.733 983.129 702.042C984.521 702.738 984.521 703.511 983.67 704.825C982.047 707.144 979.805 708.226 977.1 708.613C973.235 709.231 969.293 710.004 965.428 710.545C964.114 710.7 962.877 710.7 961.64 710.545C959.553 710.159 959.166 709.077 960.48 707.299C960.712 707.067 960.867 706.835 961.099 706.68C959.089 704.361 959.321 703.279 961.949 702.352C962.799 702.042 963.65 701.888 964.887 701.579C964.732 698.719 964.577 695.781 964.423 692.612C963.031 692.689 961.795 692.921 960.558 692.844C959.862 692.766 959.166 692.225 958.393 691.839C958.78 691.143 959.012 690.215 959.553 689.752C960.558 688.979 961.717 688.438 963.031 687.742C963.031 686.892 962.568 685.577 963.959 684.959C964.345 684.804 964.655 684.263 964.732 683.877C964.964 680.708 965.118 677.538 965.35 674.06C964.114 673.905 962.877 673.982 961.872 673.596C961.099 673.287 960.017 672.436 960.017 671.741C959.862 670.89 960.403 669.654 961.099 669.035C961.949 668.262 963.109 667.876 964.268 667.567C971.998 665.325 979.96 664.397 987.999 664.32C988.386 664.243 988.85 664.243 989.159 664.397C989.777 664.861 990.55 665.325 990.705 665.866C990.859 666.484 990.396 667.335 989.932 667.876C989.236 668.726 987.69 668.803 987.767 670.504C987.767 670.89 986.221 671.509 985.294 671.663C981.042 672.359 976.713 672.9 972.385 673.519Z" fill="black"/>
<path d="M989.66 678.775C989.66 677.384 989.66 675.915 989.66 674.06H981.157C981.466 671.354 981.775 668.958 982.085 666.562C982.239 665.402 983.09 665.248 984.094 665.402C985.331 665.634 986.491 666.021 987.728 666.175C988.732 666.252 989.815 666.098 990.82 666.021C991.206 666.021 991.67 665.866 991.902 666.021C994.994 667.876 998.55 667.025 1001.8 667.721C1005.58 668.649 1009.45 669.113 1013.08 670.195C1018.49 671.818 1020.35 674.987 1019.65 680.553C1019.19 684.186 1017.8 687.51 1016.17 690.679C1011.07 700.806 1004.42 710.004 997.313 718.817C995.38 721.213 993.602 723.764 991.747 726.237C990.897 727.397 990.047 728.479 989.119 729.793C987.728 728.324 988.037 727.01 988.423 725.774C989.351 723.068 989.815 720.517 988.81 717.657C988.269 716.188 988.423 714.41 988.501 712.787C988.887 701.424 989.274 690.138 989.66 678.775ZM1001.41 681.249C999.013 680.244 996.617 679.316 993.757 678.234C993.602 688.669 993.448 698.796 993.293 709.309C993.912 708.69 994.221 708.536 994.375 708.304C997.081 702.815 999.864 697.25 1002.41 691.684C1003.26 689.829 1003.65 687.819 1003.96 685.809C1004.35 683.258 1003.73 682.254 1001.41 681.249Z" fill="black"/>
<path d="M1060.19 659.141C1060.96 658.909 1061.66 658.445 1062.43 658.059C1064.36 658.6 1065.6 659.991 1066.06 661.846C1066.91 664.784 1067.53 667.798 1068.46 671.432C1065.52 669.344 1063.2 670.272 1061.27 671.741C1057.41 674.833 1053.77 678.157 1050.22 681.249C1053.31 686.969 1056.25 692.457 1059.26 697.945C1060.5 700.11 1062.12 702.12 1063.43 704.207C1065.21 706.835 1065.14 707.453 1063.05 709.85C1063.28 710.855 1063.59 711.937 1063.98 713.56C1063.2 713.019 1062.74 712.864 1062.51 712.555C1061.04 710.855 1060.03 708.999 1057.64 708.226C1056.4 707.84 1055.55 706.062 1054.62 704.748C1051.14 699.723 1047.59 694.544 1044.11 689.52C1043.8 689.133 1043.49 688.824 1042.64 688.669C1043.18 694.39 1043.65 700.11 1044.03 705.598C1045.11 706.449 1046.27 706.912 1046.58 707.763C1046.97 708.613 1046.51 709.772 1046.51 710.545L1035.84 714.952C1035.3 713.328 1036.22 712.633 1036.84 711.86C1038.16 710.545 1040.09 709.541 1040.63 707.995C1041.09 706.603 1039.94 704.748 1039.7 703.047C1039.24 699.414 1038.93 695.704 1038.47 691.916C1037 691.452 1035.68 690.834 1035.92 688.979C1035.92 688.747 1035.3 688.438 1034.99 688.128C1033.52 687.046 1033.52 686.428 1034.99 685.268C1035.76 684.727 1036.53 684.186 1037.38 683.645C1037.46 678.079 1035.53 672.668 1037.38 666.948C1036.22 667.257 1034.99 667.953 1034.68 667.644C1033.83 666.871 1033.44 665.634 1032.75 664.397L1038.31 661.692C1039.7 662.001 1041.71 662.465 1042.18 664.629C1042.33 665.402 1041.33 666.407 1040.55 667.798C1041.02 670.349 1041.64 673.519 1042.25 676.997C1042.8 676.611 1043.26 676.224 1043.72 675.76C1046.82 672.359 1049.91 668.881 1053 665.402C1053.62 664.629 1054.24 663.933 1054.78 663.083C1056.01 661.073 1057.95 659.914 1060.19 659.141Z" fill="black"/>
<path d="M1061.42 715.725L1061.03 714.797L1064.51 712.478C1063.89 711.782 1063.12 711.164 1062.73 710.391C1062.27 709.231 1063.12 708.381 1064.05 707.763C1064.9 707.299 1065.75 706.99 1066.52 706.603C1067.29 694.931 1068.07 683.336 1068.84 671.973C1068.53 671.741 1068.37 671.586 1068.22 671.509C1067.06 671.354 1065.51 671.895 1065.28 669.963C1065.05 668.108 1065.75 666.562 1067.29 665.943C1070.62 664.784 1073.86 663.702 1077.26 662.697C1079.04 662.233 1079.27 662.465 1081.13 664.475C1082.06 664.475 1082.98 664.475 1083.99 664.475C1084.14 664.475 1084.3 664.629 1084.45 664.706C1084.99 666.175 1084.07 666.948 1082.98 667.412C1081.28 668.108 1079.51 668.571 1077.81 669.113C1077.26 669.267 1076.65 669.267 1076.1 669.344C1073.55 669.963 1073.48 670.117 1073.4 672.591C1073.32 679.084 1073.09 685.577 1073.01 692.071C1073.01 693.617 1073.48 695.24 1073.63 696.863C1073.86 699.182 1074.02 701.424 1074.25 703.975H1077.96C1077.26 704.748 1076.88 705.212 1076.34 705.83C1077.26 706.449 1079.12 706.371 1078.42 708.304L1081.13 708.536C1080.9 708.922 1080.82 709.309 1080.59 709.386C1078.19 710.391 1075.8 711.473 1073.32 712.246C1069.38 713.483 1065.44 714.565 1061.42 715.725Z" fill="black"/>
<path d="M1104.17 666.794C1104.55 664.397 1105.1 664.011 1108.03 664.088C1108.34 663.392 1108.65 662.619 1109.04 661.846C1109.42 661.073 1110.04 660.3 1110.89 660.61C1111.43 660.841 1111.67 661.692 1112.05 662.387C1112.75 662.851 1113.98 663.315 1114.37 664.088C1114.84 664.938 1114.68 666.175 1114.45 667.18C1113.52 671.663 1112.28 676.07 1111.36 680.553C1109.42 690.215 1107.57 699.878 1105.71 709.463C1105.56 710.314 1105.4 711.164 1105.17 711.937C1104.86 713.096 1104.09 713.792 1102.85 713.792C1101.69 713.792 1101 713.174 1100.61 712.169C1098.99 707.917 1097.29 703.743 1095.66 699.569C1093.42 693.849 1091.18 688.128 1088.86 682.099C1088.63 682.717 1088.4 683.104 1088.32 683.568C1087.24 691.607 1086.23 699.723 1085.23 707.84C1085.07 708.922 1084.92 709.927 1084.69 711.009C1084.61 711.473 1084.46 712.014 1084.15 712.401C1083.45 713.328 1082.45 713.483 1081.52 712.942C1080.13 712.169 1077.65 713.406 1077.58 710.545C1077.58 709.309 1077.65 708.072 1077.73 706.835C1078.58 695.085 1079.82 683.413 1082.14 671.895C1082.29 671.122 1082.52 670.272 1082.83 669.499C1083.22 668.649 1083.99 668.185 1084.84 668.726C1085.46 669.113 1085.92 669.19 1086.62 668.881C1088.09 668.34 1089.33 668.881 1089.25 670.504C1089.25 673.905 1091.41 676.301 1092.73 679.162C1094.58 683.104 1096.36 687.123 1098.22 691.143C1098.6 692.071 1098.99 692.998 1099.61 694.467C1099.92 693.307 1100.07 692.766 1100.15 692.148C1101.54 683.722 1102.85 675.219 1104.17 666.794ZM1099.22 699.028C1099.45 696.168 1097.52 694.08 1096.67 691.607L1096.13 691.761L1098.76 699.26L1099.22 699.028Z" fill="black"/>
<path d="M1147.48 679.703C1147.4 681.712 1146.63 683.336 1144.23 684.573C1143.69 683.336 1143.23 682.331 1142.84 681.326C1141.99 679.316 1141.37 677.306 1140.52 675.374C1139.59 673.287 1137.89 672.282 1135.65 672.282C1132.87 672.282 1130.24 672.9 1128.15 674.833C1121.81 680.785 1116.79 687.819 1113.16 695.704C1111.84 698.409 1112.07 700.496 1114.24 702.738C1117.95 706.603 1121.58 710.545 1126.14 713.328C1128.46 714.874 1131.01 716.034 1133.72 716.884C1138.2 718.275 1141.45 716.961 1144 713.019C1145.24 711.009 1146.16 708.768 1147.48 706.217C1146.32 706.371 1145.62 706.449 1145.08 706.603C1140.75 707.995 1136.27 708.149 1131.79 707.917C1130.55 707.917 1129.16 707.376 1128.08 706.68C1127.46 706.294 1127.23 705.212 1126.99 704.439C1126.84 704.052 1127.23 703.357 1126.99 703.047C1124.83 699.955 1127.38 698.023 1128.69 695.858C1129.16 695.163 1130.24 694.544 1131.09 694.39C1138.51 692.998 1145.93 691.684 1153.58 692.534C1154.82 692.689 1156.14 692.689 1156.83 694.312C1155.52 695.163 1155.83 696.477 1156.06 697.791C1156.29 698.641 1156.29 699.569 1156.21 700.419C1155.59 706.68 1154.28 712.864 1151.81 718.662C1149.41 724.15 1145.7 726.237 1139.75 725.851C1138.59 725.774 1137.51 725.542 1136.35 725.31C1128.31 723.609 1120.81 720.44 1114.39 715.183C1112.54 713.637 1110.92 711.782 1109.37 710.004C1108.44 708.845 1107.51 707.608 1107.2 706.217C1106.28 702.274 1105.5 698.332 1105.04 694.312C1104.73 691.607 1106.35 689.288 1107.75 687.123C1109.06 685.191 1110.14 683.104 1111.38 681.171C1112 680.244 1112.69 679.239 1113.54 678.466C1115.55 676.688 1117.56 674.755 1119.8 673.287C1124.52 670.195 1129.39 667.18 1134.41 664.32C1136.81 663.006 1139.44 661.924 1142.14 661.151C1145.78 660.146 1147.79 661.769 1147.86 665.557C1147.94 667.257 1147.79 669.035 1147.79 670.736C1147.63 673.751 1147.63 676.688 1147.48 679.703ZM1143.61 665.016L1137.82 667.025L1143.61 671.122V665.016Z" fill="black"/>
<path d="M1156.83 678.775C1156.83 677.384 1156.83 675.915 1156.83 674.06H1148.32C1148.63 671.354 1148.94 668.958 1149.25 666.562C1149.41 665.402 1150.26 665.248 1151.26 665.402C1152.5 665.634 1153.66 666.021 1154.9 666.175C1155.9 666.252 1156.98 666.098 1157.99 666.021C1158.37 666.021 1158.84 665.866 1159.07 666.021C1162.16 667.876 1165.72 667.025 1168.96 667.721C1172.75 668.649 1176.62 669.113 1180.25 670.195C1185.66 671.818 1187.52 674.987 1186.82 680.553C1186.36 684.186 1184.97 687.51 1183.34 690.679C1178.24 700.806 1171.59 710.004 1164.48 718.817C1162.55 721.213 1160.77 723.764 1158.91 726.237C1158.06 727.397 1157.21 728.479 1156.29 729.793C1154.9 728.324 1155.2 727.01 1155.59 725.774C1156.52 723.068 1156.98 720.517 1155.98 717.657C1155.44 716.188 1155.59 714.41 1155.67 712.787C1156.05 701.424 1156.44 690.138 1156.83 678.775ZM1168.58 681.249C1166.18 680.244 1163.78 679.316 1160.92 678.234C1160.77 688.669 1160.62 698.796 1160.46 709.309C1161.08 708.69 1161.39 708.536 1161.54 708.304C1164.25 702.815 1167.03 697.25 1169.58 691.684C1170.43 689.829 1170.82 687.819 1171.13 685.809C1171.51 683.258 1170.9 682.254 1168.58 681.249Z" fill="black"/>
<path d="M1201.38 671.354C1204.63 674.137 1206.49 678.311 1206.49 683.568C1206.49 687.896 1205.17 692.148 1202.08 695.704C1197.83 700.651 1191.95 700.96 1187.31 696.399C1182.75 691.839 1180.51 686.35 1181.83 679.857C1182.52 676.611 1184.15 673.828 1186.39 671.586C1190.25 667.489 1196.82 667.489 1201.38 671.354ZM1195.74 686.737C1197.75 684.031 1197.75 681.867 1195.51 679.857C1193.58 682.872 1193.58 685.036 1195.74 686.737ZM1191.57 686.505C1191.95 683.645 1192.34 681.171 1192.73 678.698C1190.56 680.939 1190.33 683.413 1191.57 686.505ZM1197.05 678.079L1199.3 680.708C1198.99 678.079 1198.99 678.079 1197.05 678.079Z" fill="black"/>
<path d="M1224.88 696.941H1225.42C1225.96 695.858 1226.58 694.776 1227.12 693.617C1230.45 685.655 1233.69 677.693 1237.02 669.731C1237.56 668.494 1238.02 667.257 1238.56 666.021C1239.34 664.629 1240.42 663.779 1242.04 663.779C1243.9 663.856 1244.9 665.016 1245.44 666.562C1245.91 667.721 1246.22 668.958 1246.37 670.195C1248.15 683.027 1249.93 695.936 1251.55 708.768C1251.86 711.628 1251.63 714.565 1251.7 717.502C1251.78 720.285 1250.24 722.372 1248.61 724.769C1245.91 722.759 1246.45 719.435 1245.06 716.729L1205.87 718.662L1203.86 721.599C1202 720.131 1202.85 718.353 1202.54 716.652C1201 716.575 1200.3 715.493 1200.3 714.024C1200.3 711.241 1200.14 708.381 1200.61 705.598C1202.46 693.23 1205.09 681.094 1210.27 669.576C1211.35 667.18 1211.89 666.948 1214.75 667.567C1215.22 667.644 1215.84 667.489 1216.38 667.412C1218.77 666.948 1220.17 667.489 1221.02 669.731C1221.71 671.818 1222.25 673.982 1222.56 676.224C1223.26 681.867 1223.72 687.587 1224.34 693.23C1224.42 694.467 1224.65 695.704 1224.88 696.941ZM1216.76 681.017C1213.98 691.375 1211.12 701.811 1208.26 712.478C1209.03 712.401 1209.73 712.401 1210.35 712.401C1216.92 712.323 1223.57 712.246 1230.14 712.169C1234.08 712.169 1238.1 712.014 1242.04 711.937C1242.66 711.86 1243.28 711.628 1243.97 711.396C1243.51 708.999 1243.12 706.68 1242.74 704.439C1242.2 706.139 1242.27 707.84 1242.2 709.541C1242.12 710.004 1241.66 710.468 1241.42 711.009C1240.88 710.7 1240.26 710.468 1239.88 710.004C1239.57 709.695 1239.41 709.154 1239.34 708.69C1238.56 704.825 1237.79 700.883 1237.17 697.018C1236.71 694.39 1236.63 691.761 1236.4 689.133C1235.63 689.752 1235.24 690.525 1234.85 691.22C1233.07 694.853 1231.37 698.409 1229.6 701.965C1228.98 703.125 1228.2 704.284 1227.35 705.366C1225.04 707.995 1221.87 707.453 1220.4 704.207C1220.01 703.357 1219.7 702.429 1219.55 701.424C1219.01 697.327 1218.39 693.23 1217.92 689.056C1217.54 686.35 1217.38 683.645 1217.15 680.939L1216.76 681.017ZM1240.57 681.326L1241.11 678.079L1240.34 677.925L1240.11 681.326H1240.57Z" fill="black"/>
</svg>
