<svg width="2133" height="1003" viewBox="0 0 2133 1003" fill="none" xmlns="http://www.w3.org/2000/svg">
<path d="M348.443 498.515V538.305H351.986L365.613 554.658V574.553C358.345 574.553 353.712 576.007 351.713 578.914C349.715 581.821 348.715 586.817 348.715 593.903C348.715 624.428 324.187 639.69 275.13 639.69C261.866 639.69 252.146 638.872 245.968 637.237C239.791 635.602 234.067 632.876 228.798 629.061C222.076 636.147 214.626 639.69 206.45 639.69C195.73 639.69 186.282 635.147 178.106 626.063C170.112 616.978 165.388 607.439 163.934 597.446L171.293 592.541C172.383 593.994 174.382 594.721 177.289 594.721C180.196 594.721 182.558 593.631 184.375 591.45C186.192 589.088 187.282 586.726 187.645 584.364C188.008 581.821 188.19 578.55 188.19 574.553H184.92L171.293 558.201V538.305C179.287 538.305 184.92 538.578 188.19 539.123V487.341H186.01L172.383 470.988V432.56H266.136C287.939 432.56 306.744 437.466 322.552 447.277C330.546 452.365 336.815 459.36 341.357 468.263C346.081 476.984 348.443 487.068 348.443 498.515ZM301.021 547.299C302.838 545.846 304.928 543.665 307.29 540.758H314.648C316.647 544.029 318.736 546.209 320.916 547.299C322.733 544.937 324.823 543.12 327.185 541.848V482.435C327.185 467.9 321.371 457.271 309.742 450.548C298.114 443.644 283.579 440.191 266.136 440.191H180.014V463.357H196.366V542.121C198.183 543.029 200.182 544.755 202.362 547.299C203.816 546.391 205.905 544.21 208.631 540.758H215.717C218.079 544.029 220.168 546.209 221.985 547.299C224.71 544.029 227.799 541.757 231.251 540.486V463.357H261.231C270.315 463.357 277.583 465.719 283.034 470.443C288.484 475.167 291.21 481.981 291.21 490.884V540.213C295.025 541.667 298.296 544.029 301.021 547.299ZM293.118 567.467C293.118 586.181 282.489 595.538 261.231 595.538C240.154 595.538 229.616 586.181 229.616 567.467C229.616 564.197 230.888 560.835 233.432 557.383C236.157 553.749 240.518 551.932 246.513 551.932V545.391C243.243 545.391 240.699 545.573 238.882 545.936C237.065 546.118 234.794 547.208 232.069 549.207C229.343 551.024 226.8 553.84 224.438 557.656C220.077 556.747 215.989 553.658 212.174 548.389C208.54 553.113 204.542 556.202 200.182 557.656C197.82 553.84 195.276 551.024 192.551 549.207C189.825 547.208 187.554 546.118 185.737 545.936C183.92 545.573 181.377 545.391 178.106 545.391V551.932C189.735 551.932 195.549 559.473 195.549 574.553C195.549 580.367 195.185 585 194.459 588.452C193.913 591.905 192.187 595.084 189.28 597.991C186.555 600.898 182.467 602.352 177.016 602.352L172.383 601.807C176.744 611.255 183.375 615.979 192.278 615.979C196.457 615.979 200.091 614.98 203.18 612.981C206.45 610.982 210.084 607.803 214.081 603.442H216.262C221.167 607.803 226.618 610.891 232.614 612.708C238.792 614.525 248.421 615.434 261.503 615.434C305.473 615.434 327.457 602.715 327.457 577.278C327.457 560.381 333.272 551.932 344.9 551.932V545.391C341.629 545.391 339.086 545.573 337.269 545.936C335.634 546.118 333.453 547.208 330.728 549.207C328.002 551.024 325.459 553.84 323.097 557.656C318.918 556.747 314.921 553.658 311.105 548.389C307.471 553.113 303.201 556.202 298.296 557.656C295.934 553.84 293.39 551.024 290.665 549.207C288.121 547.208 285.941 546.118 284.124 545.936C282.489 545.573 279.945 545.391 276.493 545.391V551.932C282.489 551.932 286.758 553.658 289.302 557.111C291.846 560.563 293.118 564.015 293.118 567.467ZM269.407 538.305C276.129 538.305 280.853 538.487 283.579 538.85V491.974L283.306 488.431C281.126 487.704 278.31 487.341 274.857 487.341H252.509V538.305H253.599L267.226 554.658V574.553C256.507 574.916 251.147 578.459 251.147 585.182V586.545C254.054 587.271 257.506 587.635 261.503 587.635C274.767 587.635 282.579 583.274 284.941 574.553H283.034L269.407 558.201V538.305ZM503.162 619.794C503.162 626.154 504.797 630.333 508.068 632.331L503.162 639.69C498.438 639.69 493.441 638.509 488.172 636.147C483.085 633.785 479.088 631.241 476.18 628.516C473.092 631.241 467.823 633.785 460.373 636.147C453.106 638.509 446.201 639.69 439.66 639.69C426.397 639.69 415.586 636.147 407.228 629.061C399.779 636.147 391.239 639.69 381.61 639.69C372.162 639.69 363.349 635.057 355.173 625.79C347.179 616.706 342.546 607.258 341.274 597.446L348.905 592.541C349.813 593.994 351.63 594.721 354.356 594.721C361.623 594.721 365.257 587.998 365.257 574.553H362.532L348.905 558.201V538.305C356.536 538.305 361.896 538.578 364.985 539.123V487.341H357.354L343.727 470.988V432.56H490.08L503.707 448.913V515.412H472.092L458.465 499.06V487.341H429.304V503.148H448.654L462.281 519.5V551.115H441.841L444.839 554.658V574.553C441.931 574.735 439.569 575.007 437.753 575.371C435.936 575.552 434.028 576.461 432.029 578.096C430.031 579.731 429.031 582.093 429.031 585.182V586.272C431.575 587.181 435.209 587.635 439.933 587.635C444.657 587.635 449.108 586.181 453.287 583.274C457.466 580.367 459.556 576.279 459.556 571.01C459.556 570.102 459.011 567.467 457.92 563.106V554.385H489.535L503.162 570.737V619.794ZM379.974 547.299C381.791 546.209 383.972 544.029 386.515 540.758H393.874C396.236 544.029 398.325 546.209 400.142 547.299C402.141 544.755 404.594 542.757 407.501 541.303V527.131H441.023V510.779H407.501V463.357H466.097V491.429H482.449V440.191H351.358V463.357H373.161V541.576C375.523 542.848 377.794 544.755 379.974 547.299ZM466.914 572.1C466.914 579.368 464.098 585.091 458.465 589.27C453.015 593.449 446.292 595.538 438.298 595.538C430.303 595.538 423.126 593.267 416.767 588.725C410.59 584.001 407.501 576.915 407.501 567.467C407.501 564.197 408.773 560.835 411.316 557.383C414.042 553.749 418.311 551.932 424.126 551.932V545.391C420.855 545.391 418.311 545.573 416.495 545.936C414.859 546.118 412.679 547.208 409.954 549.207C407.228 551.024 404.775 553.84 402.595 557.656C398.234 556.747 394.056 553.658 390.058 548.389C386.788 553.113 382.7 556.202 377.794 557.656C375.432 553.84 372.888 551.024 370.163 549.207C367.438 547.208 365.166 546.118 363.349 545.936C361.714 545.573 359.261 545.391 355.991 545.391V551.932C362.168 551.932 366.62 554.113 369.345 558.473C372.252 562.652 373.706 568.557 373.706 576.188C373.706 583.819 372.434 590.088 369.89 594.993C367.528 599.899 362.441 602.352 354.628 602.352L350.813 601.807C354.083 611.073 359.806 615.706 367.983 615.706C376.159 615.706 384.153 611.618 391.966 603.442H394.419L395.509 604.532C404.23 611.8 414.768 615.434 427.124 615.434C439.66 615.434 451.47 611.164 462.554 602.624C464.189 604.26 467.55 606.622 472.637 609.71C477.725 612.618 481.722 614.344 484.629 614.889C482.994 613.072 482.176 608.348 482.176 600.717V562.561H465.551C466.46 565.65 466.914 568.83 466.914 572.1ZM669.751 498.515V538.305H673.294L686.921 554.658V574.553C679.653 574.553 675.02 576.007 673.022 578.914C671.023 581.821 670.024 586.817 670.024 593.903C670.024 624.428 645.495 639.69 596.438 639.69C583.175 639.69 573.454 638.872 567.277 637.237C561.099 635.602 555.376 632.876 550.107 629.061C543.384 636.147 535.935 639.69 527.758 639.69C517.039 639.69 507.591 635.147 499.414 626.063C491.42 616.978 486.696 607.439 485.242 597.446L492.601 592.541C493.691 593.994 495.69 594.721 498.597 594.721C501.504 594.721 503.866 593.631 505.683 591.45C507.5 589.088 508.59 586.726 508.953 584.364C509.317 581.821 509.498 578.55 509.498 574.553H506.228L492.601 558.201V538.305C500.595 538.305 506.228 538.578 509.498 539.123V487.341H507.318L493.691 470.988V432.56H587.444C609.248 432.56 628.053 437.466 643.86 447.277C651.854 452.365 658.123 459.36 662.665 468.263C667.389 476.984 669.751 487.068 669.751 498.515ZM622.329 547.299C624.146 545.846 626.236 543.665 628.598 540.758H635.956C637.955 544.029 640.044 546.209 642.225 547.299C644.042 544.937 646.131 543.12 648.493 541.848V482.435C648.493 467.9 642.679 457.271 631.051 450.548C619.422 443.644 604.887 440.191 587.444 440.191H501.322V463.357H517.675V542.121C519.491 543.029 521.49 544.755 523.67 547.299C525.124 546.391 527.213 544.21 529.939 540.758H537.025C539.387 544.029 541.476 546.209 543.293 547.299C546.019 544.029 549.107 541.757 552.559 540.486V463.357H582.539C591.623 463.357 598.891 465.719 604.342 470.443C609.793 475.167 612.518 481.981 612.518 490.884V540.213C616.334 541.667 619.604 544.029 622.329 547.299ZM614.426 567.467C614.426 586.181 603.797 595.538 582.539 595.538C561.462 595.538 550.924 586.181 550.924 567.467C550.924 564.197 552.196 560.835 554.74 557.383C557.465 553.749 561.826 551.932 567.822 551.932V545.391C564.551 545.391 562.007 545.573 560.191 545.936C558.374 546.118 556.102 547.208 553.377 549.207C550.652 551.024 548.108 553.84 545.746 557.656C541.385 556.747 537.297 553.658 533.482 548.389C529.848 553.113 525.851 556.202 521.49 557.656C519.128 553.84 516.584 551.024 513.859 549.207C511.134 547.208 508.862 546.118 507.046 545.936C505.229 545.573 502.685 545.391 499.414 545.391V551.932C511.043 551.932 516.857 559.473 516.857 574.553C516.857 580.367 516.494 585 515.767 588.452C515.222 591.905 513.496 595.084 510.589 597.991C507.863 600.898 503.775 602.352 498.324 602.352L493.691 601.807C498.052 611.255 504.683 615.979 513.586 615.979C517.765 615.979 521.399 614.98 524.488 612.981C527.758 610.982 531.392 607.803 535.39 603.442H537.57C542.476 607.803 547.926 610.891 553.922 612.708C560.1 614.525 569.729 615.434 582.811 615.434C626.781 615.434 648.766 602.715 648.766 577.278C648.766 560.381 654.58 551.932 666.208 551.932V545.391C662.938 545.391 660.394 545.573 658.577 545.936C656.942 546.118 654.761 547.208 652.036 549.207C649.311 551.024 646.767 553.84 644.405 557.656C640.226 556.747 636.229 553.658 632.413 548.389C628.779 553.113 624.51 556.202 619.604 557.656C617.242 553.84 614.698 551.024 611.973 549.207C609.429 547.208 607.249 546.118 605.432 545.936C603.797 545.573 601.253 545.391 597.801 545.391V551.932C603.797 551.932 608.067 553.658 610.61 557.111C613.154 560.563 614.426 564.015 614.426 567.467ZM590.715 538.305C597.437 538.305 602.161 538.487 604.887 538.85V491.974L604.614 488.431C602.434 487.704 599.618 487.341 596.166 487.341H573.817V538.305H574.908L588.535 554.658V574.553C577.815 574.916 572.455 578.459 572.455 585.182V586.545C575.362 587.271 578.814 587.635 582.811 587.635C596.075 587.635 603.888 583.274 606.25 574.553H604.342L590.715 558.201V538.305ZM770.78 574.553H767.509C760.423 574.553 755.881 575.825 753.883 578.369C752.066 580.912 751.157 585 751.157 590.633V594.721C752.247 594.176 753.156 593.449 753.883 592.541L775.141 613.799C774.05 622.338 770.962 628.788 765.874 633.149C760.787 637.509 754.791 639.69 747.887 639.69C740.982 639.69 733.896 637.237 726.629 632.331C719.361 637.237 712.275 639.69 705.371 639.69C695.559 639.69 686.565 635.057 678.389 625.79C670.213 616.706 665.489 607.258 664.217 597.446L671.848 592.541C672.757 594.176 674.755 594.993 677.844 594.993C680.933 594.993 683.295 593.812 684.93 591.45C686.747 588.907 687.746 586.454 687.928 584.092C688.292 581.73 688.473 578.55 688.473 574.553H685.475L671.848 558.201V538.305C679.298 538.305 684.567 538.578 687.656 539.123V487.341H680.025L666.398 470.988V432.56H764.239C789.131 432.56 808.663 439.737 822.835 454.091C837.007 468.445 844.093 486.705 844.093 508.871C844.093 531.038 837.188 547.481 823.38 558.201C829.376 567.467 832.374 578.369 832.374 590.905V594.721C833.645 594.176 834.645 593.449 835.372 592.541L842.73 597.446L856.357 613.799C855.449 622.883 852.087 629.424 846.273 633.421C840.459 637.6 831.374 639.69 819.019 639.69C806.664 639.69 795.49 634.33 785.497 623.61C775.686 613.072 770.78 599.536 770.78 583.002V574.553ZM785.497 547.299C787.677 546.027 789.948 543.847 792.31 540.758C794.127 540.758 795.399 540.849 796.126 541.031C813.568 533.036 822.29 516.411 822.29 491.156C822.29 482.253 820.745 474.622 817.657 468.263C814.749 461.722 811.206 456.725 807.028 453.273C803.03 449.639 797.125 446.551 789.313 444.007C781.681 441.463 772.688 440.191 762.331 440.191H674.029V463.357H695.832V541.303C698.557 542.757 700.919 544.755 702.918 547.299C704.735 546.209 706.915 544.029 709.459 540.758H716.545C718.907 544.029 721.178 546.209 723.358 547.299C727.355 542.03 733.079 539.123 740.528 538.578C743.253 538.396 748.432 538.305 756.063 538.305C763.694 538.305 769.69 538.85 774.05 539.941C778.411 540.849 782.227 543.302 785.497 547.299ZM747.069 544.846C743.799 544.846 741.255 545.028 739.438 545.391C737.803 545.573 735.622 546.663 732.897 548.662C730.172 550.66 727.719 553.658 725.538 557.656C720.996 556.747 716.817 553.568 713.002 548.117C709.186 553.022 705.007 556.202 700.465 557.656C698.285 553.658 695.832 550.66 693.106 548.662C690.381 546.663 688.11 545.573 686.293 545.391C684.658 545.028 682.296 544.846 679.207 544.846V551.66C690.835 551.66 696.649 559.291 696.649 574.553C696.649 580.185 696.286 584.819 695.559 588.452C695.014 591.905 693.288 595.175 690.381 598.264C687.474 601.171 683.295 602.624 677.844 602.624L673.756 601.534C677.39 610.619 683.113 615.161 690.926 615.161C698.739 615.161 705.825 612.345 712.184 606.713H713.819C720.179 612.345 727.174 615.161 734.805 615.161C742.618 615.161 748.523 610.619 752.52 601.534C751.611 602.261 749.613 602.624 746.524 602.624C743.435 602.624 740.528 601.898 737.803 600.444C735.259 598.809 733.442 596.538 732.352 593.631C730.535 588.725 729.627 582.366 729.627 574.553C729.627 559.291 735.441 551.66 747.069 551.66H761.241C773.051 551.66 778.956 559.291 778.956 574.553V581.639C778.956 603.987 788.404 615.161 807.3 615.161C816.93 615.161 823.652 613.526 827.468 610.256C831.102 607.348 833.191 604.441 833.736 601.534C832.646 602.261 831.283 602.624 829.648 602.624C822.199 602.624 817.293 600.081 814.931 594.993C812.569 589.906 811.388 582.729 811.388 573.463C811.388 560.018 806.028 551.569 795.308 548.117C791.856 553.022 787.859 556.202 783.317 557.656C780.955 553.658 778.411 550.66 775.686 548.662C772.96 546.663 770.689 545.573 768.872 545.391C767.055 545.028 764.512 544.846 761.241 544.846H747.069ZM730.717 463.357H747.887C773.869 463.357 786.86 473.441 786.86 493.609C786.86 504.329 783.68 513.141 777.321 520.045C771.143 526.95 761.423 530.402 748.159 530.402H730.717V463.357ZM760.696 487.068H751.975V522.498C770.144 521.045 779.229 511.415 779.229 493.609L778.956 489.521C775.504 487.886 769.417 487.068 760.696 487.068ZM934.361 642.96C908.197 642.96 886.757 636.692 870.041 624.155C853.326 611.8 844.968 596.265 844.968 577.551V574.553H842.242L828.616 558.201V538.305C836.61 538.305 842.152 538.578 845.24 539.123V478.619C845.24 469.171 847.512 461.086 852.054 454.363C856.778 447.459 863.046 442.281 870.859 438.829C885.213 432.469 901.838 429.29 920.734 429.29C947.261 429.29 968.7 435.377 985.053 447.55C1001.59 459.542 1009.85 475.349 1009.85 494.972V538.305H1012.85L1026.48 554.658V574.553C1019.57 574.553 1015.12 575.825 1013.12 578.369C1011.13 580.912 1010.13 584.909 1010.13 590.36V593.903C1010.13 603.351 1007.76 611.437 1003.04 618.159C998.498 624.882 992.23 629.969 984.235 633.421C969.7 639.781 953.075 642.96 934.361 642.96ZM859.412 547.299C861.593 546.027 863.864 543.847 866.226 540.758H873.039C875.401 544.029 877.582 546.209 879.58 547.299C882.851 543.484 886.575 541.031 890.754 539.941V486.25C890.754 476.984 893.571 469.807 899.203 464.72C904.836 459.451 912.103 456.816 921.006 456.816C929.909 456.816 937.086 459.36 942.537 464.447C947.987 469.535 950.713 476.802 950.713 486.25V539.941C954.892 541.031 958.616 543.484 961.887 547.299C963.704 546.209 965.884 544.029 968.428 540.758H975.241C977.603 544.029 979.875 546.209 982.055 547.299C983.872 544.937 985.961 543.12 988.323 541.848V479.164C988.323 471.533 986.325 464.902 982.327 459.269C978.33 453.637 972.97 449.276 966.248 446.187C959.525 443.098 952.348 440.827 944.717 439.374C937.086 437.92 929.091 437.193 920.734 437.193C912.376 437.193 904.381 437.92 896.75 439.374C889.301 440.827 882.124 443.098 875.22 446.187C868.497 449.276 863.137 453.637 859.14 459.269C855.143 464.902 853.144 471.533 853.144 479.164V541.848C855.688 543.484 857.777 545.3 859.412 547.299ZM889.119 614.889C898.749 617.251 909.287 618.432 920.734 618.432C932.18 618.432 942.718 617.251 952.348 614.889C961.978 612.527 970.336 608.166 977.422 601.807C984.689 595.266 988.323 587.09 988.323 577.278V574.553C988.323 559.473 994.228 551.932 1006.04 551.932V545.391C1002.77 545.391 1000.22 545.573 998.407 545.936C996.772 546.118 994.501 547.208 991.594 549.207C988.868 551.024 986.325 553.84 983.963 557.656C979.965 556.747 975.968 553.658 971.971 548.389C968.7 553.113 964.522 556.202 959.434 557.656C957.254 553.84 954.801 551.024 952.076 549.207C949.35 547.208 947.079 546.118 945.262 545.936C943.445 545.573 940.901 545.391 937.631 545.391V551.932C943.627 551.932 947.897 553.658 950.44 557.111C952.984 560.563 954.256 564.015 954.256 567.467C954.256 577.278 951.076 585 944.717 590.633C938.358 596.084 930.363 598.809 920.734 598.809C911.104 598.809 903.109 596.084 896.75 590.633C890.391 585 887.211 577.278 887.211 567.467C887.211 564.015 888.483 560.563 891.027 557.111C893.571 553.658 897.84 551.932 903.836 551.932V545.391C900.566 545.391 898.022 545.573 896.205 545.936C894.388 546.118 892.117 547.208 889.392 549.207C886.666 551.024 884.213 553.84 882.033 557.656C877.309 556.747 873.13 553.658 869.496 548.389C865.862 553.113 861.865 556.202 857.505 557.656C855.143 553.84 852.508 551.024 849.601 549.207C846.876 547.208 844.604 546.118 842.788 545.936C841.152 545.573 838.699 545.391 835.429 545.391V551.932C847.239 551.932 853.144 559.473 853.144 574.553V577.278C853.144 587.09 856.687 595.266 863.773 601.807C871.041 608.166 879.489 612.527 889.119 614.889ZM912.285 502.875V539.668L924.822 554.658V574.553C921.733 574.735 919.28 575.007 917.463 575.371C915.646 575.552 913.648 576.461 911.467 578.096C909.469 579.731 908.469 582.093 908.469 585.182C908.469 588.998 912.103 590.905 919.371 590.905C926.639 590.905 932.453 589.452 936.813 586.545C941.356 583.456 944.354 579.459 945.807 574.553H943.899L930.272 558.201V538.305C936.087 538.305 940.266 538.396 942.809 538.578V486.523C942.809 485.069 941.81 483.888 939.811 482.98C937.813 481.89 935.996 481.345 934.361 481.345C927.638 481.345 922.278 483.253 918.281 487.068C914.284 490.702 912.285 495.971 912.285 502.875ZM1012.83 432.56H1096.23L1109.31 448.368V432.56H1192.44L1206.06 448.913V487.341H1187.53L1156.19 544.574L1157.82 547.299C1161.82 541.303 1171.45 538.305 1186.71 538.305L1200.34 554.658L1203.61 574.28C1193.8 574.28 1188.89 578.641 1188.89 587.362C1188.89 592.631 1189.53 595.266 1190.8 595.266C1193.89 595.266 1195.62 594.357 1195.98 592.541L1204.7 597.719L1218.33 614.071C1218.33 622.792 1216.15 629.242 1211.79 633.421C1207.61 637.6 1202.16 639.69 1195.43 639.69C1188.89 639.69 1181.35 637.419 1172.81 632.876C1166.09 637.419 1159.55 639.69 1153.19 639.69C1143.2 639.69 1133.75 635.238 1124.85 626.335C1116.12 617.432 1110.22 607.894 1107.13 597.719L1113.67 592.541C1115.13 594.357 1117.21 595.266 1119.94 595.266C1125.94 595.266 1128.93 591.723 1128.93 584.637L1128.12 578.369C1124.66 576.552 1120.39 575.643 1115.31 575.643C1110.4 575.643 1105.68 577.097 1101.14 580.004C1096.59 582.911 1093.5 587.09 1091.87 592.541L1098.41 597.719L1112.04 614.071C1109.49 622.611 1105.22 628.97 1099.23 633.149C1093.41 637.509 1087.14 639.69 1080.42 639.69C1073.88 639.69 1066.98 637.419 1059.71 632.876C1051.53 637.419 1043.99 639.69 1037.09 639.69C1027.64 639.69 1019.28 635.147 1012.01 626.063C1004.93 616.978 1001.39 607.53 1001.39 597.719L1009.83 592.541C1010.2 594.357 1011.92 595.266 1015.01 595.266C1018.28 595.266 1021.37 593.086 1024.28 588.725C1027.37 584.364 1029.28 579.55 1030 574.28L1015.56 557.928L1018.83 538.305C1034.27 538.305 1044.08 541.394 1048.26 547.572C1050.62 546.481 1052.99 544.392 1055.35 541.303L1062.98 527.949L1040.36 487.341H1026.46L1012.83 470.988V432.56ZM1184.8 463.357V440.191H1116.67V463.357H1134.11L1106.31 514.049H1099.5L1071.16 463.357H1088.6V440.191H1020.46V463.357H1036.54L1072.25 528.221L1064.07 542.938C1065.34 545.482 1066.52 547.027 1067.61 547.572C1074.52 540.667 1086.15 537.215 1102.5 537.215C1119.03 537.215 1130.57 540.667 1137.11 547.572C1139.11 546.481 1140.47 544.937 1141.2 542.938L1133.29 528.221L1168.45 463.357H1184.8ZM1158.37 606.713C1166.36 612.89 1173.99 615.979 1181.26 615.979C1188.71 615.979 1193.62 611.255 1195.98 601.807C1195.07 602.534 1193.8 602.897 1192.16 602.897C1185.26 602.897 1179.35 599.536 1174.45 592.813C1169.72 585.909 1167.36 579.368 1167.36 573.19C1167.36 560.29 1172.36 553.113 1182.35 551.66L1181.26 545.119C1177.81 545.119 1175.17 545.3 1173.36 545.664C1171.72 545.846 1169.72 546.936 1167.36 548.934C1165 550.751 1163 553.658 1161.37 557.656C1157.19 556.929 1152.46 553.84 1147.19 548.389C1145.92 550.751 1144.38 552.75 1142.56 554.385C1140.93 555.839 1139.02 556.929 1136.84 557.656C1129.75 548.934 1118.31 544.574 1102.5 544.574C1086.69 544.574 1075.43 548.934 1068.7 557.656C1064.52 556.929 1060.98 553.84 1058.07 548.389C1053.71 553.113 1049.17 556.202 1044.45 557.656C1042.81 553.658 1040.72 550.751 1038.18 548.934C1035.82 546.936 1033.73 545.846 1031.91 545.664C1030.09 545.3 1027.55 545.119 1024.28 545.119L1023.19 551.66C1028.28 552.387 1032 554.567 1034.36 558.201C1036.91 561.653 1038.18 566.559 1038.18 572.918C1038.18 579.277 1035.73 585.909 1030.82 592.813C1026.1 599.536 1020.37 602.897 1013.65 602.897L1009.83 601.807C1012.2 611.255 1016.92 615.979 1024.01 615.979C1031.27 615.979 1039 612.89 1047.17 606.713H1048.81C1054.99 612.89 1061.16 615.979 1067.34 615.979C1075.52 615.979 1082.6 611.255 1088.6 601.807C1087.14 602.534 1085.51 602.897 1083.69 602.897C1073.52 602.897 1068.43 597.628 1068.43 587.09C1068.43 576.552 1071.88 568.285 1078.79 562.289C1085.69 556.111 1093.69 553.022 1102.77 553.022C1111.85 553.022 1119.85 556.111 1126.75 562.289C1133.66 568.285 1137.11 576.552 1137.11 587.09C1137.11 597.628 1132.02 602.897 1121.85 602.897L1116.67 601.807C1122.48 611.255 1129.66 615.979 1138.2 615.979C1144.56 615.979 1150.74 612.89 1156.73 606.713H1158.37ZM1109.86 487.341H1097.86L1105.5 502.603L1116.94 479.982L1109.86 471.806V487.341ZM1254.88 604.26V623.882C1254.88 629.152 1252.52 633.058 1247.79 635.602C1243.07 638.327 1237.89 639.69 1232.26 639.69C1224.08 639.69 1216.45 635.874 1209.37 628.243C1202.28 620.794 1198.74 613.889 1198.74 607.53V587.907C1198.74 582.638 1201.1 578.732 1205.82 576.188C1210.55 573.463 1215.73 572.1 1221.36 572.1C1230.08 572.1 1237.8 575.371 1244.52 581.912C1251.43 588.271 1254.88 595.72 1254.88 604.26ZM1206.1 603.715C1206.1 611.891 1211.18 615.979 1221.36 615.979C1231.53 615.979 1236.62 611.891 1236.62 603.715V591.723C1236.62 583.547 1231.53 579.459 1221.36 579.459C1211.18 579.459 1206.1 583.547 1206.1 591.723V603.715ZM1429.24 498.515V538.305H1432.78L1446.41 554.658V574.553C1439.14 574.553 1434.51 576.007 1432.51 578.914C1430.51 581.821 1429.51 586.817 1429.51 593.903C1429.51 624.428 1404.98 639.69 1355.93 639.69C1342.66 639.69 1332.94 638.872 1326.77 637.237C1320.59 635.602 1314.86 632.876 1309.6 629.061C1302.87 636.147 1295.42 639.69 1287.25 639.69C1276.53 639.69 1267.08 635.147 1258.9 626.063C1250.91 616.978 1246.18 607.439 1244.73 597.446L1252.09 592.541C1253.18 593.994 1255.18 594.721 1258.09 594.721C1260.99 594.721 1263.35 593.631 1265.17 591.45C1266.99 589.088 1268.08 586.726 1268.44 584.364C1268.81 581.821 1268.99 578.55 1268.99 574.553H1265.72L1252.09 558.201V538.305C1260.08 538.305 1265.72 538.578 1268.99 539.123V487.341H1266.81L1253.18 470.988V432.56H1346.93C1368.74 432.56 1387.54 437.466 1403.35 447.277C1411.34 452.365 1417.61 459.36 1422.15 468.263C1426.88 476.984 1429.24 487.068 1429.24 498.515ZM1381.82 547.299C1383.63 545.846 1385.72 543.665 1388.09 540.758H1395.44C1397.44 544.029 1399.53 546.209 1401.71 547.299C1403.53 544.937 1405.62 543.12 1407.98 541.848V482.435C1407.98 467.9 1402.17 457.271 1390.54 450.548C1378.91 443.644 1364.38 440.191 1346.93 440.191H1260.81V463.357H1277.16V542.121C1278.98 543.029 1280.98 544.755 1283.16 547.299C1284.61 546.391 1286.7 544.21 1289.43 540.758H1296.51C1298.88 544.029 1300.96 546.209 1302.78 547.299C1305.51 544.029 1308.6 541.757 1312.05 540.486V463.357H1342.03C1351.11 463.357 1358.38 465.719 1363.83 470.443C1369.28 475.167 1372.01 481.981 1372.01 490.884V540.213C1375.82 541.667 1379.09 544.029 1381.82 547.299ZM1373.91 567.467C1373.91 586.181 1363.29 595.538 1342.03 595.538C1320.95 595.538 1310.41 586.181 1310.41 567.467C1310.41 564.197 1311.68 560.835 1314.23 557.383C1316.95 553.749 1321.31 551.932 1327.31 551.932V545.391C1324.04 545.391 1321.5 545.573 1319.68 545.936C1317.86 546.118 1315.59 547.208 1312.87 549.207C1310.14 551.024 1307.6 553.84 1305.23 557.656C1300.87 556.747 1296.79 553.658 1292.97 548.389C1289.34 553.113 1285.34 556.202 1280.98 557.656C1278.62 553.84 1276.07 551.024 1273.35 549.207C1270.62 547.208 1268.35 546.118 1266.53 545.936C1264.72 545.573 1262.17 545.391 1258.9 545.391V551.932C1270.53 551.932 1276.35 559.473 1276.35 574.553C1276.35 580.367 1275.98 585 1275.26 588.452C1274.71 591.905 1272.98 595.084 1270.08 597.991C1267.35 600.898 1263.26 602.352 1257.81 602.352L1253.18 601.807C1257.54 611.255 1264.17 615.979 1273.07 615.979C1277.25 615.979 1280.89 614.98 1283.98 612.981C1287.25 610.982 1290.88 607.803 1294.88 603.442H1297.06C1301.96 607.803 1307.41 610.891 1313.41 612.708C1319.59 614.525 1329.22 615.434 1342.3 615.434C1386.27 615.434 1408.25 602.715 1408.25 577.278C1408.25 560.381 1414.07 551.932 1425.7 551.932V545.391C1422.43 545.391 1419.88 545.573 1418.07 545.936C1416.43 546.118 1414.25 547.208 1411.52 549.207C1408.8 551.024 1406.26 553.84 1403.89 557.656C1399.71 556.747 1395.72 553.658 1391.9 548.389C1388.27 553.113 1384 556.202 1379.09 557.656C1376.73 553.84 1374.19 551.024 1371.46 549.207C1368.92 547.208 1366.74 546.118 1364.92 545.936C1363.29 545.573 1360.74 545.391 1357.29 545.391V551.932C1363.29 551.932 1367.56 553.658 1370.1 557.111C1372.64 560.563 1373.91 564.015 1373.91 567.467ZM1350.2 538.305C1356.93 538.305 1361.65 538.487 1364.38 538.85V491.974L1364.1 488.431C1361.92 487.704 1359.11 487.341 1355.65 487.341H1333.31V538.305H1334.4L1348.02 554.658V574.553C1337.3 574.916 1331.94 578.459 1331.94 585.182V586.545C1334.85 587.271 1338.3 587.635 1342.3 587.635C1355.56 587.635 1363.38 583.274 1365.74 574.553H1363.83L1350.2 558.201V538.305ZM1579.87 579.459L1580.42 590.905C1580.42 607.984 1574.51 620.885 1562.7 629.606C1551.07 638.509 1537.26 642.96 1521.27 642.96C1516.37 642.96 1511.46 642.324 1506.56 641.052C1501.65 639.781 1497.93 638.418 1495.38 636.964C1492.84 635.692 1489.75 633.966 1486.12 631.786C1482.67 629.787 1480.76 628.697 1480.39 628.516L1473.85 624.7C1470.04 628.516 1464.95 631.968 1458.59 635.057C1452.41 638.145 1446.87 639.69 1441.97 639.69L1428.34 623.337L1423.43 615.706C1426.7 613.889 1428.34 609.892 1428.34 603.715V554.658H1459.95L1473.58 571.01V579.459L1474.67 587.362C1478.49 589.724 1484.39 590.905 1492.39 590.905C1500.56 590.905 1505.56 587.09 1507.38 579.459C1504.47 581.094 1502.47 582.457 1501.38 583.547L1474.94 551.932L1479.58 547.844C1471.76 542.938 1465.5 538.76 1460.77 535.307C1456.23 531.855 1450.78 527.04 1444.42 520.863C1431.7 508.871 1425.34 494.881 1425.34 478.892C1425.34 462.721 1431.43 450.457 1443.6 442.099C1455.96 433.56 1470.22 429.29 1486.39 429.29C1495.11 429.29 1502.92 430.653 1509.83 433.378C1516.73 435.922 1521.46 438.556 1524 441.282L1527.82 445.097V432.56H1561.61L1575.24 448.913V509.961H1543.35L1529.72 493.609L1525.91 481.072C1522.82 479.437 1519.19 478.619 1515.01 478.619C1510.83 478.619 1507.28 480.073 1504.38 482.98C1501.65 485.887 1500.29 489.884 1500.29 494.972L1500.56 497.425C1501.11 497.97 1506.1 500.513 1515.55 505.056C1525.18 509.416 1534.36 514.685 1543.08 520.863C1551.8 526.859 1557.25 532.855 1559.43 538.85C1562.16 538.487 1567.06 538.305 1574.15 538.305L1587.77 554.658V574.553C1582.51 574.553 1579.87 576.188 1579.87 579.459ZM1433.52 476.712C1433.52 485.615 1435.79 493.609 1440.33 500.695C1445.05 507.599 1450.14 512.868 1455.59 516.502C1461.04 519.954 1468.04 524.042 1476.58 528.766C1485.12 533.49 1491.11 537.124 1494.57 539.668C1497.84 538.76 1501.11 538.305 1504.38 538.305C1511.46 538.305 1518.28 541.031 1524.82 546.481L1529.72 541.031H1536.54C1538.9 544.119 1540.99 546.209 1542.81 547.299C1544.99 544.574 1547.71 542.484 1550.98 541.031C1547.17 534.308 1540.99 528.221 1532.45 522.771C1523.91 517.138 1515.73 512.778 1507.92 509.689C1500.29 506.6 1493.38 502.421 1487.21 497.152C1481.21 491.701 1478.21 485.524 1478.21 478.619C1478.21 474.077 1479.21 469.898 1481.21 466.083C1485.39 458.452 1492.29 454.636 1501.92 454.636C1517.91 454.636 1529.27 465.083 1535.99 485.978H1555.34V440.191H1534.63V459.269H1532.99C1521.18 444.552 1505.74 437.193 1486.66 437.193C1472.31 437.193 1459.86 440.827 1449.32 448.095C1438.79 455.181 1433.52 464.72 1433.52 476.712ZM1558.89 575.098L1558.34 563.106C1558.34 555.475 1561.34 551.66 1567.33 551.66V544.846C1563.88 544.846 1561.25 545.028 1559.43 545.391C1557.79 545.573 1555.61 546.663 1552.89 548.662C1550.16 550.66 1547.62 553.658 1545.26 557.656C1540.9 556.929 1536.9 553.84 1533.27 548.389C1529.81 552.568 1526.18 555.203 1522.36 556.293C1517.28 548.662 1510.37 544.846 1501.65 544.846C1496.02 544.846 1490.48 547.39 1485.03 552.477L1489.12 557.656C1492.57 554.93 1496.11 553.568 1499.74 553.568C1503.38 553.568 1506.56 554.658 1509.28 556.838C1512.19 559.018 1513.92 561.562 1514.46 564.469C1515.19 567.376 1515.55 570.647 1515.55 574.28C1515.55 577.733 1515.01 581.094 1513.92 584.364C1513.01 587.635 1510.65 590.905 1506.83 594.176C1503.01 597.265 1498.02 598.809 1491.84 598.809C1481.48 598.809 1472.58 595.72 1465.13 589.543C1457.68 583.365 1453.41 574.371 1452.32 562.561H1436.24V600.989C1436.24 608.439 1435.33 612.981 1433.52 614.616C1436.97 614.071 1441.6 611.982 1447.42 608.348C1453.41 604.714 1457.14 601.534 1458.59 598.809C1461.13 600.444 1464.77 602.715 1469.49 605.622C1483.85 614.525 1496.38 618.977 1507.1 618.977C1521.64 618.977 1533.9 615.252 1543.9 607.803C1553.89 600.172 1558.89 589.27 1558.89 575.098ZM1693.04 547.299C1694.86 545.846 1696.95 543.665 1699.31 540.758H1706.4C1708.58 544.029 1710.67 546.209 1712.67 547.299C1715.94 543.302 1719.66 540.849 1723.84 539.941C1728.2 538.85 1734.83 538.305 1743.73 538.305L1757.36 554.658V574.553C1750.46 574.553 1745.91 575.825 1743.73 578.369C1741.55 580.912 1740.46 584.819 1740.46 590.088V594.448C1741.74 594.267 1742.83 593.631 1743.73 592.541L1751.09 597.446L1764.72 613.799C1763.45 622.338 1760.27 628.788 1755.18 633.149C1750.09 637.509 1743.55 639.69 1735.56 639.69C1727.56 639.69 1720.21 636.147 1713.48 629.061C1709.12 632.331 1705.67 634.693 1703.13 636.147C1700.76 637.6 1696.4 639.054 1690.04 640.507C1683.69 642.143 1674.42 642.96 1662.25 642.96C1650.07 642.96 1637.63 640.871 1624.91 636.692C1612.37 632.695 1601.74 625.609 1593.02 615.434C1584.3 605.259 1579.94 592.631 1579.94 577.551V574.553H1576.67L1563.04 558.201V538.305C1571.04 538.305 1576.67 538.578 1579.94 539.123V478.619C1579.94 457.361 1591.02 442.917 1613.19 435.286C1624.45 431.288 1636.81 429.29 1650.25 429.29C1663.7 429.29 1675.42 430.562 1685.41 433.105C1695.4 435.467 1704.58 439.192 1712.94 444.279C1721.48 449.185 1728.2 455.999 1733.11 464.72C1738.01 473.441 1740.46 483.525 1740.46 494.972V522.498H1687.59L1673.96 506.146V486.523L1673.69 482.162C1672.06 481.617 1669.69 481.345 1666.61 481.345C1653.16 481.345 1646.44 488.522 1646.44 502.875V539.395L1659.25 554.658V574.553C1656.16 574.735 1653.62 575.007 1651.62 575.371C1649.8 575.552 1647.89 576.461 1645.89 578.096C1643.89 579.731 1642.9 582.093 1642.9 585.182L1643.17 589.27C1646.07 590.36 1650.07 590.905 1655.16 590.905C1660.43 590.905 1665.06 589.452 1669.06 586.545C1673.24 583.638 1675.87 579.64 1676.96 574.553H1675.05L1661.43 558.201V538.305C1667.61 538.305 1672.15 538.396 1675.05 538.578C1683.05 539.123 1689.05 542.03 1693.04 547.299ZM1594.11 547.299C1596.29 546.027 1598.38 543.847 1600.38 540.758H1607.74C1610.1 544.029 1612.19 546.209 1614.01 547.299C1617.28 543.484 1621 541.031 1625.18 539.941V486.25C1625.18 476.802 1627.63 469.535 1632.54 464.447C1637.44 459.36 1644.35 456.816 1653.25 456.816C1662.15 456.816 1669.15 459.36 1674.24 464.447C1679.32 469.353 1681.87 476.621 1681.87 486.25V498.515H1719.21V479.164C1719.21 469.171 1715.75 460.904 1708.85 454.363C1702.13 447.822 1694.04 443.371 1684.59 441.009C1675.15 438.465 1665.43 437.193 1655.43 437.193C1645.44 437.193 1636.72 437.92 1629.27 439.374C1622 440.827 1615.1 443.098 1608.56 446.187C1602.2 449.276 1597.11 453.637 1593.29 459.269C1589.48 464.902 1587.57 471.533 1587.57 479.164V541.576C1590.11 543.029 1592.29 544.937 1594.11 547.299ZM1676.69 590.633C1670.88 596.084 1663.15 598.809 1653.52 598.809C1643.89 598.809 1636.17 596.084 1630.36 590.633C1624.73 585.182 1621.91 577.46 1621.91 567.467C1621.91 564.015 1623.18 560.563 1625.73 557.111C1628.27 553.658 1632.54 551.932 1638.53 551.932V545.391C1635.08 545.391 1632.45 545.573 1630.63 545.936C1629 546.118 1626.82 547.208 1624.09 549.207C1621.55 551.024 1619.09 553.84 1616.73 557.656C1612.19 556.747 1607.92 553.658 1603.92 548.389C1600.65 553.113 1596.65 556.202 1591.93 557.656C1589.57 553.84 1587.02 551.024 1584.3 549.207C1581.57 547.208 1579.3 546.118 1577.49 545.936C1575.85 545.573 1573.4 545.391 1570.13 545.391V551.932C1581.76 551.932 1587.57 560.381 1587.57 577.278C1587.57 587.09 1591.02 595.175 1597.93 601.534C1610.1 612.981 1628.63 618.704 1653.52 618.704C1662.25 618.704 1669.69 617.887 1675.87 616.251C1682.23 614.434 1686.59 612.708 1688.95 611.073C1691.5 609.438 1694.77 606.894 1698.77 603.442H1700.95C1704.94 607.803 1708.49 610.982 1711.57 612.981C1714.85 614.98 1718.57 615.979 1722.75 615.979C1731.65 615.979 1738.28 611.255 1742.64 601.807C1741.55 602.17 1740.01 602.352 1738.01 602.352C1732.56 602.352 1728.38 600.898 1725.47 597.991C1722.75 595.084 1721.02 591.905 1720.3 588.452C1719.75 585 1719.48 580.367 1719.48 574.553C1719.48 559.473 1725.29 551.932 1736.92 551.932V545.391C1733.65 545.391 1731.11 545.573 1729.29 545.936C1727.47 546.118 1725.2 547.208 1722.48 549.207C1719.75 551.024 1717.21 553.84 1714.85 557.656C1710.85 556.747 1706.85 553.658 1702.85 548.389C1699.58 553.113 1695.5 556.202 1690.59 557.656C1688.23 553.84 1685.68 551.024 1682.96 549.207C1680.23 547.208 1677.96 546.118 1676.14 545.936C1674.33 545.573 1671.78 545.391 1668.51 545.391V551.932C1674.51 551.932 1678.78 553.749 1681.32 557.383C1684.05 560.835 1685.41 564.197 1685.41 567.467C1685.41 577.46 1682.5 585.182 1676.69 590.633ZM1907.17 631.514C1904.81 632.604 1903.27 635.329 1902.54 639.69C1894.18 639.69 1884.92 635.329 1874.74 626.608C1869.84 622.429 1865.66 616.524 1862.21 608.893C1858.94 601.08 1857.3 592.45 1857.3 583.002V574.553H1854.03L1844.76 563.379V574.553C1837.68 574.553 1833.04 575.825 1830.86 578.369C1828.87 580.912 1827.87 585 1827.87 590.633V594.721C1829.14 594.721 1830.23 593.994 1831.14 592.541L1838.77 597.446L1852.39 613.799C1851.3 622.338 1848.22 628.788 1843.13 633.149C1838.04 637.509 1831.86 639.69 1824.6 639.69C1817.51 639.69 1810.51 637.237 1803.61 632.331C1796.71 637.237 1789.53 639.69 1782.08 639.69C1774.81 639.69 1766.45 635.329 1757.01 626.608C1747.56 617.887 1742.29 608.166 1741.2 597.446L1748.83 592.541C1749.56 594.176 1751.28 594.993 1754.01 594.993C1761.82 594.993 1765.73 588.18 1765.73 574.553H1762.46L1748.83 558.201V538.305C1756.1 538.305 1761.18 538.487 1764.09 538.85V487.341H1761.91L1748.28 470.988V432.56H1812.06L1873.11 505.328V487.341H1870.11L1856.48 470.988V432.56H1939.33L1952.96 448.913V487.341H1936.61V538.305H1939.06L1952.69 554.658V574.553C1945.6 574.553 1941.06 575.825 1939.06 578.369C1937.06 580.912 1936.06 585 1936.06 590.633V594.721C1937.34 594.357 1938.33 593.631 1939.06 592.541L1960.32 613.799C1959.23 622.338 1956.05 628.788 1950.78 633.149C1945.69 637.509 1940.42 639.69 1934.97 639.69C1929.52 639.69 1924.25 638.872 1919.17 637.237C1914.08 635.783 1910.08 633.876 1907.17 631.514ZM1779.9 547.299C1781.72 546.209 1783.9 544.029 1786.44 540.758H1793.53C1795.89 544.029 1798.07 546.209 1800.07 547.299C1802.07 544.755 1804.52 542.757 1807.43 541.303V489.248H1815.06L1854.85 538.85C1862.3 539.759 1867.93 542.575 1871.74 547.299C1873.56 546.209 1875.74 544.029 1878.29 540.758H1900.91C1903.27 544.029 1905.54 546.209 1907.72 547.299C1910.08 544.755 1912.44 542.848 1914.81 541.576V463.357H1931.7V440.191H1864.11V463.357H1880.47V520.59H1871.2L1803.61 440.191H1755.92V463.357H1772.27V541.031C1775.17 542.484 1777.72 544.574 1779.9 547.299ZM1918.89 615.161C1927.8 615.161 1933.97 610.619 1937.43 601.534C1936.34 602.261 1934.97 602.624 1933.34 602.624C1927.89 602.624 1923.62 601.171 1920.53 598.264C1917.62 595.175 1915.8 591.905 1915.08 588.452C1914.53 584.819 1914.26 580.185 1914.26 574.553C1914.26 559.291 1920.17 551.66 1931.98 551.66V544.846C1928.71 544.846 1926.16 545.028 1924.34 545.391C1922.71 545.573 1920.44 546.663 1917.53 548.662C1914.81 550.66 1912.26 553.658 1909.9 557.656C1905.54 556.747 1901.45 553.568 1897.64 548.117H1881.56C1877.74 553.204 1873.65 556.384 1869.29 557.656C1866.93 553.658 1864.39 550.66 1861.66 548.662C1858.94 546.663 1856.66 545.573 1854.85 545.391C1853.21 545.028 1850.76 544.846 1847.49 544.846V551.66C1859.12 551.66 1864.93 559.291 1864.93 574.553V581.639C1864.93 595.811 1869.56 605.895 1878.83 611.891C1880.65 612.981 1882.28 613.708 1883.74 614.071C1885.19 608.984 1888.19 606.44 1892.73 606.44C1895.82 608.984 1900.09 611.073 1905.54 612.708C1910.99 614.344 1915.44 615.161 1918.89 615.161ZM1790.8 606.713C1797.34 612.345 1804.52 615.161 1812.33 615.161C1820.33 615.161 1826.14 610.619 1829.77 601.534C1828.5 602.261 1827.05 602.624 1825.41 602.624C1812.69 602.624 1806.34 593.267 1806.34 574.553C1806.34 559.291 1812.33 551.66 1824.32 551.66V544.846C1820.87 544.846 1818.24 545.028 1816.42 545.391C1814.6 545.573 1812.33 546.663 1809.61 548.662C1806.88 550.66 1804.43 553.658 1802.25 557.656C1797.89 556.747 1793.8 553.568 1789.98 548.117C1786.17 553.022 1782.08 556.202 1777.72 557.656C1775.36 553.658 1772.81 550.66 1770.09 548.662C1767.36 546.663 1765.09 545.573 1763.27 545.391C1761.46 545.028 1758.91 544.846 1755.64 544.846V551.66C1767.63 551.66 1773.63 559.291 1773.63 574.553C1773.63 588.362 1770.72 596.992 1764.91 600.444C1762.18 601.898 1758.73 602.624 1754.55 602.624L1750.19 601.534C1753.83 610.619 1759.55 615.161 1767.36 615.161C1775.36 615.161 1782.62 612.345 1789.17 606.713H1790.8ZM1828.41 538.305H1831.14L1840.4 549.479V538.305H1844.22L1828.41 518.41V538.305Z" fill="black"/>
</svg>
