<svg width="2133" height="1003" viewBox="0 0 2133 1003" fill="none" xmlns="http://www.w3.org/2000/svg">
<path d="M253.071 394.88V535.489H309.315V535.629H323.376V521.428H337.437V408.94H323.376V394.88H253.071ZM224.95 563.47V366.617H337.296V380.678H351.498V394.739H365.559V535.348H351.498V549.409H337.437V563.61H309.315V563.47H224.95ZM519.891 366.758V394.88H407.404V451.123H491.769V479.245H407.404V535.489H519.891V563.61H379.282V366.758H519.891ZM561.737 394.88V535.489H617.98V535.629H632.041V521.428H646.102V408.94H632.041V394.88H561.737ZM533.615 563.47V366.617H645.961V380.678H660.163V394.739H674.224V535.348H660.163V549.409H646.102V563.61H617.98V563.47H533.615ZM716.069 394.88V451.123H786.374V437.062H800.435V408.94H786.374V394.88H716.069ZM730.13 479.245H716.069V563.61H687.947V366.758H800.435V380.819H814.495V394.88H828.556V451.123H814.495V465.184H800.435V479.245H772.313V493.306H786.374V507.367H800.435V521.287H814.495V535.489H828.556V563.61H800.435V549.409H786.374V535.489H772.313V521.428H758.252V507.367H744.191V493.306H730.13V479.245ZM940.706 394.88H884.463V408.94H870.402V521.428H884.463V535.489H940.847V521.568H954.767V408.94H940.706V394.88ZM870.402 380.819V366.758H954.767V380.819H968.828V394.88H982.889V535.489H968.969V549.69H954.767V563.61H870.402V549.55H856.341V535.489H842.28V394.88H856.341V380.819H870.402ZM1024.73 521.428V563.61H996.612V507.367H1010.67V493.306H1024.73V479.245H1038.8V451.123H1024.73V437.062H1010.67V423.001H996.612V366.758H1024.73V408.94H1038.8V423.001H1052.86V437.062H1080.98V423.001H1095.04V408.94H1109.1V366.758H1137.22V423.001H1123.16V437.062H1109.1V451.123H1095.04V479.245H1109.1V493.306H1123.16V507.367H1137.22V563.61H1109.1V521.428H1095.04V507.367H1080.98V493.306H1052.86V507.367H1038.8V521.428H1024.73ZM1221.25 535.489V563.61H1193.13V535.489H1221.25ZM1333.4 394.88V535.489H1389.64V535.629H1403.7V521.428H1417.77V408.94H1403.7V394.88H1333.4ZM1305.28 563.47V366.617H1417.62V380.678H1431.83V394.739H1445.89V535.348H1431.83V549.409H1417.77V563.61H1389.64V563.47H1305.28ZM1586.16 394.88H1600.22V423.001H1572.1V408.94H1558.04V394.88H1501.79V408.94H1487.73V437.062H1501.79V451.123H1572.1V465.184H1586.16V479.245H1600.22V535.489H1586.16V549.55H1572.1V563.61H1487.73V549.55H1473.67V535.489H1459.61V507.367H1487.73V521.428H1501.79V535.489H1558.04V521.428H1572.1V493.306H1558.04V479.245H1487.73V465.184H1473.67V451.123H1459.61V394.88H1473.67V380.819H1487.73V366.758H1572.1V380.819H1586.16V394.88ZM1740.63 394.88H1754.69V423.001H1726.57V408.94H1712.51V394.88H1656.27V408.94H1642.06V423.001H1642.35V451.123H1642.21V507.367H1642.06V521.428H1656.27V535.489H1698.45V535.629H1712.51V521.428H1726.57V479.245H1684.39V451.123H1754.69V535.489H1740.63V549.55H1726.57V563.751H1698.45V563.61H1642.21V549.55H1628.14V535.489H1613.94V507.367H1614.08V451.123H1614.22V423.001H1613.94V394.88H1628.14V380.819H1642.35V366.758H1726.57V380.819H1740.63V394.88ZM1796.68 451.123V563.61H1768.56V366.758H1796.68V408.8H1810.74V423.001H1824.8V437.062H1838.86V451.123H1852.92V465.184H1866.98V479.245H1881.04V366.758H1909.17V563.61H1881.04V521.428H1866.98V507.367H1852.92V493.306H1838.86V479.245H1824.8V465.184H1810.74V451.123H1796.68Z" fill="black"/>
<path d="M865.041 709.757H862.327V677.187H867.755V707.043H870.469V709.757H881.326V707.043H884.04V677.187H889.469V709.757H886.754V712.471H884.04V715.185H867.755V712.471H865.041V709.757ZM897.546 693.472V715.185H892.118V677.187H897.546V685.302H900.26V688.044H902.974V690.758H905.689V693.472H908.403V696.186H911.117V698.9H913.831V677.187H919.26V715.185H913.831V707.043H911.117V704.329H908.403V701.614H905.689V698.9H902.974V696.186H900.26V693.472H897.546ZM927.337 715.185V709.757H932.765V682.615H927.337V677.187H943.622V682.615H938.194V709.757H943.622V715.185H927.337ZM962.556 682.615H951.7V677.187H978.842V682.615H967.985V715.185H962.556V682.615ZM1008.63 677.187V682.615H986.919V693.472H1003.2V698.9H986.919V709.757H1008.63V715.185H981.491V677.187H1008.63ZM1016.71 682.615V709.757H1027.57V709.784H1030.28V707.043H1033V685.329H1030.28V682.615H1016.71ZM1011.28 715.158V677.16H1032.97V679.874H1035.71V682.588H1038.42V709.73H1035.71V712.444H1033V715.185H1027.57V715.158H1011.28ZM1076.29 698.9V715.185H1070.86V677.187H1076.29V693.472H1079.01V690.758H1081.72V688.044H1084.43V685.329H1087.15V682.615H1089.86V679.901H1092.58V677.187H1098.01V682.615H1095.29V685.329H1092.58V688.044H1089.86V690.758H1087.15V693.472H1084.43V698.9H1087.15V701.614H1089.86V704.329H1092.58V707.043H1095.29V709.757H1098.01V715.185H1092.58V712.471H1089.86V709.757H1087.15V707.043H1084.43V704.329H1081.72V701.614H1079.01V698.9H1076.29ZM1106.08 715.185V709.757H1111.51V682.615H1106.08V677.187H1122.37V682.615H1116.94V709.757H1122.37V715.185H1106.08ZM1135.87 693.472V715.185H1130.45V677.187H1135.87V685.302H1138.59V688.044H1141.3V690.758H1144.02V693.472H1146.73V696.186H1149.44V698.9H1152.16V677.187H1157.59V715.185H1152.16V707.043H1149.44V704.329H1146.73V701.614H1144.02V698.9H1141.3V696.186H1138.59V693.472H1135.87ZM1184.69 682.615H1187.41V688.044H1181.98V685.329H1179.26V682.615H1168.41V685.329H1165.66V688.044H1165.72V693.472H1165.69V704.329H1165.66V707.043H1168.41V709.757H1176.55V709.784H1179.26V707.043H1181.98V698.9H1173.83V693.472H1187.41V709.757H1184.69V712.471H1181.98V715.213H1176.55V715.185H1165.69V712.471H1162.98V709.757H1160.24V704.329H1160.26V693.472H1160.29V688.044H1160.24V682.615H1162.98V679.901H1165.72V677.187H1181.98V679.901H1184.69V682.615ZM1195.51 682.615V709.757H1206.37V709.784H1209.08V707.043H1211.8V685.329H1209.08V682.615H1195.51ZM1190.08 715.158V677.16H1211.77V679.874H1214.51V682.588H1217.22V709.73H1214.51V712.444H1211.8V715.185H1206.37V715.158H1190.08ZM1238.87 682.615H1228.02V685.329H1225.3V707.043H1228.02V709.757H1238.9V707.07H1241.59V685.329H1238.87V682.615ZM1225.3 679.901V677.187H1241.59V679.901H1244.3V682.615H1247.01V709.757H1244.33V712.498H1241.59V715.185H1225.3V712.471H1222.59V709.757H1219.87V682.615H1222.59V679.901H1225.3ZM1255.12 715.185H1249.69V682.615H1249.66V677.187H1255.09V682.615H1257.83V685.329H1260.55V688.044H1265.98V685.329H1268.69V682.615H1271.43V677.214H1276.86V682.642H1276.83V715.185H1271.4V690.758H1268.69V693.472H1265.98V698.9H1260.55V693.472H1257.83V690.758H1255.12V715.185Z" fill="black"/>
</svg>
