<svg width="2133" height="1003" viewBox="0 0 2133 1003" fill="none" xmlns="http://www.w3.org/2000/svg">
<path d="M253.07 484.88V625.489H309.314V625.629H323.375V611.428H337.436V498.94H323.375V484.88H253.07ZM224.949 653.47V456.617H337.295V470.678H351.497V484.739H365.558V625.348H351.497V639.409H337.436V653.61H309.314V653.47H224.949ZM519.89 456.758V484.88H407.403V541.123H491.768V569.245H407.403V625.489H519.89V653.61H379.281V456.758H519.89ZM561.736 484.88V625.489H617.979V625.629H632.04V611.428H646.101V498.94H632.04V484.88H561.736ZM533.614 653.47V456.617H645.96V470.678H660.162V484.739H674.223V625.348H660.162V639.409H646.101V653.61H617.979V653.47H533.614ZM716.068 484.88V541.123H786.373V527.062H800.434V498.94H786.373V484.88H716.068ZM730.129 569.245H716.068V653.61H687.946V456.758H800.434V470.819H814.494V484.88H828.555V541.123H814.494V555.184H800.434V569.245H772.312V583.306H786.373V597.367H800.434V611.287H814.494V625.489H828.555V653.61H800.434V639.409H786.373V625.489H772.312V611.428H758.251V597.367H744.19V583.306H730.129V569.245ZM940.705 484.88H884.462V498.94H870.401V611.428H884.462V625.489H940.846V611.568H954.766V498.94H940.705V484.88ZM870.401 470.819V456.758H954.766V470.819H968.827V484.88H982.888V625.489H968.968V639.69H954.766V653.61H870.401V639.55H856.34V625.489H842.279V484.88H856.34V470.819H870.401ZM1024.73 611.428V653.61H996.611V597.367H1010.67V583.306H1024.73V569.245H1038.8V541.123H1024.73V527.062H1010.67V513.001H996.611V456.758H1024.73V498.94H1038.8V513.001H1052.86V527.062H1080.98V513.001H1095.04V498.94H1109.1V456.758H1137.22V513.001H1123.16V527.062H1109.1V541.123H1095.04V569.245H1109.1V583.306H1123.16V597.367H1137.22V653.61H1109.1V611.428H1095.04V597.367H1080.98V583.306H1052.86V597.367H1038.8V611.428H1024.73ZM1221.25 625.489V653.61H1193.13V625.489H1221.25ZM1333.4 484.88V625.489H1389.64V625.629H1403.7V611.428H1417.77V498.94H1403.7V484.88H1333.4ZM1305.28 653.47V456.617H1417.62V470.678H1431.83V484.739H1445.89V625.348H1431.83V639.409H1417.77V653.61H1389.64V653.47H1305.28ZM1586.16 484.88H1600.22V513.001H1572.1V498.94H1558.04V484.88H1501.79V498.94H1487.73V527.062H1501.79V541.123H1572.1V555.184H1586.16V569.245H1600.22V625.489H1586.16V639.55H1572.1V653.61H1487.73V639.55H1473.67V625.489H1459.61V597.367H1487.73V611.428H1501.79V625.489H1558.04V611.428H1572.1V583.306H1558.04V569.245H1487.73V555.184H1473.67V541.123H1459.61V484.88H1473.67V470.819H1487.73V456.758H1572.1V470.819H1586.16V484.88ZM1740.63 484.88H1754.69V513.001H1726.57V498.94H1712.51V484.88H1656.27V498.94H1642.06V513.001H1642.35V541.123H1642.21V597.367H1642.06V611.428H1656.27V625.489H1698.45V625.629H1712.51V611.428H1726.57V569.245H1684.39V541.123H1754.69V625.489H1740.63V639.55H1726.57V653.751H1698.45V653.61H1642.21V639.55H1628.14V625.489H1613.94V597.367H1614.08V541.123H1614.22V513.001H1613.94V484.88H1628.14V470.819H1642.35V456.758H1726.57V470.819H1740.63V484.88ZM1796.68 541.123V653.61H1768.56V456.758H1796.68V498.8H1810.74V513.001H1824.8V527.062H1838.86V541.123H1852.92V555.184H1866.98V569.245H1881.04V456.758H1909.17V653.61H1881.04V611.428H1866.98V597.367H1852.92V583.306H1838.86V569.245H1824.8V555.184H1810.74V541.123H1796.68Z" fill="black"/>
</svg>
